<svg id="Capa_4" data-name="Capa 4" xmlns="http://www.w3.org/2000/svg" viewBox="0 0 350 430"><defs><style>.cls-1{fill:#d6eddc;}.cls-2{fill:#9fa09f;}.cls-2,.cls-3,.cls-4,.cls-6{stroke:#000;}.cls-2,.cls-3,.cls-4,.cls-5,.cls-6,.cls-8{stroke-miterlimit:10;}.cls-2,.cls-3,.cls-4,.cls-6,.cls-8{stroke-width:0.61px;}.cls-3{fill:#8e4713;}.cls-4{fill:#ff6c49;}.cls-5{fill:#931c0a;stroke:#1d1d1b;stroke-width:0.75px;}.cls-6{fill:#ff9231;}.cls-7{font-size:54px;font-family:Myriad Pro;font-weight:700;}.cls-8{stroke:#020202;}</style></defs><title>Materiales de trabajo2</title><rect class="cls-1" width="350" height="430"/><rect class="cls-2" x="73.18" y="218.4" width="21.23" height="19.2"/><rect class="cls-2" x="94.41" y="218.4" width="21.23" height="19.2"/><rect class="cls-3" x="168.69" y="233.17" width="21.23" height="19.2" rx="6.12" ry="6.12"/><rect class="cls-2" x="115.63" y="218.4" width="21.23" height="19.2"/><rect class="cls-2" x="115.63" y="218.4" width="21.23" height="19.2"/><rect class="cls-2" x="136.86" y="218.4" width="21.23" height="19.2"/><rect class="cls-2" x="136.86" y="218.4" width="21.23" height="19.2"/><rect class="cls-2" x="200.53" y="218.4" width="21.23" height="19.2"/><rect class="cls-2" x="200.53" y="218.4" width="21.23" height="19.2"/><rect class="cls-2" x="221.76" y="218.4" width="21.23" height="19.2"/><rect class="cls-2" x="221.76" y="218.4" width="21.23" height="19.2"/><rect class="cls-2" x="264.21" y="218.4" width="21.23" height="19.2"/><rect class="cls-2" x="264.21" y="218.4" width="21.23" height="19.2"/><rect class="cls-2" x="158.08" y="218.4" width="21.23" height="19.2"/><rect class="cls-2" x="158.08" y="218.4" width="21.23" height="19.2"/><rect class="cls-2" x="179.31" y="218.4" width="21.23" height="19.2"/><rect class="cls-2" x="179.31" y="218.4" width="21.23" height="19.2"/><rect class="cls-3" x="73.18" y="237.6" width="21.23" height="19.2"/><rect class="cls-3" x="73.18" y="237.6" width="21.23" height="19.2"/><rect class="cls-3" x="94.41" y="237.6" width="21.23" height="19.2"/><rect class="cls-3" x="94.41" y="237.6" width="21.23" height="19.2"/><rect class="cls-3" x="115.63" y="237.6" width="21.23" height="19.2"/><rect class="cls-3" x="115.63" y="237.6" width="21.23" height="19.2"/><rect class="cls-3" x="136.86" y="237.6" width="21.23" height="19.2"/><rect class="cls-3" x="136.86" y="237.6" width="21.23" height="19.2"/><rect class="cls-4" x="200.53" y="237.6" width="21.23" height="19.2"/><rect class="cls-5" x="200.53" y="237.6" width="21.23" height="19.2"/><rect class="cls-4" x="221.76" y="237.6" width="21.23" height="19.2"/><rect class="cls-5" x="221.76" y="237.6" width="21.23" height="19.2"/><rect class="cls-2" x="264.21" y="237.6" width="21.23" height="19.2"/><rect class="cls-2" x="264.21" y="237.6" width="21.23" height="19.2"/><rect class="cls-3" x="158.08" y="237.6" width="21.23" height="19.2"/><rect class="cls-3" x="158.08" y="237.6" width="21.23" height="19.2"/><rect class="cls-5" x="179.31" y="237.6" width="21.23" height="19.2"/><rect class="cls-3" x="73.18" y="256.8" width="21.23" height="19.2"/><rect class="cls-3" x="73.18" y="256.8" width="21.23" height="19.2"/><rect class="cls-3" x="94.41" y="256.8" width="21.23" height="19.2"/><rect class="cls-3" x="94.41" y="256.8" width="21.23" height="19.2"/><rect class="cls-3" x="115.63" y="256.8" width="21.23" height="19.2"/><rect class="cls-3" x="115.63" y="256.8" width="21.23" height="19.2"/><rect class="cls-3" x="136.86" y="256.8" width="21.23" height="19.2"/><rect class="cls-3" x="136.86" y="256.8" width="21.23" height="19.2"/><rect class="cls-4" x="200.53" y="256.8" width="21.23" height="19.2"/><rect class="cls-4" x="200.53" y="256.8" width="21.23" height="19.2"/><rect class="cls-4" x="221.76" y="256.8" width="21.23" height="19.2"/><rect class="cls-4" x="221.76" y="256.8" width="21.23" height="19.2"/><rect class="cls-4" x="264.21" y="256.8" width="21.23" height="19.2"/><rect class="cls-4" x="264.21" y="256.8" width="21.23" height="19.2"/><rect class="cls-4" x="158.08" y="256.8" width="21.23" height="19.2"/><rect class="cls-4" x="158.08" y="256.8" width="21.23" height="19.2"/><rect class="cls-4" x="179.31" y="256.8" width="21.23" height="19.2"/><rect class="cls-4" x="179.31" y="256.8" width="21.23" height="19.2"/><rect class="cls-4" x="73.18" y="276" width="21.23" height="19.2"/><rect class="cls-4" x="73.18" y="276" width="21.23" height="19.2"/><rect class="cls-4" x="94.41" y="276" width="21.23" height="19.2"/><rect class="cls-4" x="94.41" y="276" width="21.23" height="19.2"/><rect class="cls-4" x="115.63" y="276" width="21.23" height="19.2"/><rect class="cls-4" x="115.63" y="276" width="21.23" height="19.2"/><rect class="cls-4" x="136.86" y="276" width="21.23" height="19.2"/><rect class="cls-4" x="136.86" y="276" width="21.23" height="19.2"/><rect class="cls-4" x="200.53" y="276" width="21.23" height="19.2"/><rect class="cls-4" x="200.53" y="276" width="21.23" height="19.2"/><rect class="cls-4" x="221.76" y="276" width="21.23" height="19.2"/><rect class="cls-4" x="221.76" y="276" width="21.23" height="19.2"/><rect class="cls-4" x="264.21" y="276" width="21.23" height="19.2"/><rect class="cls-4" x="264.21" y="276" width="21.23" height="19.2"/><rect class="cls-4" x="158.08" y="276" width="21.23" height="19.2"/><rect class="cls-4" x="158.08" y="276" width="21.23" height="19.2"/><rect class="cls-4" x="179.31" y="276" width="21.23" height="19.2"/><rect class="cls-4" x="179.31" y="276" width="21.23" height="19.2"/><rect class="cls-4" x="73.18" y="295.2" width="21.23" height="19.2"/><rect class="cls-4" x="73.18" y="295.2" width="21.23" height="19.2"/><rect class="cls-4" x="94.41" y="295.2" width="21.23" height="19.2"/><rect class="cls-4" x="94.41" y="295.2" width="21.23" height="19.2"/><rect class="cls-4" x="115.63" y="295.2" width="21.23" height="19.2"/><rect class="cls-4" x="115.63" y="295.2" width="21.23" height="19.2"/><rect class="cls-4" x="136.86" y="295.2" width="21.23" height="19.2"/><rect class="cls-4" x="136.86" y="295.2" width="21.23" height="19.2"/><rect class="cls-4" x="200.53" y="295.2" width="21.23" height="19.2"/><rect class="cls-4" x="200.53" y="295.2" width="21.23" height="19.2"/><rect class="cls-4" x="221.76" y="295.2" width="21.23" height="19.2"/><rect class="cls-4" x="221.76" y="295.2" width="21.23" height="19.2"/><rect class="cls-4" x="264.21" y="295.2" width="21.23" height="19.2"/><rect class="cls-4" x="264.21" y="295.2" width="21.23" height="19.2"/><rect class="cls-4" x="158.08" y="295.2" width="21.23" height="19.2"/><rect class="cls-4" x="158.08" y="295.2" width="21.23" height="19.2"/><rect class="cls-4" x="179.31" y="295.2" width="21.23" height="19.2"/><rect class="cls-4" x="179.31" y="295.2" width="21.23" height="19.2"/><rect class="cls-4" x="73.18" y="314.4" width="21.23" height="19.2"/><rect class="cls-4" x="73.18" y="314.4" width="21.23" height="19.2"/><rect class="cls-4" x="94.41" y="314.4" width="21.23" height="19.2"/><rect class="cls-4" x="94.41" y="314.4" width="21.23" height="19.2"/><rect class="cls-4" x="115.63" y="314.4" width="21.23" height="19.2"/><rect class="cls-4" x="115.63" y="314.4" width="21.23" height="19.2"/><rect class="cls-4" x="136.86" y="314.4" width="21.23" height="19.2"/><rect class="cls-4" x="136.86" y="314.4" width="21.23" height="19.2"/><rect class="cls-4" x="200.53" y="314.4" width="21.23" height="19.2"/><rect class="cls-4" x="200.53" y="314.4" width="21.23" height="19.2"/><rect class="cls-4" x="221.76" y="314.4" width="21.23" height="19.2"/><rect class="cls-4" x="221.76" y="314.4" width="21.23" height="19.2"/><rect class="cls-4" x="264.21" y="314.4" width="21.23" height="19.2"/><rect class="cls-4" x="264.21" y="314.4" width="21.23" height="19.2"/><rect class="cls-4" x="158.08" y="314.4" width="21.23" height="19.2"/><rect class="cls-4" x="158.08" y="314.4" width="21.23" height="19.2"/><rect class="cls-4" x="179.31" y="314.4" width="21.23" height="19.2"/><rect class="cls-4" x="179.31" y="314.4" width="21.23" height="19.2"/><rect class="cls-3" x="73.18" y="333.59" width="21.23" height="19.2"/><rect class="cls-4" x="73.18" y="333.59" width="21.23" height="19.2"/><rect class="cls-6" x="94.41" y="333.59" width="21.23" height="19.2"/><rect class="cls-6" x="94.41" y="333.59" width="21.23" height="19.2"/><rect class="cls-6" x="115.63" y="333.59" width="21.23" height="19.2"/><rect class="cls-6" x="115.63" y="333.59" width="21.23" height="19.2"/><rect class="cls-6" x="136.86" y="333.59" width="21.23" height="19.2"/><rect class="cls-6" x="136.86" y="333.59" width="21.23" height="19.2"/><rect class="cls-6" x="200.53" y="333.59" width="21.23" height="19.2"/><rect class="cls-6" x="200.53" y="333.59" width="21.23" height="19.2"/><rect class="cls-6" x="221.76" y="333.59" width="21.23" height="19.2"/><rect class="cls-6" x="221.76" y="333.59" width="21.23" height="19.2"/><rect class="cls-6" x="264.21" y="333.59" width="21.23" height="19.2"/><rect class="cls-6" x="264.21" y="333.59" width="21.23" height="19.2"/><rect class="cls-6" x="158.08" y="333.59" width="21.23" height="19.2"/><rect class="cls-6" x="158.08" y="333.59" width="21.23" height="19.2"/><rect class="cls-6" x="179.31" y="333.59" width="21.23" height="19.2"/><rect class="cls-6" x="179.31" y="333.59" width="21.23" height="19.2"/><rect class="cls-6" x="73.18" y="352.79" width="21.23" height="19.2"/><rect class="cls-6" x="73.18" y="352.79" width="21.23" height="19.2"/><rect class="cls-6" x="94.41" y="352.79" width="21.23" height="19.2"/><rect class="cls-6" x="94.41" y="352.79" width="21.23" height="19.2"/><rect class="cls-6" x="115.63" y="352.79" width="21.23" height="19.2"/><rect class="cls-6" x="115.63" y="352.79" width="21.23" height="19.2"/><rect class="cls-6" x="136.86" y="352.79" width="21.23" height="19.2"/><rect class="cls-6" x="136.86" y="352.79" width="21.23" height="19.2"/><rect class="cls-6" x="200.53" y="352.79" width="21.23" height="19.2"/><rect class="cls-6" x="200.53" y="352.79" width="21.23" height="19.2"/><rect class="cls-6" x="221.76" y="352.79" width="21.23" height="19.2"/><rect class="cls-6" x="221.76" y="352.79" width="21.23" height="19.2"/><rect class="cls-6" x="264.21" y="352.79" width="21.23" height="19.2"/><rect class="cls-6" x="264.21" y="352.79" width="21.23" height="19.2"/><rect class="cls-6" x="158.08" y="352.79" width="21.23" height="19.2"/><rect class="cls-6" x="158.08" y="352.79" width="21.23" height="19.2"/><rect class="cls-6" x="179.31" y="352.79" width="21.23" height="19.2"/><rect class="cls-6" x="179.31" y="352.79" width="21.23" height="19.2"/><rect class="cls-6" x="73.18" y="371.99" width="21.23" height="19.2"/><rect class="cls-6" x="73.18" y="371.99" width="21.23" height="19.2"/><rect class="cls-6" x="94.41" y="371.99" width="21.23" height="19.2"/><rect class="cls-6" x="94.41" y="371.99" width="21.23" height="19.2"/><rect class="cls-6" x="115.63" y="371.99" width="21.23" height="19.2"/><rect class="cls-6" x="115.63" y="371.99" width="21.23" height="19.2"/><rect class="cls-6" x="136.86" y="371.99" width="21.23" height="19.2"/><rect class="cls-6" x="136.86" y="371.99" width="21.23" height="19.2"/><rect class="cls-6" x="200.53" y="371.99" width="21.23" height="19.2"/><rect class="cls-6" x="200.53" y="371.99" width="21.23" height="19.2"/><rect class="cls-6" x="221.76" y="371.99" width="21.23" height="19.2"/><rect class="cls-6" x="221.76" y="371.99" width="21.23" height="19.2"/><rect class="cls-6" x="264.21" y="371.99" width="21.23" height="19.2"/><rect class="cls-6" x="264.21" y="371.99" width="21.23" height="19.2"/><rect class="cls-6" x="158.08" y="371.99" width="21.23" height="19.2"/><rect class="cls-6" x="158.08" y="371.99" width="21.23" height="19.2"/><rect class="cls-6" x="179.31" y="371.99" width="21.23" height="19.2"/><rect class="cls-6" x="179.31" y="371.99" width="21.23" height="19.2"/><rect class="cls-6" x="73.18" y="391.19" width="21.23" height="19.2"/><rect class="cls-6" x="73.18" y="391.19" width="21.23" height="19.2"/><rect class="cls-6" x="94.41" y="391.19" width="21.23" height="19.2"/><rect class="cls-6" x="94.41" y="391.19" width="21.23" height="19.2"/><rect class="cls-6" x="115.63" y="391.19" width="21.23" height="19.2"/><rect class="cls-6" x="115.63" y="391.19" width="21.23" height="19.2"/><rect class="cls-6" x="136.86" y="391.19" width="21.23" height="19.2"/><rect class="cls-6" x="136.86" y="391.19" width="21.23" height="19.2"/><rect class="cls-6" x="200.53" y="391.19" width="21.23" height="19.2"/><rect class="cls-6" x="200.53" y="391.19" width="21.23" height="19.2"/><rect class="cls-6" x="221.76" y="391.19" width="21.23" height="19.2"/><rect class="cls-6" x="221.76" y="391.19" width="21.23" height="19.2"/><rect class="cls-6" x="264.21" y="391.19" width="21.23" height="19.2"/><rect class="cls-6" x="264.21" y="391.19" width="21.23" height="19.2"/><rect class="cls-2" x="242.98" y="218.4" width="21.23" height="19.2"/><rect class="cls-2" x="242.98" y="218.4" width="21.23" height="19.2"/><rect class="cls-2" x="242.98" y="237.6" width="21.23" height="19.2"/><rect class="cls-2" x="242.98" y="237.6" width="21.23" height="19.2"/><rect class="cls-4" x="242.98" y="256.8" width="21.23" height="19.2"/><rect class="cls-4" x="242.98" y="256.8" width="21.23" height="19.2"/><rect class="cls-4" x="242.98" y="276" width="21.23" height="19.2"/><rect class="cls-4" x="242.98" y="276" width="21.23" height="19.2"/><rect class="cls-4" x="242.98" y="295.2" width="21.23" height="19.2"/><rect class="cls-4" x="242.98" y="295.2" width="21.23" height="19.2"/><rect class="cls-4" x="242.98" y="314.4" width="21.23" height="19.2"/><rect class="cls-4" x="242.98" y="314.4" width="21.23" height="19.2"/><rect class="cls-6" x="242.98" y="333.59" width="21.23" height="19.2"/><rect class="cls-6" x="242.98" y="333.59" width="21.23" height="19.2"/><rect class="cls-6" x="242.98" y="352.79" width="21.23" height="19.2"/><rect class="cls-6" x="242.98" y="352.79" width="21.23" height="19.2"/><rect class="cls-6" x="242.98" y="371.99" width="21.23" height="19.2"/><rect class="cls-6" x="242.98" y="371.99" width="21.23" height="19.2"/><rect class="cls-6" x="242.98" y="391.19" width="21.23" height="19.2"/><rect class="cls-6" x="242.98" y="391.19" width="21.23" height="19.2"/><rect class="cls-6" x="158.08" y="391.19" width="21.23" height="19.2"/><rect class="cls-6" x="158.08" y="391.19" width="21.23" height="19.2"/><rect class="cls-6" x="179.31" y="391.19" width="21.23" height="19.2"/><rect class="cls-6" x="179.31" y="391.19" width="21.23" height="19.2"/><text class="cls-7" transform="translate(50.78 58.87) scale(0.91 1)">S<tspan x="28.35" y="0">an José de </tspan><tspan x="66.63" y="47.41">M</tspan><tspan x="111.51" y="47.41">aipo</tspan></text><polygon class="cls-8" points="283.62 216.46 73.64 216.74 178.47 119.8 283.62 216.46"/></svg>