<svg id="1cebdd16-97f7-4b81-b3ad-49430f91b505" data-name="Fondo" xmlns="http://www.w3.org/2000/svg" viewBox="0 0 300 400"><defs><style>.b9c2878a-7c85-4cba-9478-b3f0d13f8603{fill:#d6eddc;stroke:#fff;stroke-width:1.46px;}.\33 0880133-783c-4dcc-90c8-9c3d2441c1e8,.\33 5c16ae8-e9de-46ac-b396-b34e12a9baf1,.\33 7bb5800-9b7f-4ee6-9eec-6af92ed84a65,.\37 730db6b-1133-476d-8a3c-3f28302fb07d,.\39 2a22ef8-9325-4d3b-9f52-fbc0fe1166e9,.b9c2878a-7c85-4cba-9478-b3f0d13f8603,.f23a9f09-eaa9-4925-9b6b-22666a85210c{stroke-miterlimit:10;}.\37 97930d4-ba35-45f9-a995-93d4ad1063f1{font-size:50.9px;fill:#118c97;}.\34 a2928b4-3bc4-4201-9ce8-edd402603dd7,.\37 97930d4-ba35-45f9-a995-93d4ad1063f1,.e322d0b6-959f-4f09-b29d-a3fe1fc107fb{font-family:Myriad Pro;font-weight:700;}.\34 a2928b4-3bc4-4201-9ce8-edd402603dd7{font-size:50.86px;}.e322d0b6-959f-4f09-b29d-a3fe1fc107fb{font-size:18px;fill:#232323;}.\33 5c16ae8-e9de-46ac-b396-b34e12a9baf1{fill:#ff9231;}.\33 5c16ae8-e9de-46ac-b396-b34e12a9baf1,.\37 730db6b-1133-476d-8a3c-3f28302fb07d,.f23a9f09-eaa9-4925-9b6b-22666a85210c{stroke:#000;}.\33 0880133-783c-4dcc-90c8-9c3d2441c1e8,.\33 5c16ae8-e9de-46ac-b396-b34e12a9baf1,.\37 730db6b-1133-476d-8a3c-3f28302fb07d,.f23a9f09-eaa9-4925-9b6b-22666a85210c{stroke-width:0.3px;}.f23a9f09-eaa9-4925-9b6b-22666a85210c{fill:#ff6c49;}.\37 730db6b-1133-476d-8a3c-3f28302fb07d{fill:#8e4713;}.\33 7bb5800-9b7f-4ee6-9eec-6af92ed84a65{fill:#9fa09f;}.\33 7bb5800-9b7f-4ee6-9eec-6af92ed84a65,.\39 2a22ef8-9325-4d3b-9f52-fbc0fe1166e9{stroke:#1d1d1b;stroke-width:0.37px;}.\39 2a22ef8-9325-4d3b-9f52-fbc0fe1166e9{fill:#931c0a;}.\33 0880133-783c-4dcc-90c8-9c3d2441c1e8{stroke:#020202;}</style></defs><title>Catástrofes </title><rect class="b9c2878a-7c85-4cba-9478-b3f0d13f8603" x="1.54" y="3" width="300" height="400"/><text class="797930d4-ba35-45f9-a995-93d4ad1063f1" transform="translate(171.97 345.96) scale(0.79 1)">8</text><text class="4a2928b4-3bc4-4201-9ce8-edd402603dd7" transform="translate(52.28 75.01) scale(0.91 1)">El <tspan x="49.79" y="0">B</tspan><tspan x="79.34" y="0">osque</tspan></text><text class="e322d0b6-959f-4f09-b29d-a3fe1fc107fb" transform="matrix(0.9, 0, 0, 1, 49.26, 160.12)">T<tspan x="9.45" y="0">i</tspan><tspan x="14.38" y="0">p</tspan><tspan x="25.2" y="0">o de </tspan></text><text class="e322d0b6-959f-4f09-b29d-a3fe1fc107fb" transform="translate(49.25 181.75) scale(0.9 1)">V<tspan x="10.96" y="0">ivienda</tspan></text><text class="e322d0b6-959f-4f09-b29d-a3fe1fc107fb" transform="translate(109.08 280.99) rotate(-0.26) scale(0.9 1)">C<tspan x="10.53" y="0">a</tspan><tspan x="19.89" y="0">tást</tspan><tspan x="50.42" y="0">r</tspan><tspan x="57.11" y="0">o</tspan><tspan x="67.5" y="0">f</tspan><tspan x="73.46" y="0">es</tspan></text><polygon points="125.8 324.06 124.91 315.64 125.64 309.72 128.18 304.31 131.63 299.8 134.75 297.78 134.07 300.26 133.29 303.32 132.69 308.23 133.18 312.06 133.62 314.9 134.74 317.85 135.97 321.16 139.18 325.88 141.55 329.39 142.11 324.94 144.12 319.86 146.13 317.85 147.96 316.31 149 315.25 149 317.5 148.07 320.45 148.38 323.52 148.65 325.53 149.35 329.39 150.7 334.15 152.07 339.58 153 344.42 153 347.97 151.97 353.64 150.95 355.88 148.99 358.36 146.55 360.51 143.66 362.14 141.21 363.2 142.55 361.19 143.45 359.09 143.56 356.12 142.78 353.64 142 351.98 141.1 349.74 140.66 348.08 140.88 344.99 139.62 346.4 139 347.73 139 349.38 138.94 351.04 138.57 352.1 138.69 353.11 137.54 351.33 136.96 348.76 137.39 345.4 137.98 342.92 137.81 340.17 137.39 338.22 136.14 335.83 134.46 333.62 134.96 337.34 134.8 339.29 134.13 342.12 133.46 343.45 132.69 345.49 129.87 348.59 129 348.94 129 346.55 128.72 344.99 128.62 344.25 128.15 343.27 127.37 342.56 127.06 343.45 126.91 345.57 126.58 347.88 126.25 349.74 125.83 351.16 125.25 353.11 124.88 354.61 124.49 356.74 125.08 359.75 126 361.43 126.92 362.32 129.02 364.27 124.5 363.38 122.48 362.23 120.06 360.51 117.71 359.09 114.69 355.5 113 350.89 113 345.13 115.1 338.58 116.99 335.39 118.8 332.82 120 329.39 120 326.71 120 323.87 120 321.04 119.38 320.51 121.09 322.28 122.42 324.05 123.43 325.91 124.18 328.21 124.76 330.34 124.67 332.2 124.83 334.41 124.66 337.51 126.17 334.77 126.67 332.29 126.92 329.9 125.8 324.06"/><rect class="35c16ae8-e9de-46ac-b396-b34e12a9baf1" x="136.18" y="145.12" width="10.4" height="9.41"/><rect class="35c16ae8-e9de-46ac-b396-b34e12a9baf1" x="146.58" y="145.12" width="10.4" height="9.41"/><rect class="35c16ae8-e9de-46ac-b396-b34e12a9baf1" x="182.99" y="152.36" width="10.4" height="9.41" rx="4.7" ry="4.7"/><rect class="35c16ae8-e9de-46ac-b396-b34e12a9baf1" x="156.98" y="145.12" width="10.4" height="9.41"/><rect class="35c16ae8-e9de-46ac-b396-b34e12a9baf1" x="156.98" y="145.12" width="10.4" height="9.41"/><rect class="35c16ae8-e9de-46ac-b396-b34e12a9baf1" x="167.39" y="145.12" width="10.4" height="9.41"/><rect class="35c16ae8-e9de-46ac-b396-b34e12a9baf1" x="167.39" y="145.12" width="10.4" height="9.41"/><rect class="35c16ae8-e9de-46ac-b396-b34e12a9baf1" x="198.59" y="145.12" width="10.4" height="9.41"/><rect class="35c16ae8-e9de-46ac-b396-b34e12a9baf1" x="198.59" y="145.12" width="10.4" height="9.41"/><rect class="35c16ae8-e9de-46ac-b396-b34e12a9baf1" x="208.99" y="145.12" width="10.4" height="9.41"/><rect class="35c16ae8-e9de-46ac-b396-b34e12a9baf1" x="208.99" y="145.12" width="10.4" height="9.41"/><rect class="35c16ae8-e9de-46ac-b396-b34e12a9baf1" x="229.8" y="145.12" width="10.4" height="9.41"/><rect class="35c16ae8-e9de-46ac-b396-b34e12a9baf1" x="229.8" y="145.12" width="10.4" height="9.41"/><rect class="35c16ae8-e9de-46ac-b396-b34e12a9baf1" x="177.79" y="145.12" width="10.4" height="9.41"/><rect class="35c16ae8-e9de-46ac-b396-b34e12a9baf1" x="177.79" y="145.12" width="10.4" height="9.41"/><rect class="35c16ae8-e9de-46ac-b396-b34e12a9baf1" x="188.19" y="145.12" width="10.4" height="9.41"/><rect class="35c16ae8-e9de-46ac-b396-b34e12a9baf1" x="188.19" y="145.12" width="10.4" height="9.41"/><rect class="35c16ae8-e9de-46ac-b396-b34e12a9baf1" x="136.18" y="154.53" width="10.4" height="9.41"/><rect class="35c16ae8-e9de-46ac-b396-b34e12a9baf1" x="136.18" y="154.53" width="10.4" height="9.41"/><rect class="35c16ae8-e9de-46ac-b396-b34e12a9baf1" x="146.58" y="154.53" width="10.4" height="9.41"/><rect class="35c16ae8-e9de-46ac-b396-b34e12a9baf1" x="146.58" y="154.53" width="10.4" height="9.41"/><rect class="35c16ae8-e9de-46ac-b396-b34e12a9baf1" x="156.98" y="154.53" width="10.4" height="9.41"/><rect class="35c16ae8-e9de-46ac-b396-b34e12a9baf1" x="156.98" y="154.53" width="10.4" height="9.41"/><rect class="35c16ae8-e9de-46ac-b396-b34e12a9baf1" x="167.39" y="154.53" width="10.4" height="9.41"/><rect class="35c16ae8-e9de-46ac-b396-b34e12a9baf1" x="167.39" y="154.53" width="10.4" height="9.41"/><rect class="35c16ae8-e9de-46ac-b396-b34e12a9baf1" x="198.59" y="154.53" width="10.4" height="9.41"/><rect class="35c16ae8-e9de-46ac-b396-b34e12a9baf1" x="198.59" y="154.53" width="10.4" height="9.41"/><rect class="35c16ae8-e9de-46ac-b396-b34e12a9baf1" x="208.99" y="154.53" width="10.4" height="9.41"/><rect class="35c16ae8-e9de-46ac-b396-b34e12a9baf1" x="208.99" y="154.53" width="10.4" height="9.41"/><rect class="35c16ae8-e9de-46ac-b396-b34e12a9baf1" x="229.8" y="154.53" width="10.4" height="9.41"/><rect class="35c16ae8-e9de-46ac-b396-b34e12a9baf1" x="229.8" y="154.53" width="10.4" height="9.41"/><rect class="35c16ae8-e9de-46ac-b396-b34e12a9baf1" x="177.79" y="154.53" width="10.4" height="9.41"/><rect class="35c16ae8-e9de-46ac-b396-b34e12a9baf1" x="177.79" y="154.53" width="10.4" height="9.41"/><rect class="35c16ae8-e9de-46ac-b396-b34e12a9baf1" x="188.19" y="154.53" width="10.4" height="9.41"/><rect class="f23a9f09-eaa9-4925-9b6b-22666a85210c" x="136.18" y="163.94" width="10.4" height="9.41"/><rect class="35c16ae8-e9de-46ac-b396-b34e12a9baf1" x="136.18" y="163.94" width="10.4" height="9.41"/><rect class="f23a9f09-eaa9-4925-9b6b-22666a85210c" x="146.58" y="163.94" width="10.4" height="9.41"/><rect class="7730db6b-1133-476d-8a3c-3f28302fb07d" x="146.58" y="163.94" width="10.4" height="9.41"/><rect class="f23a9f09-eaa9-4925-9b6b-22666a85210c" x="156.98" y="163.94" width="10.4" height="9.41"/><rect class="7730db6b-1133-476d-8a3c-3f28302fb07d" x="156.98" y="163.94" width="10.4" height="9.41"/><rect class="f23a9f09-eaa9-4925-9b6b-22666a85210c" x="167.39" y="163.94" width="10.4" height="9.41"/><rect class="7730db6b-1133-476d-8a3c-3f28302fb07d" x="167.39" y="163.94" width="10.4" height="9.41"/><rect class="f23a9f09-eaa9-4925-9b6b-22666a85210c" x="198.59" y="163.94" width="10.4" height="9.41"/><rect class="37bb5800-9b7f-4ee6-9eec-6af92ed84a65" x="198.59" y="163.94" width="10.4" height="9.41"/><rect class="f23a9f09-eaa9-4925-9b6b-22666a85210c" x="208.99" y="163.94" width="10.4" height="9.41"/><rect class="37bb5800-9b7f-4ee6-9eec-6af92ed84a65" x="208.99" y="163.94" width="10.4" height="9.41"/><rect class="f23a9f09-eaa9-4925-9b6b-22666a85210c" x="229.8" y="163.94" width="10.4" height="9.41"/><rect class="92a22ef8-9325-4d3b-9f52-fbc0fe1166e9" x="229.8" y="163.94" width="10.4" height="9.41"/><rect class="f23a9f09-eaa9-4925-9b6b-22666a85210c" x="177.79" y="163.94" width="10.4" height="9.41"/><rect class="7730db6b-1133-476d-8a3c-3f28302fb07d" x="177.79" y="163.94" width="10.4" height="9.41"/><rect class="f23a9f09-eaa9-4925-9b6b-22666a85210c" x="188.19" y="163.94" width="10.4" height="9.41"/><rect class="7730db6b-1133-476d-8a3c-3f28302fb07d" x="188.19" y="163.94" width="10.4" height="9.41"/><rect class="f23a9f09-eaa9-4925-9b6b-22666a85210c" x="136.18" y="173.35" width="10.4" height="9.41"/><rect class="f23a9f09-eaa9-4925-9b6b-22666a85210c" x="136.18" y="173.35" width="10.4" height="9.41"/><rect class="f23a9f09-eaa9-4925-9b6b-22666a85210c" x="146.58" y="173.35" width="10.4" height="9.41"/><rect class="f23a9f09-eaa9-4925-9b6b-22666a85210c" x="146.58" y="173.35" width="10.4" height="9.41"/><rect class="f23a9f09-eaa9-4925-9b6b-22666a85210c" x="156.98" y="173.35" width="10.4" height="9.41"/><rect class="f23a9f09-eaa9-4925-9b6b-22666a85210c" x="156.98" y="173.35" width="10.4" height="9.41"/><rect class="f23a9f09-eaa9-4925-9b6b-22666a85210c" x="167.39" y="173.35" width="10.4" height="9.41"/><rect class="f23a9f09-eaa9-4925-9b6b-22666a85210c" x="167.39" y="173.35" width="10.4" height="9.41"/><rect class="f23a9f09-eaa9-4925-9b6b-22666a85210c" x="198.59" y="173.35" width="10.4" height="9.41"/><rect class="f23a9f09-eaa9-4925-9b6b-22666a85210c" x="198.59" y="173.35" width="10.4" height="9.41"/><rect class="f23a9f09-eaa9-4925-9b6b-22666a85210c" x="208.99" y="173.35" width="10.4" height="9.41"/><rect class="f23a9f09-eaa9-4925-9b6b-22666a85210c" x="208.99" y="173.35" width="10.4" height="9.41"/><rect class="f23a9f09-eaa9-4925-9b6b-22666a85210c" x="229.8" y="173.35" width="10.4" height="9.41"/><rect class="92a22ef8-9325-4d3b-9f52-fbc0fe1166e9" x="229.8" y="173.35" width="10.4" height="9.41"/><rect class="f23a9f09-eaa9-4925-9b6b-22666a85210c" x="177.79" y="173.35" width="10.4" height="9.41"/><rect class="f23a9f09-eaa9-4925-9b6b-22666a85210c" x="177.79" y="173.35" width="10.4" height="9.41"/><rect class="f23a9f09-eaa9-4925-9b6b-22666a85210c" x="188.19" y="173.35" width="10.4" height="9.41"/><rect class="f23a9f09-eaa9-4925-9b6b-22666a85210c" x="188.19" y="173.35" width="10.4" height="9.41"/><rect class="f23a9f09-eaa9-4925-9b6b-22666a85210c" x="136.18" y="182.75" width="10.4" height="9.41"/><rect class="f23a9f09-eaa9-4925-9b6b-22666a85210c" x="136.18" y="182.75" width="10.4" height="9.41"/><rect class="f23a9f09-eaa9-4925-9b6b-22666a85210c" x="146.58" y="182.75" width="10.4" height="9.41"/><rect class="f23a9f09-eaa9-4925-9b6b-22666a85210c" x="146.58" y="182.75" width="10.4" height="9.41"/><rect class="f23a9f09-eaa9-4925-9b6b-22666a85210c" x="156.98" y="182.75" width="10.4" height="9.41"/><rect class="f23a9f09-eaa9-4925-9b6b-22666a85210c" x="156.98" y="182.75" width="10.4" height="9.41"/><rect class="f23a9f09-eaa9-4925-9b6b-22666a85210c" x="167.39" y="182.75" width="10.4" height="9.41"/><rect class="f23a9f09-eaa9-4925-9b6b-22666a85210c" x="167.39" y="182.75" width="10.4" height="9.41"/><rect class="f23a9f09-eaa9-4925-9b6b-22666a85210c" x="198.59" y="182.75" width="10.4" height="9.41"/><rect class="f23a9f09-eaa9-4925-9b6b-22666a85210c" x="198.59" y="182.75" width="10.4" height="9.41"/><rect class="f23a9f09-eaa9-4925-9b6b-22666a85210c" x="208.99" y="182.75" width="10.4" height="9.41"/><rect class="f23a9f09-eaa9-4925-9b6b-22666a85210c" x="208.99" y="182.75" width="10.4" height="9.41"/><rect class="f23a9f09-eaa9-4925-9b6b-22666a85210c" x="229.8" y="182.75" width="10.4" height="9.41"/><rect class="f23a9f09-eaa9-4925-9b6b-22666a85210c" x="229.8" y="182.75" width="10.4" height="9.41"/><rect class="f23a9f09-eaa9-4925-9b6b-22666a85210c" x="177.79" y="182.75" width="10.4" height="9.41"/><rect class="f23a9f09-eaa9-4925-9b6b-22666a85210c" x="177.79" y="182.75" width="10.4" height="9.41"/><rect class="f23a9f09-eaa9-4925-9b6b-22666a85210c" x="188.19" y="182.75" width="10.4" height="9.41"/><rect class="f23a9f09-eaa9-4925-9b6b-22666a85210c" x="188.19" y="182.75" width="10.4" height="9.41"/><rect class="f23a9f09-eaa9-4925-9b6b-22666a85210c" x="136.18" y="192.16" width="10.4" height="9.41"/><rect class="f23a9f09-eaa9-4925-9b6b-22666a85210c" x="136.18" y="192.16" width="10.4" height="9.41"/><rect class="f23a9f09-eaa9-4925-9b6b-22666a85210c" x="146.58" y="192.16" width="10.4" height="9.41"/><rect class="f23a9f09-eaa9-4925-9b6b-22666a85210c" x="146.58" y="192.16" width="10.4" height="9.41"/><rect class="f23a9f09-eaa9-4925-9b6b-22666a85210c" x="156.98" y="192.16" width="10.4" height="9.41"/><rect class="f23a9f09-eaa9-4925-9b6b-22666a85210c" x="156.98" y="192.16" width="10.4" height="9.41"/><rect class="f23a9f09-eaa9-4925-9b6b-22666a85210c" x="167.39" y="192.16" width="10.4" height="9.41"/><rect class="f23a9f09-eaa9-4925-9b6b-22666a85210c" x="167.39" y="192.16" width="10.4" height="9.41"/><rect class="f23a9f09-eaa9-4925-9b6b-22666a85210c" x="198.59" y="192.16" width="10.4" height="9.41"/><rect class="f23a9f09-eaa9-4925-9b6b-22666a85210c" x="198.59" y="192.16" width="10.4" height="9.41"/><rect class="f23a9f09-eaa9-4925-9b6b-22666a85210c" x="208.99" y="192.16" width="10.4" height="9.41"/><rect class="f23a9f09-eaa9-4925-9b6b-22666a85210c" x="208.99" y="192.16" width="10.4" height="9.41"/><rect class="f23a9f09-eaa9-4925-9b6b-22666a85210c" x="229.8" y="192.16" width="10.4" height="9.41"/><rect class="f23a9f09-eaa9-4925-9b6b-22666a85210c" x="229.8" y="192.16" width="10.4" height="9.41"/><rect class="f23a9f09-eaa9-4925-9b6b-22666a85210c" x="177.79" y="192.16" width="10.4" height="9.41"/><rect class="f23a9f09-eaa9-4925-9b6b-22666a85210c" x="177.79" y="192.16" width="10.4" height="9.41"/><rect class="f23a9f09-eaa9-4925-9b6b-22666a85210c" x="188.19" y="192.16" width="10.4" height="9.41"/><rect class="f23a9f09-eaa9-4925-9b6b-22666a85210c" x="188.19" y="192.16" width="10.4" height="9.41"/><rect class="f23a9f09-eaa9-4925-9b6b-22666a85210c" x="136.18" y="201.57" width="10.4" height="9.41"/><rect class="f23a9f09-eaa9-4925-9b6b-22666a85210c" x="136.18" y="201.57" width="10.4" height="9.41"/><rect class="f23a9f09-eaa9-4925-9b6b-22666a85210c" x="146.58" y="201.57" width="10.4" height="9.41"/><rect class="f23a9f09-eaa9-4925-9b6b-22666a85210c" x="146.58" y="201.57" width="10.4" height="9.41"/><rect class="f23a9f09-eaa9-4925-9b6b-22666a85210c" x="156.98" y="201.57" width="10.4" height="9.41"/><rect class="f23a9f09-eaa9-4925-9b6b-22666a85210c" x="156.98" y="201.57" width="10.4" height="9.41"/><rect class="f23a9f09-eaa9-4925-9b6b-22666a85210c" x="167.39" y="201.57" width="10.4" height="9.41"/><rect class="f23a9f09-eaa9-4925-9b6b-22666a85210c" x="167.39" y="201.57" width="10.4" height="9.41"/><rect class="f23a9f09-eaa9-4925-9b6b-22666a85210c" x="198.59" y="201.57" width="10.4" height="9.41"/><rect class="f23a9f09-eaa9-4925-9b6b-22666a85210c" x="198.59" y="201.57" width="10.4" height="9.41"/><rect class="f23a9f09-eaa9-4925-9b6b-22666a85210c" x="208.99" y="201.57" width="10.4" height="9.41"/><rect class="f23a9f09-eaa9-4925-9b6b-22666a85210c" x="208.99" y="201.57" width="10.4" height="9.41"/><rect class="f23a9f09-eaa9-4925-9b6b-22666a85210c" x="229.8" y="201.57" width="10.4" height="9.41"/><rect class="f23a9f09-eaa9-4925-9b6b-22666a85210c" x="229.8" y="201.57" width="10.4" height="9.41"/><rect class="f23a9f09-eaa9-4925-9b6b-22666a85210c" x="177.79" y="201.57" width="10.4" height="9.41"/><rect class="f23a9f09-eaa9-4925-9b6b-22666a85210c" x="177.79" y="201.57" width="10.4" height="9.41"/><rect class="f23a9f09-eaa9-4925-9b6b-22666a85210c" x="188.19" y="201.57" width="10.4" height="9.41"/><rect class="f23a9f09-eaa9-4925-9b6b-22666a85210c" x="188.19" y="201.57" width="10.4" height="9.41"/><rect class="f23a9f09-eaa9-4925-9b6b-22666a85210c" x="136.18" y="210.98" width="10.4" height="9.41"/><rect class="f23a9f09-eaa9-4925-9b6b-22666a85210c" x="136.18" y="210.98" width="10.4" height="9.41"/><rect class="f23a9f09-eaa9-4925-9b6b-22666a85210c" x="146.58" y="210.98" width="10.4" height="9.41"/><rect class="f23a9f09-eaa9-4925-9b6b-22666a85210c" x="146.58" y="210.98" width="10.4" height="9.41"/><rect class="f23a9f09-eaa9-4925-9b6b-22666a85210c" x="156.98" y="210.98" width="10.4" height="9.41"/><rect class="f23a9f09-eaa9-4925-9b6b-22666a85210c" x="156.98" y="210.98" width="10.4" height="9.41"/><rect class="f23a9f09-eaa9-4925-9b6b-22666a85210c" x="167.39" y="210.98" width="10.4" height="9.41"/><rect class="f23a9f09-eaa9-4925-9b6b-22666a85210c" x="167.39" y="210.98" width="10.4" height="9.41"/><rect class="f23a9f09-eaa9-4925-9b6b-22666a85210c" x="198.59" y="210.98" width="10.4" height="9.41"/><rect class="f23a9f09-eaa9-4925-9b6b-22666a85210c" x="198.59" y="210.98" width="10.4" height="9.41"/><rect class="f23a9f09-eaa9-4925-9b6b-22666a85210c" x="208.99" y="210.98" width="10.4" height="9.41"/><rect class="f23a9f09-eaa9-4925-9b6b-22666a85210c" x="208.99" y="210.98" width="10.4" height="9.41"/><rect class="f23a9f09-eaa9-4925-9b6b-22666a85210c" x="229.8" y="210.98" width="10.4" height="9.41"/><rect class="f23a9f09-eaa9-4925-9b6b-22666a85210c" x="229.8" y="210.98" width="10.4" height="9.41"/><rect class="f23a9f09-eaa9-4925-9b6b-22666a85210c" x="177.79" y="210.98" width="10.4" height="9.41"/><rect class="f23a9f09-eaa9-4925-9b6b-22666a85210c" x="177.79" y="210.98" width="10.4" height="9.41"/><rect class="f23a9f09-eaa9-4925-9b6b-22666a85210c" x="188.19" y="210.98" width="10.4" height="9.41"/><rect class="f23a9f09-eaa9-4925-9b6b-22666a85210c" x="188.19" y="210.98" width="10.4" height="9.41"/><rect class="f23a9f09-eaa9-4925-9b6b-22666a85210c" x="136.18" y="220.39" width="10.4" height="9.41"/><rect class="f23a9f09-eaa9-4925-9b6b-22666a85210c" x="136.18" y="220.39" width="10.4" height="9.41"/><rect class="f23a9f09-eaa9-4925-9b6b-22666a85210c" x="146.58" y="220.39" width="10.4" height="9.41"/><rect class="f23a9f09-eaa9-4925-9b6b-22666a85210c" x="146.58" y="220.39" width="10.4" height="9.41"/><rect class="f23a9f09-eaa9-4925-9b6b-22666a85210c" x="156.98" y="220.39" width="10.4" height="9.41"/><rect class="f23a9f09-eaa9-4925-9b6b-22666a85210c" x="156.98" y="220.39" width="10.4" height="9.41"/><rect class="f23a9f09-eaa9-4925-9b6b-22666a85210c" x="167.39" y="220.39" width="10.4" height="9.41"/><rect class="f23a9f09-eaa9-4925-9b6b-22666a85210c" x="167.39" y="220.39" width="10.4" height="9.41"/><rect class="f23a9f09-eaa9-4925-9b6b-22666a85210c" x="198.59" y="220.39" width="10.4" height="9.41"/><rect class="f23a9f09-eaa9-4925-9b6b-22666a85210c" x="198.59" y="220.39" width="10.4" height="9.41"/><rect class="f23a9f09-eaa9-4925-9b6b-22666a85210c" x="208.99" y="220.39" width="10.4" height="9.41"/><rect class="f23a9f09-eaa9-4925-9b6b-22666a85210c" x="208.99" y="220.39" width="10.4" height="9.41"/><rect class="f23a9f09-eaa9-4925-9b6b-22666a85210c" x="229.8" y="220.39" width="10.4" height="9.41"/><rect class="f23a9f09-eaa9-4925-9b6b-22666a85210c" x="229.8" y="220.39" width="10.4" height="9.41"/><rect class="f23a9f09-eaa9-4925-9b6b-22666a85210c" x="177.79" y="220.39" width="10.4" height="9.41"/><rect class="f23a9f09-eaa9-4925-9b6b-22666a85210c" x="177.79" y="220.39" width="10.4" height="9.41"/><rect class="f23a9f09-eaa9-4925-9b6b-22666a85210c" x="188.19" y="220.39" width="10.4" height="9.41"/><rect class="f23a9f09-eaa9-4925-9b6b-22666a85210c" x="188.19" y="220.39" width="10.4" height="9.41"/><rect class="f23a9f09-eaa9-4925-9b6b-22666a85210c" x="136.18" y="229.8" width="10.4" height="9.41"/><rect class="f23a9f09-eaa9-4925-9b6b-22666a85210c" x="136.18" y="229.8" width="10.4" height="9.41"/><rect class="f23a9f09-eaa9-4925-9b6b-22666a85210c" x="146.58" y="229.8" width="10.4" height="9.41"/><rect class="f23a9f09-eaa9-4925-9b6b-22666a85210c" x="146.58" y="229.8" width="10.4" height="9.41"/><rect class="f23a9f09-eaa9-4925-9b6b-22666a85210c" x="156.98" y="229.8" width="10.4" height="9.41"/><rect class="f23a9f09-eaa9-4925-9b6b-22666a85210c" x="156.98" y="229.8" width="10.4" height="9.41"/><rect class="f23a9f09-eaa9-4925-9b6b-22666a85210c" x="167.39" y="229.8" width="10.4" height="9.41"/><rect class="f23a9f09-eaa9-4925-9b6b-22666a85210c" x="167.39" y="229.8" width="10.4" height="9.41"/><rect class="f23a9f09-eaa9-4925-9b6b-22666a85210c" x="198.59" y="229.8" width="10.4" height="9.41"/><rect class="f23a9f09-eaa9-4925-9b6b-22666a85210c" x="198.59" y="229.8" width="10.4" height="9.41"/><rect class="f23a9f09-eaa9-4925-9b6b-22666a85210c" x="208.99" y="229.8" width="10.4" height="9.41"/><rect class="f23a9f09-eaa9-4925-9b6b-22666a85210c" x="208.99" y="229.8" width="10.4" height="9.41"/><rect class="f23a9f09-eaa9-4925-9b6b-22666a85210c" x="229.8" y="229.8" width="10.4" height="9.41"/><rect class="f23a9f09-eaa9-4925-9b6b-22666a85210c" x="229.8" y="229.8" width="10.4" height="9.41"/><rect class="35c16ae8-e9de-46ac-b396-b34e12a9baf1" x="219.39" y="145.12" width="10.4" height="9.41"/><rect class="35c16ae8-e9de-46ac-b396-b34e12a9baf1" x="219.39" y="145.12" width="10.4" height="9.41"/><rect class="35c16ae8-e9de-46ac-b396-b34e12a9baf1" x="219.39" y="154.53" width="10.4" height="9.41"/><rect class="35c16ae8-e9de-46ac-b396-b34e12a9baf1" x="219.39" y="154.53" width="10.4" height="9.41"/><rect class="f23a9f09-eaa9-4925-9b6b-22666a85210c" x="219.39" y="163.94" width="10.4" height="9.41"/><rect class="37bb5800-9b7f-4ee6-9eec-6af92ed84a65" x="219.39" y="163.94" width="10.4" height="9.41"/><rect class="f23a9f09-eaa9-4925-9b6b-22666a85210c" x="219.39" y="173.35" width="10.4" height="9.41"/><rect class="92a22ef8-9325-4d3b-9f52-fbc0fe1166e9" x="219.39" y="173.35" width="10.4" height="9.41"/><rect class="f23a9f09-eaa9-4925-9b6b-22666a85210c" x="219.39" y="182.75" width="10.4" height="9.41"/><rect class="f23a9f09-eaa9-4925-9b6b-22666a85210c" x="219.39" y="182.75" width="10.4" height="9.41"/><rect class="f23a9f09-eaa9-4925-9b6b-22666a85210c" x="219.39" y="192.16" width="10.4" height="9.41"/><rect class="f23a9f09-eaa9-4925-9b6b-22666a85210c" x="219.39" y="192.16" width="10.4" height="9.41"/><rect class="f23a9f09-eaa9-4925-9b6b-22666a85210c" x="219.39" y="201.57" width="10.4" height="9.41"/><rect class="f23a9f09-eaa9-4925-9b6b-22666a85210c" x="219.39" y="201.57" width="10.4" height="9.41"/><rect class="f23a9f09-eaa9-4925-9b6b-22666a85210c" x="219.39" y="210.98" width="10.4" height="9.41"/><rect class="f23a9f09-eaa9-4925-9b6b-22666a85210c" x="219.39" y="210.98" width="10.4" height="9.41"/><rect class="f23a9f09-eaa9-4925-9b6b-22666a85210c" x="219.39" y="220.39" width="10.4" height="9.41"/><rect class="f23a9f09-eaa9-4925-9b6b-22666a85210c" x="219.39" y="220.39" width="10.4" height="9.41"/><rect class="f23a9f09-eaa9-4925-9b6b-22666a85210c" x="219.39" y="229.8" width="10.4" height="9.41"/><rect class="f23a9f09-eaa9-4925-9b6b-22666a85210c" x="219.39" y="229.8" width="10.4" height="9.41"/><rect class="f23a9f09-eaa9-4925-9b6b-22666a85210c" x="177.79" y="229.8" width="10.4" height="9.41"/><rect class="f23a9f09-eaa9-4925-9b6b-22666a85210c" x="177.79" y="229.8" width="10.4" height="9.41"/><rect class="f23a9f09-eaa9-4925-9b6b-22666a85210c" x="188.19" y="229.8" width="10.4" height="9.41"/><rect class="f23a9f09-eaa9-4925-9b6b-22666a85210c" x="188.19" y="229.8" width="10.4" height="9.41"/><polygon class="30880133-783c-4dcc-90c8-9c3d2441c1e8" points="239.31 144.17 136.41 144.31 187.78 96.8 239.31 144.17"/></svg>