<svg id="6d5512b9-b22b-44e5-827b-13d748175508" data-name="Fondo" xmlns="http://www.w3.org/2000/svg" viewBox="0 0 300 400"><defs><style>.d1e48b2b-b3ce-42ab-a345-bc0579302bdb{fill:#d6eddc;stroke:#fff;stroke-width:1.46px;}.\31 66a85b2-d3c2-44ae-9c9a-edb751781fb2,.\36 707ebfa-b268-4d8a-80d3-76c61f290e45,.d1e48b2b-b3ce-42ab-a345-bc0579302bdb,.d3afcced-937e-4063-a66c-4c6961cbf0bd,.ddfe277f-9d57-451c-9be7-165f98aa5d5d{stroke-miterlimit:10;}.\31 7b4cedc-3b20-4868-8fa3-053994e80d0f{font-size:18px;fill:#232323;}.\31 7b4cedc-3b20-4868-8fa3-053994e80d0f,.\37 c903a11-99ca-4a52-9fac-0aa0065d052b,.\38 8c565bd-252c-41a8-b091-67047ba61057{font-family:Myriad Pro;font-weight:700;}.\37 c903a11-99ca-4a52-9fac-0aa0065d052b{font-size:50.86px;}.\38 8c565bd-252c-41a8-b091-67047ba61057{font-size:50.9px;fill:#118c97;}.d3afcced-937e-4063-a66c-4c6961cbf0bd{fill:#ff9231;}.\36 707ebfa-b268-4d8a-80d3-76c61f290e45,.d3afcced-937e-4063-a66c-4c6961cbf0bd,.ddfe277f-9d57-451c-9be7-165f98aa5d5d{stroke:#000;}.\31 66a85b2-d3c2-44ae-9c9a-edb751781fb2,.\36 707ebfa-b268-4d8a-80d3-76c61f290e45,.d3afcced-937e-4063-a66c-4c6961cbf0bd,.ddfe277f-9d57-451c-9be7-165f98aa5d5d{stroke-width:0.3px;}.\36 707ebfa-b268-4d8a-80d3-76c61f290e45{fill:#ff6c49;}.ddfe277f-9d57-451c-9be7-165f98aa5d5d{fill:#9fa09f;}.\31 66a85b2-d3c2-44ae-9c9a-edb751781fb2{stroke:#020202;}</style></defs><title>Catástrofes </title><rect class="d1e48b2b-b3ce-42ab-a345-bc0579302bdb" x="1.54" y="3" width="300" height="400"/><text class="17b4cedc-3b20-4868-8fa3-053994e80d0f" transform="matrix(0.9, 0.01, -0.01, 1, 51.29, 159.39)">T<tspan x="9.45" y="0">i</tspan><tspan x="14.38" y="0">p</tspan><tspan x="25.2" y="0">o de </tspan></text><text class="17b4cedc-3b20-4868-8fa3-053994e80d0f" transform="matrix(0.9, 0.01, -0.01, 1, 51.29, 180.99)">V<tspan x="10.96" y="0">ivienda</tspan></text><text class="7c903a11-99ca-4a52-9fac-0aa0065d052b" transform="translate(67.52 76.8) scale(0.91 1)">C<tspan x="29.09" y="0">errillos</tspan></text><text class="17b4cedc-3b20-4868-8fa3-053994e80d0f" transform="matrix(0.9, 0.01, -0.01, 1, 51.29, 159.39)">T<tspan x="9.45" y="0">i</tspan><tspan x="14.38" y="0">p</tspan><tspan x="25.2" y="0">o de </tspan></text><text class="17b4cedc-3b20-4868-8fa3-053994e80d0f" transform="matrix(0.9, 0.01, -0.01, 1, 51.29, 180.99)">V<tspan x="10.96" y="0">ivienda</tspan></text><text class="17b4cedc-3b20-4868-8fa3-053994e80d0f" transform="translate(109.06 284.46) rotate(-0.06) scale(0.9 1)">C<tspan x="10.53" y="0">a</tspan><tspan x="19.89" y="0">tást</tspan><tspan x="50.42" y="0">r</tspan><tspan x="57.11" y="0">o</tspan><tspan x="67.5" y="0">f</tspan><tspan x="73.46" y="0">es</tspan></text><text class="88c565bd-252c-41a8-b091-67047ba61057" transform="translate(161.97 345.96) scale(0.79 1)">4</text><polygon points="115.8 324.06 114.91 315.64 115.64 309.72 118.18 304.31 121.63 299.8 124.75 297.78 124.07 300.26 123.29 303.32 122.69 308.23 123.18 312.06 123.62 314.9 124.74 317.85 125.97 321.16 129.18 325.88 131.55 329.39 132.11 324.94 134.12 319.86 136.13 317.85 137.96 316.31 139 315.25 139 317.5 138.07 320.45 138.38 323.52 138.65 325.53 139.35 329.39 140.7 334.15 142.07 339.58 143 344.42 143 347.97 141.97 353.64 140.95 355.88 138.99 358.36 136.55 360.51 133.66 362.14 131.21 363.2 132.55 361.19 133.45 359.09 133.56 356.12 132.78 353.64 132 351.98 131.1 349.74 130.66 348.08 130.88 344.99 129.62 346.4 129 347.73 129 349.38 128.94 351.04 128.57 352.1 128.69 353.11 127.54 351.33 126.96 348.76 127.39 345.4 127.98 342.92 127.81 340.17 127.39 338.22 126.14 335.83 124.46 333.62 124.96 337.34 124.8 339.29 124.13 342.12 123.46 343.45 122.69 345.49 119.87 348.59 119 348.94 119 346.55 118.72 344.99 118.61 344.25 118.15 343.27 117.37 342.56 117.06 343.45 116.91 345.57 116.58 347.88 116.25 349.74 115.83 351.16 115.25 353.11 114.88 354.61 114.49 356.74 115.08 359.75 116 361.43 116.92 362.32 119.02 364.27 114.5 363.38 112.48 362.23 110.06 360.51 107.71 359.09 104.69 355.5 103 350.89 103 345.13 105.1 338.58 106.99 335.39 108.8 332.82 110 329.39 110 326.71 110 323.87 110 321.04 109.38 320.51 111.09 322.28 112.42 324.05 113.43 325.91 114.18 328.21 114.76 330.34 114.67 332.2 114.83 334.41 114.66 337.51 116.17 334.77 116.67 332.29 116.92 329.9 115.8 324.06"/><polygon points="115.8 324.06 114.91 315.64 115.64 309.72 118.18 304.31 121.63 299.8 124.75 297.78 124.07 300.26 123.29 303.32 122.69 308.23 123.18 312.06 123.62 314.9 124.74 317.85 125.97 321.16 129.18 325.88 131.55 329.39 132.11 324.94 134.12 319.86 136.13 317.85 137.96 316.31 139 315.25 139 317.5 138.07 320.45 138.38 323.52 138.65 325.53 139.35 329.39 140.7 334.15 142.07 339.58 143 344.42 143 347.97 141.97 353.64 140.95 355.88 138.99 358.36 136.55 360.51 133.66 362.14 131.21 363.2 132.55 361.19 133.45 359.09 133.56 356.12 132.78 353.64 132 351.98 131.1 349.74 130.66 348.08 130.88 344.99 129.62 346.4 129 347.73 129 349.38 128.94 351.04 128.57 352.1 128.69 353.11 127.54 351.33 126.96 348.76 127.39 345.4 127.98 342.92 127.81 340.17 127.39 338.22 126.14 335.83 124.46 333.62 124.96 337.34 124.8 339.29 124.13 342.12 123.46 343.45 122.69 345.49 119.87 348.59 119 348.94 119 346.55 118.72 344.99 118.61 344.25 118.15 343.27 117.37 342.56 117.06 343.45 116.91 345.57 116.58 347.88 116.25 349.74 115.83 351.16 115.25 353.11 114.88 354.61 114.49 356.74 115.08 359.75 116 361.43 116.92 362.32 119.02 364.27 114.5 363.38 112.48 362.23 110.06 360.51 107.71 359.09 104.69 355.5 103 350.89 103 345.13 105.1 338.58 106.99 335.39 108.8 332.82 110 329.39 110 326.71 110 323.87 110 321.04 109.38 320.51 111.09 322.28 112.42 324.05 113.43 325.91 114.18 328.21 114.76 330.34 114.67 332.2 114.83 334.41 114.66 337.51 116.17 334.77 116.67 332.29 116.92 329.9 115.8 324.06"/><rect class="d3afcced-937e-4063-a66c-4c6961cbf0bd" x="142.18" y="143.65" width="10.51" height="9.51"/><rect class="d3afcced-937e-4063-a66c-4c6961cbf0bd" x="152.7" y="143.65" width="10.51" height="9.51"/><rect class="d3afcced-937e-4063-a66c-4c6961cbf0bd" x="189.5" y="150.96" width="10.51" height="9.51" rx="4.54" ry="4.54"/><rect class="d3afcced-937e-4063-a66c-4c6961cbf0bd" x="163.21" y="143.65" width="10.51" height="9.51"/><rect class="d3afcced-937e-4063-a66c-4c6961cbf0bd" x="163.21" y="143.65" width="10.51" height="9.51"/><rect class="d3afcced-937e-4063-a66c-4c6961cbf0bd" x="173.72" y="143.65" width="10.51" height="9.51"/><rect class="d3afcced-937e-4063-a66c-4c6961cbf0bd" x="173.72" y="143.65" width="10.51" height="9.51"/><rect class="d3afcced-937e-4063-a66c-4c6961cbf0bd" x="205.27" y="143.65" width="10.51" height="9.51"/><rect class="d3afcced-937e-4063-a66c-4c6961cbf0bd" x="205.27" y="143.65" width="10.51" height="9.51"/><rect class="d3afcced-937e-4063-a66c-4c6961cbf0bd" x="215.78" y="143.65" width="10.51" height="9.51"/><rect class="d3afcced-937e-4063-a66c-4c6961cbf0bd" x="215.78" y="143.65" width="10.51" height="9.51"/><rect class="d3afcced-937e-4063-a66c-4c6961cbf0bd" x="236.81" y="143.65" width="10.51" height="9.51"/><rect class="d3afcced-937e-4063-a66c-4c6961cbf0bd" x="236.81" y="143.65" width="10.51" height="9.51"/><rect class="d3afcced-937e-4063-a66c-4c6961cbf0bd" x="184.24" y="143.65" width="10.51" height="9.51"/><rect class="d3afcced-937e-4063-a66c-4c6961cbf0bd" x="184.24" y="143.65" width="10.51" height="9.51"/><rect class="d3afcced-937e-4063-a66c-4c6961cbf0bd" x="194.75" y="143.65" width="10.51" height="9.51"/><rect class="d3afcced-937e-4063-a66c-4c6961cbf0bd" x="194.75" y="143.65" width="10.51" height="9.51"/><rect class="d3afcced-937e-4063-a66c-4c6961cbf0bd" x="142.18" y="153.16" width="10.51" height="9.51"/><rect class="d3afcced-937e-4063-a66c-4c6961cbf0bd" x="142.18" y="153.16" width="10.51" height="9.51"/><rect class="d3afcced-937e-4063-a66c-4c6961cbf0bd" x="152.7" y="153.16" width="10.51" height="9.51"/><rect class="d3afcced-937e-4063-a66c-4c6961cbf0bd" x="152.7" y="153.16" width="10.51" height="9.51"/><rect class="d3afcced-937e-4063-a66c-4c6961cbf0bd" x="163.21" y="153.16" width="10.51" height="9.51"/><rect class="d3afcced-937e-4063-a66c-4c6961cbf0bd" x="163.21" y="153.16" width="10.51" height="9.51"/><rect class="d3afcced-937e-4063-a66c-4c6961cbf0bd" x="173.72" y="153.16" width="10.51" height="9.51"/><rect class="d3afcced-937e-4063-a66c-4c6961cbf0bd" x="173.72" y="153.16" width="10.51" height="9.51"/><rect class="d3afcced-937e-4063-a66c-4c6961cbf0bd" x="205.27" y="153.16" width="10.51" height="9.51"/><rect class="d3afcced-937e-4063-a66c-4c6961cbf0bd" x="205.27" y="153.16" width="10.51" height="9.51"/><rect class="d3afcced-937e-4063-a66c-4c6961cbf0bd" x="215.78" y="153.16" width="10.51" height="9.51"/><rect class="d3afcced-937e-4063-a66c-4c6961cbf0bd" x="215.78" y="153.16" width="10.51" height="9.51"/><rect class="d3afcced-937e-4063-a66c-4c6961cbf0bd" x="236.81" y="153.16" width="10.51" height="9.51"/><rect class="d3afcced-937e-4063-a66c-4c6961cbf0bd" x="236.81" y="153.16" width="10.51" height="9.51"/><rect class="d3afcced-937e-4063-a66c-4c6961cbf0bd" x="184.24" y="153.16" width="10.51" height="9.51"/><rect class="d3afcced-937e-4063-a66c-4c6961cbf0bd" x="184.24" y="153.16" width="10.51" height="9.51"/><rect class="d3afcced-937e-4063-a66c-4c6961cbf0bd" x="194.75" y="153.16" width="10.51" height="9.51"/><rect class="d3afcced-937e-4063-a66c-4c6961cbf0bd" x="142.18" y="162.67" width="10.51" height="9.51"/><rect class="d3afcced-937e-4063-a66c-4c6961cbf0bd" x="142.18" y="162.67" width="10.51" height="9.51"/><rect class="d3afcced-937e-4063-a66c-4c6961cbf0bd" x="152.7" y="162.67" width="10.51" height="9.51"/><rect class="d3afcced-937e-4063-a66c-4c6961cbf0bd" x="152.7" y="162.67" width="10.51" height="9.51"/><rect class="d3afcced-937e-4063-a66c-4c6961cbf0bd" x="163.21" y="162.67" width="10.51" height="9.51"/><rect class="d3afcced-937e-4063-a66c-4c6961cbf0bd" x="163.21" y="162.67" width="10.51" height="9.51"/><rect class="d3afcced-937e-4063-a66c-4c6961cbf0bd" x="173.72" y="162.67" width="10.51" height="9.51"/><rect class="d3afcced-937e-4063-a66c-4c6961cbf0bd" x="173.72" y="162.67" width="10.51" height="9.51"/><rect class="d3afcced-937e-4063-a66c-4c6961cbf0bd" x="205.27" y="162.67" width="10.51" height="9.51"/><rect class="d3afcced-937e-4063-a66c-4c6961cbf0bd" x="205.27" y="162.67" width="10.51" height="9.51"/><rect class="d3afcced-937e-4063-a66c-4c6961cbf0bd" x="215.78" y="162.67" width="10.51" height="9.51"/><rect class="d3afcced-937e-4063-a66c-4c6961cbf0bd" x="215.78" y="162.67" width="10.51" height="9.51"/><rect class="d3afcced-937e-4063-a66c-4c6961cbf0bd" x="236.81" y="162.67" width="10.51" height="9.51"/><rect class="d3afcced-937e-4063-a66c-4c6961cbf0bd" x="236.81" y="162.67" width="10.51" height="9.51"/><rect class="d3afcced-937e-4063-a66c-4c6961cbf0bd" x="184.24" y="162.67" width="10.51" height="9.51"/><rect class="d3afcced-937e-4063-a66c-4c6961cbf0bd" x="184.24" y="162.67" width="10.51" height="9.51"/><rect class="d3afcced-937e-4063-a66c-4c6961cbf0bd" x="194.75" y="162.67" width="10.51" height="9.51"/><rect class="d3afcced-937e-4063-a66c-4c6961cbf0bd" x="194.75" y="162.67" width="10.51" height="9.51"/><rect class="6707ebfa-b268-4d8a-80d3-76c61f290e45" x="142.18" y="172.18" width="10.51" height="9.51"/><rect class="6707ebfa-b268-4d8a-80d3-76c61f290e45" x="142.18" y="172.18" width="10.51" height="9.51"/><rect class="6707ebfa-b268-4d8a-80d3-76c61f290e45" x="152.7" y="172.18" width="10.51" height="9.51"/><rect class="6707ebfa-b268-4d8a-80d3-76c61f290e45" x="152.7" y="172.18" width="10.51" height="9.51"/><rect class="6707ebfa-b268-4d8a-80d3-76c61f290e45" x="163.21" y="172.18" width="10.51" height="9.51"/><rect class="6707ebfa-b268-4d8a-80d3-76c61f290e45" x="163.21" y="172.18" width="10.51" height="9.51"/><rect class="6707ebfa-b268-4d8a-80d3-76c61f290e45" x="173.72" y="172.18" width="10.51" height="9.51"/><rect class="6707ebfa-b268-4d8a-80d3-76c61f290e45" x="173.72" y="172.18" width="10.51" height="9.51"/><rect class="6707ebfa-b268-4d8a-80d3-76c61f290e45" x="205.27" y="172.18" width="10.51" height="9.51"/><rect class="ddfe277f-9d57-451c-9be7-165f98aa5d5d" x="205.27" y="172.18" width="10.51" height="9.51"/><rect class="6707ebfa-b268-4d8a-80d3-76c61f290e45" x="215.78" y="172.18" width="10.51" height="9.51"/><rect class="d3afcced-937e-4063-a66c-4c6961cbf0bd" x="215.78" y="172.18" width="10.51" height="9.51"/><rect class="6707ebfa-b268-4d8a-80d3-76c61f290e45" x="236.81" y="172.18" width="10.51" height="9.51"/><rect class="d3afcced-937e-4063-a66c-4c6961cbf0bd" x="236.81" y="172.18" width="10.51" height="9.51"/><rect class="6707ebfa-b268-4d8a-80d3-76c61f290e45" x="184.24" y="172.18" width="10.51" height="9.51"/><rect class="6707ebfa-b268-4d8a-80d3-76c61f290e45" x="184.24" y="172.18" width="10.51" height="9.51"/><rect class="6707ebfa-b268-4d8a-80d3-76c61f290e45" x="194.75" y="172.18" width="10.51" height="9.51"/><rect class="6707ebfa-b268-4d8a-80d3-76c61f290e45" x="194.75" y="172.18" width="10.51" height="9.51"/><rect class="6707ebfa-b268-4d8a-80d3-76c61f290e45" x="142.18" y="181.69" width="10.51" height="9.51"/><rect class="6707ebfa-b268-4d8a-80d3-76c61f290e45" x="142.18" y="181.69" width="10.51" height="9.51"/><rect class="6707ebfa-b268-4d8a-80d3-76c61f290e45" x="152.7" y="181.69" width="10.51" height="9.51"/><rect class="6707ebfa-b268-4d8a-80d3-76c61f290e45" x="152.7" y="181.69" width="10.51" height="9.51"/><rect class="6707ebfa-b268-4d8a-80d3-76c61f290e45" x="163.21" y="181.69" width="10.51" height="9.51"/><rect class="6707ebfa-b268-4d8a-80d3-76c61f290e45" x="163.21" y="181.69" width="10.51" height="9.51"/><rect class="6707ebfa-b268-4d8a-80d3-76c61f290e45" x="173.72" y="181.69" width="10.51" height="9.51"/><rect class="6707ebfa-b268-4d8a-80d3-76c61f290e45" x="173.72" y="181.69" width="10.51" height="9.51"/><rect class="6707ebfa-b268-4d8a-80d3-76c61f290e45" x="205.27" y="181.69" width="10.51" height="9.51"/><rect class="6707ebfa-b268-4d8a-80d3-76c61f290e45" x="205.27" y="181.69" width="10.51" height="9.51"/><rect class="6707ebfa-b268-4d8a-80d3-76c61f290e45" x="215.78" y="181.69" width="10.51" height="9.51"/><rect class="6707ebfa-b268-4d8a-80d3-76c61f290e45" x="215.78" y="181.69" width="10.51" height="9.51"/><rect class="6707ebfa-b268-4d8a-80d3-76c61f290e45" x="236.81" y="181.69" width="10.51" height="9.51"/><rect class="6707ebfa-b268-4d8a-80d3-76c61f290e45" x="236.81" y="181.69" width="10.51" height="9.51"/><rect class="6707ebfa-b268-4d8a-80d3-76c61f290e45" x="184.24" y="181.69" width="10.51" height="9.51"/><rect class="6707ebfa-b268-4d8a-80d3-76c61f290e45" x="184.24" y="181.69" width="10.51" height="9.51"/><rect class="6707ebfa-b268-4d8a-80d3-76c61f290e45" x="194.75" y="181.69" width="10.51" height="9.51"/><rect class="6707ebfa-b268-4d8a-80d3-76c61f290e45" x="194.75" y="181.69" width="10.51" height="9.51"/><rect class="6707ebfa-b268-4d8a-80d3-76c61f290e45" x="142.18" y="191.2" width="10.51" height="9.51"/><rect class="6707ebfa-b268-4d8a-80d3-76c61f290e45" x="142.18" y="191.2" width="10.51" height="9.51"/><rect class="6707ebfa-b268-4d8a-80d3-76c61f290e45" x="152.7" y="191.2" width="10.51" height="9.51"/><rect class="6707ebfa-b268-4d8a-80d3-76c61f290e45" x="152.7" y="191.2" width="10.51" height="9.51"/><rect class="6707ebfa-b268-4d8a-80d3-76c61f290e45" x="163.21" y="191.2" width="10.51" height="9.51"/><rect class="6707ebfa-b268-4d8a-80d3-76c61f290e45" x="163.21" y="191.2" width="10.51" height="9.51"/><rect class="6707ebfa-b268-4d8a-80d3-76c61f290e45" x="173.72" y="191.2" width="10.51" height="9.51"/><rect class="6707ebfa-b268-4d8a-80d3-76c61f290e45" x="173.72" y="191.2" width="10.51" height="9.51"/><rect class="6707ebfa-b268-4d8a-80d3-76c61f290e45" x="205.27" y="191.2" width="10.51" height="9.51"/><rect class="6707ebfa-b268-4d8a-80d3-76c61f290e45" x="205.27" y="191.2" width="10.51" height="9.51"/><rect class="6707ebfa-b268-4d8a-80d3-76c61f290e45" x="215.78" y="191.2" width="10.51" height="9.51"/><rect class="6707ebfa-b268-4d8a-80d3-76c61f290e45" x="215.78" y="191.2" width="10.51" height="9.51"/><rect class="6707ebfa-b268-4d8a-80d3-76c61f290e45" x="236.81" y="191.2" width="10.51" height="9.51"/><rect class="6707ebfa-b268-4d8a-80d3-76c61f290e45" x="236.81" y="191.2" width="10.51" height="9.51"/><rect class="6707ebfa-b268-4d8a-80d3-76c61f290e45" x="184.24" y="191.2" width="10.51" height="9.51"/><rect class="6707ebfa-b268-4d8a-80d3-76c61f290e45" x="184.24" y="191.2" width="10.51" height="9.51"/><rect class="6707ebfa-b268-4d8a-80d3-76c61f290e45" x="194.75" y="191.2" width="10.51" height="9.51"/><rect class="6707ebfa-b268-4d8a-80d3-76c61f290e45" x="194.75" y="191.2" width="10.51" height="9.51"/><rect class="6707ebfa-b268-4d8a-80d3-76c61f290e45" x="142.18" y="200.71" width="10.51" height="9.51"/><rect class="6707ebfa-b268-4d8a-80d3-76c61f290e45" x="142.18" y="200.71" width="10.51" height="9.51"/><rect class="6707ebfa-b268-4d8a-80d3-76c61f290e45" x="152.7" y="200.71" width="10.51" height="9.51"/><rect class="6707ebfa-b268-4d8a-80d3-76c61f290e45" x="152.7" y="200.71" width="10.51" height="9.51"/><rect class="6707ebfa-b268-4d8a-80d3-76c61f290e45" x="163.21" y="200.71" width="10.51" height="9.51"/><rect class="6707ebfa-b268-4d8a-80d3-76c61f290e45" x="163.21" y="200.71" width="10.51" height="9.51"/><rect class="6707ebfa-b268-4d8a-80d3-76c61f290e45" x="173.72" y="200.71" width="10.51" height="9.51"/><rect class="6707ebfa-b268-4d8a-80d3-76c61f290e45" x="173.72" y="200.71" width="10.51" height="9.51"/><rect class="6707ebfa-b268-4d8a-80d3-76c61f290e45" x="205.27" y="200.71" width="10.51" height="9.51"/><rect class="6707ebfa-b268-4d8a-80d3-76c61f290e45" x="205.27" y="200.71" width="10.51" height="9.51"/><rect class="6707ebfa-b268-4d8a-80d3-76c61f290e45" x="215.78" y="200.71" width="10.51" height="9.51"/><rect class="6707ebfa-b268-4d8a-80d3-76c61f290e45" x="215.78" y="200.71" width="10.51" height="9.51"/><rect class="6707ebfa-b268-4d8a-80d3-76c61f290e45" x="236.81" y="200.71" width="10.51" height="9.51"/><rect class="6707ebfa-b268-4d8a-80d3-76c61f290e45" x="236.81" y="200.71" width="10.51" height="9.51"/><rect class="6707ebfa-b268-4d8a-80d3-76c61f290e45" x="184.24" y="200.71" width="10.51" height="9.51"/><rect class="6707ebfa-b268-4d8a-80d3-76c61f290e45" x="184.24" y="200.71" width="10.51" height="9.51"/><rect class="6707ebfa-b268-4d8a-80d3-76c61f290e45" x="194.75" y="200.71" width="10.51" height="9.51"/><rect class="6707ebfa-b268-4d8a-80d3-76c61f290e45" x="194.75" y="200.71" width="10.51" height="9.51"/><rect class="6707ebfa-b268-4d8a-80d3-76c61f290e45" x="142.18" y="210.22" width="10.51" height="9.51"/><rect class="6707ebfa-b268-4d8a-80d3-76c61f290e45" x="142.18" y="210.22" width="10.51" height="9.51"/><rect class="6707ebfa-b268-4d8a-80d3-76c61f290e45" x="152.7" y="210.22" width="10.51" height="9.51"/><rect class="6707ebfa-b268-4d8a-80d3-76c61f290e45" x="152.7" y="210.22" width="10.51" height="9.51"/><rect class="6707ebfa-b268-4d8a-80d3-76c61f290e45" x="163.21" y="210.22" width="10.51" height="9.51"/><rect class="6707ebfa-b268-4d8a-80d3-76c61f290e45" x="163.21" y="210.22" width="10.51" height="9.51"/><rect class="6707ebfa-b268-4d8a-80d3-76c61f290e45" x="173.72" y="210.22" width="10.51" height="9.51"/><rect class="6707ebfa-b268-4d8a-80d3-76c61f290e45" x="173.72" y="210.22" width="10.51" height="9.51"/><rect class="6707ebfa-b268-4d8a-80d3-76c61f290e45" x="205.27" y="210.22" width="10.51" height="9.51"/><rect class="6707ebfa-b268-4d8a-80d3-76c61f290e45" x="205.27" y="210.22" width="10.51" height="9.51"/><rect class="6707ebfa-b268-4d8a-80d3-76c61f290e45" x="215.78" y="210.22" width="10.51" height="9.51"/><rect class="6707ebfa-b268-4d8a-80d3-76c61f290e45" x="215.78" y="210.22" width="10.51" height="9.51"/><rect class="6707ebfa-b268-4d8a-80d3-76c61f290e45" x="236.81" y="210.22" width="10.51" height="9.51"/><rect class="6707ebfa-b268-4d8a-80d3-76c61f290e45" x="236.81" y="210.22" width="10.51" height="9.51"/><rect class="6707ebfa-b268-4d8a-80d3-76c61f290e45" x="184.24" y="210.22" width="10.51" height="9.51"/><rect class="6707ebfa-b268-4d8a-80d3-76c61f290e45" x="184.24" y="210.22" width="10.51" height="9.51"/><rect class="6707ebfa-b268-4d8a-80d3-76c61f290e45" x="194.75" y="210.22" width="10.51" height="9.51"/><rect class="6707ebfa-b268-4d8a-80d3-76c61f290e45" x="194.75" y="210.22" width="10.51" height="9.51"/><rect class="6707ebfa-b268-4d8a-80d3-76c61f290e45" x="142.18" y="219.73" width="10.51" height="9.51"/><rect class="6707ebfa-b268-4d8a-80d3-76c61f290e45" x="142.18" y="219.73" width="10.51" height="9.51"/><rect class="6707ebfa-b268-4d8a-80d3-76c61f290e45" x="152.7" y="219.73" width="10.51" height="9.51"/><rect class="6707ebfa-b268-4d8a-80d3-76c61f290e45" x="152.7" y="219.73" width="10.51" height="9.51"/><rect class="6707ebfa-b268-4d8a-80d3-76c61f290e45" x="163.21" y="219.73" width="10.51" height="9.51"/><rect class="6707ebfa-b268-4d8a-80d3-76c61f290e45" x="163.21" y="219.73" width="10.51" height="9.51"/><rect class="6707ebfa-b268-4d8a-80d3-76c61f290e45" x="173.72" y="219.73" width="10.51" height="9.51"/><rect class="6707ebfa-b268-4d8a-80d3-76c61f290e45" x="173.72" y="219.73" width="10.51" height="9.51"/><rect class="6707ebfa-b268-4d8a-80d3-76c61f290e45" x="205.27" y="219.73" width="10.51" height="9.51"/><rect class="6707ebfa-b268-4d8a-80d3-76c61f290e45" x="205.27" y="219.73" width="10.51" height="9.51"/><rect class="6707ebfa-b268-4d8a-80d3-76c61f290e45" x="215.78" y="219.73" width="10.51" height="9.51"/><rect class="6707ebfa-b268-4d8a-80d3-76c61f290e45" x="215.78" y="219.73" width="10.51" height="9.51"/><rect class="6707ebfa-b268-4d8a-80d3-76c61f290e45" x="236.81" y="219.73" width="10.51" height="9.51"/><rect class="6707ebfa-b268-4d8a-80d3-76c61f290e45" x="236.81" y="219.73" width="10.51" height="9.51"/><rect class="6707ebfa-b268-4d8a-80d3-76c61f290e45" x="184.24" y="219.73" width="10.51" height="9.51"/><rect class="6707ebfa-b268-4d8a-80d3-76c61f290e45" x="184.24" y="219.73" width="10.51" height="9.51"/><rect class="6707ebfa-b268-4d8a-80d3-76c61f290e45" x="194.75" y="219.73" width="10.51" height="9.51"/><rect class="6707ebfa-b268-4d8a-80d3-76c61f290e45" x="194.75" y="219.73" width="10.51" height="9.51"/><rect class="6707ebfa-b268-4d8a-80d3-76c61f290e45" x="142.18" y="229.24" width="10.51" height="9.51"/><rect class="6707ebfa-b268-4d8a-80d3-76c61f290e45" x="142.18" y="229.24" width="10.51" height="9.51"/><rect class="6707ebfa-b268-4d8a-80d3-76c61f290e45" x="152.7" y="229.24" width="10.51" height="9.51"/><rect class="6707ebfa-b268-4d8a-80d3-76c61f290e45" x="152.7" y="229.24" width="10.51" height="9.51"/><rect class="6707ebfa-b268-4d8a-80d3-76c61f290e45" x="163.21" y="229.24" width="10.51" height="9.51"/><rect class="6707ebfa-b268-4d8a-80d3-76c61f290e45" x="163.21" y="229.24" width="10.51" height="9.51"/><rect class="6707ebfa-b268-4d8a-80d3-76c61f290e45" x="173.72" y="229.24" width="10.51" height="9.51"/><rect class="6707ebfa-b268-4d8a-80d3-76c61f290e45" x="173.72" y="229.24" width="10.51" height="9.51"/><rect class="6707ebfa-b268-4d8a-80d3-76c61f290e45" x="205.27" y="229.24" width="10.51" height="9.51"/><rect class="6707ebfa-b268-4d8a-80d3-76c61f290e45" x="205.27" y="229.24" width="10.51" height="9.51"/><rect class="6707ebfa-b268-4d8a-80d3-76c61f290e45" x="215.78" y="229.24" width="10.51" height="9.51"/><rect class="6707ebfa-b268-4d8a-80d3-76c61f290e45" x="215.78" y="229.24" width="10.51" height="9.51"/><rect class="6707ebfa-b268-4d8a-80d3-76c61f290e45" x="236.81" y="229.24" width="10.51" height="9.51"/><rect class="6707ebfa-b268-4d8a-80d3-76c61f290e45" x="236.81" y="229.24" width="10.51" height="9.51"/><rect class="d3afcced-937e-4063-a66c-4c6961cbf0bd" x="226.3" y="143.65" width="10.51" height="9.51"/><rect class="d3afcced-937e-4063-a66c-4c6961cbf0bd" x="226.3" y="143.65" width="10.51" height="9.51"/><rect class="d3afcced-937e-4063-a66c-4c6961cbf0bd" x="226.3" y="153.16" width="10.51" height="9.51"/><rect class="d3afcced-937e-4063-a66c-4c6961cbf0bd" x="226.3" y="153.16" width="10.51" height="9.51"/><rect class="d3afcced-937e-4063-a66c-4c6961cbf0bd" x="226.3" y="162.67" width="10.51" height="9.51"/><rect class="d3afcced-937e-4063-a66c-4c6961cbf0bd" x="226.3" y="162.67" width="10.51" height="9.51"/><rect class="6707ebfa-b268-4d8a-80d3-76c61f290e45" x="226.3" y="172.18" width="10.51" height="9.51"/><rect class="d3afcced-937e-4063-a66c-4c6961cbf0bd" x="226.3" y="172.18" width="10.51" height="9.51"/><rect class="6707ebfa-b268-4d8a-80d3-76c61f290e45" x="226.3" y="181.69" width="10.51" height="9.51"/><rect class="6707ebfa-b268-4d8a-80d3-76c61f290e45" x="226.3" y="181.69" width="10.51" height="9.51"/><rect class="6707ebfa-b268-4d8a-80d3-76c61f290e45" x="226.3" y="191.2" width="10.51" height="9.51"/><rect class="6707ebfa-b268-4d8a-80d3-76c61f290e45" x="226.3" y="191.2" width="10.51" height="9.51"/><rect class="6707ebfa-b268-4d8a-80d3-76c61f290e45" x="226.3" y="200.71" width="10.51" height="9.51"/><rect class="6707ebfa-b268-4d8a-80d3-76c61f290e45" x="226.3" y="200.71" width="10.51" height="9.51"/><rect class="6707ebfa-b268-4d8a-80d3-76c61f290e45" x="226.3" y="210.22" width="10.51" height="9.51"/><rect class="6707ebfa-b268-4d8a-80d3-76c61f290e45" x="226.3" y="210.22" width="10.51" height="9.51"/><rect class="6707ebfa-b268-4d8a-80d3-76c61f290e45" x="226.3" y="219.73" width="10.51" height="9.51"/><rect class="6707ebfa-b268-4d8a-80d3-76c61f290e45" x="226.3" y="219.73" width="10.51" height="9.51"/><rect class="6707ebfa-b268-4d8a-80d3-76c61f290e45" x="226.3" y="229.24" width="10.51" height="9.51"/><rect class="6707ebfa-b268-4d8a-80d3-76c61f290e45" x="226.3" y="229.24" width="10.51" height="9.51"/><rect class="6707ebfa-b268-4d8a-80d3-76c61f290e45" x="184.24" y="229.24" width="10.51" height="9.51"/><rect class="6707ebfa-b268-4d8a-80d3-76c61f290e45" x="184.24" y="229.24" width="10.51" height="9.51"/><rect class="6707ebfa-b268-4d8a-80d3-76c61f290e45" x="194.75" y="229.24" width="10.51" height="9.51"/><rect class="6707ebfa-b268-4d8a-80d3-76c61f290e45" x="194.75" y="229.24" width="10.51" height="9.51"/><polygon class="166a85b2-d3c2-44ae-9c9a-edb751781fb2" points="246.43 142.69 142.41 142.82 194.34 94.8 246.43 142.69"/></svg>