<svg id="27b8b4df-f8f9-4c06-86a8-1e0cfe0d86b2" data-name="Fondo" xmlns="http://www.w3.org/2000/svg" viewBox="0 0 300 400"><defs><style>.\35 75f4db9-471c-4473-ab5d-9bb4b01a70b7{fill:#d6eddc;stroke:#fff;stroke-width:1.46px;}.\34 669dc94-684e-4226-a858-c5985c6f6fd7,.\35 75f4db9-471c-4473-ab5d-9bb4b01a70b7,.\36 3393a5d-558a-4da7-b4ec-83696ef0ade4,.\36 f6fcb2c-9045-4513-849d-74b9cb45fc75,.\38 5bc6dd3-b5ab-4eff-b238-94a34d2fad2a,.e42ad758-3a98-4de3-adae-7de908bd06ce,.eb783fe9-51de-4a78-90b4-82481a73a17a{stroke-miterlimit:10;}.cdb84397-e0d7-46dc-824e-ebe62cf1ab30{font-size:50.86px;}.\33 da61be4-6550-49ca-a616-dea3af864441,.b1ddea1c-7464-45b7-93fe-4f42370c06db,.cdb84397-e0d7-46dc-824e-ebe62cf1ab30{font-family:Myriad Pro;font-weight:700;}.b1ddea1c-7464-45b7-93fe-4f42370c06db{font-size:18px;fill:#232323;}.\33 da61be4-6550-49ca-a616-dea3af864441{font-size:39.55px;fill:#118c97;}.\34 669dc94-684e-4226-a858-c5985c6f6fd7{fill:#9fa09f;}.\34 669dc94-684e-4226-a858-c5985c6f6fd7,.\36 f6fcb2c-9045-4513-849d-74b9cb45fc75,.e42ad758-3a98-4de3-adae-7de908bd06ce,.eb783fe9-51de-4a78-90b4-82481a73a17a{stroke:#000;}.\34 669dc94-684e-4226-a858-c5985c6f6fd7,.\36 3393a5d-558a-4da7-b4ec-83696ef0ade4,.\36 f6fcb2c-9045-4513-849d-74b9cb45fc75,.e42ad758-3a98-4de3-adae-7de908bd06ce,.eb783fe9-51de-4a78-90b4-82481a73a17a{stroke-width:0.32px;}.eb783fe9-51de-4a78-90b4-82481a73a17a{fill:#ff9231;}.\36 f6fcb2c-9045-4513-849d-74b9cb45fc75{fill:#ff6c49;}.e42ad758-3a98-4de3-adae-7de908bd06ce{fill:#8e4713;}.\38 5bc6dd3-b5ab-4eff-b238-94a34d2fad2a{fill:#931c0a;stroke:#1d1d1b;stroke-width:0.39px;}.\36 3393a5d-558a-4da7-b4ec-83696ef0ade4{stroke:#020202;}</style></defs><title>Catástrofes </title><rect class="575f4db9-471c-4473-ab5d-9bb4b01a70b7" x="0.54" width="300" height="400"/><text class="cdb84397-e0d7-46dc-824e-ebe62cf1ab30" transform="translate(61.73 66.01) scale(0.91 1)">L<tspan x="24.52" y="0">o </tspan><tspan x="63.73" y="0">P</tspan><tspan x="91.55" y="0">r</tspan><tspan x="109.2" y="0">ado</tspan></text><text class="b1ddea1c-7464-45b7-93fe-4f42370c06db" transform="translate(50.17 164.7) rotate(-0.18) scale(0.9 1)">T<tspan x="9.45" y="0">i</tspan><tspan x="14.38" y="0">p</tspan><tspan x="25.2" y="0">o de </tspan></text><text class="b1ddea1c-7464-45b7-93fe-4f42370c06db" transform="translate(50.24 186.21) rotate(0.1) scale(0.9 1)">V<tspan x="10.96" y="0">ivienda</tspan></text><text class="b1ddea1c-7464-45b7-93fe-4f42370c06db" transform="translate(109.02 294) rotate(0.33) scale(0.9 1)">C<tspan x="10.53" y="0">a</tspan><tspan x="19.89" y="0">tást</tspan><tspan x="50.42" y="0">r</tspan><tspan x="57.11" y="0">o</tspan><tspan x="67.5" y="0">f</tspan><tspan x="73.46" y="0">es</tspan></text><text class="3da61be4-6550-49ca-a616-dea3af864441" transform="translate(169.72 351.18) scale(0.88 1)">4</text><polygon points="133.14 334.17 132.37 327.62 133 323.02 135.21 318.81 138.22 315.31 140.93 313.75 140.34 315.67 139.66 318.05 139.14 321.86 139.56 324.84 139.95 327.05 140.93 329.34 142 331.91 144.79 335.58 146.85 338.3 147.34 334.85 149.09 330.9 150.84 329.34 152.26 328.15 153 327.32 153 329.06 152.36 331.36 152.72 333.74 152.99 335.3 153.62 338.3 154.81 342 156.1 346.22 157 349.99 157 352.74 156.01 357.14 155.08 358.89 153.35 360.81 151.22 362.49 148.7 363.75 146.56 364.58 147.73 363.02 148.51 361.38 148.6 359.07 147.92 357.14 147.24 355.86 146.47 354.12 146.08 352.83 146.27 350.43 145.36 351.53 145 352.56 145 353.84 144.76 355.13 144.35 355.95 144.41 356.73 143.38 355.36 142.87 353.36 143.24 350.74 143.75 348.82 143.6 346.68 143.23 345.17 142.14 343.31 140.68 341.59 141.12 344.48 140.97 346 140.39 348.2 139.81 349.23 139.14 350.81 136.72 353.22 136 353.5 136 351.64 135.72 350.43 135.61 349.85 135.19 349.09 134.51 348.54 134.24 349.23 134.11 350.88 133.82 352.67 133.53 354.12 133.17 355.22 132.66 356.73 132.34 357.9 132.01 359.55 132.52 361.89 133.32 363.2 134.12 363.89 135.94 365.4 132.01 364.72 130.26 363.82 128.14 362.49 126.1 361.38 123.47 358.59 122 355.01 122 350.54 123.83 345.44 125.48 342.97 127 340.97 128 338.3 128 336.22 128 334.02 128 331.82 127.5 331.4 129.02 332.78 130.18 334.16 131.08 335.6 131.73 337.39 132.23 339.04 132.16 340.49 132.3 342.21 132.15 344.62 133.47 342.49 133.9 340.56 134.12 338.7 133.14 334.17"/><rect class="4669dc94-684e-4226-a858-c5985c6f6fd7" x="145.18" y="140.98" width="11.02" height="9.97"/><rect class="4669dc94-684e-4226-a858-c5985c6f6fd7" x="156.2" y="140.98" width="11.02" height="9.97"/><rect class="eb783fe9-51de-4a78-90b4-82481a73a17a" x="194.76" y="148.65" width="11.02" height="9.97" rx="4.98" ry="4.98"/><rect class="4669dc94-684e-4226-a858-c5985c6f6fd7" x="167.22" y="140.98" width="11.02" height="9.97"/><rect class="4669dc94-684e-4226-a858-c5985c6f6fd7" x="167.22" y="140.98" width="11.02" height="9.97"/><rect class="4669dc94-684e-4226-a858-c5985c6f6fd7" x="178.23" y="140.98" width="11.02" height="9.97"/><rect class="4669dc94-684e-4226-a858-c5985c6f6fd7" x="178.23" y="140.98" width="11.02" height="9.97"/><rect class="4669dc94-684e-4226-a858-c5985c6f6fd7" x="211.29" y="140.98" width="11.02" height="9.97"/><rect class="4669dc94-684e-4226-a858-c5985c6f6fd7" x="211.29" y="140.98" width="11.02" height="9.97"/><rect class="4669dc94-684e-4226-a858-c5985c6f6fd7" x="222.31" y="140.98" width="11.02" height="9.97"/><rect class="4669dc94-684e-4226-a858-c5985c6f6fd7" x="222.31" y="140.98" width="11.02" height="9.97"/><rect class="4669dc94-684e-4226-a858-c5985c6f6fd7" x="244.34" y="140.95" width="11.02" height="9.97"/><rect class="4669dc94-684e-4226-a858-c5985c6f6fd7" x="244.34" y="140.95" width="11.02" height="9.97"/><rect class="4669dc94-684e-4226-a858-c5985c6f6fd7" x="189.25" y="140.98" width="11.02" height="9.97"/><rect class="4669dc94-684e-4226-a858-c5985c6f6fd7" x="189.25" y="140.98" width="11.02" height="9.97"/><rect class="4669dc94-684e-4226-a858-c5985c6f6fd7" x="200.27" y="140.98" width="11.02" height="9.97"/><rect class="4669dc94-684e-4226-a858-c5985c6f6fd7" x="200.27" y="140.98" width="11.02" height="9.97"/><rect class="eb783fe9-51de-4a78-90b4-82481a73a17a" x="145.18" y="150.95" width="11.02" height="9.97"/><rect class="eb783fe9-51de-4a78-90b4-82481a73a17a" x="145.18" y="150.95" width="11.02" height="9.97"/><rect class="eb783fe9-51de-4a78-90b4-82481a73a17a" x="156.2" y="150.95" width="11.02" height="9.97"/><rect class="eb783fe9-51de-4a78-90b4-82481a73a17a" x="156.2" y="150.95" width="11.02" height="9.97"/><rect class="eb783fe9-51de-4a78-90b4-82481a73a17a" x="167.22" y="150.95" width="11.02" height="9.97"/><rect class="eb783fe9-51de-4a78-90b4-82481a73a17a" x="167.22" y="150.95" width="11.02" height="9.97"/><rect class="eb783fe9-51de-4a78-90b4-82481a73a17a" x="178.23" y="150.95" width="11.02" height="9.97"/><rect class="eb783fe9-51de-4a78-90b4-82481a73a17a" x="178.23" y="150.95" width="11.02" height="9.97"/><rect class="eb783fe9-51de-4a78-90b4-82481a73a17a" x="211.29" y="150.95" width="11.02" height="9.97"/><rect class="eb783fe9-51de-4a78-90b4-82481a73a17a" x="211.29" y="150.95" width="11.02" height="9.97"/><rect class="eb783fe9-51de-4a78-90b4-82481a73a17a" x="222.31" y="150.95" width="11.02" height="9.97"/><rect class="eb783fe9-51de-4a78-90b4-82481a73a17a" x="222.31" y="150.95" width="11.02" height="9.97"/><rect class="eb783fe9-51de-4a78-90b4-82481a73a17a" x="244.34" y="150.92" width="11.02" height="9.97"/><rect class="eb783fe9-51de-4a78-90b4-82481a73a17a" x="244.34" y="150.92" width="11.02" height="9.97"/><rect class="eb783fe9-51de-4a78-90b4-82481a73a17a" x="189.25" y="150.95" width="11.02" height="9.97"/><rect class="eb783fe9-51de-4a78-90b4-82481a73a17a" x="189.25" y="150.95" width="11.02" height="9.97"/><rect class="eb783fe9-51de-4a78-90b4-82481a73a17a" x="200.27" y="150.95" width="11.02" height="9.97"/><rect class="6f6fcb2c-9045-4513-849d-74b9cb45fc75" x="145.18" y="160.92" width="11.02" height="9.97"/><rect class="6f6fcb2c-9045-4513-849d-74b9cb45fc75" x="145.18" y="160.92" width="11.02" height="9.97"/><rect class="6f6fcb2c-9045-4513-849d-74b9cb45fc75" x="156.2" y="160.92" width="11.02" height="9.97"/><rect class="6f6fcb2c-9045-4513-849d-74b9cb45fc75" x="156.2" y="160.92" width="11.02" height="9.97"/><rect class="6f6fcb2c-9045-4513-849d-74b9cb45fc75" x="167.22" y="160.92" width="11.02" height="9.97"/><rect class="6f6fcb2c-9045-4513-849d-74b9cb45fc75" x="167.22" y="160.92" width="11.02" height="9.97"/><rect class="6f6fcb2c-9045-4513-849d-74b9cb45fc75" x="178.23" y="160.92" width="11.02" height="9.97"/><rect class="6f6fcb2c-9045-4513-849d-74b9cb45fc75" x="178.23" y="160.92" width="11.02" height="9.97"/><rect class="eb783fe9-51de-4a78-90b4-82481a73a17a" x="211.29" y="160.92" width="11.02" height="9.97"/><rect class="eb783fe9-51de-4a78-90b4-82481a73a17a" x="211.29" y="160.92" width="11.02" height="9.97"/><rect class="eb783fe9-51de-4a78-90b4-82481a73a17a" x="222.31" y="160.92" width="11.02" height="9.97"/><rect class="eb783fe9-51de-4a78-90b4-82481a73a17a" x="222.31" y="160.92" width="11.02" height="9.97"/><rect class="eb783fe9-51de-4a78-90b4-82481a73a17a" x="244.34" y="160.88" width="11.02" height="9.97"/><rect class="eb783fe9-51de-4a78-90b4-82481a73a17a" x="244.34" y="160.88" width="11.02" height="9.97"/><rect class="6f6fcb2c-9045-4513-849d-74b9cb45fc75" x="189.25" y="160.92" width="11.02" height="9.97"/><rect class="e42ad758-3a98-4de3-adae-7de908bd06ce" x="189.25" y="160.92" width="11.02" height="9.97"/><rect class="6f6fcb2c-9045-4513-849d-74b9cb45fc75" x="200.27" y="160.92" width="11.02" height="9.97"/><rect class="85bc6dd3-b5ab-4eff-b238-94a34d2fad2a" x="200.27" y="160.92" width="11.02" height="9.97"/><rect class="6f6fcb2c-9045-4513-849d-74b9cb45fc75" x="145.18" y="170.88" width="11.02" height="9.97"/><rect class="6f6fcb2c-9045-4513-849d-74b9cb45fc75" x="145.18" y="170.88" width="11.02" height="9.97"/><rect class="6f6fcb2c-9045-4513-849d-74b9cb45fc75" x="156.2" y="170.88" width="11.02" height="9.97"/><rect class="6f6fcb2c-9045-4513-849d-74b9cb45fc75" x="156.2" y="170.88" width="11.02" height="9.97"/><rect class="6f6fcb2c-9045-4513-849d-74b9cb45fc75" x="167.22" y="170.88" width="11.02" height="9.97"/><rect class="6f6fcb2c-9045-4513-849d-74b9cb45fc75" x="167.22" y="170.88" width="11.02" height="9.97"/><rect class="6f6fcb2c-9045-4513-849d-74b9cb45fc75" x="178.23" y="170.88" width="11.02" height="9.97"/><rect class="6f6fcb2c-9045-4513-849d-74b9cb45fc75" x="178.23" y="170.88" width="11.02" height="9.97"/><rect class="6f6fcb2c-9045-4513-849d-74b9cb45fc75" x="211.29" y="170.88" width="11.02" height="9.97"/><rect class="6f6fcb2c-9045-4513-849d-74b9cb45fc75" x="211.29" y="170.88" width="11.02" height="9.97"/><rect class="6f6fcb2c-9045-4513-849d-74b9cb45fc75" x="222.31" y="170.88" width="11.02" height="9.97"/><rect class="6f6fcb2c-9045-4513-849d-74b9cb45fc75" x="222.31" y="170.88" width="11.02" height="9.97"/><rect class="6f6fcb2c-9045-4513-849d-74b9cb45fc75" x="244.34" y="170.85" width="11.02" height="9.97"/><rect class="6f6fcb2c-9045-4513-849d-74b9cb45fc75" x="244.34" y="170.85" width="11.02" height="9.97"/><rect class="6f6fcb2c-9045-4513-849d-74b9cb45fc75" x="189.25" y="170.88" width="11.02" height="9.97"/><rect class="6f6fcb2c-9045-4513-849d-74b9cb45fc75" x="189.25" y="170.88" width="11.02" height="9.97"/><rect class="6f6fcb2c-9045-4513-849d-74b9cb45fc75" x="200.27" y="170.88" width="11.02" height="9.97"/><rect class="6f6fcb2c-9045-4513-849d-74b9cb45fc75" x="200.27" y="170.88" width="11.02" height="9.97"/><rect class="6f6fcb2c-9045-4513-849d-74b9cb45fc75" x="145.18" y="180.85" width="11.02" height="9.97"/><rect class="6f6fcb2c-9045-4513-849d-74b9cb45fc75" x="145.18" y="180.85" width="11.02" height="9.97"/><rect class="6f6fcb2c-9045-4513-849d-74b9cb45fc75" x="156.2" y="180.85" width="11.02" height="9.97"/><rect class="6f6fcb2c-9045-4513-849d-74b9cb45fc75" x="156.2" y="180.85" width="11.02" height="9.97"/><rect class="6f6fcb2c-9045-4513-849d-74b9cb45fc75" x="167.22" y="180.85" width="11.02" height="9.97"/><rect class="6f6fcb2c-9045-4513-849d-74b9cb45fc75" x="167.22" y="180.85" width="11.02" height="9.97"/><rect class="6f6fcb2c-9045-4513-849d-74b9cb45fc75" x="178.23" y="180.85" width="11.02" height="9.97"/><rect class="6f6fcb2c-9045-4513-849d-74b9cb45fc75" x="178.23" y="180.85" width="11.02" height="9.97"/><rect class="6f6fcb2c-9045-4513-849d-74b9cb45fc75" x="211.29" y="180.85" width="11.02" height="9.97"/><rect class="6f6fcb2c-9045-4513-849d-74b9cb45fc75" x="211.29" y="180.85" width="11.02" height="9.97"/><rect class="6f6fcb2c-9045-4513-849d-74b9cb45fc75" x="222.31" y="180.85" width="11.02" height="9.97"/><rect class="6f6fcb2c-9045-4513-849d-74b9cb45fc75" x="222.31" y="180.85" width="11.02" height="9.97"/><rect class="6f6fcb2c-9045-4513-849d-74b9cb45fc75" x="244.34" y="180.82" width="11.02" height="9.97"/><rect class="6f6fcb2c-9045-4513-849d-74b9cb45fc75" x="244.34" y="180.82" width="11.02" height="9.97"/><rect class="6f6fcb2c-9045-4513-849d-74b9cb45fc75" x="189.25" y="180.85" width="11.02" height="9.97"/><rect class="6f6fcb2c-9045-4513-849d-74b9cb45fc75" x="189.25" y="180.85" width="11.02" height="9.97"/><rect class="6f6fcb2c-9045-4513-849d-74b9cb45fc75" x="200.27" y="180.85" width="11.02" height="9.97"/><rect class="6f6fcb2c-9045-4513-849d-74b9cb45fc75" x="200.27" y="180.85" width="11.02" height="9.97"/><rect class="6f6fcb2c-9045-4513-849d-74b9cb45fc75" x="145.18" y="190.82" width="11.02" height="9.97"/><rect class="6f6fcb2c-9045-4513-849d-74b9cb45fc75" x="145.18" y="190.82" width="11.02" height="9.97"/><rect class="6f6fcb2c-9045-4513-849d-74b9cb45fc75" x="156.2" y="190.82" width="11.02" height="9.97"/><rect class="6f6fcb2c-9045-4513-849d-74b9cb45fc75" x="156.2" y="190.82" width="11.02" height="9.97"/><rect class="6f6fcb2c-9045-4513-849d-74b9cb45fc75" x="167.22" y="190.82" width="11.02" height="9.97"/><rect class="6f6fcb2c-9045-4513-849d-74b9cb45fc75" x="167.22" y="190.82" width="11.02" height="9.97"/><rect class="6f6fcb2c-9045-4513-849d-74b9cb45fc75" x="178.23" y="190.82" width="11.02" height="9.97"/><rect class="6f6fcb2c-9045-4513-849d-74b9cb45fc75" x="178.23" y="190.82" width="11.02" height="9.97"/><rect class="6f6fcb2c-9045-4513-849d-74b9cb45fc75" x="211.29" y="190.82" width="11.02" height="9.97"/><rect class="6f6fcb2c-9045-4513-849d-74b9cb45fc75" x="211.29" y="190.82" width="11.02" height="9.97"/><rect class="6f6fcb2c-9045-4513-849d-74b9cb45fc75" x="222.31" y="190.82" width="11.02" height="9.97"/><rect class="6f6fcb2c-9045-4513-849d-74b9cb45fc75" x="222.31" y="190.82" width="11.02" height="9.97"/><rect class="6f6fcb2c-9045-4513-849d-74b9cb45fc75" x="244.34" y="190.78" width="11.02" height="9.97"/><rect class="6f6fcb2c-9045-4513-849d-74b9cb45fc75" x="244.34" y="190.78" width="11.02" height="9.97"/><rect class="6f6fcb2c-9045-4513-849d-74b9cb45fc75" x="189.25" y="190.82" width="11.02" height="9.97"/><rect class="6f6fcb2c-9045-4513-849d-74b9cb45fc75" x="189.25" y="190.82" width="11.02" height="9.97"/><rect class="6f6fcb2c-9045-4513-849d-74b9cb45fc75" x="200.27" y="190.82" width="11.02" height="9.97"/><rect class="6f6fcb2c-9045-4513-849d-74b9cb45fc75" x="200.27" y="190.82" width="11.02" height="9.97"/><rect class="6f6fcb2c-9045-4513-849d-74b9cb45fc75" x="145.18" y="200.78" width="11.02" height="9.97"/><rect class="6f6fcb2c-9045-4513-849d-74b9cb45fc75" x="145.18" y="200.78" width="11.02" height="9.97"/><rect class="6f6fcb2c-9045-4513-849d-74b9cb45fc75" x="156.2" y="200.78" width="11.02" height="9.97"/><rect class="6f6fcb2c-9045-4513-849d-74b9cb45fc75" x="156.2" y="200.78" width="11.02" height="9.97"/><rect class="6f6fcb2c-9045-4513-849d-74b9cb45fc75" x="167.22" y="200.78" width="11.02" height="9.97"/><rect class="6f6fcb2c-9045-4513-849d-74b9cb45fc75" x="167.22" y="200.78" width="11.02" height="9.97"/><rect class="6f6fcb2c-9045-4513-849d-74b9cb45fc75" x="178.23" y="200.78" width="11.02" height="9.97"/><rect class="6f6fcb2c-9045-4513-849d-74b9cb45fc75" x="178.23" y="200.78" width="11.02" height="9.97"/><rect class="6f6fcb2c-9045-4513-849d-74b9cb45fc75" x="211.29" y="200.78" width="11.02" height="9.97"/><rect class="6f6fcb2c-9045-4513-849d-74b9cb45fc75" x="211.29" y="200.78" width="11.02" height="9.97"/><rect class="6f6fcb2c-9045-4513-849d-74b9cb45fc75" x="222.31" y="200.78" width="11.02" height="9.97"/><rect class="6f6fcb2c-9045-4513-849d-74b9cb45fc75" x="222.31" y="200.78" width="11.02" height="9.97"/><rect class="6f6fcb2c-9045-4513-849d-74b9cb45fc75" x="244.34" y="200.75" width="11.02" height="9.97"/><rect class="6f6fcb2c-9045-4513-849d-74b9cb45fc75" x="244.34" y="200.75" width="11.02" height="9.97"/><rect class="6f6fcb2c-9045-4513-849d-74b9cb45fc75" x="189.25" y="200.78" width="11.02" height="9.97"/><rect class="6f6fcb2c-9045-4513-849d-74b9cb45fc75" x="189.25" y="200.78" width="11.02" height="9.97"/><rect class="6f6fcb2c-9045-4513-849d-74b9cb45fc75" x="200.27" y="200.78" width="11.02" height="9.97"/><rect class="6f6fcb2c-9045-4513-849d-74b9cb45fc75" x="200.27" y="200.78" width="11.02" height="9.97"/><rect class="6f6fcb2c-9045-4513-849d-74b9cb45fc75" x="145.18" y="210.75" width="11.02" height="9.97"/><rect class="6f6fcb2c-9045-4513-849d-74b9cb45fc75" x="145.18" y="210.75" width="11.02" height="9.97"/><rect class="6f6fcb2c-9045-4513-849d-74b9cb45fc75" x="156.2" y="210.75" width="11.02" height="9.97"/><rect class="6f6fcb2c-9045-4513-849d-74b9cb45fc75" x="156.2" y="210.75" width="11.02" height="9.97"/><rect class="6f6fcb2c-9045-4513-849d-74b9cb45fc75" x="167.22" y="210.75" width="11.02" height="9.97"/><rect class="6f6fcb2c-9045-4513-849d-74b9cb45fc75" x="167.22" y="210.75" width="11.02" height="9.97"/><rect class="6f6fcb2c-9045-4513-849d-74b9cb45fc75" x="178.23" y="210.75" width="11.02" height="9.97"/><rect class="6f6fcb2c-9045-4513-849d-74b9cb45fc75" x="178.23" y="210.75" width="11.02" height="9.97"/><rect class="6f6fcb2c-9045-4513-849d-74b9cb45fc75" x="211.29" y="210.75" width="11.02" height="9.97"/><rect class="6f6fcb2c-9045-4513-849d-74b9cb45fc75" x="211.29" y="210.75" width="11.02" height="9.97"/><rect class="6f6fcb2c-9045-4513-849d-74b9cb45fc75" x="222.31" y="210.75" width="11.02" height="9.97"/><rect class="6f6fcb2c-9045-4513-849d-74b9cb45fc75" x="222.31" y="210.75" width="11.02" height="9.97"/><rect class="6f6fcb2c-9045-4513-849d-74b9cb45fc75" x="244.34" y="210.71" width="11.02" height="9.97"/><rect class="6f6fcb2c-9045-4513-849d-74b9cb45fc75" x="244.34" y="210.71" width="11.02" height="9.97"/><rect class="6f6fcb2c-9045-4513-849d-74b9cb45fc75" x="189.25" y="210.75" width="11.02" height="9.97"/><rect class="6f6fcb2c-9045-4513-849d-74b9cb45fc75" x="189.25" y="210.75" width="11.02" height="9.97"/><rect class="6f6fcb2c-9045-4513-849d-74b9cb45fc75" x="200.27" y="210.75" width="11.02" height="9.97"/><rect class="6f6fcb2c-9045-4513-849d-74b9cb45fc75" x="200.27" y="210.75" width="11.02" height="9.97"/><rect class="6f6fcb2c-9045-4513-849d-74b9cb45fc75" x="145.18" y="220.71" width="11.02" height="9.97"/><rect class="6f6fcb2c-9045-4513-849d-74b9cb45fc75" x="145.18" y="220.71" width="11.02" height="9.97"/><rect class="6f6fcb2c-9045-4513-849d-74b9cb45fc75" x="156.2" y="220.71" width="11.02" height="9.97"/><rect class="6f6fcb2c-9045-4513-849d-74b9cb45fc75" x="156.2" y="220.71" width="11.02" height="9.97"/><rect class="6f6fcb2c-9045-4513-849d-74b9cb45fc75" x="167.22" y="220.71" width="11.02" height="9.97"/><rect class="6f6fcb2c-9045-4513-849d-74b9cb45fc75" x="167.22" y="220.71" width="11.02" height="9.97"/><rect class="6f6fcb2c-9045-4513-849d-74b9cb45fc75" x="178.23" y="220.71" width="11.02" height="9.97"/><rect class="6f6fcb2c-9045-4513-849d-74b9cb45fc75" x="178.23" y="220.71" width="11.02" height="9.97"/><rect class="6f6fcb2c-9045-4513-849d-74b9cb45fc75" x="211.29" y="220.71" width="11.02" height="9.97"/><rect class="6f6fcb2c-9045-4513-849d-74b9cb45fc75" x="211.29" y="220.71" width="11.02" height="9.97"/><rect class="6f6fcb2c-9045-4513-849d-74b9cb45fc75" x="222.31" y="220.71" width="11.02" height="9.97"/><rect class="6f6fcb2c-9045-4513-849d-74b9cb45fc75" x="222.31" y="220.71" width="11.02" height="9.97"/><rect class="6f6fcb2c-9045-4513-849d-74b9cb45fc75" x="244.34" y="220.68" width="11.02" height="9.97"/><rect class="6f6fcb2c-9045-4513-849d-74b9cb45fc75" x="244.34" y="220.68" width="11.02" height="9.97"/><rect class="6f6fcb2c-9045-4513-849d-74b9cb45fc75" x="189.25" y="220.71" width="11.02" height="9.97"/><rect class="6f6fcb2c-9045-4513-849d-74b9cb45fc75" x="189.25" y="220.71" width="11.02" height="9.97"/><rect class="6f6fcb2c-9045-4513-849d-74b9cb45fc75" x="200.27" y="220.71" width="11.02" height="9.97"/><rect class="6f6fcb2c-9045-4513-849d-74b9cb45fc75" x="200.27" y="220.71" width="11.02" height="9.97"/><rect class="6f6fcb2c-9045-4513-849d-74b9cb45fc75" x="145.18" y="230.68" width="11.02" height="9.97"/><rect class="6f6fcb2c-9045-4513-849d-74b9cb45fc75" x="145.18" y="230.68" width="11.02" height="9.97"/><rect class="6f6fcb2c-9045-4513-849d-74b9cb45fc75" x="156.2" y="230.68" width="11.02" height="9.97"/><rect class="6f6fcb2c-9045-4513-849d-74b9cb45fc75" x="156.2" y="230.68" width="11.02" height="9.97"/><rect class="6f6fcb2c-9045-4513-849d-74b9cb45fc75" x="167.22" y="230.68" width="11.02" height="9.97"/><rect class="6f6fcb2c-9045-4513-849d-74b9cb45fc75" x="167.22" y="230.68" width="11.02" height="9.97"/><rect class="6f6fcb2c-9045-4513-849d-74b9cb45fc75" x="178.23" y="230.68" width="11.02" height="9.97"/><rect class="6f6fcb2c-9045-4513-849d-74b9cb45fc75" x="178.23" y="230.68" width="11.02" height="9.97"/><rect class="6f6fcb2c-9045-4513-849d-74b9cb45fc75" x="211.29" y="230.68" width="11.02" height="9.97"/><rect class="6f6fcb2c-9045-4513-849d-74b9cb45fc75" x="211.29" y="230.68" width="11.02" height="9.97"/><rect class="6f6fcb2c-9045-4513-849d-74b9cb45fc75" x="222.31" y="230.68" width="11.02" height="9.97"/><rect class="6f6fcb2c-9045-4513-849d-74b9cb45fc75" x="222.31" y="230.68" width="11.02" height="9.97"/><rect class="6f6fcb2c-9045-4513-849d-74b9cb45fc75" x="244.34" y="230.65" width="11.02" height="9.97"/><rect class="6f6fcb2c-9045-4513-849d-74b9cb45fc75" x="244.34" y="230.65" width="11.02" height="9.97"/><rect class="4669dc94-684e-4226-a858-c5985c6f6fd7" x="233.33" y="140.98" width="11.02" height="9.97"/><rect class="4669dc94-684e-4226-a858-c5985c6f6fd7" x="233.33" y="140.98" width="11.02" height="9.97"/><rect class="eb783fe9-51de-4a78-90b4-82481a73a17a" x="233.33" y="150.95" width="11.02" height="9.97"/><rect class="eb783fe9-51de-4a78-90b4-82481a73a17a" x="233.33" y="150.95" width="11.02" height="9.97"/><rect class="eb783fe9-51de-4a78-90b4-82481a73a17a" x="233.33" y="160.92" width="11.02" height="9.97"/><rect class="eb783fe9-51de-4a78-90b4-82481a73a17a" x="233.33" y="160.92" width="11.02" height="9.97"/><rect class="6f6fcb2c-9045-4513-849d-74b9cb45fc75" x="233.33" y="170.88" width="11.02" height="9.97"/><rect class="6f6fcb2c-9045-4513-849d-74b9cb45fc75" x="233.33" y="170.88" width="11.02" height="9.97"/><rect class="6f6fcb2c-9045-4513-849d-74b9cb45fc75" x="233.33" y="180.85" width="11.02" height="9.97"/><rect class="6f6fcb2c-9045-4513-849d-74b9cb45fc75" x="233.33" y="180.85" width="11.02" height="9.97"/><rect class="6f6fcb2c-9045-4513-849d-74b9cb45fc75" x="233.33" y="190.82" width="11.02" height="9.97"/><rect class="6f6fcb2c-9045-4513-849d-74b9cb45fc75" x="233.33" y="190.82" width="11.02" height="9.97"/><rect class="6f6fcb2c-9045-4513-849d-74b9cb45fc75" x="233.33" y="200.78" width="11.02" height="9.97"/><rect class="6f6fcb2c-9045-4513-849d-74b9cb45fc75" x="233.33" y="200.78" width="11.02" height="9.97"/><rect class="6f6fcb2c-9045-4513-849d-74b9cb45fc75" x="233.33" y="210.75" width="11.02" height="9.97"/><rect class="6f6fcb2c-9045-4513-849d-74b9cb45fc75" x="233.33" y="210.75" width="11.02" height="9.97"/><rect class="6f6fcb2c-9045-4513-849d-74b9cb45fc75" x="233.33" y="220.71" width="11.02" height="9.97"/><rect class="6f6fcb2c-9045-4513-849d-74b9cb45fc75" x="233.33" y="220.71" width="11.02" height="9.97"/><rect class="6f6fcb2c-9045-4513-849d-74b9cb45fc75" x="233.33" y="230.68" width="11.02" height="9.97"/><rect class="6f6fcb2c-9045-4513-849d-74b9cb45fc75" x="233.33" y="230.68" width="11.02" height="9.97"/><rect class="6f6fcb2c-9045-4513-849d-74b9cb45fc75" x="189.25" y="230.68" width="11.02" height="9.97"/><rect class="6f6fcb2c-9045-4513-849d-74b9cb45fc75" x="189.25" y="230.68" width="11.02" height="9.97"/><rect class="6f6fcb2c-9045-4513-849d-74b9cb45fc75" x="200.27" y="230.68" width="11.02" height="9.97"/><rect class="6f6fcb2c-9045-4513-849d-74b9cb45fc75" x="200.27" y="230.68" width="11.02" height="9.97"/><polygon class="63393a5d-558a-4da7-b4ec-83696ef0ade4" points="254.42 139.98 145.42 140.12 199.84 89.8 254.42 139.98"/></svg>