<svg id="d3c18cc4-4e7f-40c7-b662-7583f2bdf0cc" data-name="Fondo" xmlns="http://www.w3.org/2000/svg" viewBox="0 0 300 400"><defs><style>.\36 5607aab-7766-41e6-b996-9f731921d4a9{fill:#d6eddc;stroke:#fff;stroke-width:1.46px;}.\32 ed14016-5856-4712-b1a8-12793381bab2,.\36 5607aab-7766-41e6-b996-9f731921d4a9,.\38 cfc53db-30f6-464a-874f-21200840311b,.dea5baab-954c-4e83-ad51-ece0b8a1e4cb,.eab8f802-abf0-4acc-b4a9-9b2bd2d02162{stroke-miterlimit:10;}.f07dd055-0cfd-4ae1-81db-69cdc8e1609c{font-size:39.55px;fill:#118c97;}.\35 956ee49-cc11-43ad-8d12-6df72986378a,.\39 ee77473-c9c8-4bf0-8b7d-4a5a54581104,.f07dd055-0cfd-4ae1-81db-69cdc8e1609c{font-family:Myriad Pro;font-weight:700;}.\35 956ee49-cc11-43ad-8d12-6df72986378a{font-size:50.86px;}.\39 ee77473-c9c8-4bf0-8b7d-4a5a54581104{font-size:18px;fill:#232323;}.dea5baab-954c-4e83-ad51-ece0b8a1e4cb{fill:#ff9231;}.\38 cfc53db-30f6-464a-874f-21200840311b,.dea5baab-954c-4e83-ad51-ece0b8a1e4cb,.eab8f802-abf0-4acc-b4a9-9b2bd2d02162{stroke:#000;}.\32 ed14016-5856-4712-b1a8-12793381bab2,.\38 cfc53db-30f6-464a-874f-21200840311b,.dea5baab-954c-4e83-ad51-ece0b8a1e4cb,.eab8f802-abf0-4acc-b4a9-9b2bd2d02162{stroke-width:0.3px;}.\38 cfc53db-30f6-464a-874f-21200840311b{fill:#9fa09f;}.eab8f802-abf0-4acc-b4a9-9b2bd2d02162{fill:#ff6c49;}.\32 ed14016-5856-4712-b1a8-12793381bab2{stroke:#020202;}</style></defs><title>Catástrofes </title><rect class="65607aab-7766-41e6-b996-9f731921d4a9" x="0.54" width="300" height="400"/><text class="f07dd055-0cfd-4ae1-81db-69cdc8e1609c" transform="translate(173.95 340.54) scale(0.88 1)">10</text><polygon points="135.14 320.93 134.37 314.39 135 309.79 137.21 305.58 140.22 302.08 142.93 300.51 142.34 302.44 141.66 304.82 141.14 308.63 141.56 311.61 141.95 313.81 142.93 316.11 144 318.68 146.79 322.35 148.85 325.07 149.34 321.61 151.09 317.67 152.84 316.11 154.26 314.92 155 314.09 155 315.83 154.36 318.13 154.72 320.51 154.99 322.07 155.62 325.07 156.81 328.77 158.1 332.99 159 336.76 159 339.51 158.01 343.91 157.08 345.66 155.35 347.58 153.22 349.25 150.7 350.52 148.56 351.35 149.73 349.79 150.51 348.15 150.6 345.84 149.92 343.91 149.24 342.63 148.47 340.88 148.08 339.6 148.27 337.19 147.36 338.3 147 339.32 147 340.61 146.76 341.89 146.35 342.72 146.41 343.5 145.38 342.12 144.87 340.13 145.24 337.51 145.75 335.59 145.6 333.45 145.23 331.94 144.14 330.08 142.68 328.36 143.12 331.25 142.97 332.76 142.39 334.97 141.81 336 141.14 337.58 138.72 339.99 138 340.27 138 338.41 137.72 337.19 137.61 336.62 137.19 335.86 136.51 335.31 136.24 336 136.11 337.65 135.82 339.44 135.53 340.88 135.17 341.99 134.66 343.5 134.34 344.67 134.01 346.32 134.52 348.66 135.32 349.97 136.12 350.66 137.94 352.17 134.01 351.49 132.26 350.59 130.14 349.25 128.1 348.15 125.47 345.36 124 341.78 124 337.31 125.83 332.21 127.48 329.74 129 327.74 130 325.07 130 322.99 130 320.79 130 318.58 129.5 318.17 131.02 319.55 132.18 320.93 133.08 322.37 133.73 324.16 134.23 325.81 134.16 327.26 134.3 328.98 134.15 331.39 135.47 329.25 135.9 327.33 136.12 325.47 135.14 320.93"/><text class="5956ee49-cc11-43ad-8d12-6df72986378a" transform="translate(63.63 71.01) scale(0.91 1)">La <tspan x="61.44" y="0">R</tspan><tspan x="90.53" y="0">eina</tspan></text><text class="9ee77473-c9c8-4bf0-8b7d-4a5a54581104" transform="translate(47.16 155.42) rotate(-0.65) scale(0.9 1)">T<tspan x="9.45" y="0">i</tspan><tspan x="14.38" y="0">p</tspan><tspan x="25.2" y="0">o de </tspan></text><text class="9ee77473-c9c8-4bf0-8b7d-4a5a54581104" transform="translate(47.22 176.96) rotate(-0.29) scale(0.9 1)">V<tspan x="10.96" y="0">ivienda</tspan></text><text class="9ee77473-c9c8-4bf0-8b7d-4a5a54581104" transform="matrix(0.9, 0, 0, 1, 107.06, 283.17)">C<tspan x="10.53" y="0">a</tspan><tspan x="19.89" y="0">tást</tspan><tspan x="50.42" y="0">r</tspan><tspan x="57.11" y="0">o</tspan><tspan x="67.5" y="0">f</tspan><tspan x="73.46" y="0">es</tspan></text><rect class="dea5baab-954c-4e83-ad51-ece0b8a1e4cb" x="137.18" y="140.73" width="10.53" height="9.53"/><rect class="dea5baab-954c-4e83-ad51-ece0b8a1e4cb" x="147.71" y="140.73" width="10.53" height="9.53"/><rect class="8cfc53db-30f6-464a-874f-21200840311b" x="184.58" y="148.06" width="10.53" height="9.53" rx="4.76" ry="4.76"/><rect class="dea5baab-954c-4e83-ad51-ece0b8a1e4cb" x="158.25" y="140.73" width="10.53" height="9.53"/><rect class="dea5baab-954c-4e83-ad51-ece0b8a1e4cb" x="158.25" y="140.73" width="10.53" height="9.53"/><rect class="dea5baab-954c-4e83-ad51-ece0b8a1e4cb" x="168.78" y="140.73" width="10.53" height="9.53"/><rect class="dea5baab-954c-4e83-ad51-ece0b8a1e4cb" x="168.78" y="140.73" width="10.53" height="9.53"/><rect class="dea5baab-954c-4e83-ad51-ece0b8a1e4cb" x="200.38" y="140.73" width="10.53" height="9.53"/><rect class="dea5baab-954c-4e83-ad51-ece0b8a1e4cb" x="200.38" y="140.73" width="10.53" height="9.53"/><rect class="dea5baab-954c-4e83-ad51-ece0b8a1e4cb" x="210.91" y="140.73" width="10.53" height="9.53"/><rect class="dea5baab-954c-4e83-ad51-ece0b8a1e4cb" x="210.91" y="140.73" width="10.53" height="9.53"/><rect class="dea5baab-954c-4e83-ad51-ece0b8a1e4cb" x="231.97" y="140.73" width="10.53" height="9.53"/><rect class="dea5baab-954c-4e83-ad51-ece0b8a1e4cb" x="231.97" y="140.73" width="10.53" height="9.53"/><rect class="dea5baab-954c-4e83-ad51-ece0b8a1e4cb" x="179.31" y="140.73" width="10.53" height="9.53"/><rect class="dea5baab-954c-4e83-ad51-ece0b8a1e4cb" x="179.31" y="140.73" width="10.53" height="9.53"/><rect class="dea5baab-954c-4e83-ad51-ece0b8a1e4cb" x="189.84" y="140.73" width="10.53" height="9.53"/><rect class="dea5baab-954c-4e83-ad51-ece0b8a1e4cb" x="189.84" y="140.73" width="10.53" height="9.53"/><rect class="dea5baab-954c-4e83-ad51-ece0b8a1e4cb" x="137.18" y="150.26" width="10.53" height="9.53"/><rect class="dea5baab-954c-4e83-ad51-ece0b8a1e4cb" x="137.18" y="150.26" width="10.53" height="9.53"/><rect class="dea5baab-954c-4e83-ad51-ece0b8a1e4cb" x="147.71" y="150.26" width="10.53" height="9.53"/><rect class="dea5baab-954c-4e83-ad51-ece0b8a1e4cb" x="147.71" y="150.26" width="10.53" height="9.53"/><rect class="dea5baab-954c-4e83-ad51-ece0b8a1e4cb" x="158.25" y="150.26" width="10.53" height="9.53"/><rect class="dea5baab-954c-4e83-ad51-ece0b8a1e4cb" x="158.25" y="150.26" width="10.53" height="9.53"/><rect class="8cfc53db-30f6-464a-874f-21200840311b" x="168.78" y="150.26" width="10.53" height="9.53"/><rect class="8cfc53db-30f6-464a-874f-21200840311b" x="168.78" y="150.26" width="10.53" height="9.53"/><rect class="8cfc53db-30f6-464a-874f-21200840311b" x="200.38" y="150.26" width="10.53" height="9.53"/><rect class="8cfc53db-30f6-464a-874f-21200840311b" x="200.38" y="150.26" width="10.53" height="9.53"/><rect class="8cfc53db-30f6-464a-874f-21200840311b" x="210.91" y="150.26" width="10.53" height="9.53"/><rect class="8cfc53db-30f6-464a-874f-21200840311b" x="210.91" y="150.26" width="10.53" height="9.53"/><rect class="8cfc53db-30f6-464a-874f-21200840311b" x="231.97" y="150.26" width="10.53" height="9.53"/><rect class="8cfc53db-30f6-464a-874f-21200840311b" x="231.97" y="150.26" width="10.53" height="9.53"/><rect class="8cfc53db-30f6-464a-874f-21200840311b" x="179.31" y="150.26" width="10.53" height="9.53"/><rect class="8cfc53db-30f6-464a-874f-21200840311b" x="179.31" y="150.26" width="10.53" height="9.53"/><rect class="8cfc53db-30f6-464a-874f-21200840311b" x="189.84" y="150.26" width="10.53" height="9.53"/><rect class="8cfc53db-30f6-464a-874f-21200840311b" x="137.18" y="159.78" width="10.53" height="9.53"/><rect class="8cfc53db-30f6-464a-874f-21200840311b" x="137.18" y="159.78" width="10.53" height="9.53"/><rect class="8cfc53db-30f6-464a-874f-21200840311b" x="147.71" y="159.78" width="10.53" height="9.53"/><rect class="8cfc53db-30f6-464a-874f-21200840311b" x="147.71" y="159.78" width="10.53" height="9.53"/><rect class="8cfc53db-30f6-464a-874f-21200840311b" x="158.25" y="159.78" width="10.53" height="9.53"/><rect class="8cfc53db-30f6-464a-874f-21200840311b" x="158.25" y="159.78" width="10.53" height="9.53"/><rect class="8cfc53db-30f6-464a-874f-21200840311b" x="168.78" y="159.78" width="10.53" height="9.53"/><rect class="8cfc53db-30f6-464a-874f-21200840311b" x="168.78" y="159.78" width="10.53" height="9.53"/><rect class="8cfc53db-30f6-464a-874f-21200840311b" x="200.38" y="159.78" width="10.53" height="9.53"/><rect class="8cfc53db-30f6-464a-874f-21200840311b" x="200.38" y="159.78" width="10.53" height="9.53"/><rect class="8cfc53db-30f6-464a-874f-21200840311b" x="210.91" y="159.78" width="10.53" height="9.53"/><rect class="8cfc53db-30f6-464a-874f-21200840311b" x="210.91" y="159.78" width="10.53" height="9.53"/><rect class="8cfc53db-30f6-464a-874f-21200840311b" x="231.97" y="159.78" width="10.53" height="9.53"/><rect class="8cfc53db-30f6-464a-874f-21200840311b" x="231.97" y="159.78" width="10.53" height="9.53"/><rect class="8cfc53db-30f6-464a-874f-21200840311b" x="179.31" y="159.78" width="10.53" height="9.53"/><rect class="8cfc53db-30f6-464a-874f-21200840311b" x="179.31" y="159.78" width="10.53" height="9.53"/><rect class="8cfc53db-30f6-464a-874f-21200840311b" x="189.84" y="159.78" width="10.53" height="9.53"/><rect class="8cfc53db-30f6-464a-874f-21200840311b" x="189.84" y="159.78" width="10.53" height="9.53"/><rect class="8cfc53db-30f6-464a-874f-21200840311b" x="137.18" y="169.31" width="10.53" height="9.53"/><rect class="8cfc53db-30f6-464a-874f-21200840311b" x="137.18" y="169.31" width="10.53" height="9.53"/><rect class="8cfc53db-30f6-464a-874f-21200840311b" x="147.71" y="169.31" width="10.53" height="9.53"/><rect class="8cfc53db-30f6-464a-874f-21200840311b" x="147.71" y="169.31" width="10.53" height="9.53"/><rect class="8cfc53db-30f6-464a-874f-21200840311b" x="158.25" y="169.31" width="10.53" height="9.53"/><rect class="8cfc53db-30f6-464a-874f-21200840311b" x="158.25" y="169.31" width="10.53" height="9.53"/><rect class="8cfc53db-30f6-464a-874f-21200840311b" x="168.78" y="169.31" width="10.53" height="9.53"/><rect class="8cfc53db-30f6-464a-874f-21200840311b" x="168.78" y="169.31" width="10.53" height="9.53"/><rect class="8cfc53db-30f6-464a-874f-21200840311b" x="200.38" y="169.31" width="10.53" height="9.53"/><rect class="8cfc53db-30f6-464a-874f-21200840311b" x="200.38" y="169.31" width="10.53" height="9.53"/><rect class="8cfc53db-30f6-464a-874f-21200840311b" x="210.91" y="169.31" width="10.53" height="9.53"/><rect class="8cfc53db-30f6-464a-874f-21200840311b" x="210.91" y="169.31" width="10.53" height="9.53"/><rect class="8cfc53db-30f6-464a-874f-21200840311b" x="231.97" y="169.31" width="10.53" height="9.53"/><rect class="8cfc53db-30f6-464a-874f-21200840311b" x="231.97" y="169.31" width="10.53" height="9.53"/><rect class="8cfc53db-30f6-464a-874f-21200840311b" x="179.31" y="169.31" width="10.53" height="9.53"/><rect class="8cfc53db-30f6-464a-874f-21200840311b" x="179.31" y="169.31" width="10.53" height="9.53"/><rect class="8cfc53db-30f6-464a-874f-21200840311b" x="189.84" y="169.31" width="10.53" height="9.53"/><rect class="8cfc53db-30f6-464a-874f-21200840311b" x="189.84" y="169.31" width="10.53" height="9.53"/><rect class="8cfc53db-30f6-464a-874f-21200840311b" x="137.18" y="178.84" width="10.53" height="9.53"/><rect class="8cfc53db-30f6-464a-874f-21200840311b" x="137.18" y="178.84" width="10.53" height="9.53"/><rect class="8cfc53db-30f6-464a-874f-21200840311b" x="147.71" y="178.84" width="10.53" height="9.53"/><rect class="8cfc53db-30f6-464a-874f-21200840311b" x="147.71" y="178.84" width="10.53" height="9.53"/><rect class="8cfc53db-30f6-464a-874f-21200840311b" x="158.25" y="178.84" width="10.53" height="9.53"/><rect class="8cfc53db-30f6-464a-874f-21200840311b" x="158.25" y="178.84" width="10.53" height="9.53"/><rect class="8cfc53db-30f6-464a-874f-21200840311b" x="168.78" y="178.84" width="10.53" height="9.53"/><rect class="8cfc53db-30f6-464a-874f-21200840311b" x="168.78" y="178.84" width="10.53" height="9.53"/><rect class="8cfc53db-30f6-464a-874f-21200840311b" x="200.38" y="178.84" width="10.53" height="9.53"/><rect class="8cfc53db-30f6-464a-874f-21200840311b" x="200.38" y="178.84" width="10.53" height="9.53"/><rect class="8cfc53db-30f6-464a-874f-21200840311b" x="210.91" y="178.84" width="10.53" height="9.53"/><rect class="8cfc53db-30f6-464a-874f-21200840311b" x="210.91" y="178.84" width="10.53" height="9.53"/><rect class="8cfc53db-30f6-464a-874f-21200840311b" x="231.97" y="178.84" width="10.53" height="9.53"/><rect class="8cfc53db-30f6-464a-874f-21200840311b" x="231.97" y="178.84" width="10.53" height="9.53"/><rect class="8cfc53db-30f6-464a-874f-21200840311b" x="179.31" y="178.84" width="10.53" height="9.53"/><rect class="8cfc53db-30f6-464a-874f-21200840311b" x="179.31" y="178.84" width="10.53" height="9.53"/><rect class="8cfc53db-30f6-464a-874f-21200840311b" x="189.84" y="178.84" width="10.53" height="9.53"/><rect class="8cfc53db-30f6-464a-874f-21200840311b" x="189.84" y="178.84" width="10.53" height="9.53"/><rect class="8cfc53db-30f6-464a-874f-21200840311b" x="137.18" y="188.36" width="10.53" height="9.53"/><rect class="8cfc53db-30f6-464a-874f-21200840311b" x="137.18" y="188.36" width="10.53" height="9.53"/><rect class="8cfc53db-30f6-464a-874f-21200840311b" x="147.71" y="188.36" width="10.53" height="9.53"/><rect class="8cfc53db-30f6-464a-874f-21200840311b" x="147.71" y="188.36" width="10.53" height="9.53"/><rect class="8cfc53db-30f6-464a-874f-21200840311b" x="158.25" y="188.36" width="10.53" height="9.53"/><rect class="8cfc53db-30f6-464a-874f-21200840311b" x="158.25" y="188.36" width="10.53" height="9.53"/><rect class="8cfc53db-30f6-464a-874f-21200840311b" x="168.78" y="188.36" width="10.53" height="9.53"/><rect class="8cfc53db-30f6-464a-874f-21200840311b" x="168.78" y="188.36" width="10.53" height="9.53"/><rect class="8cfc53db-30f6-464a-874f-21200840311b" x="200.38" y="188.36" width="10.53" height="9.53"/><rect class="8cfc53db-30f6-464a-874f-21200840311b" x="200.38" y="188.36" width="10.53" height="9.53"/><rect class="8cfc53db-30f6-464a-874f-21200840311b" x="210.91" y="188.36" width="10.53" height="9.53"/><rect class="8cfc53db-30f6-464a-874f-21200840311b" x="210.91" y="188.36" width="10.53" height="9.53"/><rect class="8cfc53db-30f6-464a-874f-21200840311b" x="231.97" y="188.36" width="10.53" height="9.53"/><rect class="8cfc53db-30f6-464a-874f-21200840311b" x="231.97" y="188.36" width="10.53" height="9.53"/><rect class="8cfc53db-30f6-464a-874f-21200840311b" x="179.31" y="188.36" width="10.53" height="9.53"/><rect class="8cfc53db-30f6-464a-874f-21200840311b" x="179.31" y="188.36" width="10.53" height="9.53"/><rect class="8cfc53db-30f6-464a-874f-21200840311b" x="189.84" y="188.36" width="10.53" height="9.53"/><rect class="8cfc53db-30f6-464a-874f-21200840311b" x="189.84" y="188.36" width="10.53" height="9.53"/><rect class="eab8f802-abf0-4acc-b4a9-9b2bd2d02162" x="137.18" y="197.89" width="10.53" height="9.53"/><rect class="eab8f802-abf0-4acc-b4a9-9b2bd2d02162" x="137.18" y="197.89" width="10.53" height="9.53"/><rect class="eab8f802-abf0-4acc-b4a9-9b2bd2d02162" x="147.71" y="197.89" width="10.53" height="9.53"/><rect class="eab8f802-abf0-4acc-b4a9-9b2bd2d02162" x="147.71" y="197.89" width="10.53" height="9.53"/><rect class="eab8f802-abf0-4acc-b4a9-9b2bd2d02162" x="158.25" y="197.89" width="10.53" height="9.53"/><rect class="eab8f802-abf0-4acc-b4a9-9b2bd2d02162" x="158.25" y="197.89" width="10.53" height="9.53"/><rect class="eab8f802-abf0-4acc-b4a9-9b2bd2d02162" x="168.78" y="197.89" width="10.53" height="9.53"/><rect class="eab8f802-abf0-4acc-b4a9-9b2bd2d02162" x="168.78" y="197.89" width="10.53" height="9.53"/><rect class="eab8f802-abf0-4acc-b4a9-9b2bd2d02162" x="200.38" y="197.89" width="10.53" height="9.53"/><rect class="eab8f802-abf0-4acc-b4a9-9b2bd2d02162" x="200.38" y="197.89" width="10.53" height="9.53"/><rect class="eab8f802-abf0-4acc-b4a9-9b2bd2d02162" x="210.91" y="197.89" width="10.53" height="9.53"/><rect class="eab8f802-abf0-4acc-b4a9-9b2bd2d02162" x="210.91" y="197.89" width="10.53" height="9.53"/><rect class="eab8f802-abf0-4acc-b4a9-9b2bd2d02162" x="231.97" y="197.89" width="10.53" height="9.53"/><rect class="eab8f802-abf0-4acc-b4a9-9b2bd2d02162" x="231.97" y="197.89" width="10.53" height="9.53"/><rect class="eab8f802-abf0-4acc-b4a9-9b2bd2d02162" x="179.31" y="197.89" width="10.53" height="9.53"/><rect class="eab8f802-abf0-4acc-b4a9-9b2bd2d02162" x="179.31" y="197.89" width="10.53" height="9.53"/><rect class="eab8f802-abf0-4acc-b4a9-9b2bd2d02162" x="189.84" y="197.89" width="10.53" height="9.53"/><rect class="eab8f802-abf0-4acc-b4a9-9b2bd2d02162" x="189.84" y="197.89" width="10.53" height="9.53"/><rect class="eab8f802-abf0-4acc-b4a9-9b2bd2d02162" x="137.18" y="207.42" width="10.53" height="9.53"/><rect class="eab8f802-abf0-4acc-b4a9-9b2bd2d02162" x="137.18" y="207.42" width="10.53" height="9.53"/><rect class="eab8f802-abf0-4acc-b4a9-9b2bd2d02162" x="147.71" y="207.42" width="10.53" height="9.53"/><rect class="eab8f802-abf0-4acc-b4a9-9b2bd2d02162" x="147.71" y="207.42" width="10.53" height="9.53"/><rect class="eab8f802-abf0-4acc-b4a9-9b2bd2d02162" x="158.25" y="207.42" width="10.53" height="9.53"/><rect class="eab8f802-abf0-4acc-b4a9-9b2bd2d02162" x="158.25" y="207.42" width="10.53" height="9.53"/><rect class="eab8f802-abf0-4acc-b4a9-9b2bd2d02162" x="168.78" y="207.42" width="10.53" height="9.53"/><rect class="eab8f802-abf0-4acc-b4a9-9b2bd2d02162" x="168.78" y="207.42" width="10.53" height="9.53"/><rect class="eab8f802-abf0-4acc-b4a9-9b2bd2d02162" x="200.38" y="207.42" width="10.53" height="9.53"/><rect class="eab8f802-abf0-4acc-b4a9-9b2bd2d02162" x="200.38" y="207.42" width="10.53" height="9.53"/><rect class="eab8f802-abf0-4acc-b4a9-9b2bd2d02162" x="210.91" y="207.42" width="10.53" height="9.53"/><rect class="eab8f802-abf0-4acc-b4a9-9b2bd2d02162" x="210.91" y="207.42" width="10.53" height="9.53"/><rect class="eab8f802-abf0-4acc-b4a9-9b2bd2d02162" x="231.97" y="207.42" width="10.53" height="9.53"/><rect class="eab8f802-abf0-4acc-b4a9-9b2bd2d02162" x="231.97" y="207.42" width="10.53" height="9.53"/><rect class="eab8f802-abf0-4acc-b4a9-9b2bd2d02162" x="179.31" y="207.42" width="10.53" height="9.53"/><rect class="eab8f802-abf0-4acc-b4a9-9b2bd2d02162" x="179.31" y="207.42" width="10.53" height="9.53"/><rect class="eab8f802-abf0-4acc-b4a9-9b2bd2d02162" x="189.84" y="207.42" width="10.53" height="9.53"/><rect class="eab8f802-abf0-4acc-b4a9-9b2bd2d02162" x="189.84" y="207.42" width="10.53" height="9.53"/><rect class="eab8f802-abf0-4acc-b4a9-9b2bd2d02162" x="137.18" y="216.94" width="10.53" height="9.53"/><rect class="eab8f802-abf0-4acc-b4a9-9b2bd2d02162" x="137.18" y="216.94" width="10.53" height="9.53"/><rect class="eab8f802-abf0-4acc-b4a9-9b2bd2d02162" x="147.71" y="216.94" width="10.53" height="9.53"/><rect class="eab8f802-abf0-4acc-b4a9-9b2bd2d02162" x="147.71" y="216.94" width="10.53" height="9.53"/><rect class="eab8f802-abf0-4acc-b4a9-9b2bd2d02162" x="158.25" y="216.94" width="10.53" height="9.53"/><rect class="eab8f802-abf0-4acc-b4a9-9b2bd2d02162" x="158.25" y="216.94" width="10.53" height="9.53"/><rect class="eab8f802-abf0-4acc-b4a9-9b2bd2d02162" x="168.78" y="216.94" width="10.53" height="9.53"/><rect class="eab8f802-abf0-4acc-b4a9-9b2bd2d02162" x="168.78" y="216.94" width="10.53" height="9.53"/><rect class="eab8f802-abf0-4acc-b4a9-9b2bd2d02162" x="200.38" y="216.94" width="10.53" height="9.53"/><rect class="eab8f802-abf0-4acc-b4a9-9b2bd2d02162" x="200.38" y="216.94" width="10.53" height="9.53"/><rect class="eab8f802-abf0-4acc-b4a9-9b2bd2d02162" x="210.91" y="216.94" width="10.53" height="9.53"/><rect class="eab8f802-abf0-4acc-b4a9-9b2bd2d02162" x="210.91" y="216.94" width="10.53" height="9.53"/><rect class="eab8f802-abf0-4acc-b4a9-9b2bd2d02162" x="231.97" y="216.94" width="10.53" height="9.53"/><rect class="eab8f802-abf0-4acc-b4a9-9b2bd2d02162" x="231.97" y="216.94" width="10.53" height="9.53"/><rect class="eab8f802-abf0-4acc-b4a9-9b2bd2d02162" x="179.31" y="216.94" width="10.53" height="9.53"/><rect class="eab8f802-abf0-4acc-b4a9-9b2bd2d02162" x="179.31" y="216.94" width="10.53" height="9.53"/><rect class="eab8f802-abf0-4acc-b4a9-9b2bd2d02162" x="189.84" y="216.94" width="10.53" height="9.53"/><rect class="eab8f802-abf0-4acc-b4a9-9b2bd2d02162" x="189.84" y="216.94" width="10.53" height="9.53"/><rect class="eab8f802-abf0-4acc-b4a9-9b2bd2d02162" x="137.18" y="226.47" width="10.53" height="9.53"/><rect class="eab8f802-abf0-4acc-b4a9-9b2bd2d02162" x="137.18" y="226.47" width="10.53" height="9.53"/><rect class="eab8f802-abf0-4acc-b4a9-9b2bd2d02162" x="147.71" y="226.47" width="10.53" height="9.53"/><rect class="eab8f802-abf0-4acc-b4a9-9b2bd2d02162" x="147.71" y="226.47" width="10.53" height="9.53"/><rect class="eab8f802-abf0-4acc-b4a9-9b2bd2d02162" x="158.25" y="226.47" width="10.53" height="9.53"/><rect class="eab8f802-abf0-4acc-b4a9-9b2bd2d02162" x="158.25" y="226.47" width="10.53" height="9.53"/><rect class="eab8f802-abf0-4acc-b4a9-9b2bd2d02162" x="168.78" y="226.47" width="10.53" height="9.53"/><rect class="eab8f802-abf0-4acc-b4a9-9b2bd2d02162" x="168.78" y="226.47" width="10.53" height="9.53"/><rect class="eab8f802-abf0-4acc-b4a9-9b2bd2d02162" x="200.38" y="226.47" width="10.53" height="9.53"/><rect class="eab8f802-abf0-4acc-b4a9-9b2bd2d02162" x="200.38" y="226.47" width="10.53" height="9.53"/><rect class="eab8f802-abf0-4acc-b4a9-9b2bd2d02162" x="210.91" y="226.47" width="10.53" height="9.53"/><rect class="eab8f802-abf0-4acc-b4a9-9b2bd2d02162" x="210.91" y="226.47" width="10.53" height="9.53"/><rect class="eab8f802-abf0-4acc-b4a9-9b2bd2d02162" x="231.97" y="226.47" width="10.53" height="9.53"/><rect class="eab8f802-abf0-4acc-b4a9-9b2bd2d02162" x="231.97" y="226.47" width="10.53" height="9.53"/><rect class="dea5baab-954c-4e83-ad51-ece0b8a1e4cb" x="221.44" y="140.73" width="10.53" height="9.53"/><rect class="dea5baab-954c-4e83-ad51-ece0b8a1e4cb" x="221.44" y="140.73" width="10.53" height="9.53"/><rect class="8cfc53db-30f6-464a-874f-21200840311b" x="221.44" y="150.26" width="10.53" height="9.53"/><rect class="8cfc53db-30f6-464a-874f-21200840311b" x="221.44" y="150.26" width="10.53" height="9.53"/><rect class="8cfc53db-30f6-464a-874f-21200840311b" x="221.44" y="159.78" width="10.53" height="9.53"/><rect class="8cfc53db-30f6-464a-874f-21200840311b" x="221.44" y="159.78" width="10.53" height="9.53"/><rect class="8cfc53db-30f6-464a-874f-21200840311b" x="221.44" y="169.31" width="10.53" height="9.53"/><rect class="8cfc53db-30f6-464a-874f-21200840311b" x="221.44" y="169.31" width="10.53" height="9.53"/><rect class="8cfc53db-30f6-464a-874f-21200840311b" x="221.44" y="178.84" width="10.53" height="9.53"/><rect class="8cfc53db-30f6-464a-874f-21200840311b" x="221.44" y="178.84" width="10.53" height="9.53"/><rect class="8cfc53db-30f6-464a-874f-21200840311b" x="221.44" y="188.36" width="10.53" height="9.53"/><rect class="8cfc53db-30f6-464a-874f-21200840311b" x="221.44" y="188.36" width="10.53" height="9.53"/><rect class="eab8f802-abf0-4acc-b4a9-9b2bd2d02162" x="221.44" y="197.89" width="10.53" height="9.53"/><rect class="eab8f802-abf0-4acc-b4a9-9b2bd2d02162" x="221.44" y="197.89" width="10.53" height="9.53"/><rect class="eab8f802-abf0-4acc-b4a9-9b2bd2d02162" x="221.44" y="207.42" width="10.53" height="9.53"/><rect class="eab8f802-abf0-4acc-b4a9-9b2bd2d02162" x="221.44" y="207.42" width="10.53" height="9.53"/><rect class="eab8f802-abf0-4acc-b4a9-9b2bd2d02162" x="221.44" y="216.94" width="10.53" height="9.53"/><rect class="eab8f802-abf0-4acc-b4a9-9b2bd2d02162" x="221.44" y="216.94" width="10.53" height="9.53"/><rect class="eab8f802-abf0-4acc-b4a9-9b2bd2d02162" x="221.44" y="226.47" width="10.53" height="9.53"/><rect class="eab8f802-abf0-4acc-b4a9-9b2bd2d02162" x="221.44" y="226.47" width="10.53" height="9.53"/><rect class="eab8f802-abf0-4acc-b4a9-9b2bd2d02162" x="179.31" y="226.47" width="10.53" height="9.53"/><rect class="eab8f802-abf0-4acc-b4a9-9b2bd2d02162" x="179.31" y="226.47" width="10.53" height="9.53"/><rect class="eab8f802-abf0-4acc-b4a9-9b2bd2d02162" x="189.84" y="226.47" width="10.53" height="9.53"/><rect class="eab8f802-abf0-4acc-b4a9-9b2bd2d02162" x="189.84" y="226.47" width="10.53" height="9.53"/><polygon class="2ed14016-5856-4712-b1a8-12793381bab2" points="241.61 139.77 137.41 139.91 189.43 91.8 241.61 139.77"/></svg>