<svg id="c36f6608-97fd-42d6-83c5-c6b128508fe2" data-name="Fondo" xmlns="http://www.w3.org/2000/svg" viewBox="0 0 300 400"><defs><style>.a5af1ea5-fee2-4c4e-aa09-c3ead3492a0a{fill:#d6eddc;stroke:#fff;stroke-width:1.46px;}.\31 c136827-b502-4c5e-bb31-9436d42e5010,.\36 9f1dbf2-fc24-4192-8f4f-9a36cfbdfe45,.\38 a142e85-3b25-40f7-b752-89b0b1583afd,.a5af1ea5-fee2-4c4e-aa09-c3ead3492a0a,.b1c5819b-4de5-4edf-8326-6469bd4d1a66,.b4f11a8d-0bb6-49b4-b0a4-a63c6619f2f2,.d9bb405b-f4dc-43ca-a4bc-c035d912e7aa{stroke-miterlimit:10;}.f0110090-4541-48f7-a1e8-453c6c276dcf{font-size:39.55px;fill:#118c97;}.a0aac72b-f5bf-42b4-94c1-6c2d14f74957,.c67d3305-928d-4b18-afea-2e868d4b35e3,.f0110090-4541-48f7-a1e8-453c6c276dcf{font-family:Myriad Pro;font-weight:700;}.a0aac72b-f5bf-42b4-94c1-6c2d14f74957{font-size:39px;}.c67d3305-928d-4b18-afea-2e868d4b35e3{font-size:18px;fill:#232323;}.\36 9f1dbf2-fc24-4192-8f4f-9a36cfbdfe45{fill:#9fa09f;}.\36 9f1dbf2-fc24-4192-8f4f-9a36cfbdfe45,.b1c5819b-4de5-4edf-8326-6469bd4d1a66,.b4f11a8d-0bb6-49b4-b0a4-a63c6619f2f2,.d9bb405b-f4dc-43ca-a4bc-c035d912e7aa{stroke:#000;}.\31 c136827-b502-4c5e-bb31-9436d42e5010,.\36 9f1dbf2-fc24-4192-8f4f-9a36cfbdfe45,.b1c5819b-4de5-4edf-8326-6469bd4d1a66,.b4f11a8d-0bb6-49b4-b0a4-a63c6619f2f2,.d9bb405b-f4dc-43ca-a4bc-c035d912e7aa{stroke-width:0.28px;}.b1c5819b-4de5-4edf-8326-6469bd4d1a66{fill:#8e4713;}.d9bb405b-f4dc-43ca-a4bc-c035d912e7aa{fill:#ff6c49;}.\38 a142e85-3b25-40f7-b752-89b0b1583afd{fill:#931c0a;stroke:#1d1d1b;stroke-width:0.34px;}.b4f11a8d-0bb6-49b4-b0a4-a63c6619f2f2{fill:#ff9231;}.\31 c136827-b502-4c5e-bb31-9436d42e5010{stroke:#020202;}</style></defs><title>Catástrofes </title><rect class="a5af1ea5-fee2-4c4e-aa09-c3ead3492a0a" x="0.54" width="300" height="400"/><text class="f0110090-4541-48f7-a1e8-453c6c276dcf" transform="translate(147.18 337.03) scale(0.88 1)">0</text><text class="a0aac72b-f5bf-42b4-94c1-6c2d14f74957" transform="translate(57.17 39.51) scale(0.91 1)">S<tspan x="20.47" y="0">an José de </tspan><tspan x="48.12" y="38.7">M</tspan><tspan x="80.53" y="38.7">aipo</tspan></text><text class="c67d3305-928d-4b18-afea-2e868d4b35e3" transform="translate(49.22 148.6) rotate(0.04) scale(0.9 1)">T<tspan x="9.45" y="0">i</tspan><tspan x="14.38" y="0">p</tspan><tspan x="25.2" y="0">o de </tspan></text><text class="c67d3305-928d-4b18-afea-2e868d4b35e3" transform="matrix(0.9, 0, 0, 1, 49.25, 170.29)">V<tspan x="10.96" y="0">ivienda</tspan></text><text class="c67d3305-928d-4b18-afea-2e868d4b35e3" transform="translate(110.08 269.52) rotate(0.02) scale(0.9 1)">C<tspan x="10.53" y="0">a</tspan><tspan x="19.89" y="0">tást</tspan><tspan x="50.42" y="0">r</tspan><tspan x="57.11" y="0">o</tspan><tspan x="67.5" y="0">f</tspan><tspan x="73.46" y="0">es</tspan></text><rect class="69f1dbf2-fc24-4192-8f4f-9a36cfbdfe45" x="147.18" y="137.52" width="9.63" height="8.71"/><rect class="69f1dbf2-fc24-4192-8f4f-9a36cfbdfe45" x="156.81" y="137.52" width="9.63" height="8.71"/><rect class="b1c5819b-4de5-4edf-8326-6469bd4d1a66" x="190.5" y="144.22" width="9.63" height="8.71" rx="4.35" ry="4.35"/><rect class="69f1dbf2-fc24-4192-8f4f-9a36cfbdfe45" x="166.43" y="137.52" width="9.63" height="8.71"/><rect class="69f1dbf2-fc24-4192-8f4f-9a36cfbdfe45" x="166.43" y="137.52" width="9.63" height="8.71"/><rect class="69f1dbf2-fc24-4192-8f4f-9a36cfbdfe45" x="176.06" y="137.52" width="9.63" height="8.71"/><rect class="69f1dbf2-fc24-4192-8f4f-9a36cfbdfe45" x="176.06" y="137.52" width="9.63" height="8.71"/><rect class="69f1dbf2-fc24-4192-8f4f-9a36cfbdfe45" x="204.94" y="137.52" width="9.63" height="8.71"/><rect class="69f1dbf2-fc24-4192-8f4f-9a36cfbdfe45" x="204.94" y="137.52" width="9.63" height="8.71"/><rect class="69f1dbf2-fc24-4192-8f4f-9a36cfbdfe45" x="214.56" y="137.52" width="9.63" height="8.71"/><rect class="69f1dbf2-fc24-4192-8f4f-9a36cfbdfe45" x="214.56" y="137.52" width="9.63" height="8.71"/><rect class="69f1dbf2-fc24-4192-8f4f-9a36cfbdfe45" x="233.82" y="137.52" width="9.63" height="8.71"/><rect class="69f1dbf2-fc24-4192-8f4f-9a36cfbdfe45" x="233.82" y="137.52" width="9.63" height="8.71"/><rect class="69f1dbf2-fc24-4192-8f4f-9a36cfbdfe45" x="185.68" y="137.52" width="9.63" height="8.71"/><rect class="69f1dbf2-fc24-4192-8f4f-9a36cfbdfe45" x="185.68" y="137.52" width="9.63" height="8.71"/><rect class="69f1dbf2-fc24-4192-8f4f-9a36cfbdfe45" x="195.31" y="137.52" width="9.63" height="8.71"/><rect class="69f1dbf2-fc24-4192-8f4f-9a36cfbdfe45" x="195.31" y="137.52" width="9.63" height="8.71"/><rect class="b1c5819b-4de5-4edf-8326-6469bd4d1a66" x="147.18" y="146.22" width="9.63" height="8.71"/><rect class="b1c5819b-4de5-4edf-8326-6469bd4d1a66" x="147.18" y="146.22" width="9.63" height="8.71"/><rect class="b1c5819b-4de5-4edf-8326-6469bd4d1a66" x="156.81" y="146.22" width="9.63" height="8.71"/><rect class="b1c5819b-4de5-4edf-8326-6469bd4d1a66" x="156.81" y="146.22" width="9.63" height="8.71"/><rect class="b1c5819b-4de5-4edf-8326-6469bd4d1a66" x="166.43" y="146.22" width="9.63" height="8.71"/><rect class="b1c5819b-4de5-4edf-8326-6469bd4d1a66" x="166.43" y="146.22" width="9.63" height="8.71"/><rect class="b1c5819b-4de5-4edf-8326-6469bd4d1a66" x="176.06" y="146.22" width="9.63" height="8.71"/><rect class="b1c5819b-4de5-4edf-8326-6469bd4d1a66" x="176.06" y="146.22" width="9.63" height="8.71"/><rect class="d9bb405b-f4dc-43ca-a4bc-c035d912e7aa" x="204.94" y="146.22" width="9.63" height="8.71"/><rect class="8a142e85-3b25-40f7-b752-89b0b1583afd" x="204.94" y="146.22" width="9.63" height="8.71"/><rect class="d9bb405b-f4dc-43ca-a4bc-c035d912e7aa" x="214.56" y="146.22" width="9.63" height="8.71"/><rect class="8a142e85-3b25-40f7-b752-89b0b1583afd" x="214.56" y="146.22" width="9.63" height="8.71"/><rect class="69f1dbf2-fc24-4192-8f4f-9a36cfbdfe45" x="233.82" y="146.22" width="9.63" height="8.71"/><rect class="69f1dbf2-fc24-4192-8f4f-9a36cfbdfe45" x="233.82" y="146.22" width="9.63" height="8.71"/><rect class="b1c5819b-4de5-4edf-8326-6469bd4d1a66" x="185.68" y="146.22" width="9.63" height="8.71"/><rect class="b1c5819b-4de5-4edf-8326-6469bd4d1a66" x="185.68" y="146.22" width="9.63" height="8.71"/><rect class="8a142e85-3b25-40f7-b752-89b0b1583afd" x="195.31" y="146.22" width="9.63" height="8.71"/><rect class="b1c5819b-4de5-4edf-8326-6469bd4d1a66" x="147.18" y="154.93" width="9.63" height="8.71"/><rect class="b1c5819b-4de5-4edf-8326-6469bd4d1a66" x="147.18" y="154.93" width="9.63" height="8.71"/><rect class="b1c5819b-4de5-4edf-8326-6469bd4d1a66" x="156.81" y="154.93" width="9.63" height="8.71"/><rect class="b1c5819b-4de5-4edf-8326-6469bd4d1a66" x="156.81" y="154.93" width="9.63" height="8.71"/><rect class="b1c5819b-4de5-4edf-8326-6469bd4d1a66" x="166.43" y="154.93" width="9.63" height="8.71"/><rect class="b1c5819b-4de5-4edf-8326-6469bd4d1a66" x="166.43" y="154.93" width="9.63" height="8.71"/><rect class="b1c5819b-4de5-4edf-8326-6469bd4d1a66" x="176.06" y="154.93" width="9.63" height="8.71"/><rect class="b1c5819b-4de5-4edf-8326-6469bd4d1a66" x="176.06" y="154.93" width="9.63" height="8.71"/><rect class="d9bb405b-f4dc-43ca-a4bc-c035d912e7aa" x="204.94" y="154.93" width="9.63" height="8.71"/><rect class="d9bb405b-f4dc-43ca-a4bc-c035d912e7aa" x="204.94" y="154.93" width="9.63" height="8.71"/><rect class="d9bb405b-f4dc-43ca-a4bc-c035d912e7aa" x="214.56" y="154.93" width="9.63" height="8.71"/><rect class="d9bb405b-f4dc-43ca-a4bc-c035d912e7aa" x="214.56" y="154.93" width="9.63" height="8.71"/><rect class="d9bb405b-f4dc-43ca-a4bc-c035d912e7aa" x="233.82" y="154.93" width="9.63" height="8.71"/><rect class="d9bb405b-f4dc-43ca-a4bc-c035d912e7aa" x="233.82" y="154.93" width="9.63" height="8.71"/><rect class="d9bb405b-f4dc-43ca-a4bc-c035d912e7aa" x="185.68" y="154.93" width="9.63" height="8.71"/><rect class="d9bb405b-f4dc-43ca-a4bc-c035d912e7aa" x="185.68" y="154.93" width="9.63" height="8.71"/><rect class="d9bb405b-f4dc-43ca-a4bc-c035d912e7aa" x="195.31" y="154.93" width="9.63" height="8.71"/><rect class="d9bb405b-f4dc-43ca-a4bc-c035d912e7aa" x="195.31" y="154.93" width="9.63" height="8.71"/><rect class="d9bb405b-f4dc-43ca-a4bc-c035d912e7aa" x="147.18" y="163.64" width="9.63" height="8.71"/><rect class="d9bb405b-f4dc-43ca-a4bc-c035d912e7aa" x="147.18" y="163.64" width="9.63" height="8.71"/><rect class="d9bb405b-f4dc-43ca-a4bc-c035d912e7aa" x="156.81" y="163.64" width="9.63" height="8.71"/><rect class="d9bb405b-f4dc-43ca-a4bc-c035d912e7aa" x="156.81" y="163.64" width="9.63" height="8.71"/><rect class="d9bb405b-f4dc-43ca-a4bc-c035d912e7aa" x="166.43" y="163.64" width="9.63" height="8.71"/><rect class="d9bb405b-f4dc-43ca-a4bc-c035d912e7aa" x="166.43" y="163.64" width="9.63" height="8.71"/><rect class="d9bb405b-f4dc-43ca-a4bc-c035d912e7aa" x="176.06" y="163.64" width="9.63" height="8.71"/><rect class="d9bb405b-f4dc-43ca-a4bc-c035d912e7aa" x="176.06" y="163.64" width="9.63" height="8.71"/><rect class="d9bb405b-f4dc-43ca-a4bc-c035d912e7aa" x="204.94" y="163.64" width="9.63" height="8.71"/><rect class="d9bb405b-f4dc-43ca-a4bc-c035d912e7aa" x="204.94" y="163.64" width="9.63" height="8.71"/><rect class="d9bb405b-f4dc-43ca-a4bc-c035d912e7aa" x="214.56" y="163.64" width="9.63" height="8.71"/><rect class="d9bb405b-f4dc-43ca-a4bc-c035d912e7aa" x="214.56" y="163.64" width="9.63" height="8.71"/><rect class="d9bb405b-f4dc-43ca-a4bc-c035d912e7aa" x="233.82" y="163.64" width="9.63" height="8.71"/><rect class="d9bb405b-f4dc-43ca-a4bc-c035d912e7aa" x="233.82" y="163.64" width="9.63" height="8.71"/><rect class="d9bb405b-f4dc-43ca-a4bc-c035d912e7aa" x="185.68" y="163.64" width="9.63" height="8.71"/><rect class="d9bb405b-f4dc-43ca-a4bc-c035d912e7aa" x="185.68" y="163.64" width="9.63" height="8.71"/><rect class="d9bb405b-f4dc-43ca-a4bc-c035d912e7aa" x="195.31" y="163.64" width="9.63" height="8.71"/><rect class="d9bb405b-f4dc-43ca-a4bc-c035d912e7aa" x="195.31" y="163.64" width="9.63" height="8.71"/><rect class="d9bb405b-f4dc-43ca-a4bc-c035d912e7aa" x="147.18" y="172.35" width="9.63" height="8.71"/><rect class="d9bb405b-f4dc-43ca-a4bc-c035d912e7aa" x="147.18" y="172.35" width="9.63" height="8.71"/><rect class="d9bb405b-f4dc-43ca-a4bc-c035d912e7aa" x="156.81" y="172.35" width="9.63" height="8.71"/><rect class="d9bb405b-f4dc-43ca-a4bc-c035d912e7aa" x="156.81" y="172.35" width="9.63" height="8.71"/><rect class="d9bb405b-f4dc-43ca-a4bc-c035d912e7aa" x="166.43" y="172.35" width="9.63" height="8.71"/><rect class="d9bb405b-f4dc-43ca-a4bc-c035d912e7aa" x="166.43" y="172.35" width="9.63" height="8.71"/><rect class="d9bb405b-f4dc-43ca-a4bc-c035d912e7aa" x="176.06" y="172.35" width="9.63" height="8.71"/><rect class="d9bb405b-f4dc-43ca-a4bc-c035d912e7aa" x="176.06" y="172.35" width="9.63" height="8.71"/><rect class="d9bb405b-f4dc-43ca-a4bc-c035d912e7aa" x="204.94" y="172.35" width="9.63" height="8.71"/><rect class="d9bb405b-f4dc-43ca-a4bc-c035d912e7aa" x="204.94" y="172.35" width="9.63" height="8.71"/><rect class="d9bb405b-f4dc-43ca-a4bc-c035d912e7aa" x="214.56" y="172.35" width="9.63" height="8.71"/><rect class="d9bb405b-f4dc-43ca-a4bc-c035d912e7aa" x="214.56" y="172.35" width="9.63" height="8.71"/><rect class="d9bb405b-f4dc-43ca-a4bc-c035d912e7aa" x="233.82" y="172.35" width="9.63" height="8.71"/><rect class="d9bb405b-f4dc-43ca-a4bc-c035d912e7aa" x="233.82" y="172.35" width="9.63" height="8.71"/><rect class="d9bb405b-f4dc-43ca-a4bc-c035d912e7aa" x="185.68" y="172.35" width="9.63" height="8.71"/><rect class="d9bb405b-f4dc-43ca-a4bc-c035d912e7aa" x="185.68" y="172.35" width="9.63" height="8.71"/><rect class="d9bb405b-f4dc-43ca-a4bc-c035d912e7aa" x="195.31" y="172.35" width="9.63" height="8.71"/><rect class="d9bb405b-f4dc-43ca-a4bc-c035d912e7aa" x="195.31" y="172.35" width="9.63" height="8.71"/><rect class="d9bb405b-f4dc-43ca-a4bc-c035d912e7aa" x="147.18" y="181.05" width="9.63" height="8.71"/><rect class="d9bb405b-f4dc-43ca-a4bc-c035d912e7aa" x="147.18" y="181.05" width="9.63" height="8.71"/><rect class="d9bb405b-f4dc-43ca-a4bc-c035d912e7aa" x="156.81" y="181.05" width="9.63" height="8.71"/><rect class="d9bb405b-f4dc-43ca-a4bc-c035d912e7aa" x="156.81" y="181.05" width="9.63" height="8.71"/><rect class="d9bb405b-f4dc-43ca-a4bc-c035d912e7aa" x="166.43" y="181.05" width="9.63" height="8.71"/><rect class="d9bb405b-f4dc-43ca-a4bc-c035d912e7aa" x="166.43" y="181.05" width="9.63" height="8.71"/><rect class="d9bb405b-f4dc-43ca-a4bc-c035d912e7aa" x="176.06" y="181.05" width="9.63" height="8.71"/><rect class="d9bb405b-f4dc-43ca-a4bc-c035d912e7aa" x="176.06" y="181.05" width="9.63" height="8.71"/><rect class="d9bb405b-f4dc-43ca-a4bc-c035d912e7aa" x="204.94" y="181.05" width="9.63" height="8.71"/><rect class="d9bb405b-f4dc-43ca-a4bc-c035d912e7aa" x="204.94" y="181.05" width="9.63" height="8.71"/><rect class="d9bb405b-f4dc-43ca-a4bc-c035d912e7aa" x="214.56" y="181.05" width="9.63" height="8.71"/><rect class="d9bb405b-f4dc-43ca-a4bc-c035d912e7aa" x="214.56" y="181.05" width="9.63" height="8.71"/><rect class="d9bb405b-f4dc-43ca-a4bc-c035d912e7aa" x="233.82" y="181.05" width="9.63" height="8.71"/><rect class="d9bb405b-f4dc-43ca-a4bc-c035d912e7aa" x="233.82" y="181.05" width="9.63" height="8.71"/><rect class="d9bb405b-f4dc-43ca-a4bc-c035d912e7aa" x="185.68" y="181.05" width="9.63" height="8.71"/><rect class="d9bb405b-f4dc-43ca-a4bc-c035d912e7aa" x="185.68" y="181.05" width="9.63" height="8.71"/><rect class="d9bb405b-f4dc-43ca-a4bc-c035d912e7aa" x="195.31" y="181.05" width="9.63" height="8.71"/><rect class="d9bb405b-f4dc-43ca-a4bc-c035d912e7aa" x="195.31" y="181.05" width="9.63" height="8.71"/><rect class="b1c5819b-4de5-4edf-8326-6469bd4d1a66" x="147.18" y="189.76" width="9.63" height="8.71"/><rect class="d9bb405b-f4dc-43ca-a4bc-c035d912e7aa" x="147.18" y="189.76" width="9.63" height="8.71"/><rect class="b4f11a8d-0bb6-49b4-b0a4-a63c6619f2f2" x="156.81" y="189.76" width="9.63" height="8.71"/><rect class="b4f11a8d-0bb6-49b4-b0a4-a63c6619f2f2" x="156.81" y="189.76" width="9.63" height="8.71"/><rect class="b4f11a8d-0bb6-49b4-b0a4-a63c6619f2f2" x="166.43" y="189.76" width="9.63" height="8.71"/><rect class="b4f11a8d-0bb6-49b4-b0a4-a63c6619f2f2" x="166.43" y="189.76" width="9.63" height="8.71"/><rect class="b4f11a8d-0bb6-49b4-b0a4-a63c6619f2f2" x="176.06" y="189.76" width="9.63" height="8.71"/><rect class="b4f11a8d-0bb6-49b4-b0a4-a63c6619f2f2" x="176.06" y="189.76" width="9.63" height="8.71"/><rect class="b4f11a8d-0bb6-49b4-b0a4-a63c6619f2f2" x="204.94" y="189.76" width="9.63" height="8.71"/><rect class="b4f11a8d-0bb6-49b4-b0a4-a63c6619f2f2" x="204.94" y="189.76" width="9.63" height="8.71"/><rect class="b4f11a8d-0bb6-49b4-b0a4-a63c6619f2f2" x="214.56" y="189.76" width="9.63" height="8.71"/><rect class="b4f11a8d-0bb6-49b4-b0a4-a63c6619f2f2" x="214.56" y="189.76" width="9.63" height="8.71"/><rect class="b4f11a8d-0bb6-49b4-b0a4-a63c6619f2f2" x="233.82" y="189.76" width="9.63" height="8.71"/><rect class="b4f11a8d-0bb6-49b4-b0a4-a63c6619f2f2" x="233.82" y="189.76" width="9.63" height="8.71"/><rect class="b4f11a8d-0bb6-49b4-b0a4-a63c6619f2f2" x="185.68" y="189.76" width="9.63" height="8.71"/><rect class="b4f11a8d-0bb6-49b4-b0a4-a63c6619f2f2" x="185.68" y="189.76" width="9.63" height="8.71"/><rect class="b4f11a8d-0bb6-49b4-b0a4-a63c6619f2f2" x="195.31" y="189.76" width="9.63" height="8.71"/><rect class="b4f11a8d-0bb6-49b4-b0a4-a63c6619f2f2" x="195.31" y="189.76" width="9.63" height="8.71"/><rect class="b4f11a8d-0bb6-49b4-b0a4-a63c6619f2f2" x="147.18" y="198.47" width="9.63" height="8.71"/><rect class="b4f11a8d-0bb6-49b4-b0a4-a63c6619f2f2" x="147.18" y="198.47" width="9.63" height="8.71"/><rect class="b4f11a8d-0bb6-49b4-b0a4-a63c6619f2f2" x="156.81" y="198.47" width="9.63" height="8.71"/><rect class="b4f11a8d-0bb6-49b4-b0a4-a63c6619f2f2" x="156.81" y="198.47" width="9.63" height="8.71"/><rect class="b4f11a8d-0bb6-49b4-b0a4-a63c6619f2f2" x="166.43" y="198.47" width="9.63" height="8.71"/><rect class="b4f11a8d-0bb6-49b4-b0a4-a63c6619f2f2" x="166.43" y="198.47" width="9.63" height="8.71"/><rect class="b4f11a8d-0bb6-49b4-b0a4-a63c6619f2f2" x="176.06" y="198.47" width="9.63" height="8.71"/><rect class="b4f11a8d-0bb6-49b4-b0a4-a63c6619f2f2" x="176.06" y="198.47" width="9.63" height="8.71"/><rect class="b4f11a8d-0bb6-49b4-b0a4-a63c6619f2f2" x="204.94" y="198.47" width="9.63" height="8.71"/><rect class="b4f11a8d-0bb6-49b4-b0a4-a63c6619f2f2" x="204.94" y="198.47" width="9.63" height="8.71"/><rect class="b4f11a8d-0bb6-49b4-b0a4-a63c6619f2f2" x="214.56" y="198.47" width="9.63" height="8.71"/><rect class="b4f11a8d-0bb6-49b4-b0a4-a63c6619f2f2" x="214.56" y="198.47" width="9.63" height="8.71"/><rect class="b4f11a8d-0bb6-49b4-b0a4-a63c6619f2f2" x="233.82" y="198.47" width="9.63" height="8.71"/><rect class="b4f11a8d-0bb6-49b4-b0a4-a63c6619f2f2" x="233.82" y="198.47" width="9.63" height="8.71"/><rect class="b4f11a8d-0bb6-49b4-b0a4-a63c6619f2f2" x="185.68" y="198.47" width="9.63" height="8.71"/><rect class="b4f11a8d-0bb6-49b4-b0a4-a63c6619f2f2" x="185.68" y="198.47" width="9.63" height="8.71"/><rect class="b4f11a8d-0bb6-49b4-b0a4-a63c6619f2f2" x="195.31" y="198.47" width="9.63" height="8.71"/><rect class="b4f11a8d-0bb6-49b4-b0a4-a63c6619f2f2" x="195.31" y="198.47" width="9.63" height="8.71"/><rect class="b4f11a8d-0bb6-49b4-b0a4-a63c6619f2f2" x="147.18" y="207.17" width="9.63" height="8.71"/><rect class="b4f11a8d-0bb6-49b4-b0a4-a63c6619f2f2" x="147.18" y="207.17" width="9.63" height="8.71"/><rect class="b4f11a8d-0bb6-49b4-b0a4-a63c6619f2f2" x="156.81" y="207.17" width="9.63" height="8.71"/><rect class="b4f11a8d-0bb6-49b4-b0a4-a63c6619f2f2" x="156.81" y="207.17" width="9.63" height="8.71"/><rect class="b4f11a8d-0bb6-49b4-b0a4-a63c6619f2f2" x="166.43" y="207.17" width="9.63" height="8.71"/><rect class="b4f11a8d-0bb6-49b4-b0a4-a63c6619f2f2" x="166.43" y="207.17" width="9.63" height="8.71"/><rect class="b4f11a8d-0bb6-49b4-b0a4-a63c6619f2f2" x="176.06" y="207.17" width="9.63" height="8.71"/><rect class="b4f11a8d-0bb6-49b4-b0a4-a63c6619f2f2" x="176.06" y="207.17" width="9.63" height="8.71"/><rect class="b4f11a8d-0bb6-49b4-b0a4-a63c6619f2f2" x="204.94" y="207.17" width="9.63" height="8.71"/><rect class="b4f11a8d-0bb6-49b4-b0a4-a63c6619f2f2" x="204.94" y="207.17" width="9.63" height="8.71"/><rect class="b4f11a8d-0bb6-49b4-b0a4-a63c6619f2f2" x="214.56" y="207.17" width="9.63" height="8.71"/><rect class="b4f11a8d-0bb6-49b4-b0a4-a63c6619f2f2" x="214.56" y="207.17" width="9.63" height="8.71"/><rect class="b4f11a8d-0bb6-49b4-b0a4-a63c6619f2f2" x="233.82" y="207.17" width="9.63" height="8.71"/><rect class="b4f11a8d-0bb6-49b4-b0a4-a63c6619f2f2" x="233.82" y="207.17" width="9.63" height="8.71"/><rect class="b4f11a8d-0bb6-49b4-b0a4-a63c6619f2f2" x="185.68" y="207.17" width="9.63" height="8.71"/><rect class="b4f11a8d-0bb6-49b4-b0a4-a63c6619f2f2" x="185.68" y="207.17" width="9.63" height="8.71"/><rect class="b4f11a8d-0bb6-49b4-b0a4-a63c6619f2f2" x="195.31" y="207.17" width="9.63" height="8.71"/><rect class="b4f11a8d-0bb6-49b4-b0a4-a63c6619f2f2" x="195.31" y="207.17" width="9.63" height="8.71"/><rect class="b4f11a8d-0bb6-49b4-b0a4-a63c6619f2f2" x="147.18" y="215.88" width="9.63" height="8.71"/><rect class="b4f11a8d-0bb6-49b4-b0a4-a63c6619f2f2" x="147.18" y="215.88" width="9.63" height="8.71"/><rect class="b4f11a8d-0bb6-49b4-b0a4-a63c6619f2f2" x="156.81" y="215.88" width="9.63" height="8.71"/><rect class="b4f11a8d-0bb6-49b4-b0a4-a63c6619f2f2" x="156.81" y="215.88" width="9.63" height="8.71"/><rect class="b4f11a8d-0bb6-49b4-b0a4-a63c6619f2f2" x="166.43" y="215.88" width="9.63" height="8.71"/><rect class="b4f11a8d-0bb6-49b4-b0a4-a63c6619f2f2" x="166.43" y="215.88" width="9.63" height="8.71"/><rect class="b4f11a8d-0bb6-49b4-b0a4-a63c6619f2f2" x="176.06" y="215.88" width="9.63" height="8.71"/><rect class="b4f11a8d-0bb6-49b4-b0a4-a63c6619f2f2" x="176.06" y="215.88" width="9.63" height="8.71"/><rect class="b4f11a8d-0bb6-49b4-b0a4-a63c6619f2f2" x="204.94" y="215.88" width="9.63" height="8.71"/><rect class="b4f11a8d-0bb6-49b4-b0a4-a63c6619f2f2" x="204.94" y="215.88" width="9.63" height="8.71"/><rect class="b4f11a8d-0bb6-49b4-b0a4-a63c6619f2f2" x="214.56" y="215.88" width="9.63" height="8.71"/><rect class="b4f11a8d-0bb6-49b4-b0a4-a63c6619f2f2" x="214.56" y="215.88" width="9.63" height="8.71"/><rect class="b4f11a8d-0bb6-49b4-b0a4-a63c6619f2f2" x="233.82" y="215.88" width="9.63" height="8.71"/><rect class="b4f11a8d-0bb6-49b4-b0a4-a63c6619f2f2" x="233.82" y="215.88" width="9.63" height="8.71"/><rect class="69f1dbf2-fc24-4192-8f4f-9a36cfbdfe45" x="224.19" y="137.52" width="9.63" height="8.71"/><rect class="69f1dbf2-fc24-4192-8f4f-9a36cfbdfe45" x="224.19" y="137.52" width="9.63" height="8.71"/><rect class="69f1dbf2-fc24-4192-8f4f-9a36cfbdfe45" x="224.19" y="146.22" width="9.63" height="8.71"/><rect class="69f1dbf2-fc24-4192-8f4f-9a36cfbdfe45" x="224.19" y="146.22" width="9.63" height="8.71"/><rect class="d9bb405b-f4dc-43ca-a4bc-c035d912e7aa" x="224.19" y="154.93" width="9.63" height="8.71"/><rect class="d9bb405b-f4dc-43ca-a4bc-c035d912e7aa" x="224.19" y="154.93" width="9.63" height="8.71"/><rect class="d9bb405b-f4dc-43ca-a4bc-c035d912e7aa" x="224.19" y="163.64" width="9.63" height="8.71"/><rect class="d9bb405b-f4dc-43ca-a4bc-c035d912e7aa" x="224.19" y="163.64" width="9.63" height="8.71"/><rect class="d9bb405b-f4dc-43ca-a4bc-c035d912e7aa" x="224.19" y="172.35" width="9.63" height="8.71"/><rect class="d9bb405b-f4dc-43ca-a4bc-c035d912e7aa" x="224.19" y="172.35" width="9.63" height="8.71"/><rect class="d9bb405b-f4dc-43ca-a4bc-c035d912e7aa" x="224.19" y="181.05" width="9.63" height="8.71"/><rect class="d9bb405b-f4dc-43ca-a4bc-c035d912e7aa" x="224.19" y="181.05" width="9.63" height="8.71"/><rect class="b4f11a8d-0bb6-49b4-b0a4-a63c6619f2f2" x="224.19" y="189.76" width="9.63" height="8.71"/><rect class="b4f11a8d-0bb6-49b4-b0a4-a63c6619f2f2" x="224.19" y="189.76" width="9.63" height="8.71"/><rect class="b4f11a8d-0bb6-49b4-b0a4-a63c6619f2f2" x="224.19" y="198.47" width="9.63" height="8.71"/><rect class="b4f11a8d-0bb6-49b4-b0a4-a63c6619f2f2" x="224.19" y="198.47" width="9.63" height="8.71"/><rect class="b4f11a8d-0bb6-49b4-b0a4-a63c6619f2f2" x="224.19" y="207.17" width="9.63" height="8.71"/><rect class="b4f11a8d-0bb6-49b4-b0a4-a63c6619f2f2" x="224.19" y="207.17" width="9.63" height="8.71"/><rect class="b4f11a8d-0bb6-49b4-b0a4-a63c6619f2f2" x="224.19" y="215.88" width="9.63" height="8.71"/><rect class="b4f11a8d-0bb6-49b4-b0a4-a63c6619f2f2" x="224.19" y="215.88" width="9.63" height="8.71"/><rect class="b4f11a8d-0bb6-49b4-b0a4-a63c6619f2f2" x="185.68" y="215.88" width="9.63" height="8.71"/><rect class="b4f11a8d-0bb6-49b4-b0a4-a63c6619f2f2" x="185.68" y="215.88" width="9.63" height="8.71"/><rect class="b4f11a8d-0bb6-49b4-b0a4-a63c6619f2f2" x="195.31" y="215.88" width="9.63" height="8.71"/><rect class="b4f11a8d-0bb6-49b4-b0a4-a63c6619f2f2" x="195.31" y="215.88" width="9.63" height="8.71"/><polygon class="1c136827-b502-4c5e-bb31-9436d42e5010" points="242.62 136.64 147.39 136.76 194.93 92.8 242.62 136.64"/></svg>