<svg id="a5692b3f-14c9-40eb-8aef-fb388d38c273" data-name="Fondo" xmlns="http://www.w3.org/2000/svg" viewBox="0 0 300 400"><defs><style>.\39 128d7f2-9f85-4e6a-a360-5178f42eccd2{fill:#d6eddc;stroke:#fff;stroke-width:1.46px;}.\31 b6e4ce5-7b99-4b48-b28a-c6f7ecf0d239,.\31 e8adaf7-d74e-489b-addf-a910b9094eb8,.\35 69e3128-cb50-4ae4-aeaf-01e583c3c016,.\37 8dbd211-941d-433d-8c3c-80eb22a7d6aa,.\38 bf9232a-91c8-4f75-bf55-6377a3b40a58,.\39 128d7f2-9f85-4e6a-a360-5178f42eccd2,.c059c65a-24b9-4504-a972-047664058b71{stroke-miterlimit:10;}.bd968e86-e983-4636-913c-03617e3e2f18{font-size:50.86px;}.\36 e45e7b8-f3ef-48b9-8e40-cb52de4ad43a,.bbc398a9-2e6e-4780-b8d2-0b61778facea,.bd968e86-e983-4636-913c-03617e3e2f18{font-family:Myriad Pro;font-weight:700;}.bbc398a9-2e6e-4780-b8d2-0b61778facea{font-size:18px;fill:#232323;}.\36 e45e7b8-f3ef-48b9-8e40-cb52de4ad43a{font-size:39.55px;fill:#118c97;white-space:pre;}.\31 e8adaf7-d74e-489b-addf-a910b9094eb8{fill:#ff9231;}.\31 e8adaf7-d74e-489b-addf-a910b9094eb8,.\35 69e3128-cb50-4ae4-aeaf-01e583c3c016,.\37 8dbd211-941d-433d-8c3c-80eb22a7d6aa,.c059c65a-24b9-4504-a972-047664058b71{stroke:#000;}.\31 e8adaf7-d74e-489b-addf-a910b9094eb8,.\35 69e3128-cb50-4ae4-aeaf-01e583c3c016,.\37 8dbd211-941d-433d-8c3c-80eb22a7d6aa,.\38 bf9232a-91c8-4f75-bf55-6377a3b40a58,.c059c65a-24b9-4504-a972-047664058b71{stroke-width:0.31px;}.\35 69e3128-cb50-4ae4-aeaf-01e583c3c016{fill:#9fa09f;}.c059c65a-24b9-4504-a972-047664058b71{fill:#ff6c49;}.\37 8dbd211-941d-433d-8c3c-80eb22a7d6aa{fill:#8e4713;}.\31 b6e4ce5-7b99-4b48-b28a-c6f7ecf0d239{fill:#931c0a;stroke:#1d1d1b;stroke-width:0.38px;}.\38 bf9232a-91c8-4f75-bf55-6377a3b40a58{stroke:#020202;}</style></defs><title>Catástrofes </title><rect class="9128d7f2-9f85-4e6a-a360-5178f42eccd2" x="0.54" width="300" height="400"/><text class="bd968e86-e983-4636-913c-03617e3e2f18" transform="translate(36.58 56.01) scale(0.91 1)">S<tspan x="26.7" y="0">an </tspan><tspan x="92.16" y="0">R</tspan><tspan x="121.61" y="0">amón</tspan></text><text class="bbc398a9-2e6e-4780-b8d2-0b61778facea" transform="translate(49.12 131.11) rotate(0.19) scale(0.9 1)">T<tspan x="9.45" y="0">i</tspan><tspan x="14.38" y="0">p</tspan><tspan x="25.2" y="0">o de </tspan></text><text class="bbc398a9-2e6e-4780-b8d2-0b61778facea" transform="translate(49.22 153.09) rotate(-0.54) scale(0.9 1)">V<tspan x="10.96" y="0">ivienda</tspan></text><text class="bbc398a9-2e6e-4780-b8d2-0b61778facea" transform="translate(109.05 284.47) rotate(0.04) scale(0.9 1)">C<tspan x="10.53" y="0">a</tspan><tspan x="19.89" y="0">tást</tspan><tspan x="50.42" y="0">r</tspan><tspan x="57.11" y="0">o</tspan><tspan x="67.5" y="0">f</tspan><tspan x="73.46" y="0">es</tspan></text><text class="6e45e7b8-f3ef-48b9-8e40-cb52de4ad43a" transform="translate(156.72 332.9) scale(0.88 1)">  3</text><polygon points="124.14 315.93 123.37 309.39 124 304.79 126.21 300.58 129.22 297.08 131.93 295.51 131.34 297.44 130.66 299.82 130.14 303.63 130.56 306.61 130.95 308.81 131.93 311.11 133 313.68 135.79 317.35 137.85 320.07 138.34 316.61 140.09 312.67 141.84 311.11 143.26 309.92 144 309.09 144 310.83 143.36 313.13 143.72 315.51 143.99 317.07 144.62 320.07 145.81 323.77 147.1 327.99 148 331.76 148 334.51 147.01 338.91 146.08 340.66 144.35 342.58 142.22 344.25 139.7 345.52 137.56 346.35 138.73 344.79 139.51 343.15 139.6 340.84 138.92 338.91 138.24 337.63 137.47 335.88 137.08 334.6 137.27 332.19 136.36 333.3 136 334.32 136 335.61 135.76 336.89 135.35 337.72 135.41 338.5 134.38 337.12 133.87 335.13 134.24 332.51 134.75 330.59 134.6 328.45 134.23 326.94 133.14 325.08 131.68 323.36 132.12 326.25 131.97 327.76 131.39 329.97 130.81 331 130.14 332.58 127.72 334.99 127 335.27 127 333.41 126.72 332.19 126.61 331.62 126.19 330.86 125.51 330.31 125.24 331 125.11 332.65 124.82 334.44 124.53 335.88 124.17 336.99 123.66 338.5 123.34 339.67 123.01 341.32 123.52 343.66 124.32 344.97 125.12 345.66 126.94 347.17 123.01 346.49 121.26 345.59 119.14 344.25 117.1 343.15 114.47 340.36 113 336.78 113 332.31 114.83 327.21 116.48 324.74 118 322.74 119 320.07 119 317.99 119 315.79 119 313.58 118.5 313.17 120.02 314.55 121.18 315.93 122.08 317.37 122.73 319.16 123.23 320.81 123.16 322.26 123.3 323.98 123.15 326.39 124.47 324.25 124.9 322.33 125.12 320.47 124.14 315.93"/><rect class="1e8adaf7-d74e-489b-addf-a910b9094eb8" x="141.18" y="118.1" width="10.61" height="9.6"/><rect class="1e8adaf7-d74e-489b-addf-a910b9094eb8" x="151.79" y="118.1" width="10.61" height="9.6"/><rect class="1e8adaf7-d74e-489b-addf-a910b9094eb8" x="188.94" y="125.48" width="10.61" height="9.6" rx="4.8" ry="4.8"/><rect class="1e8adaf7-d74e-489b-addf-a910b9094eb8" x="162.41" y="118.1" width="10.61" height="9.6"/><rect class="1e8adaf7-d74e-489b-addf-a910b9094eb8" x="162.41" y="118.1" width="10.61" height="9.6"/><rect class="1e8adaf7-d74e-489b-addf-a910b9094eb8" x="173.02" y="118.1" width="10.61" height="9.6"/><rect class="1e8adaf7-d74e-489b-addf-a910b9094eb8" x="173.02" y="118.1" width="10.61" height="9.6"/><rect class="1e8adaf7-d74e-489b-addf-a910b9094eb8" x="204.86" y="118.1" width="10.61" height="9.6"/><rect class="1e8adaf7-d74e-489b-addf-a910b9094eb8" x="204.86" y="118.1" width="10.61" height="9.6"/><rect class="1e8adaf7-d74e-489b-addf-a910b9094eb8" x="215.47" y="118.1" width="10.61" height="9.6"/><rect class="1e8adaf7-d74e-489b-addf-a910b9094eb8" x="215.47" y="118.1" width="10.61" height="9.6"/><rect class="1e8adaf7-d74e-489b-addf-a910b9094eb8" x="236.69" y="118.1" width="10.61" height="9.6"/><rect class="1e8adaf7-d74e-489b-addf-a910b9094eb8" x="236.69" y="118.1" width="10.61" height="9.6"/><rect class="1e8adaf7-d74e-489b-addf-a910b9094eb8" x="183.63" y="118.1" width="10.61" height="9.6"/><rect class="1e8adaf7-d74e-489b-addf-a910b9094eb8" x="183.63" y="118.1" width="10.61" height="9.6"/><rect class="1e8adaf7-d74e-489b-addf-a910b9094eb8" x="194.24" y="118.1" width="10.61" height="9.6"/><rect class="1e8adaf7-d74e-489b-addf-a910b9094eb8" x="194.24" y="118.1" width="10.61" height="9.6"/><rect class="1e8adaf7-d74e-489b-addf-a910b9094eb8" x="141.18" y="127.7" width="10.61" height="9.6"/><rect class="1e8adaf7-d74e-489b-addf-a910b9094eb8" x="141.18" y="127.7" width="10.61" height="9.6"/><rect class="1e8adaf7-d74e-489b-addf-a910b9094eb8" x="151.79" y="127.7" width="10.61" height="9.6"/><rect class="1e8adaf7-d74e-489b-addf-a910b9094eb8" x="151.79" y="127.7" width="10.61" height="9.6"/><rect class="1e8adaf7-d74e-489b-addf-a910b9094eb8" x="162.41" y="127.7" width="10.61" height="9.6"/><rect class="1e8adaf7-d74e-489b-addf-a910b9094eb8" x="162.41" y="127.7" width="10.61" height="9.6"/><rect class="1e8adaf7-d74e-489b-addf-a910b9094eb8" x="173.02" y="127.7" width="10.61" height="9.6"/><rect class="1e8adaf7-d74e-489b-addf-a910b9094eb8" x="173.02" y="127.7" width="10.61" height="9.6"/><rect class="1e8adaf7-d74e-489b-addf-a910b9094eb8" x="204.86" y="127.7" width="10.61" height="9.6"/><rect class="1e8adaf7-d74e-489b-addf-a910b9094eb8" x="204.86" y="127.7" width="10.61" height="9.6"/><rect class="1e8adaf7-d74e-489b-addf-a910b9094eb8" x="215.47" y="127.7" width="10.61" height="9.6"/><rect class="1e8adaf7-d74e-489b-addf-a910b9094eb8" x="215.47" y="127.7" width="10.61" height="9.6"/><rect class="1e8adaf7-d74e-489b-addf-a910b9094eb8" x="236.69" y="127.7" width="10.61" height="9.6"/><rect class="1e8adaf7-d74e-489b-addf-a910b9094eb8" x="236.69" y="127.7" width="10.61" height="9.6"/><rect class="1e8adaf7-d74e-489b-addf-a910b9094eb8" x="183.63" y="127.7" width="10.61" height="9.6"/><rect class="1e8adaf7-d74e-489b-addf-a910b9094eb8" x="183.63" y="127.7" width="10.61" height="9.6"/><rect class="1e8adaf7-d74e-489b-addf-a910b9094eb8" x="194.24" y="127.7" width="10.61" height="9.6"/><rect class="569e3128-cb50-4ae4-aeaf-01e583c3c016" x="141.18" y="137.3" width="10.61" height="9.6"/><rect class="569e3128-cb50-4ae4-aeaf-01e583c3c016" x="141.18" y="137.3" width="10.61" height="9.6"/><rect class="569e3128-cb50-4ae4-aeaf-01e583c3c016" x="151.79" y="137.3" width="10.61" height="9.6"/><rect class="569e3128-cb50-4ae4-aeaf-01e583c3c016" x="151.79" y="137.3" width="10.61" height="9.6"/><rect class="569e3128-cb50-4ae4-aeaf-01e583c3c016" x="162.41" y="137.3" width="10.61" height="9.6"/><rect class="569e3128-cb50-4ae4-aeaf-01e583c3c016" x="162.41" y="137.3" width="10.61" height="9.6"/><rect class="1e8adaf7-d74e-489b-addf-a910b9094eb8" x="173.02" y="137.3" width="10.61" height="9.6"/><rect class="1e8adaf7-d74e-489b-addf-a910b9094eb8" x="173.02" y="137.3" width="10.61" height="9.6"/><rect class="1e8adaf7-d74e-489b-addf-a910b9094eb8" x="204.86" y="137.3" width="10.61" height="9.6"/><rect class="1e8adaf7-d74e-489b-addf-a910b9094eb8" x="204.86" y="137.3" width="10.61" height="9.6"/><rect class="1e8adaf7-d74e-489b-addf-a910b9094eb8" x="215.47" y="137.3" width="10.61" height="9.6"/><rect class="1e8adaf7-d74e-489b-addf-a910b9094eb8" x="215.47" y="137.3" width="10.61" height="9.6"/><rect class="1e8adaf7-d74e-489b-addf-a910b9094eb8" x="236.69" y="137.3" width="10.61" height="9.6"/><rect class="1e8adaf7-d74e-489b-addf-a910b9094eb8" x="236.69" y="137.3" width="10.61" height="9.6"/><rect class="1e8adaf7-d74e-489b-addf-a910b9094eb8" x="183.63" y="137.3" width="10.61" height="9.6"/><rect class="1e8adaf7-d74e-489b-addf-a910b9094eb8" x="183.63" y="137.3" width="10.61" height="9.6"/><rect class="1e8adaf7-d74e-489b-addf-a910b9094eb8" x="194.24" y="137.3" width="10.61" height="9.6"/><rect class="1e8adaf7-d74e-489b-addf-a910b9094eb8" x="194.24" y="137.3" width="10.61" height="9.6"/><rect class="569e3128-cb50-4ae4-aeaf-01e583c3c016" x="141.18" y="146.9" width="10.61" height="9.6"/><rect class="569e3128-cb50-4ae4-aeaf-01e583c3c016" x="141.18" y="146.9" width="10.61" height="9.6"/><rect class="569e3128-cb50-4ae4-aeaf-01e583c3c016" x="151.79" y="146.9" width="10.61" height="9.6"/><rect class="569e3128-cb50-4ae4-aeaf-01e583c3c016" x="151.79" y="146.9" width="10.61" height="9.6"/><rect class="569e3128-cb50-4ae4-aeaf-01e583c3c016" x="162.41" y="146.9" width="10.61" height="9.6"/><rect class="569e3128-cb50-4ae4-aeaf-01e583c3c016" x="162.41" y="146.9" width="10.61" height="9.6"/><rect class="569e3128-cb50-4ae4-aeaf-01e583c3c016" x="173.02" y="146.9" width="10.61" height="9.6"/><rect class="569e3128-cb50-4ae4-aeaf-01e583c3c016" x="173.02" y="146.9" width="10.61" height="9.6"/><rect class="569e3128-cb50-4ae4-aeaf-01e583c3c016" x="204.86" y="146.9" width="10.61" height="9.6"/><rect class="569e3128-cb50-4ae4-aeaf-01e583c3c016" x="204.86" y="146.9" width="10.61" height="9.6"/><rect class="569e3128-cb50-4ae4-aeaf-01e583c3c016" x="215.47" y="146.9" width="10.61" height="9.6"/><rect class="569e3128-cb50-4ae4-aeaf-01e583c3c016" x="215.47" y="146.9" width="10.61" height="9.6"/><rect class="569e3128-cb50-4ae4-aeaf-01e583c3c016" x="236.69" y="146.9" width="10.61" height="9.6"/><rect class="569e3128-cb50-4ae4-aeaf-01e583c3c016" x="236.69" y="146.9" width="10.61" height="9.6"/><rect class="569e3128-cb50-4ae4-aeaf-01e583c3c016" x="183.63" y="146.9" width="10.61" height="9.6"/><rect class="569e3128-cb50-4ae4-aeaf-01e583c3c016" x="183.63" y="146.9" width="10.61" height="9.6"/><rect class="569e3128-cb50-4ae4-aeaf-01e583c3c016" x="194.24" y="146.9" width="10.61" height="9.6"/><rect class="569e3128-cb50-4ae4-aeaf-01e583c3c016" x="194.24" y="146.9" width="10.61" height="9.6"/><rect class="c059c65a-24b9-4504-a972-047664058b71" x="141.18" y="156.5" width="10.61" height="9.6"/><rect class="c059c65a-24b9-4504-a972-047664058b71" x="141.18" y="156.5" width="10.61" height="9.6"/><rect class="c059c65a-24b9-4504-a972-047664058b71" x="151.79" y="156.5" width="10.61" height="9.6"/><rect class="c059c65a-24b9-4504-a972-047664058b71" x="151.79" y="156.5" width="10.61" height="9.6"/><rect class="c059c65a-24b9-4504-a972-047664058b71" x="162.41" y="156.5" width="10.61" height="9.6"/><rect class="c059c65a-24b9-4504-a972-047664058b71" x="162.41" y="156.5" width="10.61" height="9.6"/><rect class="c059c65a-24b9-4504-a972-047664058b71" x="173.02" y="156.5" width="10.61" height="9.6"/><rect class="c059c65a-24b9-4504-a972-047664058b71" x="173.02" y="156.5" width="10.61" height="9.6"/><rect class="c059c65a-24b9-4504-a972-047664058b71" x="204.86" y="156.5" width="10.61" height="9.6"/><rect class="78dbd211-941d-433d-8c3c-80eb22a7d6aa" x="204.86" y="156.5" width="10.61" height="9.6"/><rect class="c059c65a-24b9-4504-a972-047664058b71" x="215.47" y="156.5" width="10.61" height="9.6"/><rect class="78dbd211-941d-433d-8c3c-80eb22a7d6aa" x="215.47" y="156.5" width="10.61" height="9.6"/><rect class="1b6e4ce5-7b99-4b48-b28a-c6f7ecf0d239" x="236.69" y="156.5" width="10.61" height="9.6"/><rect class="1b6e4ce5-7b99-4b48-b28a-c6f7ecf0d239" x="236.69" y="156.5" width="10.61" height="9.6"/><rect class="c059c65a-24b9-4504-a972-047664058b71" x="183.63" y="156.5" width="10.61" height="9.6"/><rect class="c059c65a-24b9-4504-a972-047664058b71" x="183.63" y="156.5" width="10.61" height="9.6"/><rect class="c059c65a-24b9-4504-a972-047664058b71" x="194.24" y="156.5" width="10.61" height="9.6"/><rect class="c059c65a-24b9-4504-a972-047664058b71" x="194.24" y="156.5" width="10.61" height="9.6"/><rect class="c059c65a-24b9-4504-a972-047664058b71" x="141.18" y="166.1" width="10.61" height="9.6"/><rect class="c059c65a-24b9-4504-a972-047664058b71" x="141.18" y="166.1" width="10.61" height="9.6"/><rect class="c059c65a-24b9-4504-a972-047664058b71" x="151.79" y="166.1" width="10.61" height="9.6"/><rect class="c059c65a-24b9-4504-a972-047664058b71" x="151.79" y="166.1" width="10.61" height="9.6"/><rect class="c059c65a-24b9-4504-a972-047664058b71" x="162.41" y="166.1" width="10.61" height="9.6"/><rect class="c059c65a-24b9-4504-a972-047664058b71" x="162.41" y="166.1" width="10.61" height="9.6"/><rect class="c059c65a-24b9-4504-a972-047664058b71" x="173.02" y="166.1" width="10.61" height="9.6"/><rect class="c059c65a-24b9-4504-a972-047664058b71" x="173.02" y="166.1" width="10.61" height="9.6"/><rect class="c059c65a-24b9-4504-a972-047664058b71" x="204.86" y="166.1" width="10.61" height="9.6"/><rect class="c059c65a-24b9-4504-a972-047664058b71" x="204.86" y="166.1" width="10.61" height="9.6"/><rect class="c059c65a-24b9-4504-a972-047664058b71" x="215.47" y="166.1" width="10.61" height="9.6"/><rect class="c059c65a-24b9-4504-a972-047664058b71" x="215.47" y="166.1" width="10.61" height="9.6"/><rect class="c059c65a-24b9-4504-a972-047664058b71" x="236.69" y="166.1" width="10.61" height="9.6"/><rect class="c059c65a-24b9-4504-a972-047664058b71" x="236.69" y="166.1" width="10.61" height="9.6"/><rect class="c059c65a-24b9-4504-a972-047664058b71" x="183.63" y="166.1" width="10.61" height="9.6"/><rect class="c059c65a-24b9-4504-a972-047664058b71" x="183.63" y="166.1" width="10.61" height="9.6"/><rect class="c059c65a-24b9-4504-a972-047664058b71" x="194.24" y="166.1" width="10.61" height="9.6"/><rect class="c059c65a-24b9-4504-a972-047664058b71" x="194.24" y="166.1" width="10.61" height="9.6"/><rect class="c059c65a-24b9-4504-a972-047664058b71" x="141.18" y="175.7" width="10.61" height="9.6"/><rect class="c059c65a-24b9-4504-a972-047664058b71" x="141.18" y="175.7" width="10.61" height="9.6"/><rect class="c059c65a-24b9-4504-a972-047664058b71" x="151.79" y="175.7" width="10.61" height="9.6"/><rect class="c059c65a-24b9-4504-a972-047664058b71" x="151.79" y="175.7" width="10.61" height="9.6"/><rect class="c059c65a-24b9-4504-a972-047664058b71" x="162.41" y="175.7" width="10.61" height="9.6"/><rect class="c059c65a-24b9-4504-a972-047664058b71" x="162.41" y="175.7" width="10.61" height="9.6"/><rect class="c059c65a-24b9-4504-a972-047664058b71" x="173.02" y="175.7" width="10.61" height="9.6"/><rect class="c059c65a-24b9-4504-a972-047664058b71" x="173.02" y="175.7" width="10.61" height="9.6"/><rect class="c059c65a-24b9-4504-a972-047664058b71" x="204.86" y="175.7" width="10.61" height="9.6"/><rect class="c059c65a-24b9-4504-a972-047664058b71" x="204.86" y="175.7" width="10.61" height="9.6"/><rect class="c059c65a-24b9-4504-a972-047664058b71" x="215.47" y="175.7" width="10.61" height="9.6"/><rect class="c059c65a-24b9-4504-a972-047664058b71" x="215.47" y="175.7" width="10.61" height="9.6"/><rect class="c059c65a-24b9-4504-a972-047664058b71" x="236.69" y="175.7" width="10.61" height="9.6"/><rect class="c059c65a-24b9-4504-a972-047664058b71" x="236.69" y="175.7" width="10.61" height="9.6"/><rect class="c059c65a-24b9-4504-a972-047664058b71" x="183.63" y="175.7" width="10.61" height="9.6"/><rect class="c059c65a-24b9-4504-a972-047664058b71" x="183.63" y="175.7" width="10.61" height="9.6"/><rect class="c059c65a-24b9-4504-a972-047664058b71" x="194.24" y="175.7" width="10.61" height="9.6"/><rect class="c059c65a-24b9-4504-a972-047664058b71" x="194.24" y="175.7" width="10.61" height="9.6"/><rect class="c059c65a-24b9-4504-a972-047664058b71" x="141.18" y="185.3" width="10.61" height="9.6"/><rect class="c059c65a-24b9-4504-a972-047664058b71" x="141.18" y="185.3" width="10.61" height="9.6"/><rect class="c059c65a-24b9-4504-a972-047664058b71" x="151.79" y="185.3" width="10.61" height="9.6"/><rect class="c059c65a-24b9-4504-a972-047664058b71" x="151.79" y="185.3" width="10.61" height="9.6"/><rect class="c059c65a-24b9-4504-a972-047664058b71" x="162.41" y="185.3" width="10.61" height="9.6"/><rect class="c059c65a-24b9-4504-a972-047664058b71" x="162.41" y="185.3" width="10.61" height="9.6"/><rect class="c059c65a-24b9-4504-a972-047664058b71" x="173.02" y="185.3" width="10.61" height="9.6"/><rect class="c059c65a-24b9-4504-a972-047664058b71" x="173.02" y="185.3" width="10.61" height="9.6"/><rect class="c059c65a-24b9-4504-a972-047664058b71" x="204.86" y="185.3" width="10.61" height="9.6"/><rect class="c059c65a-24b9-4504-a972-047664058b71" x="204.86" y="185.3" width="10.61" height="9.6"/><rect class="c059c65a-24b9-4504-a972-047664058b71" x="215.47" y="185.3" width="10.61" height="9.6"/><rect class="c059c65a-24b9-4504-a972-047664058b71" x="215.47" y="185.3" width="10.61" height="9.6"/><rect class="c059c65a-24b9-4504-a972-047664058b71" x="236.69" y="185.3" width="10.61" height="9.6"/><rect class="c059c65a-24b9-4504-a972-047664058b71" x="236.69" y="185.3" width="10.61" height="9.6"/><rect class="c059c65a-24b9-4504-a972-047664058b71" x="183.63" y="185.3" width="10.61" height="9.6"/><rect class="c059c65a-24b9-4504-a972-047664058b71" x="183.63" y="185.3" width="10.61" height="9.6"/><rect class="c059c65a-24b9-4504-a972-047664058b71" x="194.24" y="185.3" width="10.61" height="9.6"/><rect class="c059c65a-24b9-4504-a972-047664058b71" x="194.24" y="185.3" width="10.61" height="9.6"/><rect class="c059c65a-24b9-4504-a972-047664058b71" x="141.18" y="194.9" width="10.61" height="9.6"/><rect class="c059c65a-24b9-4504-a972-047664058b71" x="141.18" y="194.9" width="10.61" height="9.6"/><rect class="c059c65a-24b9-4504-a972-047664058b71" x="151.79" y="194.9" width="10.61" height="9.6"/><rect class="c059c65a-24b9-4504-a972-047664058b71" x="151.79" y="194.9" width="10.61" height="9.6"/><rect class="c059c65a-24b9-4504-a972-047664058b71" x="162.41" y="194.9" width="10.61" height="9.6"/><rect class="c059c65a-24b9-4504-a972-047664058b71" x="162.41" y="194.9" width="10.61" height="9.6"/><rect class="c059c65a-24b9-4504-a972-047664058b71" x="173.02" y="194.9" width="10.61" height="9.6"/><rect class="c059c65a-24b9-4504-a972-047664058b71" x="173.02" y="194.9" width="10.61" height="9.6"/><rect class="c059c65a-24b9-4504-a972-047664058b71" x="204.86" y="194.9" width="10.61" height="9.6"/><rect class="c059c65a-24b9-4504-a972-047664058b71" x="204.86" y="194.9" width="10.61" height="9.6"/><rect class="c059c65a-24b9-4504-a972-047664058b71" x="215.47" y="194.9" width="10.61" height="9.6"/><rect class="c059c65a-24b9-4504-a972-047664058b71" x="215.47" y="194.9" width="10.61" height="9.6"/><rect class="c059c65a-24b9-4504-a972-047664058b71" x="236.69" y="194.9" width="10.61" height="9.6"/><rect class="c059c65a-24b9-4504-a972-047664058b71" x="236.69" y="194.9" width="10.61" height="9.6"/><rect class="c059c65a-24b9-4504-a972-047664058b71" x="183.63" y="194.9" width="10.61" height="9.6"/><rect class="c059c65a-24b9-4504-a972-047664058b71" x="183.63" y="194.9" width="10.61" height="9.6"/><rect class="c059c65a-24b9-4504-a972-047664058b71" x="194.24" y="194.9" width="10.61" height="9.6"/><rect class="c059c65a-24b9-4504-a972-047664058b71" x="194.24" y="194.9" width="10.61" height="9.6"/><rect class="c059c65a-24b9-4504-a972-047664058b71" x="141.18" y="204.5" width="10.61" height="9.6"/><rect class="c059c65a-24b9-4504-a972-047664058b71" x="141.18" y="204.5" width="10.61" height="9.6"/><rect class="c059c65a-24b9-4504-a972-047664058b71" x="151.79" y="204.5" width="10.61" height="9.6"/><rect class="c059c65a-24b9-4504-a972-047664058b71" x="151.79" y="204.5" width="10.61" height="9.6"/><rect class="c059c65a-24b9-4504-a972-047664058b71" x="162.41" y="204.5" width="10.61" height="9.6"/><rect class="c059c65a-24b9-4504-a972-047664058b71" x="162.41" y="204.5" width="10.61" height="9.6"/><rect class="c059c65a-24b9-4504-a972-047664058b71" x="173.02" y="204.5" width="10.61" height="9.6"/><rect class="c059c65a-24b9-4504-a972-047664058b71" x="173.02" y="204.5" width="10.61" height="9.6"/><rect class="c059c65a-24b9-4504-a972-047664058b71" x="204.86" y="204.5" width="10.61" height="9.6"/><rect class="c059c65a-24b9-4504-a972-047664058b71" x="204.86" y="204.5" width="10.61" height="9.6"/><rect class="c059c65a-24b9-4504-a972-047664058b71" x="215.47" y="204.5" width="10.61" height="9.6"/><rect class="c059c65a-24b9-4504-a972-047664058b71" x="215.47" y="204.5" width="10.61" height="9.6"/><rect class="c059c65a-24b9-4504-a972-047664058b71" x="236.69" y="204.5" width="10.61" height="9.6"/><rect class="c059c65a-24b9-4504-a972-047664058b71" x="236.69" y="204.5" width="10.61" height="9.6"/><rect class="1e8adaf7-d74e-489b-addf-a910b9094eb8" x="226.08" y="118.1" width="10.61" height="9.6"/><rect class="1e8adaf7-d74e-489b-addf-a910b9094eb8" x="226.08" y="118.1" width="10.61" height="9.6"/><rect class="1e8adaf7-d74e-489b-addf-a910b9094eb8" x="226.08" y="127.7" width="10.61" height="9.6"/><rect class="1e8adaf7-d74e-489b-addf-a910b9094eb8" x="226.08" y="127.7" width="10.61" height="9.6"/><rect class="1e8adaf7-d74e-489b-addf-a910b9094eb8" x="226.08" y="137.3" width="10.61" height="9.6"/><rect class="1e8adaf7-d74e-489b-addf-a910b9094eb8" x="226.08" y="137.3" width="10.61" height="9.6"/><rect class="569e3128-cb50-4ae4-aeaf-01e583c3c016" x="226.08" y="146.9" width="10.61" height="9.6"/><rect class="569e3128-cb50-4ae4-aeaf-01e583c3c016" x="226.08" y="146.9" width="10.61" height="9.6"/><rect class="1b6e4ce5-7b99-4b48-b28a-c6f7ecf0d239" x="226.08" y="156.5" width="10.61" height="9.6"/><rect class="1b6e4ce5-7b99-4b48-b28a-c6f7ecf0d239" x="226.08" y="156.5" width="10.61" height="9.6"/><rect class="c059c65a-24b9-4504-a972-047664058b71" x="226.08" y="166.1" width="10.61" height="9.6"/><rect class="c059c65a-24b9-4504-a972-047664058b71" x="226.08" y="166.1" width="10.61" height="9.6"/><rect class="c059c65a-24b9-4504-a972-047664058b71" x="226.08" y="175.7" width="10.61" height="9.6"/><rect class="c059c65a-24b9-4504-a972-047664058b71" x="226.08" y="175.7" width="10.61" height="9.6"/><rect class="c059c65a-24b9-4504-a972-047664058b71" x="226.08" y="185.3" width="10.61" height="9.6"/><rect class="c059c65a-24b9-4504-a972-047664058b71" x="226.08" y="185.3" width="10.61" height="9.6"/><rect class="c059c65a-24b9-4504-a972-047664058b71" x="226.08" y="194.9" width="10.61" height="9.6"/><rect class="c059c65a-24b9-4504-a972-047664058b71" x="226.08" y="194.9" width="10.61" height="9.6"/><rect class="c059c65a-24b9-4504-a972-047664058b71" x="226.08" y="204.5" width="10.61" height="9.6"/><rect class="c059c65a-24b9-4504-a972-047664058b71" x="226.08" y="204.5" width="10.61" height="9.6"/><rect class="c059c65a-24b9-4504-a972-047664058b71" x="183.63" y="204.5" width="10.61" height="9.6"/><rect class="c059c65a-24b9-4504-a972-047664058b71" x="183.63" y="204.5" width="10.61" height="9.6"/><rect class="c059c65a-24b9-4504-a972-047664058b71" x="194.24" y="204.5" width="10.61" height="9.6"/><rect class="c059c65a-24b9-4504-a972-047664058b71" x="194.24" y="204.5" width="10.61" height="9.6"/><polygon class="8bf9232a-91c8-4f75-bf55-6377a3b40a58" points="246.4 117.13 141.41 117.27 193.83 68.8 246.4 117.13"/></svg>