<svg id="Capa_4" data-name="Capa 4" xmlns="http://www.w3.org/2000/svg" viewBox="0 0 350 430"><defs><style>.cls-1{fill:#d6eddc;}.cls-2{fill:#931c0a;}.cls-2,.cls-3{stroke:#1d1d1b;stroke-width:0.75px;}.cls-2,.cls-3,.cls-4,.cls-5,.cls-6,.cls-8{stroke-miterlimit:10;}.cls-3{fill:#9fa09f;}.cls-4{fill:#ff9231;}.cls-4,.cls-5,.cls-6{stroke:#000;}.cls-4,.cls-5,.cls-6,.cls-8{stroke-width:0.61px;}.cls-5{fill:#8e4713;}.cls-6{fill:#ff6c49;}.cls-7{font-size:50px;font-family:Myriad Pro;font-weight:700;}.cls-8{stroke:#020202;}</style></defs><title>Materiales de trabajo2</title><rect class="cls-1" width="350" height="430"/><rect class="cls-2" x="73.18" y="202.4" width="21.23" height="19.2"/><rect class="cls-2" x="94.41" y="202.4" width="21.23" height="19.2"/><rect class="cls-3" x="168.69" y="217.17" width="21.23" height="19.2" rx="6.12" ry="6.12"/><rect class="cls-3" x="115.63" y="202.4" width="21.23" height="19.2"/><rect class="cls-4" x="115.63" y="202.4" width="21.23" height="19.2"/><rect class="cls-3" x="136.86" y="202.4" width="21.23" height="19.2"/><rect class="cls-4" x="136.86" y="202.4" width="21.23" height="19.2"/><rect class="cls-3" x="200.53" y="202.4" width="21.23" height="19.2"/><rect class="cls-3" x="200.53" y="202.4" width="21.23" height="19.2"/><rect class="cls-3" x="221.76" y="202.4" width="21.23" height="19.2"/><rect class="cls-3" x="221.76" y="202.4" width="21.23" height="19.2"/><rect class="cls-3" x="264.21" y="202.4" width="21.23" height="19.2"/><rect class="cls-3" x="264.21" y="202.4" width="21.23" height="19.2"/><rect class="cls-3" x="158.08" y="202.4" width="21.23" height="19.2"/><rect class="cls-5" x="158.08" y="202.4" width="21.23" height="19.2"/><rect class="cls-3" x="179.31" y="202.4" width="21.23" height="19.2"/><rect class="cls-5" x="179.31" y="202.4" width="21.23" height="19.2"/><rect class="cls-2" x="73.18" y="221.6" width="21.23" height="19.2"/><rect class="cls-2" x="73.18" y="221.6" width="21.23" height="19.2"/><rect class="cls-2" x="94.41" y="221.6" width="21.23" height="19.2"/><rect class="cls-2" x="94.41" y="221.6" width="21.23" height="19.2"/><rect class="cls-3" x="115.63" y="221.6" width="21.23" height="19.2"/><rect class="cls-4" x="115.63" y="221.6" width="21.23" height="19.2"/><rect class="cls-3" x="136.86" y="221.6" width="21.23" height="19.2"/><rect class="cls-4" x="136.86" y="221.6" width="21.23" height="19.2"/><rect class="cls-3" x="200.53" y="221.6" width="21.23" height="19.2"/><rect class="cls-3" x="200.53" y="221.6" width="21.23" height="19.2"/><rect class="cls-3" x="221.76" y="221.6" width="21.23" height="19.2"/><rect class="cls-3" x="221.76" y="221.6" width="21.23" height="19.2"/><rect class="cls-3" x="264.21" y="221.6" width="21.23" height="19.2"/><rect class="cls-3" x="264.21" y="221.6" width="21.23" height="19.2"/><rect class="cls-3" x="158.08" y="221.6" width="21.23" height="19.2"/><rect class="cls-4" x="158.08" y="221.6" width="21.23" height="19.2"/><rect class="cls-3" x="179.31" y="221.6" width="21.23" height="19.2"/><rect class="cls-2" x="73.18" y="240.8" width="21.23" height="19.2"/><rect class="cls-2" x="73.18" y="240.8" width="21.23" height="19.2"/><rect class="cls-2" x="94.41" y="240.8" width="21.23" height="19.2"/><rect class="cls-2" x="94.41" y="240.8" width="21.23" height="19.2"/><rect class="cls-4" x="115.63" y="240.8" width="21.23" height="19.2"/><rect class="cls-4" x="115.63" y="240.8" width="21.23" height="19.2"/><rect class="cls-4" x="136.86" y="240.8" width="21.23" height="19.2"/><rect class="cls-4" x="136.86" y="240.8" width="21.23" height="19.2"/><rect class="cls-3" x="200.53" y="240.8" width="21.23" height="19.2"/><rect class="cls-3" x="200.53" y="240.8" width="21.23" height="19.2"/><rect class="cls-3" x="221.76" y="240.8" width="21.23" height="19.2"/><rect class="cls-3" x="221.76" y="240.8" width="21.23" height="19.2"/><rect class="cls-3" x="264.21" y="240.8" width="21.23" height="19.2"/><rect class="cls-3" x="264.21" y="240.8" width="21.23" height="19.2"/><rect class="cls-4" x="158.08" y="240.8" width="21.23" height="19.2"/><rect class="cls-4" x="158.08" y="240.8" width="21.23" height="19.2"/><rect class="cls-3" x="179.31" y="240.8" width="21.23" height="19.2"/><rect class="cls-3" x="179.31" y="240.8" width="21.23" height="19.2"/><rect class="cls-6" x="73.18" y="260" width="21.23" height="19.2"/><rect class="cls-6" x="73.18" y="260" width="21.23" height="19.2"/><rect class="cls-6" x="94.41" y="260" width="21.23" height="19.2"/><rect class="cls-6" x="94.41" y="260" width="21.23" height="19.2"/><rect class="cls-6" x="115.63" y="260" width="21.23" height="19.2"/><rect class="cls-6" x="115.63" y="260" width="21.23" height="19.2"/><rect class="cls-6" x="136.86" y="260" width="21.23" height="19.2"/><rect class="cls-6" x="136.86" y="260" width="21.23" height="19.2"/><rect class="cls-3" x="200.53" y="260.17" width="21.23" height="19.2" transform="translate(-2.22 1.75) rotate(-0.47)"/><rect class="cls-3" x="200.53" y="260.17" width="21.23" height="19.2" transform="translate(-2.22 1.75) rotate(-0.47)"/><rect class="cls-3" x="221.76" y="260" width="21.23" height="19.2" transform="translate(-2.21 1.92) rotate(-0.47)"/><rect class="cls-3" x="221.76" y="260" width="21.23" height="19.2" transform="translate(-2.21 1.92) rotate(-0.47)"/><rect class="cls-3" x="264.21" y="259.65" width="21.23" height="19.2" transform="translate(-2.21 2.27) rotate(-0.47)"/><rect class="cls-3" x="264.21" y="259.65" width="21.23" height="19.2" transform="translate(-2.21 2.27) rotate(-0.47)"/><rect class="cls-6" x="158.08" y="260" width="21.23" height="19.2"/><rect class="cls-6" x="158.08" y="260" width="21.23" height="19.2"/><rect class="cls-3" x="179.31" y="260.35" width="21.23" height="19.2" transform="translate(-2.22 1.57) rotate(-0.47)"/><rect class="cls-3" x="179.31" y="260.35" width="21.23" height="19.2" transform="translate(-2.22 1.57) rotate(-0.47)"/><rect class="cls-6" x="73.18" y="279.2" width="21.23" height="19.2"/><rect class="cls-6" x="73.18" y="279.2" width="21.23" height="19.2"/><rect class="cls-6" x="94.41" y="279.2" width="21.23" height="19.2"/><rect class="cls-6" x="94.41" y="279.2" width="21.23" height="19.2"/><rect class="cls-6" x="115.63" y="279.2" width="21.23" height="19.2"/><rect class="cls-6" x="115.63" y="279.2" width="21.23" height="19.2"/><rect class="cls-6" x="136.86" y="279.2" width="21.23" height="19.2"/><rect class="cls-6" x="136.86" y="279.2" width="21.23" height="19.2"/><rect class="cls-6" x="200.53" y="279.2" width="21.23" height="19.2"/><rect class="cls-6" x="200.53" y="279.2" width="21.23" height="19.2"/><rect class="cls-6" x="221.76" y="279.2" width="21.23" height="19.2"/><rect class="cls-6" x="221.76" y="279.2" width="21.23" height="19.2"/><rect class="cls-6" x="264.21" y="279.2" width="21.23" height="19.2"/><rect class="cls-6" x="264.21" y="279.2" width="21.23" height="19.2"/><rect class="cls-6" x="158.08" y="279.2" width="21.23" height="19.2"/><rect class="cls-6" x="158.08" y="279.2" width="21.23" height="19.2"/><rect class="cls-6" x="179.31" y="279.2" width="21.23" height="19.2"/><rect class="cls-6" x="179.31" y="279.2" width="21.23" height="19.2"/><rect class="cls-6" x="73.18" y="298.4" width="21.23" height="19.2"/><rect class="cls-6" x="73.18" y="298.4" width="21.23" height="19.2"/><rect class="cls-6" x="94.41" y="298.4" width="21.23" height="19.2"/><rect class="cls-6" x="94.41" y="298.4" width="21.23" height="19.2"/><rect class="cls-6" x="115.63" y="298.4" width="21.23" height="19.2"/><rect class="cls-6" x="115.63" y="298.4" width="21.23" height="19.2"/><rect class="cls-6" x="136.86" y="298.4" width="21.23" height="19.2"/><rect class="cls-6" x="136.86" y="298.4" width="21.23" height="19.2"/><rect class="cls-6" x="200.53" y="298.4" width="21.23" height="19.2"/><rect class="cls-6" x="200.53" y="298.4" width="21.23" height="19.2"/><rect class="cls-6" x="221.76" y="298.4" width="21.23" height="19.2"/><rect class="cls-6" x="221.76" y="298.4" width="21.23" height="19.2"/><rect class="cls-6" x="264.21" y="298.4" width="21.23" height="19.2"/><rect class="cls-6" x="264.21" y="298.4" width="21.23" height="19.2"/><rect class="cls-6" x="158.08" y="298.4" width="21.23" height="19.2"/><rect class="cls-6" x="158.08" y="298.4" width="21.23" height="19.2"/><rect class="cls-6" x="179.31" y="298.4" width="21.23" height="19.2"/><rect class="cls-6" x="179.31" y="298.4" width="21.23" height="19.2"/><rect class="cls-6" x="73.18" y="317.59" width="21.23" height="19.2"/><rect class="cls-6" x="73.18" y="317.59" width="21.23" height="19.2"/><rect class="cls-6" x="94.41" y="317.59" width="21.23" height="19.2"/><rect class="cls-6" x="94.41" y="317.59" width="21.23" height="19.2"/><rect class="cls-6" x="115.63" y="317.59" width="21.23" height="19.2"/><rect class="cls-6" x="115.63" y="317.59" width="21.23" height="19.2"/><rect class="cls-6" x="136.86" y="317.59" width="21.23" height="19.2"/><rect class="cls-6" x="136.86" y="317.59" width="21.23" height="19.2"/><rect class="cls-6" x="200.53" y="317.59" width="21.23" height="19.2"/><rect class="cls-6" x="200.53" y="317.59" width="21.23" height="19.2"/><rect class="cls-6" x="221.76" y="317.59" width="21.23" height="19.2"/><rect class="cls-6" x="221.76" y="317.59" width="21.23" height="19.2"/><rect class="cls-6" x="264.21" y="317.59" width="21.23" height="19.2"/><rect class="cls-6" x="264.21" y="317.59" width="21.23" height="19.2"/><rect class="cls-6" x="158.08" y="317.59" width="21.23" height="19.2"/><rect class="cls-6" x="158.08" y="317.59" width="21.23" height="19.2"/><rect class="cls-6" x="179.31" y="317.59" width="21.23" height="19.2"/><rect class="cls-6" x="179.31" y="317.59" width="21.23" height="19.2"/><rect class="cls-6" x="73.18" y="336.79" width="21.23" height="19.2"/><rect class="cls-6" x="73.18" y="336.79" width="21.23" height="19.2"/><rect class="cls-6" x="94.41" y="336.79" width="21.23" height="19.2"/><rect class="cls-6" x="94.41" y="336.79" width="21.23" height="19.2"/><rect class="cls-6" x="115.63" y="336.79" width="21.23" height="19.2"/><rect class="cls-6" x="115.63" y="336.79" width="21.23" height="19.2"/><rect class="cls-6" x="136.86" y="336.79" width="21.23" height="19.2"/><rect class="cls-6" x="136.86" y="336.79" width="21.23" height="19.2"/><rect class="cls-6" x="200.53" y="336.79" width="21.23" height="19.2"/><rect class="cls-6" x="200.53" y="336.79" width="21.23" height="19.2"/><rect class="cls-6" x="221.76" y="336.79" width="21.23" height="19.2"/><rect class="cls-6" x="221.76" y="336.79" width="21.23" height="19.2"/><rect class="cls-6" x="264.21" y="336.79" width="21.23" height="19.2"/><rect class="cls-6" x="264.21" y="336.79" width="21.23" height="19.2"/><rect class="cls-6" x="158.08" y="336.79" width="21.23" height="19.2"/><rect class="cls-6" x="158.08" y="336.79" width="21.23" height="19.2"/><rect class="cls-6" x="179.31" y="336.79" width="21.23" height="19.2"/><rect class="cls-6" x="179.31" y="336.79" width="21.23" height="19.2"/><rect class="cls-6" x="73.18" y="355.99" width="21.23" height="19.2"/><rect class="cls-6" x="73.18" y="355.99" width="21.23" height="19.2"/><rect class="cls-6" x="94.41" y="355.99" width="21.23" height="19.2"/><rect class="cls-6" x="94.41" y="355.99" width="21.23" height="19.2"/><rect class="cls-6" x="115.63" y="355.99" width="21.23" height="19.2"/><rect class="cls-6" x="115.63" y="355.99" width="21.23" height="19.2"/><rect class="cls-6" x="136.86" y="355.99" width="21.23" height="19.2"/><rect class="cls-6" x="136.86" y="355.99" width="21.23" height="19.2"/><rect class="cls-6" x="200.53" y="355.99" width="21.23" height="19.2"/><rect class="cls-6" x="200.53" y="355.99" width="21.23" height="19.2"/><rect class="cls-6" x="221.76" y="355.99" width="21.23" height="19.2"/><rect class="cls-6" x="221.76" y="355.99" width="21.23" height="19.2"/><rect class="cls-6" x="264.21" y="355.99" width="21.23" height="19.2"/><rect class="cls-6" x="264.21" y="355.99" width="21.23" height="19.2"/><rect class="cls-6" x="158.08" y="355.99" width="21.23" height="19.2"/><rect class="cls-6" x="158.08" y="355.99" width="21.23" height="19.2"/><rect class="cls-6" x="179.31" y="355.99" width="21.23" height="19.2"/><rect class="cls-6" x="179.31" y="355.99" width="21.23" height="19.2"/><rect class="cls-6" x="73.18" y="375.19" width="21.23" height="19.2"/><rect class="cls-6" x="73.18" y="375.19" width="21.23" height="19.2"/><rect class="cls-6" x="94.41" y="375.19" width="21.23" height="19.2"/><rect class="cls-6" x="94.41" y="375.19" width="21.23" height="19.2"/><rect class="cls-6" x="115.63" y="375.19" width="21.23" height="19.2"/><rect class="cls-6" x="115.63" y="375.19" width="21.23" height="19.2"/><rect class="cls-6" x="136.86" y="375.19" width="21.23" height="19.2"/><rect class="cls-6" x="136.86" y="375.19" width="21.23" height="19.2"/><rect class="cls-6" x="200.53" y="375.19" width="21.23" height="19.2"/><rect class="cls-6" x="200.53" y="375.19" width="21.23" height="19.2"/><rect class="cls-6" x="221.76" y="375.19" width="21.23" height="19.2"/><rect class="cls-6" x="221.76" y="375.19" width="21.23" height="19.2"/><rect class="cls-6" x="264.21" y="375.19" width="21.23" height="19.2"/><rect class="cls-6" x="264.21" y="375.19" width="21.23" height="19.2"/><rect class="cls-3" x="242.98" y="202.4" width="21.23" height="19.2"/><rect class="cls-3" x="242.98" y="202.4" width="21.23" height="19.2"/><rect class="cls-3" x="242.98" y="221.6" width="21.23" height="19.2"/><rect class="cls-3" x="242.98" y="221.6" width="21.23" height="19.2"/><rect class="cls-3" x="242.98" y="240.8" width="21.23" height="19.2"/><rect class="cls-3" x="242.98" y="240.8" width="21.23" height="19.2"/><rect class="cls-3" x="242.98" y="259.82" width="21.23" height="19.2" transform="translate(-2.21 2.1) rotate(-0.47)"/><rect class="cls-3" x="242.98" y="259.82" width="21.23" height="19.2" transform="translate(-2.21 2.1) rotate(-0.47)"/><rect class="cls-6" x="242.98" y="279.2" width="21.23" height="19.2"/><rect class="cls-6" x="242.98" y="279.2" width="21.23" height="19.2"/><rect class="cls-6" x="242.98" y="298.4" width="21.23" height="19.2"/><rect class="cls-6" x="242.98" y="298.4" width="21.23" height="19.2"/><rect class="cls-6" x="242.98" y="317.59" width="21.23" height="19.2"/><rect class="cls-6" x="242.98" y="317.59" width="21.23" height="19.2"/><rect class="cls-6" x="242.98" y="336.79" width="21.23" height="19.2"/><rect class="cls-6" x="242.98" y="336.79" width="21.23" height="19.2"/><rect class="cls-6" x="242.98" y="355.99" width="21.23" height="19.2"/><rect class="cls-6" x="242.98" y="355.99" width="21.23" height="19.2"/><rect class="cls-6" x="242.98" y="375.19" width="21.23" height="19.2"/><rect class="cls-6" x="242.98" y="375.19" width="21.23" height="19.2"/><rect class="cls-6" x="158.08" y="375.19" width="21.23" height="19.2"/><rect class="cls-6" x="158.08" y="375.19" width="21.23" height="19.2"/><rect class="cls-6" x="179.31" y="375.19" width="21.23" height="19.2"/><rect class="cls-6" x="179.31" y="375.19" width="21.23" height="19.2"/><text class="cls-7" transform="translate(20.38 75.87) scale(0.91 1)">E<tspan x="25.9" y="0">stación </tspan><tspan x="192.1" y="0">C</tspan><tspan x="220.7" y="0">e</tspan><tspan x="246.5" y="0">n</tspan><tspan x="274.85" y="0">t</tspan><tspan x="292.4" y="0">r</tspan><tspan x="309.75" y="0">al</tspan></text><polygon class="cls-8" points="283.62 200.46 73.64 200.74 178.47 103.8 283.62 200.46"/></svg>