<svg id="Capa_4" data-name="Capa 4" xmlns="http://www.w3.org/2000/svg" viewBox="0 0 350 430"><defs><style>.cls-1{fill:#d6eddc;}.cls-2{stroke:#020202;}.cls-2,.cls-3,.cls-4,.cls-5,.cls-6{stroke-miterlimit:10;stroke-width:0.61px;}.cls-3{fill:#8e4713;}.cls-3,.cls-4,.cls-5,.cls-6{stroke:#000;}.cls-4{fill:#ff9231;}.cls-5{fill:#ff6c49;}.cls-6{fill:#9fa09f;}.cls-7{font-size:62.31px;font-family:Myriad Pro;font-weight:700;}</style></defs><title>Materiales de trabajo2</title><rect class="cls-1" width="350" height="430"/><rect class="cls-2" x="73.18" y="202.4" width="21.23" height="19.2"/><rect class="cls-3" x="94.41" y="202.4" width="21.23" height="19.2"/><rect class="cls-4" x="168.69" y="217.17" width="21.23" height="19.2" rx="6.12" ry="6.12"/><rect class="cls-5" x="115.63" y="202.4" width="21.23" height="19.2"/><rect class="cls-3" x="115.63" y="202.4" width="21.23" height="19.2"/><rect class="cls-6" x="136.86" y="202.4" width="21.23" height="19.2"/><rect class="cls-6" x="136.86" y="202.4" width="21.23" height="19.2"/><rect class="cls-6" x="200.53" y="202.4" width="21.23" height="19.2"/><rect class="cls-6" x="200.53" y="202.4" width="21.23" height="19.2"/><rect class="cls-6" x="221.76" y="202.4" width="21.23" height="19.2"/><rect class="cls-6" x="221.76" y="202.4" width="21.23" height="19.2"/><rect class="cls-6" x="264.21" y="202.4" width="21.23" height="19.2"/><rect class="cls-6" x="264.21" y="202.4" width="21.23" height="19.2"/><rect class="cls-6" x="158.08" y="202.4" width="21.23" height="19.2"/><rect class="cls-6" x="158.08" y="202.4" width="21.23" height="19.2"/><rect class="cls-6" x="179.31" y="202.4" width="21.23" height="19.2"/><rect class="cls-6" x="179.31" y="202.4" width="21.23" height="19.2"/><rect class="cls-4" x="73.18" y="221.6" width="21.23" height="19.2"/><rect class="cls-4" x="73.18" y="221.6" width="21.23" height="19.2"/><rect class="cls-4" x="94.41" y="221.6" width="21.23" height="19.2"/><rect class="cls-4" x="94.41" y="221.6" width="21.23" height="19.2"/><rect class="cls-4" x="115.63" y="221.6" width="21.23" height="19.2"/><rect class="cls-4" x="115.63" y="221.6" width="21.23" height="19.2"/><rect class="cls-4" x="136.86" y="221.6" width="21.23" height="19.2"/><rect class="cls-4" x="136.86" y="221.6" width="21.23" height="19.2"/><rect class="cls-5" x="200.53" y="221.6" width="21.23" height="19.2"/><rect class="cls-5" x="200.53" y="221.6" width="21.23" height="19.2"/><rect class="cls-5" x="221.76" y="221.6" width="21.23" height="19.2"/><rect class="cls-5" x="221.76" y="221.6" width="21.23" height="19.2"/><rect class="cls-5" x="264.21" y="221.6" width="21.23" height="19.2"/><rect class="cls-5" x="264.21" y="221.6" width="21.23" height="19.2"/><rect class="cls-4" x="158.08" y="221.6" width="21.23" height="19.2"/><rect class="cls-4" x="158.08" y="221.6" width="21.23" height="19.2"/><rect class="cls-4" x="179.31" y="221.6" width="21.23" height="19.2"/><rect class="cls-5" x="73.18" y="240.8" width="21.23" height="19.2"/><rect class="cls-5" x="73.18" y="240.8" width="21.23" height="19.2"/><rect class="cls-5" x="94.41" y="240.8" width="21.23" height="19.2"/><rect class="cls-5" x="94.41" y="240.8" width="21.23" height="19.2"/><rect class="cls-5" x="115.63" y="240.8" width="21.23" height="19.2"/><rect class="cls-5" x="115.63" y="240.8" width="21.23" height="19.2"/><rect class="cls-5" x="136.86" y="240.8" width="21.23" height="19.2"/><rect class="cls-5" x="136.86" y="240.8" width="21.23" height="19.2"/><rect class="cls-5" x="200.53" y="240.8" width="21.23" height="19.2"/><rect class="cls-5" x="200.53" y="240.8" width="21.23" height="19.2"/><rect class="cls-5" x="221.76" y="240.8" width="21.23" height="19.2"/><rect class="cls-5" x="221.76" y="240.8" width="21.23" height="19.2"/><rect class="cls-5" x="264.21" y="240.8" width="21.23" height="19.2"/><rect class="cls-5" x="264.21" y="240.8" width="21.23" height="19.2"/><rect class="cls-5" x="158.08" y="240.8" width="21.23" height="19.2"/><rect class="cls-5" x="158.08" y="240.8" width="21.23" height="19.2"/><rect class="cls-5" x="179.31" y="240.8" width="21.23" height="19.2"/><rect class="cls-5" x="179.31" y="240.8" width="21.23" height="19.2"/><rect class="cls-5" x="73.18" y="260" width="21.23" height="19.2"/><rect class="cls-5" x="73.18" y="260" width="21.23" height="19.2"/><rect class="cls-5" x="94.41" y="260" width="21.23" height="19.2"/><rect class="cls-5" x="94.41" y="260" width="21.23" height="19.2"/><rect class="cls-5" x="115.63" y="260" width="21.23" height="19.2"/><rect class="cls-5" x="115.63" y="260" width="21.23" height="19.2"/><rect class="cls-5" x="136.86" y="260" width="21.23" height="19.2"/><rect class="cls-5" x="136.86" y="260" width="21.23" height="19.2"/><rect class="cls-5" x="200.53" y="260" width="21.23" height="19.2"/><rect class="cls-5" x="200.53" y="260" width="21.23" height="19.2"/><rect class="cls-5" x="221.76" y="260" width="21.23" height="19.2"/><rect class="cls-5" x="221.76" y="260" width="21.23" height="19.2"/><rect class="cls-5" x="264.21" y="260" width="21.23" height="19.2"/><rect class="cls-5" x="264.21" y="260" width="21.23" height="19.2"/><rect class="cls-5" x="158.08" y="260" width="21.23" height="19.2"/><rect class="cls-5" x="158.08" y="260" width="21.23" height="19.2"/><rect class="cls-5" x="179.31" y="260" width="21.23" height="19.2"/><rect class="cls-5" x="179.31" y="260" width="21.23" height="19.2"/><rect class="cls-5" x="73.18" y="279.2" width="21.23" height="19.2"/><rect class="cls-5" x="73.18" y="279.2" width="21.23" height="19.2"/><rect class="cls-5" x="94.41" y="279.2" width="21.23" height="19.2"/><rect class="cls-5" x="94.41" y="279.2" width="21.23" height="19.2"/><rect class="cls-5" x="115.63" y="279.2" width="21.23" height="19.2"/><rect class="cls-5" x="115.63" y="279.2" width="21.23" height="19.2"/><rect class="cls-5" x="136.86" y="279.2" width="21.23" height="19.2"/><rect class="cls-5" x="136.86" y="279.2" width="21.23" height="19.2"/><rect class="cls-5" x="200.53" y="279.2" width="21.23" height="19.2"/><rect class="cls-5" x="200.53" y="279.2" width="21.23" height="19.2"/><rect class="cls-5" x="221.76" y="279.2" width="21.23" height="19.2"/><rect class="cls-5" x="221.76" y="279.2" width="21.23" height="19.2"/><rect class="cls-5" x="264.21" y="279.2" width="21.23" height="19.2"/><rect class="cls-5" x="264.21" y="279.2" width="21.23" height="19.2"/><rect class="cls-5" x="158.08" y="279.2" width="21.23" height="19.2"/><rect class="cls-5" x="158.08" y="279.2" width="21.23" height="19.2"/><rect class="cls-5" x="179.31" y="279.2" width="21.23" height="19.2"/><rect class="cls-5" x="179.31" y="279.2" width="21.23" height="19.2"/><rect class="cls-5" x="73.18" y="298.4" width="21.23" height="19.2"/><rect class="cls-5" x="73.18" y="298.4" width="21.23" height="19.2"/><rect class="cls-5" x="94.41" y="298.4" width="21.23" height="19.2"/><rect class="cls-5" x="94.41" y="298.4" width="21.23" height="19.2"/><rect class="cls-5" x="115.63" y="298.4" width="21.23" height="19.2"/><rect class="cls-5" x="115.63" y="298.4" width="21.23" height="19.2"/><rect class="cls-5" x="136.86" y="298.4" width="21.23" height="19.2"/><rect class="cls-5" x="136.86" y="298.4" width="21.23" height="19.2"/><rect class="cls-5" x="200.53" y="298.4" width="21.23" height="19.2"/><rect class="cls-5" x="200.53" y="298.4" width="21.23" height="19.2"/><rect class="cls-5" x="221.76" y="298.4" width="21.23" height="19.2"/><rect class="cls-5" x="221.76" y="298.4" width="21.23" height="19.2"/><rect class="cls-5" x="264.21" y="298.4" width="21.23" height="19.2"/><rect class="cls-5" x="264.21" y="298.4" width="21.23" height="19.2"/><rect class="cls-5" x="158.08" y="298.4" width="21.23" height="19.2"/><rect class="cls-5" x="158.08" y="298.4" width="21.23" height="19.2"/><rect class="cls-5" x="179.31" y="298.4" width="21.23" height="19.2"/><rect class="cls-5" x="179.31" y="298.4" width="21.23" height="19.2"/><rect class="cls-5" x="73.18" y="317.59" width="21.23" height="19.2"/><rect class="cls-5" x="73.18" y="317.59" width="21.23" height="19.2"/><rect class="cls-5" x="94.41" y="317.59" width="21.23" height="19.2"/><rect class="cls-5" x="94.41" y="317.59" width="21.23" height="19.2"/><rect class="cls-5" x="115.63" y="317.59" width="21.23" height="19.2"/><rect class="cls-5" x="115.63" y="317.59" width="21.23" height="19.2"/><rect class="cls-5" x="136.86" y="317.59" width="21.23" height="19.2"/><rect class="cls-5" x="136.86" y="317.59" width="21.23" height="19.2"/><rect class="cls-5" x="200.53" y="317.59" width="21.23" height="19.2"/><rect class="cls-5" x="200.53" y="317.59" width="21.23" height="19.2"/><rect class="cls-5" x="221.76" y="317.59" width="21.23" height="19.2"/><rect class="cls-5" x="221.76" y="317.59" width="21.23" height="19.2"/><rect class="cls-5" x="264.21" y="317.59" width="21.23" height="19.2"/><rect class="cls-5" x="264.21" y="317.59" width="21.23" height="19.2"/><rect class="cls-5" x="158.08" y="317.59" width="21.23" height="19.2"/><rect class="cls-5" x="158.08" y="317.59" width="21.23" height="19.2"/><rect class="cls-5" x="179.31" y="317.59" width="21.23" height="19.2"/><rect class="cls-5" x="179.31" y="317.59" width="21.23" height="19.2"/><rect class="cls-5" x="73.18" y="336.79" width="21.23" height="19.2"/><rect class="cls-5" x="73.18" y="336.79" width="21.23" height="19.2"/><rect class="cls-5" x="94.41" y="336.79" width="21.23" height="19.2"/><rect class="cls-5" x="94.41" y="336.79" width="21.23" height="19.2"/><rect class="cls-5" x="115.63" y="336.79" width="21.23" height="19.2"/><rect class="cls-5" x="115.63" y="336.79" width="21.23" height="19.2"/><rect class="cls-5" x="136.86" y="336.79" width="21.23" height="19.2"/><rect class="cls-5" x="136.86" y="336.79" width="21.23" height="19.2"/><rect class="cls-5" x="200.53" y="336.79" width="21.23" height="19.2"/><rect class="cls-5" x="200.53" y="336.79" width="21.23" height="19.2"/><rect class="cls-5" x="221.76" y="336.79" width="21.23" height="19.2"/><rect class="cls-5" x="221.76" y="336.79" width="21.23" height="19.2"/><rect class="cls-5" x="264.21" y="336.79" width="21.23" height="19.2"/><rect class="cls-5" x="264.21" y="336.79" width="21.23" height="19.2"/><rect class="cls-5" x="158.08" y="336.79" width="21.23" height="19.2"/><rect class="cls-5" x="158.08" y="336.79" width="21.23" height="19.2"/><rect class="cls-5" x="179.31" y="336.79" width="21.23" height="19.2"/><rect class="cls-5" x="179.31" y="336.79" width="21.23" height="19.2"/><rect class="cls-5" x="73.18" y="355.99" width="21.23" height="19.2"/><rect class="cls-5" x="73.18" y="355.99" width="21.23" height="19.2"/><rect class="cls-5" x="94.41" y="355.99" width="21.23" height="19.2"/><rect class="cls-5" x="94.41" y="355.99" width="21.23" height="19.2"/><rect class="cls-5" x="115.63" y="355.99" width="21.23" height="19.2"/><rect class="cls-5" x="115.63" y="355.99" width="21.23" height="19.2"/><rect class="cls-5" x="136.86" y="355.99" width="21.23" height="19.2"/><rect class="cls-5" x="136.86" y="355.99" width="21.23" height="19.2"/><rect class="cls-5" x="200.53" y="355.99" width="21.23" height="19.2"/><rect class="cls-5" x="200.53" y="355.99" width="21.23" height="19.2"/><rect class="cls-5" x="221.76" y="355.99" width="21.23" height="19.2"/><rect class="cls-5" x="221.76" y="355.99" width="21.23" height="19.2"/><rect class="cls-5" x="264.21" y="355.99" width="21.23" height="19.2"/><rect class="cls-5" x="264.21" y="355.99" width="21.23" height="19.2"/><rect class="cls-5" x="158.08" y="355.99" width="21.23" height="19.2"/><rect class="cls-5" x="158.08" y="355.99" width="21.23" height="19.2"/><rect class="cls-5" x="179.31" y="355.99" width="21.23" height="19.2"/><rect class="cls-5" x="179.31" y="355.99" width="21.23" height="19.2"/><rect class="cls-5" x="73.18" y="375.19" width="21.23" height="19.2"/><rect class="cls-5" x="73.18" y="375.19" width="21.23" height="19.2"/><rect class="cls-5" x="94.41" y="375.19" width="21.23" height="19.2"/><rect class="cls-5" x="94.41" y="375.19" width="21.23" height="19.2"/><rect class="cls-5" x="115.63" y="375.19" width="21.23" height="19.2"/><rect class="cls-5" x="115.63" y="375.19" width="21.23" height="19.2"/><rect class="cls-5" x="136.86" y="375.19" width="21.23" height="19.2"/><rect class="cls-5" x="136.86" y="375.19" width="21.23" height="19.2"/><rect class="cls-5" x="200.53" y="375.19" width="21.23" height="19.2"/><rect class="cls-5" x="200.53" y="375.19" width="21.23" height="19.2"/><rect class="cls-5" x="221.76" y="375.19" width="21.23" height="19.2"/><rect class="cls-5" x="221.76" y="375.19" width="21.23" height="19.2"/><rect class="cls-5" x="264.21" y="375.19" width="21.23" height="19.2"/><rect class="cls-5" x="264.21" y="375.19" width="21.23" height="19.2"/><rect class="cls-6" x="242.98" y="202.4" width="21.23" height="19.2"/><rect class="cls-6" x="242.98" y="202.4" width="21.23" height="19.2"/><rect class="cls-5" x="242.98" y="221.6" width="21.23" height="19.2"/><rect class="cls-5" x="242.98" y="221.6" width="21.23" height="19.2"/><rect class="cls-5" x="242.98" y="240.8" width="21.23" height="19.2"/><rect class="cls-5" x="242.98" y="240.8" width="21.23" height="19.2"/><rect class="cls-5" x="242.98" y="260" width="21.23" height="19.2"/><rect class="cls-5" x="242.98" y="260" width="21.23" height="19.2"/><rect class="cls-5" x="242.98" y="279.2" width="21.23" height="19.2"/><rect class="cls-5" x="242.98" y="279.2" width="21.23" height="19.2"/><rect class="cls-5" x="242.98" y="298.4" width="21.23" height="19.2"/><rect class="cls-5" x="242.98" y="298.4" width="21.23" height="19.2"/><rect class="cls-5" x="242.98" y="317.59" width="21.23" height="19.2"/><rect class="cls-5" x="242.98" y="317.59" width="21.23" height="19.2"/><rect class="cls-5" x="242.98" y="336.79" width="21.23" height="19.2"/><rect class="cls-5" x="242.98" y="336.79" width="21.23" height="19.2"/><rect class="cls-5" x="242.98" y="355.99" width="21.23" height="19.2"/><rect class="cls-5" x="242.98" y="355.99" width="21.23" height="19.2"/><rect class="cls-5" x="242.98" y="375.19" width="21.23" height="19.2"/><rect class="cls-5" x="242.98" y="375.19" width="21.23" height="19.2"/><rect class="cls-5" x="158.08" y="375.19" width="21.23" height="19.2"/><rect class="cls-5" x="158.08" y="375.19" width="21.23" height="19.2"/><rect class="cls-5" x="179.31" y="375.19" width="21.23" height="19.2"/><rect class="cls-5" x="179.31" y="375.19" width="21.23" height="19.2"/><text class="cls-7" transform="translate(101.09 75.87) scale(0.91 1)">M<tspan x="51.78" y="0">aipú</tspan></text><polygon class="cls-2" points="283.62 200.46 73.64 200.74 178.47 103.8 283.62 200.46"/></svg>