<svg id="Capa_4" data-name="Capa 4" xmlns="http://www.w3.org/2000/svg" viewBox="0 0 350 430"><defs><style>.cls-1{fill:#d6eddc;}.cls-2{fill:#8e4713;}.cls-2,.cls-3,.cls-4,.cls-5{stroke:#000;}.cls-2,.cls-3,.cls-4,.cls-5,.cls-8{stroke-miterlimit:10;stroke-width:0.61px;}.cls-3{fill:#ff9231;}.cls-4{fill:#ff6c49;}.cls-5{fill:#9fa09f;}.cls-6{font-size:49px;font-family:Myriad Pro;font-weight:700;}.cls-7{letter-spacing:-1.09px;}.cls-8{stroke:#020202;}</style></defs><title>Materiales de trabajo2</title><rect class="cls-1" width="350" height="430"/><rect class="cls-2" x="73.18" y="211.4" width="21.23" height="19.2"/><rect class="cls-3" x="94.41" y="211.4" width="21.23" height="19.2"/><rect class="cls-4" x="168.69" y="226.17" width="21.23" height="19.2" rx="6.12" ry="6.12"/><rect class="cls-3" x="115.63" y="211.4" width="21.23" height="19.2"/><rect class="cls-3" x="115.63" y="211.4" width="21.23" height="19.2"/><rect class="cls-3" x="136.86" y="211.4" width="21.23" height="19.2"/><rect class="cls-3" x="136.86" y="211.4" width="21.23" height="19.2"/><rect class="cls-3" x="200.53" y="211.4" width="21.23" height="19.2"/><rect class="cls-3" x="200.53" y="211.4" width="21.23" height="19.2"/><rect class="cls-3" x="221.76" y="211.4" width="21.23" height="19.2"/><rect class="cls-3" x="221.76" y="211.4" width="21.23" height="19.2"/><rect class="cls-3" x="264.21" y="211.4" width="21.23" height="19.2"/><rect class="cls-3" x="264.21" y="211.4" width="21.23" height="19.2"/><rect class="cls-3" x="158.08" y="211.4" width="21.23" height="19.2"/><rect class="cls-3" x="158.08" y="211.4" width="21.23" height="19.2"/><rect class="cls-3" x="179.31" y="211.4" width="21.23" height="19.2"/><rect class="cls-3" x="179.31" y="211.4" width="21.23" height="19.2"/><rect class="cls-4" x="73.18" y="230.6" width="21.23" height="19.2"/><rect class="cls-4" x="73.18" y="230.6" width="21.23" height="19.2"/><rect class="cls-4" x="94.41" y="230.6" width="21.23" height="19.2"/><rect class="cls-4" x="94.41" y="230.6" width="21.23" height="19.2"/><rect class="cls-4" x="115.63" y="230.6" width="21.23" height="19.2"/><rect class="cls-4" x="115.63" y="230.6" width="21.23" height="19.2"/><rect class="cls-4" x="136.86" y="230.6" width="21.23" height="19.2"/><rect class="cls-4" x="136.86" y="230.6" width="21.23" height="19.2"/><rect class="cls-4" x="200.53" y="230.6" width="21.23" height="19.2"/><rect class="cls-4" x="200.53" y="230.6" width="21.23" height="19.2"/><rect class="cls-5" x="221.76" y="230.6" width="21.23" height="19.2"/><rect class="cls-5" x="221.76" y="230.6" width="21.23" height="19.2"/><rect class="cls-5" x="264.21" y="230.6" width="21.23" height="19.2"/><rect class="cls-5" x="264.21" y="230.6" width="21.23" height="19.2"/><rect class="cls-4" x="158.08" y="230.6" width="21.23" height="19.2"/><rect class="cls-4" x="158.08" y="230.6" width="21.23" height="19.2"/><rect class="cls-4" x="179.31" y="230.6" width="21.23" height="19.2"/><rect class="cls-4" x="73.18" y="249.8" width="21.23" height="19.2"/><rect class="cls-4" x="73.18" y="249.8" width="21.23" height="19.2"/><rect class="cls-4" x="94.41" y="249.8" width="21.23" height="19.2"/><rect class="cls-4" x="94.41" y="249.8" width="21.23" height="19.2"/><rect class="cls-4" x="115.63" y="249.8" width="21.23" height="19.2"/><rect class="cls-4" x="115.63" y="249.8" width="21.23" height="19.2"/><rect class="cls-4" x="136.86" y="249.8" width="21.23" height="19.2"/><rect class="cls-4" x="136.86" y="249.8" width="21.23" height="19.2"/><rect class="cls-4" x="200.53" y="249.8" width="21.23" height="19.2"/><rect class="cls-4" x="200.53" y="249.8" width="21.23" height="19.2"/><rect class="cls-4" x="221.76" y="249.8" width="21.23" height="19.2"/><rect class="cls-4" x="221.76" y="249.8" width="21.23" height="19.2"/><rect class="cls-4" x="264.21" y="249.8" width="21.23" height="19.2"/><rect class="cls-4" x="264.21" y="249.8" width="21.23" height="19.2"/><rect class="cls-4" x="158.08" y="249.8" width="21.23" height="19.2"/><rect class="cls-4" x="158.08" y="249.8" width="21.23" height="19.2"/><rect class="cls-4" x="179.31" y="249.8" width="21.23" height="19.2"/><rect class="cls-4" x="179.31" y="249.8" width="21.23" height="19.2"/><rect class="cls-4" x="73.18" y="269" width="21.23" height="19.2"/><rect class="cls-4" x="73.18" y="269" width="21.23" height="19.2"/><rect class="cls-4" x="94.41" y="269" width="21.23" height="19.2"/><rect class="cls-4" x="94.41" y="269" width="21.23" height="19.2"/><rect class="cls-4" x="115.63" y="269" width="21.23" height="19.2"/><rect class="cls-4" x="115.63" y="269" width="21.23" height="19.2"/><rect class="cls-4" x="136.86" y="269" width="21.23" height="19.2"/><rect class="cls-4" x="136.86" y="269" width="21.23" height="19.2"/><rect class="cls-4" x="200.53" y="269" width="21.23" height="19.2"/><rect class="cls-4" x="200.53" y="269" width="21.23" height="19.2"/><rect class="cls-4" x="221.76" y="269" width="21.23" height="19.2"/><rect class="cls-4" x="221.76" y="269" width="21.23" height="19.2"/><rect class="cls-4" x="264.21" y="269" width="21.23" height="19.2"/><rect class="cls-4" x="264.21" y="269" width="21.23" height="19.2"/><rect class="cls-4" x="158.08" y="269" width="21.23" height="19.2"/><rect class="cls-4" x="158.08" y="269" width="21.23" height="19.2"/><rect class="cls-4" x="179.31" y="269" width="21.23" height="19.2"/><rect class="cls-4" x="179.31" y="269" width="21.23" height="19.2"/><rect class="cls-4" x="73.18" y="288.2" width="21.23" height="19.2"/><rect class="cls-4" x="73.18" y="288.2" width="21.23" height="19.2"/><rect class="cls-4" x="94.41" y="288.2" width="21.23" height="19.2"/><rect class="cls-4" x="94.41" y="288.2" width="21.23" height="19.2"/><rect class="cls-4" x="115.63" y="288.2" width="21.23" height="19.2"/><rect class="cls-4" x="115.63" y="288.2" width="21.23" height="19.2"/><rect class="cls-4" x="136.86" y="288.2" width="21.23" height="19.2"/><rect class="cls-4" x="136.86" y="288.2" width="21.23" height="19.2"/><rect class="cls-4" x="200.53" y="288.2" width="21.23" height="19.2"/><rect class="cls-4" x="200.53" y="288.2" width="21.23" height="19.2"/><rect class="cls-4" x="221.76" y="288.2" width="21.23" height="19.2"/><rect class="cls-4" x="221.76" y="288.2" width="21.23" height="19.2"/><rect class="cls-4" x="264.21" y="288.2" width="21.23" height="19.2"/><rect class="cls-4" x="264.21" y="288.2" width="21.23" height="19.2"/><rect class="cls-4" x="158.08" y="288.2" width="21.23" height="19.2"/><rect class="cls-4" x="158.08" y="288.2" width="21.23" height="19.2"/><rect class="cls-4" x="179.31" y="288.2" width="21.23" height="19.2"/><rect class="cls-4" x="179.31" y="288.2" width="21.23" height="19.2"/><rect class="cls-4" x="73.18" y="307.4" width="21.23" height="19.2"/><rect class="cls-4" x="73.18" y="307.4" width="21.23" height="19.2"/><rect class="cls-4" x="94.41" y="307.4" width="21.23" height="19.2"/><rect class="cls-4" x="94.41" y="307.4" width="21.23" height="19.2"/><rect class="cls-4" x="115.63" y="307.4" width="21.23" height="19.2"/><rect class="cls-4" x="115.63" y="307.4" width="21.23" height="19.2"/><rect class="cls-4" x="136.86" y="307.4" width="21.23" height="19.2"/><rect class="cls-4" x="136.86" y="307.4" width="21.23" height="19.2"/><rect class="cls-4" x="200.53" y="307.4" width="21.23" height="19.2"/><rect class="cls-4" x="200.53" y="307.4" width="21.23" height="19.2"/><rect class="cls-4" x="221.76" y="307.4" width="21.23" height="19.2"/><rect class="cls-4" x="221.76" y="307.4" width="21.23" height="19.2"/><rect class="cls-4" x="264.21" y="307.4" width="21.23" height="19.2"/><rect class="cls-4" x="264.21" y="307.4" width="21.23" height="19.2"/><rect class="cls-4" x="158.08" y="307.4" width="21.23" height="19.2"/><rect class="cls-4" x="158.08" y="307.4" width="21.23" height="19.2"/><rect class="cls-4" x="179.31" y="307.4" width="21.23" height="19.2"/><rect class="cls-4" x="179.31" y="307.4" width="21.23" height="19.2"/><rect class="cls-4" x="73.18" y="326.59" width="21.23" height="19.2"/><rect class="cls-4" x="73.18" y="326.59" width="21.23" height="19.2"/><rect class="cls-4" x="94.41" y="326.59" width="21.23" height="19.2"/><rect class="cls-4" x="94.41" y="326.59" width="21.23" height="19.2"/><rect class="cls-4" x="115.63" y="326.59" width="21.23" height="19.2"/><rect class="cls-4" x="115.63" y="326.59" width="21.23" height="19.2"/><rect class="cls-4" x="136.86" y="326.59" width="21.23" height="19.2"/><rect class="cls-4" x="136.86" y="326.59" width="21.23" height="19.2"/><rect class="cls-4" x="200.53" y="326.59" width="21.23" height="19.2"/><rect class="cls-4" x="200.53" y="326.59" width="21.23" height="19.2"/><rect class="cls-4" x="221.76" y="326.59" width="21.23" height="19.2"/><rect class="cls-4" x="221.76" y="326.59" width="21.23" height="19.2"/><rect class="cls-4" x="264.21" y="326.59" width="21.23" height="19.2"/><rect class="cls-4" x="264.21" y="326.59" width="21.23" height="19.2"/><rect class="cls-4" x="158.08" y="326.59" width="21.23" height="19.2"/><rect class="cls-4" x="158.08" y="326.59" width="21.23" height="19.2"/><rect class="cls-4" x="179.31" y="326.59" width="21.23" height="19.2"/><rect class="cls-4" x="179.31" y="326.59" width="21.23" height="19.2"/><rect class="cls-4" x="73.18" y="345.79" width="21.23" height="19.2"/><rect class="cls-4" x="73.18" y="345.79" width="21.23" height="19.2"/><rect class="cls-4" x="94.41" y="345.79" width="21.23" height="19.2"/><rect class="cls-4" x="94.41" y="345.79" width="21.23" height="19.2"/><rect class="cls-4" x="115.63" y="345.79" width="21.23" height="19.2"/><rect class="cls-4" x="115.63" y="345.79" width="21.23" height="19.2"/><rect class="cls-4" x="136.86" y="345.79" width="21.23" height="19.2"/><rect class="cls-4" x="136.86" y="345.79" width="21.23" height="19.2"/><rect class="cls-4" x="200.53" y="345.79" width="21.23" height="19.2"/><rect class="cls-4" x="200.53" y="345.79" width="21.23" height="19.2"/><rect class="cls-4" x="221.76" y="345.79" width="21.23" height="19.2"/><rect class="cls-4" x="221.76" y="345.79" width="21.23" height="19.2"/><rect class="cls-4" x="264.21" y="345.79" width="21.23" height="19.2"/><rect class="cls-4" x="264.21" y="345.79" width="21.23" height="19.2"/><rect class="cls-4" x="158.08" y="345.79" width="21.23" height="19.2"/><rect class="cls-4" x="158.08" y="345.79" width="21.23" height="19.2"/><rect class="cls-4" x="179.31" y="345.79" width="21.23" height="19.2"/><rect class="cls-4" x="179.31" y="345.79" width="21.23" height="19.2"/><rect class="cls-4" x="73.18" y="364.99" width="21.23" height="19.2"/><rect class="cls-4" x="73.18" y="364.99" width="21.23" height="19.2"/><rect class="cls-4" x="94.41" y="364.99" width="21.23" height="19.2"/><rect class="cls-4" x="94.41" y="364.99" width="21.23" height="19.2"/><rect class="cls-4" x="115.63" y="364.99" width="21.23" height="19.2"/><rect class="cls-4" x="115.63" y="364.99" width="21.23" height="19.2"/><rect class="cls-4" x="136.86" y="364.99" width="21.23" height="19.2"/><rect class="cls-4" x="136.86" y="364.99" width="21.23" height="19.2"/><rect class="cls-4" x="200.53" y="364.99" width="21.23" height="19.2"/><rect class="cls-4" x="200.53" y="364.99" width="21.23" height="19.2"/><rect class="cls-4" x="221.76" y="364.99" width="21.23" height="19.2"/><rect class="cls-4" x="221.76" y="364.99" width="21.23" height="19.2"/><rect class="cls-4" x="264.21" y="364.99" width="21.23" height="19.2"/><rect class="cls-4" x="264.21" y="364.99" width="21.23" height="19.2"/><rect class="cls-4" x="158.08" y="364.99" width="21.23" height="19.2"/><rect class="cls-4" x="158.08" y="364.99" width="21.23" height="19.2"/><rect class="cls-4" x="179.31" y="364.99" width="21.23" height="19.2"/><rect class="cls-4" x="179.31" y="364.99" width="21.23" height="19.2"/><rect class="cls-4" x="73.18" y="384.19" width="21.23" height="19.2"/><rect class="cls-4" x="73.18" y="384.19" width="21.23" height="19.2"/><rect class="cls-4" x="94.41" y="384.19" width="21.23" height="19.2"/><rect class="cls-4" x="94.41" y="384.19" width="21.23" height="19.2"/><rect class="cls-4" x="115.63" y="384.19" width="21.23" height="19.2"/><rect class="cls-4" x="115.63" y="384.19" width="21.23" height="19.2"/><rect class="cls-4" x="136.86" y="384.19" width="21.23" height="19.2"/><rect class="cls-4" x="136.86" y="384.19" width="21.23" height="19.2"/><rect class="cls-4" x="200.53" y="384.19" width="21.23" height="19.2"/><rect class="cls-4" x="200.53" y="384.19" width="21.23" height="19.2"/><rect class="cls-4" x="221.76" y="384.19" width="21.23" height="19.2"/><rect class="cls-4" x="221.76" y="384.19" width="21.23" height="19.2"/><rect class="cls-4" x="264.21" y="384.19" width="21.23" height="19.2"/><rect class="cls-4" x="264.21" y="384.19" width="21.23" height="19.2"/><rect class="cls-3" x="242.98" y="211.4" width="21.23" height="19.2"/><rect class="cls-3" x="242.98" y="211.4" width="21.23" height="19.2"/><rect class="cls-5" x="242.98" y="230.6" width="21.23" height="19.2"/><rect class="cls-5" x="242.98" y="230.6" width="21.23" height="19.2"/><rect class="cls-4" x="242.98" y="249.8" width="21.23" height="19.2"/><rect class="cls-4" x="242.98" y="249.8" width="21.23" height="19.2"/><rect class="cls-4" x="242.98" y="269" width="21.23" height="19.2"/><rect class="cls-4" x="242.98" y="269" width="21.23" height="19.2"/><rect class="cls-4" x="242.98" y="288.2" width="21.23" height="19.2"/><rect class="cls-4" x="242.98" y="288.2" width="21.23" height="19.2"/><rect class="cls-4" x="242.98" y="307.4" width="21.23" height="19.2"/><rect class="cls-4" x="242.98" y="307.4" width="21.23" height="19.2"/><rect class="cls-4" x="242.98" y="326.59" width="21.23" height="19.2"/><rect class="cls-4" x="242.98" y="326.59" width="21.23" height="19.2"/><rect class="cls-4" x="242.98" y="345.79" width="21.23" height="19.2"/><rect class="cls-4" x="242.98" y="345.79" width="21.23" height="19.2"/><rect class="cls-4" x="242.98" y="364.99" width="21.23" height="19.2"/><rect class="cls-4" x="242.98" y="364.99" width="21.23" height="19.2"/><rect class="cls-4" x="242.98" y="384.19" width="21.23" height="19.2"/><rect class="cls-4" x="242.98" y="384.19" width="21.23" height="19.2"/><rect class="cls-4" x="158.08" y="384.19" width="21.23" height="19.2"/><rect class="cls-4" x="158.08" y="384.19" width="21.23" height="19.2"/><rect class="cls-4" x="179.31" y="384.19" width="21.23" height="19.2"/><rect class="cls-4" x="179.31" y="384.19" width="21.23" height="19.2"/><text class="cls-6" transform="translate(40.66 59.87) scale(0.91 1)"><tspan class="cls-7">P</tspan><tspan x="26.17" y="0">ed</tspan><tspan x="79.92" y="0">r</tspan><tspan x="96.92" y="0">o </tspan><tspan x="134.7" y="0">A</tspan><tspan x="165.23" y="0">guir</tspan><tspan x="251.17" y="0">r</tspan><tspan x="268.17" y="0">e </tspan><tspan x="89.96" y="47.41">C</tspan><tspan x="117.99" y="47.41">e</tspan><tspan x="143.27" y="47.41">r</tspan><tspan x="160.28" y="47.41">da</tspan></text><polygon class="cls-8" points="283.62 209.46 73.64 209.74 178.47 112.8 283.62 209.46"/></svg>