<svg id="f2594967-0e05-45ee-912f-a7255fab64dd" data-name="Capa 1" xmlns="http://www.w3.org/2000/svg" viewBox="0 0 298.78 372"><defs><style>.\37 575d0b7-c98a-4bb8-806a-438c06f8908a{fill:#ddeddd;}.de8fe71b-182d-4f30-9b63-cfb783418c92{font-size:22px;stroke:#000;stroke-miterlimit:10;}.\37 0cd72ac-89bd-4182-8e1b-5bd4eba979b8,.de8fe71b-182d-4f30-9b63-cfb783418c92{font-family:Myriad Pro;}.\37 f9a5e55-b98f-49f4-83b6-660d82727765{fill:#7f2213;}.\39 3b25cb3-5410-4c14-8430-d7ad9f104f58{fill:#bc655c;}.\37 0e087fe-92b4-44ae-ab88-1fa8a0502024{fill:#9fa09f;}.\39 03ed63c-5272-432c-8b8b-26bab91fddff{fill:#ff6c4c;}.dc9b784b-6713-4670-924d-4b0520728a92{fill:#ff923c;}.f41dd6ac-4fc3-40f9-bcc2-c2707022e840{fill:#6d4122;}.\37 0cd72ac-89bd-4182-8e1b-5bd4eba979b8{font-size:16px;}.\38 8e6b06f-270b-4d11-871b-8ce53d3b298f{font-size:15px;}</style></defs><title>Materiales pls</title><rect class="7575d0b7-c98a-4bb8-806a-438c06f8908a" width="298.78" height="372"/><text class="de8fe71b-182d-4f30-9b63-cfb783418c92" transform="translate(64.93 35.62)">M<tspan x="17.82" y="0">a</tspan><tspan x="28.34" y="0">t</tspan><tspan x="35.49" y="0">e</tspan><tspan x="46.51" y="0">r</tspan><tspan x="53.79" y="0">ial de vivienda</tspan></text><rect class="7f9a5e55-b98f-49f4-83b6-660d82727765" x="22.25" y="53.67" width="36" height="36"/><rect class="93b25cb3-5410-4c14-8430-d7ad9f104f58" x="22.25" y="316" width="36" height="36"/><rect class="70e087fe-92b4-44ae-ab88-1fa8a0502024" x="22.25" y="263.67" width="36" height="36"/><rect class="903ed63c-5272-432c-8b8b-26bab91fddff" x="22.25" y="211.33" width="36" height="36"/><rect class="dc9b784b-6713-4670-924d-4b0520728a92" x="22.25" y="159" width="36" height="36"/><rect class="f41dd6ac-4fc3-40f9-bcc2-c2707022e840" x="22.25" y="106.67" width="36" height="36"/><text class="70cd72ac-89bd-4182-8e1b-5bd4eba979b8" transform="translate(73.78 65.03)">V<tspan x="8.67" y="0">ivienda </tspan><tspan x="60.88" y="0">c</tspan><tspan x="67.95" y="0">on mu</tspan><tspan x="111.17" y="0">r</tspan><tspan x="116.24" y="0">os </tspan><tspan x="134.75" y="0">f</tspan><tspan x="139.21" y="0">o</tspan><tspan x="148" y="0">r</tspan><tspan x="153.29" y="0">mados </tspan><tspan x="0" y="19.2">por piezas de ba</tspan><tspan x="108.91" y="19.2">r</tspan><tspan x="114.21" y="19.2">r</tspan><tspan x="119.28" y="19.2">o</tspan><tspan class="88e6b06f-270b-4d11-871b-8ce53d3b298f" x="128.06" y="19.2">.</tspan></text><text class="70cd72ac-89bd-4182-8e1b-5bd4eba979b8" transform="translate(73.78 113.36)">V<tspan x="8.67" y="0">ivienda </tspan><tspan x="60.88" y="0">c</tspan><tspan x="67.95" y="0">on mu</tspan><tspan x="111.17" y="0">r</tspan><tspan x="116.24" y="0">os de po</tspan><tspan x="173.07" y="0">c</tspan><tspan x="180.14" y="0">o </tspan><tspan x="0" y="19.2">espeso</tspan><tspan x="46.59" y="19.2">r</tspan><tspan x="50.97" y="19.2">, estru</tspan><tspan x="91.37" y="19.2">c</tspan><tspan x="98.75" y="19.2">tu</tspan><tspan x="112.86" y="19.2">r</tspan><tspan x="118.01" y="19.2">a de made</tspan><tspan x="187.64" y="19.2">r</tspan><tspan x="192.8" y="19.2">a.</tspan></text><text class="70cd72ac-89bd-4182-8e1b-5bd4eba979b8" transform="translate(73.78 164.36)">V<tspan x="8.67" y="0">ivienda </tspan><tspan x="60.88" y="0">c</tspan><tspan x="67.95" y="0">on mu</tspan><tspan x="111.17" y="0">r</tspan><tspan x="116.24" y="0">o </tspan><tspan x="128.41" y="0">f</tspan><tspan x="132.88" y="0">o</tspan><tspan x="141.66" y="0">r</tspan><tspan x="146.96" y="0">r</tspan><tspan x="152.11" y="0">ado de </tspan><tspan x="0" y="19.2">po</tspan><tspan x="17.89" y="19.2">c</tspan><tspan x="24.96" y="19.2">o espeso</tspan><tspan x="83.73" y="19.2">r</tspan><tspan x="88.11" y="19.2">, estru</tspan><tspan x="128.51" y="19.2">c</tspan><tspan x="135.89" y="19.2">tu</tspan><tspan x="150" y="19.2">r</tspan><tspan x="155.15" y="19.2">a de </tspan><tspan x="0" y="38.4">made</tspan><tspan x="38.1" y="38.4">r</tspan><tspan x="43.25" y="38.4">a.</tspan></text><text class="70cd72ac-89bd-4182-8e1b-5bd4eba979b8" transform="translate(73.78 222.69)">V<tspan x="8.67" y="0">ivienda </tspan><tspan x="60.88" y="0">c</tspan><tspan x="67.95" y="0">on mu</tspan><tspan x="111.17" y="0">r</tspan><tspan x="116.24" y="0">o </tspan><tspan x="128.41" y="0">f</tspan><tspan x="132.88" y="0">o</tspan><tspan x="141.66" y="0">r</tspan><tspan x="146.96" y="0">r</tspan><tspan x="152.11" y="0">ado de </tspan><tspan x="0" y="19.2">po</tspan><tspan x="17.89" y="19.2">c</tspan><tspan x="24.96" y="19.2">o espeso</tspan><tspan x="83.73" y="19.2">r</tspan><tspan x="88.11" y="19.2">, estru</tspan><tspan x="128.51" y="19.2">c</tspan><tspan x="135.89" y="19.2">tu</tspan><tspan x="150" y="19.2">r</tspan><tspan x="155.15" y="19.2">a de </tspan><tspan x="0" y="38.4">made</tspan><tspan x="38.1" y="38.4">r</tspan><tspan x="43.25" y="38.4">a.</tspan></text><text class="70cd72ac-89bd-4182-8e1b-5bd4eba979b8" transform="translate(73.78 281.03)">M<tspan x="12.91" y="0">u</tspan><tspan x="21.73" y="0">r</tspan><tspan x="26.8" y="0">o </tspan><tspan x="38.98" y="0">c</tspan><tspan x="46.05" y="0">ompa</tspan><tspan x="84.99" y="0">c</tspan><tspan x="92.37" y="0">t</tspan><tspan x="97.57" y="0">o </tspan><tspan x="109.74" y="0">c</tspan><tspan x="116.81" y="0">ompues</tspan><tspan x="171.21" y="0">t</tspan><tspan x="176.41" y="0">o de </tspan><tspan x="0" y="19.2">aglome</tspan><tspan x="50.57" y="19.2">r</tspan><tspan x="55.73" y="19.2">ado</tspan><tspan x="81.25" y="19.2">s</tspan><tspan x="87.41" y="19.2">, </tspan><tspan x="94.11" y="19.2">c</tspan><tspan x="101.18" y="19.2">eme</tspan><tspan x="130.56" y="19.2">n</tspan><tspan x="139.37" y="19.2">t</tspan><tspan x="144.57" y="19.2">o y agua.</tspan></text><text class="70cd72ac-89bd-4182-8e1b-5bd4eba979b8" transform="translate(73.78 330.36)">V<tspan x="8.67" y="0">ivienda fab</tspan><tspan x="82.37" y="0">r</tspan><tspan x="87.66" y="0">icada </tspan><tspan x="126.41" y="0">c</tspan><tspan x="133.49" y="0">on m</tspan><tspan x="167.89" y="0">a</tspan><tspan x="175.53" y="0">t</tspan><tspan x="180.73" y="0">e</tspan><tspan x="188.75" y="0">r</tspan><tspan x="194.05" y="0">ia</tspan><tspan x="205.5" y="0">-</tspan><tspan x="0" y="19.2">les p</tspan><tspan x="30.62" y="19.2">r</tspan><tspan x="35.69" y="19.2">eca</tspan><tspan x="58.59" y="19.2">r</tspan><tspan x="63.89" y="19.2">io</tspan><tspan x="76.41" y="19.2">s</tspan><tspan x="82.57" y="19.2">.</tspan></text></svg>