<?xml version="1.0" encoding="utf-8"?>
<!-- Generator: Adobe Illustrator 18.0.0, SVG Export Plug-In . SVG Version: 6.00 Build 0)  -->
<!DOCTYPE svg PUBLIC "-//W3C//DTD SVG 1.1//EN" "http://www.w3.org/Graphics/SVG/1.1/DTD/svg11.dtd">
<svg version="1.1" id="Capa_1" xmlns="http://www.w3.org/2000/svg" xmlns:xlink="http://www.w3.org/1999/xlink" x="0px" y="0px"
	 viewBox="0 0 1280 800" enable-background="new 0 0 1280 800" xml:space="preserve">
<g>
	<g>
		<rect x="212.7" y="305.8" fill="#7F2213" width="74.7" height="74.7"/>
		<rect x="700.3" y="416.5" fill="#9FA09F" width="74.7" height="74.7"/>
		<rect x="700.3" y="305.8" fill="#FF6C4C" width="74.7" height="74.7"/>
		<rect x="700.3" y="527.2" fill="#BC655C" width="74.7" height="74.7"/>
		<rect x="212.7" y="416.5" fill="#6D4122" width="74.7" height="74.7"/>
		<rect x="212.7" y="527.2" fill="#FF923C" width="74.7" height="74.7"/>
		<rect x="274" y="198.1" fill="none" width="748" height="69.3"/>
		<text transform="matrix(1 0 0 1 287.3997 247.2347)" font-family="'MyriadPro-Regular'" font-size="70">Materiales de Vivienda</text>
	</g>
	<rect x="296" y="328" fill="none" width="136" height="30.5"/>
	<text transform="matrix(1 0 0 1 302.6247 354.3536)" font-family="'MyriadPro-Regular'" font-size="36">Adobe</text>
	<rect x="296" y="438.5" fill="none" width="289.3" height="30.5"/>
	<text transform="matrix(1 0 0 1 298.3527 465.0216)" font-family="'MyriadPro-Regular'" font-size="36">Tabique sin forro</text>
	<rect x="296" y="549.3" fill="none" width="316.7" height="30.5"/>
	<text transform="matrix(1 0 0 1 299.1785 575.6874)" font-family="'MyriadPro-Regular'" font-size="36">Tabique con forro</text>
	<rect x="781.6" y="328" fill="none" width="144.7" height="30.5"/>
	<text transform="matrix(1 0 0 1 786.0555 354.3539)" font-family="'MyriadPro-Regular'" font-size="36">Ladrillos</text>
	<rect x="781.6" y="438.5" fill="none" width="178.4" height="30.5"/>
	<text transform="matrix(1 0 0 1 785.9891 465.0216)" font-family="'MyriadPro-Regular'" font-size="36">Hormigón</text>
	<rect x="781.6" y="549.3" fill="none" width="361.1" height="30.5"/>
	<text transform="matrix(1 0 0 1 785.8367 575.6874)" font-family="'MyriadPro-Regular'" font-size="36">Materiales precarios</text>
</g>
</svg>
