<svg id="372ea3d9-92c2-4f40-8421-e4d9ef1e8c6e" data-name="Fondo" xmlns="http://www.w3.org/2000/svg" viewBox="0 0 300 400"><defs><style>.a750b659-dc0a-47a9-a2a9-c7964e5796dd{fill:#d6eddc;stroke:#fff;stroke-miterlimit:10;stroke-width:1.46px;}.\31 aa1fce3-3953-4869-8405-9acd928f4b53{font-size:78.64px;fill:#118c97;}.\31 aa1fce3-3953-4869-8405-9acd928f4b53,.ab906aba-8efd-44ec-a286-a3d56942b2aa,.e6d39f47-b668-4bfa-b811-fd9e8577e150{font-family:Myriad Pro;font-weight:700;}.e6d39f47-b668-4bfa-b811-fd9e8577e150{font-size:50.86px;}.ab906aba-8efd-44ec-a286-a3d56942b2aa{font-size:18px;fill:#232323;}</style></defs><title>solo catastrofes</title><rect class="a750b659-dc0a-47a9-a2a9-c7964e5796dd" x="1.54" y="3" width="300" height="400"/><text class="1aa1fce3-3953-4869-8405-9acd928f4b53" transform="translate(172.12 254.23) scale(0.79 1)">8</text><text class="e6d39f47-b668-4bfa-b811-fd9e8577e150" transform="translate(55.28 130.01) scale(0.91 1)">El <tspan x="49.79" y="0">B</tspan><tspan x="79.34" y="0">osque</tspan></text><text class="ab906aba-8efd-44ec-a286-a3d56942b2aa" transform="translate(110.08 154.2) rotate(-0.26) scale(0.9 1)">C<tspan x="10.53" y="0">a</tspan><tspan x="19.89" y="0">tást</tspan><tspan x="50.42" y="0">r</tspan><tspan x="57.11" y="0">o</tspan><tspan x="67.5" y="0">f</tspan><tspan x="73.46" y="0">es</tspan></text><polygon points="100.78 220.39 99.4 207.38 100.53 198.23 104.45 189.86 109.78 182.9 114.6 179.78 113.56 183.6 112.35 188.35 111.42 195.92 112.18 201.85 112.87 206.23 114.59 210.79 116.49 215.9 121.45 223.2 125.12 228.62 125.98 221.74 129.09 213.89 132.19 210.79 135.2 208.42 137 206.77 137 210.24 135.37 214.8 135.76 219.55 136.13 222.65 137.18 228.62 139.26 235.97 141.47 244.37 143 251.85 143 257.32 141.31 266.08 139.68 269.55 136.63 273.38 132.85 276.7 128.38 279.22 124.59 280.87 126.67 277.76 128.05 274.51 128.22 269.92 127.01 266.08 125.81 263.53 124.43 260.06 123.74 257.51 124.08 252.72 122.05 254.91 121 256.96 121 259.51 120.99 262.07 120.46 263.71 120.68 265.26 118.91 262.53 118.02 258.56 118.68 253.35 119.59 249.52 119.33 245.28 118.69 242.27 116.75 238.57 114.16 235.15 114.94 240.9 114.68 243.91 113.64 248.29 112.61 250.34 111.42 253.49 107.21 258.28 106 258.83 106 255.13 105.42 252.72 105.2 251.58 104.44 250.07 103.22 248.98 102.74 250.34 102.5 253.63 101.99 257.19 101.47 260.06 100.83 262.25 99.92 265.26 99.35 267.59 98.76 270.88 99.67 275.53 101.09 278.13 102.51 279.5 105.75 282.51 98.76 281.14 95.66 279.36 91.9 276.7 88.28 274.51 83.6 268.96 81 261.84 81 252.94 84.25 242.82 87.17 237.89 90.05 233.92 92 228.62 92 224.48 92 220.1 92 215.72 90.95 214.9 93.54 217.63 95.57 220.37 97.13 223.24 98.29 226.8 99.17 230.09 99.03 232.96 99.28 236.38 99.02 241.17 101.35 236.93 102.13 233.1 102.51 229.4 100.78 220.39"/></svg>