<svg id="1eeb89db-1212-47a7-b929-b524eef1e04b" data-name="Fondo" xmlns="http://www.w3.org/2000/svg" viewBox="0 0 300 400"><defs><style>.\37 64fd303-0a4a-4a3f-885a-47fa6b51756a{fill:#d6eddc;stroke:#fff;stroke-miterlimit:10;stroke-width:1.46px;}.d90829ec-d224-4726-bee6-ae25502f604c{font-size:43px;}.c10fff92-caea-44e1-a5db-a07037c445f3,.d90829ec-d224-4726-bee6-ae25502f604c,.fb0feae9-1087-4bd1-912a-847d164e5874{font-family:Myriad Pro;font-weight:700;}.fb0feae9-1087-4bd1-912a-847d164e5874{font-size:18px;fill:#232323;}.c10fff92-caea-44e1-a5db-a07037c445f3{font-size:84.84px;fill:#118c97;}</style></defs><title>solo catastrofes</title><rect class="764fd303-0a4a-4a3f-885a-47fa6b51756a" y="1" width="300" height="400"/><text class="d90829ec-d224-4726-bee6-ae25502f604c" transform="translate(13.32 140) scale(0.91 1)">E<tspan x="22.27" y="0">stación </tspan><tspan x="165.2" y="0">C</tspan><tspan x="189.8" y="0">e</tspan><tspan x="211.99" y="0">n</tspan><tspan x="236.37" y="0">t</tspan><tspan x="251.46" y="0">r</tspan><tspan x="266.38" y="0">al</tspan></text><text class="fb0feae9-1087-4bd1-912a-847d164e5874" transform="matrix(0.9, 0.01, -0.01, 1, 100.99, 167.23)">C<tspan x="10.53" y="0">a</tspan><tspan x="19.89" y="0">tást</tspan><tspan x="50.42" y="0">r</tspan><tspan x="57.11" y="0">o</tspan><tspan x="67.5" y="0">f</tspan><tspan x="73.46" y="0">es</tspan></text><text class="c10fff92-caea-44e1-a5db-a07037c445f3" transform="translate(166.3 272.44) scale(0.79 1)">2</text><polygon points="89.34 230.97 87.85 216.93 89.07 207.06 93.3 198.04 99.05 190.52 104.25 187.16 103.13 191.29 101.82 196.4 100.83 204.57 101.64 210.97 102.38 215.69 104.24 220.61 106.29 226.13 111.64 234 115.6 239.85 116.53 232.43 119.88 223.96 123.23 220.61 126.27 218.05 128 216.28 128 220.02 126.45 224.94 126.98 230.06 127.43 233.41 128.59 239.85 130.84 247.78 133.29 256.84 135 264.91 135 270.82 133.12 280.27 131.34 284.01 128.03 288.14 123.95 291.73 119.12 294.45 115.03 296.22 117.27 292.87 118.76 289.37 118.95 284.4 117.64 280.27 116.34 277.51 114.85 273.77 114.11 271.02 114.48 265.85 112.2 268.22 111 270.43 111 273.18 111.07 275.94 110.54 277.71 110.79 279.38 108.89 276.43 107.94 272.15 108.65 266.54 109.63 262.4 109.36 257.82 108.66 254.58 106.57 250.59 103.78 246.9 104.61 253.1 104.33 256.35 103.22 261.07 102.1 263.29 100.82 266.69 95.79 271.85 94 272.44 94 268.46 94 265.85 94 264.62 93.23 262.99 91.94 261.81 91.44 263.29 91.18 266.83 90.64 270.67 90.09 273.77 89.39 276.13 88.42 279.38 87.8 281.89 87.16 285.44 88.14 290.46 89.67 293.26 91.21 294.74 94.7 297.99 87.16 296.51 83.81 294.59 79.76 291.73 75.85 289.37 70.81 283.37 68 275.69 68 266.09 71.51 255.17 74.66 249.85 77.33 245.57 79 239.85 79 235.38 79 230.66 79 225.93 78.3 225.04 81.32 228 83.61 230.95 85.35 234.05 86.62 237.89 87.59 241.43 87.45 244.53 87.72 248.23 87.44 253.4 89.95 248.82 90.79 244.68 91.21 240.7 89.34 230.97"/></svg>