<svg id="7b7dd7d0-f4cf-4d1b-b622-56402f1b354b" data-name="Fondo" xmlns="http://www.w3.org/2000/svg" viewBox="0 0 300 400"><defs><style>.ac3cf3b2-1535-4239-b59c-c8f5eea65d2d{fill:#d6eddc;stroke:#fff;stroke-miterlimit:10;stroke-width:1.46px;}.cb5bfaa6-cbfc-4fec-bf3a-a7987729deb5{font-size:50.86px;}.cb5bfaa6-cbfc-4fec-bf3a-a7987729deb5,.e4019671-4705-494a-9a2d-f2bd79a9e659,.fceeffb4-9b60-4352-9b76-ad3d5052a947{font-family:Myriad Pro;font-weight:700;}.fceeffb4-9b60-4352-9b76-ad3d5052a947{font-size:18px;fill:#232323;}.e4019671-4705-494a-9a2d-f2bd79a9e659{font-size:82.85px;fill:#118c97;}</style></defs><title>solo catastrofes</title><rect class="ac3cf3b2-1535-4239-b59c-c8f5eea65d2d" x="0.54" y="1" width="300" height="400"/><text class="cb5bfaa6-cbfc-4fec-bf3a-a7987729deb5" transform="translate(27.01 146.01) scale(0.91 1)">Huechu<tspan x="170.24" y="0">r</tspan><tspan x="187.89" y="0">aba</tspan></text><text class="fceeffb4-9b60-4352-9b76-ad3d5052a947" transform="matrix(0.9, 0.01, -0.01, 1, 109.06, 177.23)">C<tspan x="10.53" y="0">a</tspan><tspan x="19.89" y="0">tást</tspan><tspan x="50.42" y="0">r</tspan><tspan x="57.11" y="0">o</tspan><tspan x="67.5" y="0">f</tspan><tspan x="73.46" y="0">es</tspan></text><text class="e4019671-4705-494a-9a2d-f2bd79a9e659" transform="translate(146.43 275.01) scale(0.79 1)">19</text><polygon points="80.41 241.3 78.96 227.59 80.14 217.95 84.28 209.14 89.89 201.8 94.97 198.51 93.88 202.54 92.6 207.54 91.63 215.52 92.42 221.76 93.14 226.38 94.96 231.19 96.96 236.57 102.19 244.26 106.05 249.97 106.96 242.72 110.23 234.45 113.5 231.18 116.89 228.69 119 226.95 119 230.61 117.07 235.41 117.38 240.41 117.71 243.68 118.79 249.97 120.96 257.72 123.34 266.56 125 274.44 125 280.21 123.16 289.44 121.42 293.1 118.19 297.13 114.21 300.63 109.49 303.29 105.5 305.01 107.68 301.75 109.14 298.32 109.32 293.48 108.05 289.44 106.78 286.75 105.32 283.1 104.59 280.4 104.96 275.36 102.96 277.67 102 279.83 102 282.52 101.85 285.21 101.22 286.94 101.41 288.58 99.53 285.69 98.58 281.51 99.27 276.03 100.23 271.99 99.96 267.52 99.28 264.35 97.23 260.46 94.51 256.85 95.32 262.91 95.05 266.08 93.96 270.69 92.87 272.86 91.62 276.18 87.23 281.22 86 281.8 86 277.91 85.34 275.36 85.08 274.16 84.27 272.57 82.98 271.42 82.47 272.86 82.22 276.32 81.68 280.07 81.14 283.1 80.46 285.4 79.51 288.58 78.9 291.03 78.28 294.49 79.24 299.39 80.74 302.13 82.23 303.57 85.64 306.75 78.28 305.3 75.01 303.43 71.06 300.63 67.24 298.32 62.53 292.47 60 284.97 60 275.6 63.21 264.93 66.18 259.74 69.08 255.55 71 249.97 71 245.6 71 240.99 71 236.38 69.97 235.51 72.75 238.39 74.9 241.28 76.56 244.31 77.78 248.06 78.71 251.52 78.56 254.54 78.83 258.15 78.56 263.2 81.01 258.73 81.83 254.69 82.24 250.8 80.41 241.3"/></svg>