<svg id="96e4ce30-955b-49ad-8c60-347d3c5d933a" data-name="Fondo" xmlns="http://www.w3.org/2000/svg" viewBox="0 0 300 400"><defs><style>.\33 1d6b9e1-771b-4610-b822-28e14d2eaf72{fill:#d6eddc;stroke:#fff;stroke-miterlimit:10;stroke-width:1.46px;}.\35 5979828-f327-438f-97cd-3f0dabf42ce2{font-size:50.86px;}.\32 d5775db-90f9-467d-be15-6eeb6662f9b1,.\34 6465eee-7274-4307-9702-9aa750137a99,.\35 5979828-f327-438f-97cd-3f0dabf42ce2{font-family:Myriad Pro;font-weight:700;}.\34 6465eee-7274-4307-9702-9aa750137a99{font-size:18px;fill:#232323;}.\32 d5775db-90f9-467d-be15-6eeb6662f9b1{font-size:92.6px;fill:#118c97;}</style></defs><title>solo catastrofes</title><rect class="31d6b9e1-771b-4610-b822-28e14d2eaf72" x="0.54" width="300" height="400"/><text class="55979828-f327-438f-97cd-3f0dabf42ce2" transform="translate(61.73 94.43) scale(0.91 1)">L<tspan x="24.52" y="0">o </tspan><tspan x="63.73" y="0">P</tspan><tspan x="91.55" y="0">r</tspan><tspan x="109.2" y="0">ado</tspan></text><text class="46465eee-7274-4307-9702-9aa750137a99" transform="translate(109.02 119.27) rotate(0.33) scale(0.9 1)">C<tspan x="10.53" y="0">a</tspan><tspan x="19.89" y="0">tást</tspan><tspan x="50.42" y="0">r</tspan><tspan x="57.11" y="0">o</tspan><tspan x="67.5" y="0">f</tspan><tspan x="73.46" y="0">es</tspan></text><text class="2d5775db-90f9-467d-be15-6eeb6662f9b1" transform="translate(176.75 250.41) scale(0.88 1)">4</text><polygon points="91.09 210.56 89.28 195.24 90.76 184.47 95.94 174.62 102.97 166.42 109.33 162.75 107.96 167.25 106.36 172.83 105.14 181.75 106.13 188.73 107.04 193.89 109.32 199.26 111.82 205.28 118.36 213.87 123.2 220.25 124.34 212.15 128.44 202.91 132.54 199.26 135.56 196.47 137 194.53 137 198.62 135.79 203.99 136.78 209.57 137.5 213.23 139 220.25 141.8 228.92 144.86 238.8 147 247.61 147 254.06 144.66 264.37 142.47 268.46 138.41 272.97 133.43 276.88 127.52 279.85 122.52 281.78 125.25 278.13 127.07 274.3 127.3 268.89 125.71 264.37 124.11 261.37 122.29 257.28 121.38 254.27 121.84 248.64 119.76 251.22 119 253.63 119 256.64 118.38 259.65 117.37 261.58 117.5 263.41 115.09 260.18 113.88 255.51 114.73 249.38 115.92 244.87 115.58 239.88 114.72 236.33 112.16 231.98 108.75 227.95 109.77 234.72 109.43 238.26 108.06 243.42 106.7 245.84 105.14 249.55 99.58 255.19 98 255.83 98 251.48 97.23 248.64 96.93 247.29 95.92 245.52 94.31 244.23 93.68 245.84 93.36 249.71 92.69 253.9 92.01 257.28 91.16 259.86 89.97 263.41 89.21 266.15 88.43 270.01 89.63 275.49 91.5 278.56 93.38 280.17 97.65 283.71 88.43 282.1 84.33 280.01 79.38 276.88 74.6 274.3 68.44 267.76 65 259.38 65 248.9 69.29 236.97 73.14 231.17 76.69 226.5 79 220.25 79 215.38 79 210.22 79 205.06 77.86 204.09 81.42 207.32 84.16 210.54 86.25 213.93 87.79 218.12 88.97 221.99 88.78 225.37 89.12 229.4 88.78 235.04 91.85 230.04 92.87 225.53 93.38 221.18 91.09 210.56"/></svg>