<svg id="e7069480-cd7a-4795-9e6b-242c55b533bc" data-name="Fondo" xmlns="http://www.w3.org/2000/svg" viewBox="0 0 300 400"><defs><style>.\38 6e66734-b076-40d8-a301-df1ab5028ba3{fill:#d6eddc;stroke:#fff;stroke-miterlimit:10;stroke-width:1.46px;}.\31 b297248-a5fd-4a18-a2bd-a492dc47d788{font-size:50.86px;}.\31 b297248-a5fd-4a18-a2bd-a492dc47d788,.\32 5c4fe2f-a129-4849-909b-2241fb9d7646,.\39 260a3b1-fe47-4fa3-a431-dafe4ca598d8{font-family:Myriad Pro;font-weight:700;}.\32 5c4fe2f-a129-4849-909b-2241fb9d7646{font-size:18px;fill:#232323;}.\39 260a3b1-fe47-4fa3-a431-dafe4ca598d8{font-size:88px;fill:#118c97;white-space:pre;}</style></defs><title>solo catastrofes</title><rect class="86e66734-b076-40d8-a301-df1ab5028ba3" x="0.54" width="300" height="400"/><text class="1b297248-a5fd-4a18-a2bd-a492dc47d788" transform="translate(90.33 111.6) scale(0.91 1)">M<tspan x="42.27" y="0">acul</tspan></text><text class="25c4fe2f-a129-4849-909b-2241fb9d7646" transform="translate(107.05 140.1) rotate(-0.02) scale(0.9 1)">C<tspan x="10.53" y="0">a</tspan><tspan x="19.89" y="0">tást</tspan><tspan x="50.42" y="0">r</tspan><tspan x="57.11" y="0">o</tspan><tspan x="67.5" y="0">f</tspan><tspan x="73.46" y="0">es</tspan></text><text class="9260a3b1-fe47-4fa3-a431-dafe4ca598d8" transform="translate(121.54 251.07) scale(0.88 1)">  11</text><polygon points="78 211.19 76.27 196.63 77.68 186.39 82.61 177.03 89.29 169.23 95.33 165.75 94.03 170.03 92.51 175.33 91.35 183.81 92.29 190.44 93.16 195.34 95.32 200.45 97.7 206.16 103.92 214.33 108.52 220.4 109.6 212.7 113.49 203.92 117.38 200.45 120.45 197.79 122 195.95 122 199.83 120.67 204.94 121.51 210.25 122.15 213.72 123.55 220.4 126.2 228.63 128.53 238.02 130 246.4 130 252.52 128.34 262.32 126.54 266.21 122.83 270.49 118.16 274.21 112.58 277.03 107.84 278.87 110.45 275.4 112.19 271.76 112.41 266.61 110.89 262.32 109.38 259.47 107.65 255.59 106.78 252.73 107.22 247.37 104.99 249.82 104 252.11 104 254.97 103.67 257.83 102.84 259.67 103.03 261.41 100.77 258.34 99.64 253.9 100.45 248.08 101.59 243.79 101.27 239.04 100.46 235.68 98.02 231.54 94.78 227.71 95.75 234.14 95.43 237.51 94.13 242.41 92.83 244.71 91.35 248.23 85.79 253.59 84 254.21 84 250.07 83.55 247.37 83.4 246.09 82.52 244.41 81.02 243.18 80.44 244.71 80.14 248.39 79.51 252.37 78.87 255.59 78.06 258.04 76.93 261.41 76.21 264.01 75.47 267.69 76.61 272.89 78.39 275.8 80.17 277.34 84.23 280.7 75.47 279.17 71.58 277.18 66.87 274.21 62.33 271.76 56.37 265.54 53 257.58 53 247.62 57.18 236.29 60.89 230.77 64.03 226.33 66 220.4 66 215.76 66 210.86 66 205.96 65.17 205.04 68.68 208.1 71.35 211.17 73.37 214.38 74.84 218.37 75.97 222.04 75.8 225.26 76.12 229.09 75.8 234.45 78.72 229.7 79.69 225.41 80.18 221.28 78 211.19"/></svg>