<svg id="5e1905d1-1813-49bd-96b3-3a7c881d342e" data-name="Fondo" xmlns="http://www.w3.org/2000/svg" viewBox="0 0 300 400"><defs><style>.\31 ee93521-caf2-4ce4-a248-f53cd58e95bc{fill:#d6eddc;stroke:#fff;stroke-miterlimit:10;stroke-width:1.46px;}.c66b0191-c826-442b-91cd-945e1ebbe2df{font-size:18px;fill:#232323;}.\32 0ffc301-cdfe-4e6a-8ac6-1f1bad24abe1,.a1892992-7e78-4a56-ad2e-134d70b4ae24,.c66b0191-c826-442b-91cd-945e1ebbe2df{font-family:Myriad Pro;font-weight:700;}.\32 0ffc301-cdfe-4e6a-8ac6-1f1bad24abe1{font-size:80.42px;fill:#118c97;white-space:pre;}.a1892992-7e78-4a56-ad2e-134d70b4ae24{font-size:50.86px;}.\35 c7efb12-2cd8-4973-ad99-e8f1566265f4{letter-spacing:-1.09px;}</style></defs><title>solo catastrofes</title><rect class="1ee93521-caf2-4ce4-a248-f53cd58e95bc" x="0.54" width="300" height="400"/><text class="c66b0191-c826-442b-91cd-945e1ebbe2df" transform="translate(114.01 144.84) rotate(-0.07) scale(0.9 1)">C<tspan x="10.53" y="0">a</tspan><tspan x="19.89" y="0">tást</tspan><tspan x="50.42" y="0">r</tspan><tspan x="57.11" y="0">o</tspan><tspan x="67.5" y="0">f</tspan><tspan x="73.46" y="0">es</tspan></text><text class="20ffc301-cdfe-4e6a-8ac6-1f1bad24abe1" transform="translate(138.91 267.08) scale(0.88 1)"> 16</text><polygon points="72.66 232.47 71.08 219.17 72.37 209.81 76.87 201.26 82.97 194.14 88.5 190.95 87.31 194.86 85.92 199.71 84.86 207.45 85.72 213.51 86.51 217.99 88.49 222.66 90.66 227.88 96.34 235.35 100.55 240.89 101.53 233.86 105.09 225.83 108.65 222.66 111.52 220.23 113 218.55 113 222.1 111.72 226.76 112.46 231.62 113.02 234.79 114.3 240.89 116.71 248.41 119.25 257 121 264.65 121 270.25 119.08 279.2 117.22 282.75 113.73 286.67 109.41 290.06 104.28 292.64 99.94 294.32 102.32 291.15 103.9 287.82 104.1 283.12 102.72 279.2 101.34 276.59 99.75 273.05 98.96 270.43 99.36 265.54 97.61 267.78 97 269.87 97 272.49 96.41 275.1 95.51 276.78 95.61 278.36 93.5 275.56 92.45 271.51 93.19 266.19 94.22 262.27 93.92 257.93 93.18 254.85 90.96 251.07 87.99 247.57 88.88 253.45 88.58 256.53 87.4 261.01 86.21 263.11 84.86 266.33 80.2 271.23 79 271.79 79 268.01 78.16 265.54 77.81 264.37 76.9 262.83 75.48 261.71 74.91 263.11 74.63 266.47 74.05 270.11 73.46 273.05 72.72 275.29 71.68 278.36 71.03 280.74 70.35 284.1 71.39 288.86 73.02 291.52 74.65 292.92 78.36 296 70.35 294.6 66.79 292.78 62.49 290.06 58.34 287.82 52.98 282.14 50 274.87 50 265.77 53.73 255.41 57.07 250.37 60.57 246.31 63 240.89 63 236.66 63 232.18 63 227.7 61.59 226.86 64.47 229.66 66.74 232.46 68.51 235.4 69.82 239.03 70.83 242.39 70.66 245.33 70.95 248.83 70.65 253.73 73.32 249.39 74.2 245.47 74.65 241.69 72.66 232.47"/><text class="a1892992-7e78-4a56-ad2e-134d70b4ae24" transform="translate(52.22 111.01) scale(0.91 1)"><tspan class="5c7efb12-2cd8-4973-ad99-e8f1566265f4">P</tspan><tspan x="27.16" y="0">eñalolén</tspan></text></svg>