<svg id="a0b03981-a47d-489d-b729-f1d497326b7c" data-name="Fondo" xmlns="http://www.w3.org/2000/svg" viewBox="0 0 300 400"><defs><style>.ad94cb59-14f9-4e84-8d68-f5eb868e30d6{fill:#d6eddc;stroke:#fff;stroke-miterlimit:10;stroke-width:1.46px;}.e027eafb-7e9e-46ae-906d-445ea3ba3a36{font-size:50.86px;}.\36 8baab2f-e926-4e6d-a651-906f29fd5e27,.e027eafb-7e9e-46ae-906d-445ea3ba3a36,.ead7442b-7d21-414f-874a-3ce0f9fdc43e{font-family:Myriad Pro;font-weight:700;}.\36 8baab2f-e926-4e6d-a651-906f29fd5e27{font-size:18px;fill:#232323;}.ead7442b-7d21-414f-874a-3ce0f9fdc43e{font-size:85.69px;fill:#118c97;white-space:pre;}</style></defs><title>solo catastrofes</title><rect class="ad94cb59-14f9-4e84-8d68-f5eb868e30d6" x="0.54" width="300" height="400"/><text class="e027eafb-7e9e-46ae-906d-445ea3ba3a36" transform="translate(30.47 111.94) scale(0.91 1)">S<tspan x="26.7" y="0">an Joaquín</tspan></text><text class="68baab2f-e926-4e6d-a651-906f29fd5e27" transform="matrix(0.9, 0, 0, 1, 111.53, 137)">C<tspan x="10.53" y="0">a</tspan><tspan x="19.89" y="0">tást</tspan><tspan x="50.42" y="0">r</tspan><tspan x="57.11" y="0">o</tspan><tspan x="67.5" y="0">f</tspan><tspan x="73.46" y="0">es</tspan></text><text class="ead7442b-7d21-414f-874a-3ce0f9fdc43e" transform="translate(156.55 256.76) scale(0.88 1)"> 3</text><polygon points="96.14 219.94 94.46 205.76 95.84 195.79 100.63 186.68 107.14 179.09 113.02 175.7 111.75 179.86 110.27 185.03 109.14 193.28 110.06 199.74 110.9 204.51 113.01 209.48 115.32 215.05 121.38 223 125.86 228.91 126.91 221.41 130.7 212.86 134.49 209.48 137.98 206.9 140 205.11 140 208.89 138.19 213.86 138.76 219.03 139.26 222.41 140.56 228.91 143.11 236.92 145.98 246.07 148 254.22 148 260.19 145.78 269.73 143.71 273.51 139.95 277.69 135.32 281.31 129.85 284.05 125.22 285.84 127.75 282.46 129.44 278.92 129.65 273.91 128.17 269.73 126.7 266.95 125.01 263.17 124.17 260.39 124.59 255.17 122.19 257.56 121 259.79 121 262.57 120.91 265.36 120.22 267.15 120.46 268.84 118.29 265.86 117.2 261.53 118 255.86 119.11 251.69 118.8 247.06 118.01 243.78 115.64 239.76 112.48 236.03 113.43 242.29 113.11 245.57 111.85 250.35 110.58 252.58 109.14 256.01 103.73 261.23 102 261.83 102 257.8 101.55 255.17 101.41 253.93 100.55 252.28 99.09 251.09 98.52 252.58 98.23 256.16 97.62 260.04 96.99 263.17 96.2 265.56 95.1 268.84 94.4 271.37 93.68 274.95 94.79 280.02 96.53 282.86 98.26 284.35 102.21 287.63 93.68 286.14 89.89 284.2 85.31 281.31 80.89 278.92 75.18 272.87 72 265.11 72 255.42 75.97 244.38 79.53 239.01 82.84 234.69 85 228.91 85 224.4 85 219.63 85 214.85 83.93 213.96 87.21 216.94 89.73 219.92 91.67 223.06 93.09 226.93 94.17 230.51 94.01 233.64 94.32 237.37 94 242.59 96.84 237.97 97.79 233.79 98.26 229.77 96.14 219.94"/></svg>