<svg id="80b52e56-4666-4451-b589-45c524f26388" data-name="Fondo" xmlns="http://www.w3.org/2000/svg" viewBox="0 0 300 400"><defs><style>.\32 052af95-8ea6-47ad-a46b-d708f7000f5f{fill:#d6eddc;stroke:#fff;stroke-miterlimit:10;stroke-width:1.46px;}.be06c22a-0fc7-4bb6-abc3-0e3fd198d449{font-size:50.86px;}.\35 e5b7147-7c15-44aa-9a96-fe291c849d06,.be06c22a-0fc7-4bb6-abc3-0e3fd198d449,.ff794e68-8027-4027-9b26-eb1e03f3f318{font-family:Myriad Pro;font-weight:700;}.\35 e5b7147-7c15-44aa-9a96-fe291c849d06{font-size:18px;fill:#232323;}.ff794e68-8027-4027-9b26-eb1e03f3f318{font-size:81.78px;fill:#118c97;}</style></defs><title>solo catastrofes</title><rect class="2052af95-8ea6-47ad-a46b-d708f7000f5f" x="1.54" y="3" width="300" height="400"/><text class="be06c22a-0fc7-4bb6-abc3-0e3fd198d449" transform="translate(71.52 140.8) scale(0.91 1)">C<tspan x="29.09" y="0">errillos</tspan></text><text class="5e5b7147-7c15-44aa-9a96-fe291c849d06" transform="translate(114.01 168.46) rotate(-0.06) scale(0.9 1)">C<tspan x="10.53" y="0">a</tspan><tspan x="19.89" y="0">tást</tspan><tspan x="50.42" y="0">r</tspan><tspan x="57.11" y="0">o</tspan><tspan x="67.5" y="0">f</tspan><tspan x="73.46" y="0">es</tspan></text><text class="ff794e68-8027-4027-9b26-eb1e03f3f318" transform="translate(182.75 270.2) scale(0.79 1)">4</text><polygon points="108.57 235.01 107.14 221.48 108.31 211.96 112.39 203.26 117.93 196.02 122.94 192.78 121.86 196.76 120.6 201.69 119.64 209.56 120.42 215.73 121.14 220.28 122.93 225.03 124.91 230.34 130.06 237.93 133.88 243.57 134.78 236.41 138.01 228.25 141.24 225.03 144.25 222.56 146 220.85 146 224.46 144.43 229.2 144.89 234.14 145.31 237.36 146.41 243.57 148.58 251.22 150.65 259.95 152 267.73 152 273.42 150.48 282.53 148.91 286.14 145.79 290.12 141.9 293.58 137.26 296.2 133.33 297.9 135.49 294.68 136.93 291.3 137.11 286.52 135.85 282.53 134.6 279.88 133.16 276.27 132.44 273.61 132.8 268.63 130.88 270.91 130 273.04 130 275.7 129.79 278.36 129.14 280.06 129.31 281.68 127.45 278.83 126.51 274.7 127.19 269.29 128.13 265.31 127.87 260.9 127.19 257.76 125.18 253.92 122.48 250.36 123.29 256.34 123.02 259.47 121.95 264.03 120.87 266.16 119.64 269.44 115.25 274.42 114 274.99 114 271.14 113.4 268.63 113.16 267.44 112.37 265.88 111.1 264.74 110.6 266.16 110.35 269.58 109.83 273.28 109.29 276.27 108.62 278.55 107.68 281.68 107.08 284.1 106.47 287.51 107.41 292.35 108.89 295.06 110.37 296.48 113.74 299.61 106.47 298.19 103.24 296.34 99.34 293.58 95.57 291.3 90.71 285.52 88 278.12 88 268.87 91.38 258.33 94.42 253.21 97.19 249.08 99 243.57 99 239.26 99 234.71 99 230.15 98.12 229.3 100.94 232.15 103.1 234.99 104.75 237.98 105.96 241.68 106.89 245.1 106.75 248.09 107.01 251.65 106.74 256.63 109.16 252.21 109.97 248.23 110.37 244.38 108.57 235.01"/><polygon points="108.57 235.01 107.14 221.48 108.31 211.96 112.39 203.26 117.93 196.02 122.94 192.78 121.86 196.76 120.6 201.69 119.64 209.56 120.42 215.73 121.14 220.28 122.93 225.03 124.91 230.34 130.06 237.93 133.88 243.57 134.78 236.41 138.01 228.25 141.24 225.03 144.25 222.56 146 220.85 146 224.46 144.43 229.2 144.89 234.14 145.31 237.36 146.41 243.57 148.58 251.22 150.65 259.95 152 267.73 152 273.42 150.48 282.53 148.91 286.14 145.79 290.12 141.9 293.58 137.26 296.2 133.33 297.9 135.49 294.68 136.93 291.3 137.11 286.52 135.85 282.53 134.6 279.88 133.16 276.27 132.44 273.61 132.8 268.63 130.88 270.91 130 273.04 130 275.7 129.79 278.36 129.14 280.06 129.31 281.68 127.45 278.83 126.51 274.7 127.19 269.29 128.13 265.31 127.87 260.9 127.19 257.76 125.18 253.92 122.48 250.36 123.29 256.34 123.02 259.47 121.95 264.03 120.87 266.16 119.64 269.44 115.25 274.42 114 274.99 114 271.14 113.4 268.63 113.16 267.44 112.37 265.88 111.1 264.74 110.6 266.16 110.35 269.58 109.83 273.28 109.29 276.27 108.62 278.55 107.68 281.68 107.08 284.1 106.47 287.51 107.41 292.35 108.89 295.06 110.37 296.48 113.74 299.61 106.47 298.19 103.24 296.34 99.34 293.58 95.57 291.3 90.71 285.52 88 278.12 88 268.87 91.38 258.33 94.42 253.21 97.19 249.08 99 243.57 99 239.26 99 234.71 99 230.15 98.12 229.3 100.94 232.15 103.1 234.99 104.75 237.98 105.96 241.68 106.89 245.1 106.75 248.09 107.01 251.65 106.74 256.63 109.16 252.21 109.97 248.23 110.37 244.38 108.57 235.01"/></svg>