<svg id="cb43b659-8319-404c-a693-520065d8c6f7" data-name="Fondo" xmlns="http://www.w3.org/2000/svg" viewBox="0 0 300 400"><defs><style>.\39 910f5b8-84e1-4a55-b5eb-9e7ea2fe8301{fill:#d6eddc;stroke:#fff;stroke-miterlimit:10;stroke-width:1.46px;}.\35 5f7ccc5-5813-476c-8e66-6762df10585f{font-size:50.86px;}.\33 f81a1bc-901b-4c46-b6b1-656c13a94287,.\35 5f7ccc5-5813-476c-8e66-6762df10585f,.\35 cf98247-90d7-4035-9664-3aa200bd5185{font-family:Myriad Pro;font-weight:700;}.\35 cf98247-90d7-4035-9664-3aa200bd5185{font-size:18px;fill:#232323;}.\33 f81a1bc-901b-4c46-b6b1-656c13a94287{font-size:76.28px;fill:#118c97;}</style></defs><title>solo catastrofes</title><rect class="9910f5b8-84e1-4a55-b5eb-9e7ea2fe8301" x="0.54" width="300" height="400"/><text class="55f7ccc5-5813-476c-8e66-6762df10585f" transform="translate(14.6 113.01) scale(0.91 1)">L<tspan x="24.52" y="0">o </tspan><tspan x="63.73" y="0">B</tspan><tspan x="93.18" y="0">arnechea</tspan></text><text class="5cf98247-90d7-4035-9664-3aa200bd5185" transform="translate(110.08 142.51) rotate(-0.28) scale(0.9 1)">C<tspan x="10.53" y="0">a</tspan><tspan x="19.89" y="0">tást</tspan><tspan x="50.42" y="0">r</tspan><tspan x="57.11" y="0">o</tspan><tspan x="67.5" y="0">f</tspan><tspan x="73.46" y="0">es</tspan></text><text class="3f81a1bc-901b-4c46-b6b1-656c13a94287" transform="translate(174.82 234.63) scale(0.98 1)">6</text><polygon points="96.77 201.9 95.12 189.28 96.47 180.41 101.19 172.29 107.6 165.54 113.39 162.51 112.14 166.22 110.69 170.82 109.58 178.17 110.48 183.92 111.31 188.17 113.38 192.59 115.66 197.55 121.62 204.63 126.03 209.88 127.07 203.21 130.8 195.6 134.54 192.59 137.5 190.29 139 188.7 139 192.06 137.7 196.49 138.51 201.09 139.12 204.1 140.46 209.88 142.99 217.02 145.91 225.16 148 232.42 148 237.73 145.73 246.23 143.66 249.59 139.93 253.31 135.37 256.53 129.97 258.97 125.41 260.56 127.9 257.56 129.56 254.4 129.77 249.94 128.31 246.23 126.86 243.75 125.2 240.38 124.37 237.91 124.79 233.27 122.8 235.39 122 237.38 122 239.85 121.53 242.33 120.67 243.93 120.81 245.43 118.63 242.78 117.53 238.93 118.31 233.88 119.4 230.16 119.09 226.05 118.31 223.13 115.97 219.54 112.86 216.22 113.8 221.8 113.48 224.72 112.24 228.97 111 230.96 109.57 234.01 104.48 238.66 103 239.19 103 235.61 102.33 233.27 102.07 232.15 101.17 230.69 99.7 229.63 99.13 230.96 98.84 234.15 98.23 237.6 97.61 240.38 96.84 242.51 95.75 245.43 95.06 247.69 94.35 250.87 95.44 255.39 97.15 257.91 98.86 259.24 102.75 262.16 94.35 260.83 90.62 259.1 86.11 256.53 81.75 254.4 76.13 249.01 73 242.11 73 233.48 76.91 223.66 80.42 218.88 83.77 215.03 86 209.88 86 205.87 86 201.62 86 197.37 84.84 196.57 88.02 199.23 90.49 201.88 92.38 204.67 93.77 208.13 94.84 211.31 94.67 214.1 94.98 217.42 94.67 222.06 97.46 217.95 98.4 214.23 98.86 210.65 96.77 201.9"/></svg>