<svg id="4a440726-7ef4-49b4-b3b2-bc224e50f40d" data-name="Fondo" xmlns="http://www.w3.org/2000/svg" viewBox="0 0 300 400"><defs><style>.\31 b62c4fb-6227-482f-862e-8a9c7aecbdeb{fill:#d6eddc;stroke:#fff;stroke-miterlimit:10;stroke-width:1.46px;}.\36 217f5a5-162d-4a0a-b6fc-6a8c9190ad39{font-size:73.98px;fill:#118c97;}.\30 cd37132-454a-440f-a7e2-7a8d2c6c1c4c,.\33 0255c96-bbd0-4fb4-a33b-f30813b30c68,.\36 217f5a5-162d-4a0a-b6fc-6a8c9190ad39{font-family:Myriad Pro;font-weight:700;}.\30 cd37132-454a-440f-a7e2-7a8d2c6c1c4c{font-size:50.86px;}.\33 0255c96-bbd0-4fb4-a33b-f30813b30c68{font-size:18px;fill:#232323;}</style></defs><title>solo catastrofes</title><rect class="1b62c4fb-6227-482f-862e-8a9c7aecbdeb" x="0.54" width="300" height="400"/><text class="6217f5a5-162d-4a0a-b6fc-6a8c9190ad39" transform="translate(151.45 254.4) scale(0.88 1)">10</text><polygon points="78.84 217.72 77.4 205.48 78.58 196.87 82.72 189 88.34 182.45 93.42 179.51 92.32 183.11 91.04 187.57 90.07 194.7 90.86 200.28 91.59 204.4 93.41 208.69 95.41 213.49 100.63 220.36 104.5 225.46 105.41 218.99 108.68 211.6 111.96 208.69 114.61 206.46 116 204.91 116 208.17 114.8 212.46 115.47 216.93 115.98 219.85 117.15 225.46 119.37 232.38 121.55 240.28 123 247.31 123 252.47 121.39 260.71 119.76 263.97 116.59 267.57 112.64 270.7 107.93 273.07 103.94 274.61 106.13 271.69 107.59 268.64 107.77 264.31 106.5 260.71 105.23 258.3 103.77 255.04 103.04 252.64 103.41 248.13 101.68 250.2 101 252.12 101 254.53 100.57 256.93 99.81 258.48 99.92 259.93 98.01 257.36 97.05 253.62 97.73 248.73 98.68 245.13 98.41 241.13 97.72 238.3 95.68 234.82 92.95 231.61 93.77 237.01 93.5 239.85 92.41 243.97 91.31 245.9 90.07 248.86 85.45 253.37 84 253.88 84 250.41 83.56 248.13 83.42 247.06 82.66 245.64 81.39 244.61 80.9 245.9 80.65 248.99 80.12 252.34 79.58 255.04 78.9 257.1 77.95 259.93 77.34 262.12 76.72 265.21 77.67 269.59 79.17 272.04 80.67 273.32 84.08 276.16 76.72 274.87 73.45 273.2 69.49 270.7 65.67 268.64 60.74 263.41 58 256.71 58 248.34 61.43 238.82 64.5 234.18 67.25 230.45 69 225.46 69 221.56 69 217.44 69 213.32 68.19 212.55 71.07 215.13 73.28 217.7 74.97 220.4 76.2 223.75 77.14 226.84 77 229.55 77.27 232.76 76.99 237.27 79.45 233.28 80.27 229.68 80.68 226.2 78.84 217.72"/><text class="0cd37132-454a-440f-a7e2-7a8d2c6c1c4c" transform="translate(69.64 133.01) scale(0.91 1)">La <tspan x="61.44" y="0">R</tspan><tspan x="90.53" y="0">eina</tspan></text><text class="30255c96-bbd0-4fb4-a33b-f30813b30c68" transform="translate(117 161.51) rotate(-0.07) scale(0.9 1)">C<tspan x="10.53" y="0">a</tspan><tspan x="19.89" y="0">tást</tspan><tspan x="50.42" y="0">r</tspan><tspan x="57.11" y="0">o</tspan><tspan x="67.5" y="0">f</tspan><tspan x="73.46" y="0">es</tspan></text></svg>