<svg id="c48a2d06-686a-47d7-91f7-0590537f3a86" data-name="Fondo" xmlns="http://www.w3.org/2000/svg" viewBox="0 0 300 400"><defs><style>.\30 37d1739-6a4b-40ca-b0f1-11c45a233497{fill:#d6eddc;stroke:#fff;stroke-miterlimit:10;stroke-width:1.46px;}.b7144647-d38e-4975-b285-1614f1361070{font-size:38px;}.\38 52e9bc0-6254-4df6-b89d-b3a4d0035c9b,.\39 eba55ab-054b-4a0e-92a2-51e981443ff1,.b7144647-d38e-4975-b285-1614f1361070{font-family:Myriad Pro;font-weight:700;}.\38 52e9bc0-6254-4df6-b89d-b3a4d0035c9b{font-size:18px;fill:#232323;}.\39 eba55ab-054b-4a0e-92a2-51e981443ff1{font-size:85.91px;fill:#118c97;white-space:pre;}</style></defs><title>solo catastrofes</title><rect class="037d1739-6a4b-40ca-b0f1-11c45a233497" x="0.54" width="300" height="400"/><text class="b7144647-d38e-4975-b285-1614f1361070" transform="translate(42.48 83.51) scale(0.91 1)">P<tspan x="20.29" y="0">ed</tspan><tspan x="61.98" y="0">r</tspan><tspan x="75.16" y="0">o </tspan><tspan x="104.46" y="0">A</tspan><tspan x="128.13" y="0">guir</tspan><tspan x="194.79" y="0">r</tspan><tspan x="207.97" y="0">e </tspan><tspan x="69.77" y="38.7">C</tspan><tspan x="91.5" y="38.7">e</tspan><tspan x="111.11" y="38.7">r</tspan><tspan x="124.3" y="38.7">da</tspan></text><text class="852e9bc0-6254-4df6-b89d-b3a4d0035c9b" transform="translate(109.07 161.51) rotate(-0.07) scale(0.9 1)">C<tspan x="10.53" y="0">a</tspan><tspan x="19.89" y="0">tást</tspan><tspan x="50.42" y="0">r</tspan><tspan x="57.11" y="0">o</tspan><tspan x="67.5" y="0">f</tspan><tspan x="73.46" y="0">es</tspan></text><text class="9eba55ab-054b-4a0e-92a2-51e981443ff1" transform="translate(156.94 261.22) scale(0.88 1)"> 2</text><polygon points="86.17 224.26 84.48 210.04 85.86 200.05 90.67 190.91 97.19 183.3 103.09 179.9 101.81 184.08 100.33 189.26 99.2 197.53 100.12 204 100.96 208.79 103.07 213.77 105.4 219.35 111.47 227.33 115.95 233.25 117.01 225.73 120.81 217.16 124.61 213.77 127.55 211.18 129 209.39 129 213.17 127.76 218.16 128.61 223.34 129.25 226.73 130.63 233.25 133.22 241.28 135.53 250.45 137 258.63 137 264.61 135.35 274.18 133.57 277.96 129.94 282.15 125.37 285.78 119.92 288.53 115.3 290.32 117.84 286.94 119.54 283.38 119.75 278.36 118.28 274.18 116.8 271.39 115.11 267.6 114.27 264.81 114.69 259.58 112.74 261.97 112 264.21 112 267 111.45 269.79 110.53 271.58 110.66 273.28 108.42 270.29 107.31 265.95 108.09 260.27 109.2 256.08 108.88 251.45 108.09 248.16 105.71 244.12 102.55 240.39 103.5 246.67 103.18 249.96 101.91 254.74 100.64 256.98 99.2 260.42 93.76 265.65 92 266.25 92 262.21 91.57 259.58 91.44 258.33 90.58 256.68 89.12 255.49 88.55 256.98 88.26 260.57 87.64 264.46 87.02 267.6 86.23 269.99 85.12 273.28 84.42 275.82 83.7 279.41 84.81 284.49 86.55 287.33 88.29 288.83 92.25 292.12 83.7 290.62 79.9 288.68 75.3 285.78 70.87 283.38 65.17 277.32 62 269.54 62 259.82 65.96 248.76 69.52 243.38 72.83 239.04 75 233.25 75 228.72 75 223.94 75 219.16 73.92 218.26 77.21 221.25 79.74 224.24 81.68 227.38 83.11 231.27 84.19 234.85 84.03 237.99 84.34 241.73 84.02 246.97 86.87 242.33 87.82 238.14 88.29 234.11 86.17 224.26"/></svg>