<svg id="be0fbd98-ef54-4aa9-8bdd-155964e03641" data-name="Fondo" xmlns="http://www.w3.org/2000/svg" viewBox="0 0 300 400"><defs><style>.\39 c3cfb14-39f6-486a-abbf-bdf59f56b2e6{fill:#d6eddc;stroke:#fff;stroke-miterlimit:10;stroke-width:1.46px;}.a354e2f7-4081-4b0b-9db4-b2fc262b61ce{font-size:50.86px;}.\31 b2c20cc-1ff8-4f78-b706-8f3b8054bb37,.\36 454f3c1-c7fd-440b-9e0a-f5188962b477,.a354e2f7-4081-4b0b-9db4-b2fc262b61ce{font-family:Myriad Pro;font-weight:700;}.\31 b2c20cc-1ff8-4f78-b706-8f3b8054bb37{font-size:18px;fill:#232323;}.\36 454f3c1-c7fd-440b-9e0a-f5188962b477{font-size:79.44px;fill:#118c97;}</style></defs><title>solo catastrofes</title><rect class="9c3cfb14-39f6-486a-abbf-bdf59f56b2e6" x="0.54" width="300" height="400"/><text class="a354e2f7-4081-4b0b-9db4-b2fc262b61ce" transform="translate(44.08 118.01) scale(0.91 1)">La <tspan x="61.44" y="0">P</tspan><tspan x="89.26" y="0">i</tspan><tspan x="102.29" y="0">n</tspan><tspan x="131.12" y="0">tana</tspan></text><text class="1b2c20cc-1ff8-4f78-b706-8f3b8054bb37" transform="translate(114.01 149.51) rotate(-0.51) scale(0.9 1)">C<tspan x="10.53" y="0">a</tspan><tspan x="19.89" y="0">tást</tspan><tspan x="50.42" y="0">r</tspan><tspan x="57.11" y="0">o</tspan><tspan x="67.5" y="0">f</tspan><tspan x="73.46" y="0">es</tspan></text><text class="6454f3c1-c7fd-440b-9e0a-f5188962b477" transform="translate(168.35 250.89) scale(0.88 1)">8</text><polygon points="90.38 216.71 88.83 203.56 90.1 194.32 94.54 185.87 100.57 178.84 106.03 175.69 104.85 179.55 103.48 184.34 102.44 191.99 103.28 197.98 104.07 202.4 106.02 207.01 108.17 212.18 113.78 219.55 117.93 225.02 118.91 218.07 122.42 210.15 125.94 207.01 128.65 204.62 130 202.96 130 206.46 128.85 211.07 129.64 215.86 130.23 219 131.5 225.02 133.89 232.45 136.84 240.93 139 248.49 139 254.02 136.67 262.87 134.62 266.37 131.06 270.25 126.74 273.6 121.65 276.14 117.35 277.8 119.69 274.67 121.25 271.39 121.45 266.74 120.08 262.87 118.71 260.29 117.15 256.79 116.37 254.21 116.76 249.37 114.82 251.59 114 253.65 114 256.24 113.63 258.82 112.85 260.48 113 262.04 110.95 259.28 109.92 255.27 110.66 250.01 111.68 246.14 111.39 241.85 110.66 238.81 108.46 235.08 105.53 231.62 106.41 237.43 106.12 240.47 104.94 244.9 103.77 246.97 102.43 250.15 98.01 254.99 97 255.54 97 251.81 95.99 249.37 95.56 248.22 94.61 246.69 93.19 245.59 92.62 246.97 92.34 250.29 91.76 253.88 91.17 256.79 90.44 259 89.42 262.04 88.77 264.39 88.1 267.71 89.13 272.41 90.74 275.04 92.35 276.42 96.01 279.46 88.1 278.08 84.59 276.28 80.34 273.6 76.24 271.39 70.95 265.77 68 258.58 68 249.6 71.68 239.37 74.98 234.39 78.02 230.38 80 225.02 80 220.84 80 216.41 80 211.99 79.03 211.16 82.08 213.93 84.43 216.69 86.23 219.59 87.55 223.19 88.56 226.51 88.4 229.41 88.69 232.87 88.4 237.71 91.03 233.42 91.91 229.55 92.35 225.82 90.38 216.71"/></svg>