<svg id="6a334e86-5714-4a10-9ef2-9c6a6d6b772a" data-name="Fondo" xmlns="http://www.w3.org/2000/svg" viewBox="0 0 300 400"><defs><style>.\33 a4b9372-1977-4c63-b231-097a4b50e3e1{fill:#d6eddc;stroke:#fff;stroke-miterlimit:10;stroke-width:1.46px;}.c5a9d108-24fc-4aad-93ac-15c4b5153440{font-size:50.86px;}.\30 ab934ad-d713-4b86-9092-81a5cefc65d7,.\38 876fb08-948b-4a07-9e4c-331888399bfa,.c5a9d108-24fc-4aad-93ac-15c4b5153440{font-family:Myriad Pro;font-weight:700;}.\38 876fb08-948b-4a07-9e4c-331888399bfa{font-size:18px;fill:#232323;}.\30 ab934ad-d713-4b86-9092-81a5cefc65d7{font-size:87.33px;fill:#118c97;white-space:pre;}</style></defs><title>solo catastrofes</title><rect class="3a4b9372-1977-4c63-b231-097a4b50e3e1" x="0.54" width="300" height="400"/><text class="c5a9d108-24fc-4aad-93ac-15c4b5153440" transform="translate(63.5 104.01) scale(0.91 1)">R<tspan x="29.09" y="0">e</tspan><tspan x="55.34" y="0">c</tspan><tspan x="77.72" y="0">oleta</tspan></text><text class="8876fb08-948b-4a07-9e4c-331888399bfa" transform="matrix(0.9, 0, 0, 1, 109.18, 129.08)">C<tspan x="10.53" y="0">a</tspan><tspan x="19.89" y="0">tást</tspan><tspan x="50.42" y="0">r</tspan><tspan x="57.11" y="0">o</tspan><tspan x="67.5" y="0">f</tspan><tspan x="73.46" y="0">es</tspan></text><text class="0ab934ad-d713-4b86-9092-81a5cefc65d7" transform="translate(147.89 250.01) scale(0.82 1)"> 21</text><polygon points="80.91 212.55 79.31 198.1 80.62 187.94 85.17 178.65 91.34 170.92 96.92 167.46 95.72 171.7 94.31 176.97 93.24 185.38 94.11 191.96 94.91 196.82 96.91 201.89 99.11 207.56 104.85 215.67 109.1 221.69 110.1 214.05 113.7 205.34 117.3 201.89 119.85 199.26 121 197.43 121 201.28 120.05 206.35 120.97 211.62 121.63 215.06 122.96 221.69 125.42 229.86 128.11 239.18 130 247.49 130 253.57 127.94 263.29 126.02 267.14 122.46 271.4 118.08 275.09 112.89 277.88 108.5 279.71 110.9 276.26 112.5 272.65 112.7 267.55 111.3 263.29 109.9 260.46 108.3 256.61 107.5 253.77 107.9 248.46 105.88 250.89 105 253.16 105 256 104.66 258.84 103.88 260.66 104.04 262.38 101.95 259.34 100.9 254.93 101.66 249.16 102.7 244.9 102.41 240.19 101.66 236.85 99.41 232.74 96.41 228.94 97.31 235.33 97.01 238.67 95.81 243.53 94.61 245.81 93.24 249.31 88.38 254.63 87 255.24 87 251.13 86.31 248.46 86.04 247.18 85.15 245.51 83.74 244.29 83.18 245.81 82.9 249.46 82.31 253.41 81.72 256.61 80.97 259.04 79.92 262.38 79.26 264.97 78.57 268.61 79.62 273.78 81.27 276.67 82.92 278.19 86.67 281.53 78.57 280.01 74.97 278.04 70.63 275.09 66.43 272.65 61.02 266.49 58 258.58 58 248.7 61.77 237.46 65.15 231.98 68.12 227.58 70 221.69 70 217.09 70 212.23 70 207.36 69.15 206.45 72.34 209.49 74.78 212.53 76.64 215.72 78 219.67 79.04 223.32 78.88 226.51 79.18 230.31 78.87 235.63 81.57 230.92 82.47 226.66 82.92 222.56 80.91 212.55"/></svg>