<svg id="19f33156-a82e-44d7-afbe-e60dbf643e99" data-name="Fondo" xmlns="http://www.w3.org/2000/svg" viewBox="0 0 300 400"><defs><style>.\39 21a08e6-8c04-4ace-b09f-192874a3c5d4{fill:#d6eddc;stroke:#fff;stroke-miterlimit:10;stroke-width:1.46px;}.\39 354f279-8977-4cf9-ac2c-bc8c1ad155f4{font-size:50.86px;}.\31 4168c27-f7d4-4cb2-a47a-1adfedb71b62,.\34 400578b-6f39-43cd-b55d-055875736dd1,.\39 354f279-8977-4cf9-ac2c-bc8c1ad155f4{font-family:Myriad Pro;font-weight:700;}.\31 4168c27-f7d4-4cb2-a47a-1adfedb71b62{font-size:18px;fill:#232323;}.\34 400578b-6f39-43cd-b55d-055875736dd1{font-size:77.31px;fill:#118c97;white-space:pre;}</style></defs><title>solo catastrofes</title><rect class="921a08e6-8c04-4ace-b09f-192874a3c5d4" x="0.54" width="300" height="400"/><text class="9354f279-8977-4cf9-ac2c-bc8c1ad155f4" transform="translate(37.62 119.01) scale(0.91 1)">S<tspan x="26.7" y="0">an </tspan><tspan x="92.16" y="0">R</tspan><tspan x="121.61" y="0">amón</tspan></text><text class="14168c27-f7d4-4cb2-a47a-1adfedb71b62" transform="translate(110.07 150.47) rotate(0.04) scale(0.9 1)">C<tspan x="10.53" y="0">a</tspan><tspan x="19.89" y="0">tást</tspan><tspan x="50.42" y="0">r</tspan><tspan x="57.11" y="0">o</tspan><tspan x="67.5" y="0">f</tspan><tspan x="73.46" y="0">es</tspan></text><text class="4400578b-6f39-43cd-b55d-055875736dd1" transform="translate(150.5 266.73) scale(0.86 1)">  3</text><polygon points="91.28 233.56 89.8 220.77 91.01 211.78 95.23 203.55 100.97 196.71 106.16 193.64 105.04 197.4 103.73 202.06 102.74 209.51 103.55 215.34 104.29 219.64 106.15 224.13 108.19 229.15 113.53 236.32 117.47 241.65 118.4 234.89 121.75 227.18 125.09 224.13 127.69 221.79 129 220.18 129 223.59 127.88 228.07 128.62 232.74 129.18 235.79 130.38 241.65 132.66 248.88 134.7 257.13 136 264.49 136 269.87 134.54 278.48 132.97 281.89 129.77 285.66 125.76 288.92 120.97 291.4 116.9 293.01 119.14 289.96 120.63 286.77 120.81 282.25 119.52 278.48 118.22 275.97 116.73 272.56 115.99 270.05 116.36 265.35 114.15 267.5 113 269.51 113 272.02 113.01 274.54 112.46 276.15 112.69 277.68 110.79 274.99 109.84 271.08 110.55 265.97 111.53 262.2 111.25 258.03 110.56 255.07 108.47 251.44 105.68 248.07 106.52 253.73 106.24 256.69 105.13 260.99 104.01 263.01 102.74 266.11 98.25 270.81 97 271.35 97 267.72 96.33 265.35 96.06 264.22 95.23 262.74 93.91 261.67 93.39 263.01 93.13 266.24 92.58 269.74 92.03 272.56 91.33 274.72 90.36 277.68 89.74 279.96 89.11 283.19 90.08 287.77 91.61 290.32 93.15 291.67 96.63 294.63 89.11 293.28 85.77 291.54 81.73 288.92 77.83 286.77 72.8 281.31 70 274.31 70 265.57 73.5 255.61 76.64 250.77 79.32 246.86 81 241.65 81 237.58 81 233.28 81 228.97 80.28 228.16 83.28 230.85 85.57 233.54 87.3 236.37 88.57 239.87 89.54 243.1 89.39 245.92 89.67 249.29 89.39 254 91.89 249.82 92.73 246.06 93.15 242.42 91.28 233.56"/></svg>