<svg id="415db3fa-9b11-4e80-be58-db29a0cff3aa" data-name="Fondo" xmlns="http://www.w3.org/2000/svg" viewBox="0 0 300 400"><defs><style>.d7ee7be0-1bf5-4f84-8670-085568960b09{fill:#d6eddc;stroke:#fff;stroke-width:1.46px;}.\32 092e45d-8718-444a-b2c8-3f73762ca835,.\32 a04d8dc-f74d-4005-b224-74124f4181f1,.\38 f8240b6-dcdd-40ec-842f-e215eb42ff9f,.\39 3ce30d8-9b03-4a7b-bb22-217c8343bc7f,.c356e1fb-b179-4445-8f12-244795dc3846,.d7ee7be0-1bf5-4f84-8670-085568960b09,.f522416f-bc1f-4851-9477-df46ffd9f87a{stroke-miterlimit:10;}.\37 91649af-9942-484c-9311-1d867913afa3{font-size:43px;}.\33 3e95d56-18b2-43ba-a890-8c01fd54a17e,.\37 91649af-9942-484c-9311-1d867913afa3,.c3cabd23-1f34-4477-827d-7ee7e41be2cc{font-family:Myriad Pro;font-weight:700;}.\33 3e95d56-18b2-43ba-a890-8c01fd54a17e{font-size:18px;fill:#232323;}.c3cabd23-1f34-4477-827d-7ee7e41be2cc{font-size:50.9px;fill:#118c97;}.c356e1fb-b179-4445-8f12-244795dc3846{fill:#931c0a;}.\38 f8240b6-dcdd-40ec-842f-e215eb42ff9f,.c356e1fb-b179-4445-8f12-244795dc3846{stroke:#1d1d1b;stroke-width:0.39px;}.\38 f8240b6-dcdd-40ec-842f-e215eb42ff9f{fill:#9fa09f;}.\32 092e45d-8718-444a-b2c8-3f73762ca835{fill:#ff9231;}.\32 092e45d-8718-444a-b2c8-3f73762ca835,.\32 a04d8dc-f74d-4005-b224-74124f4181f1,.f522416f-bc1f-4851-9477-df46ffd9f87a{stroke:#000;}.\32 092e45d-8718-444a-b2c8-3f73762ca835,.\32 a04d8dc-f74d-4005-b224-74124f4181f1,.\39 3ce30d8-9b03-4a7b-bb22-217c8343bc7f,.f522416f-bc1f-4851-9477-df46ffd9f87a{stroke-width:0.31px;}.\32 a04d8dc-f74d-4005-b224-74124f4181f1{fill:#8e4713;}.f522416f-bc1f-4851-9477-df46ffd9f87a{fill:#ff6c49;}.\39 3ce30d8-9b03-4a7b-bb22-217c8343bc7f{stroke:#020202;}</style></defs><title>Catástrofes </title><rect class="d7ee7be0-1bf5-4f84-8670-085568960b09" y="1" width="300" height="400"/><text class="791649af-9942-484c-9311-1d867913afa3" transform="translate(13.32 66) scale(0.91 1)">E<tspan x="22.27" y="0">stación </tspan><tspan x="165.2" y="0">C</tspan><tspan x="189.8" y="0">e</tspan><tspan x="211.99" y="0">n</tspan><tspan x="236.37" y="0">t</tspan><tspan x="251.46" y="0">r</tspan><tspan x="266.38" y="0">al</tspan></text><text class="33e95d56-18b2-43ba-a890-8c01fd54a17e" transform="matrix(0.9, -0.01, 0.01, 1, 55.2, 160.47)">T<tspan x="9.45" y="0">i</tspan><tspan x="14.38" y="0">p</tspan><tspan x="25.2" y="0">o de </tspan></text><text class="33e95d56-18b2-43ba-a890-8c01fd54a17e" transform="translate(55.14 181.75) rotate(0.24) scale(0.9 1)">V<tspan x="10.96" y="0">ivienda</tspan></text><text class="33e95d56-18b2-43ba-a890-8c01fd54a17e" transform="matrix(0.9, 0.01, -0.01, 1, 108.99, 280.9)">C<tspan x="10.53" y="0">a</tspan><tspan x="19.89" y="0">tást</tspan><tspan x="50.42" y="0">r</tspan><tspan x="57.11" y="0">o</tspan><tspan x="67.5" y="0">f</tspan><tspan x="73.46" y="0">es</tspan></text><text class="c3cabd23-1f34-4477-827d-7ee7e41be2cc" transform="translate(175.97 346.31) scale(0.79 1)">2</text><polygon points="129.8 321.44 128.91 313.02 129.64 307.1 132.18 301.68 135.63 297.18 138.75 295.16 138.07 297.63 137.29 300.7 136.69 305.6 137.18 309.44 137.62 312.27 138.74 315.23 139.97 318.54 143.18 323.26 145.55 326.76 146.11 322.31 148.12 317.24 150.13 315.23 151.96 313.69 153 312.63 153 314.87 152.07 317.83 152.38 320.9 152.65 322.9 153.35 326.76 154.7 331.53 156.07 336.96 157 341.8 157 345.35 155.97 351.01 154.95 353.26 152.99 355.74 150.55 357.89 147.66 359.52 145.21 360.58 146.55 358.57 147.45 356.47 147.56 353.5 146.78 351.01 146 349.36 145.1 347.12 144.66 345.46 144.88 342.37 143.62 343.78 143 345.11 143 346.76 142.94 348.42 142.57 349.48 142.69 350.48 141.54 348.71 140.96 346.14 141.39 342.78 141.98 340.3 141.81 337.55 141.39 335.6 140.14 333.21 138.46 331 138.96 334.72 138.8 336.67 138.13 339.5 137.46 340.83 136.69 342.87 133.87 345.97 133 346.32 133 343.93 132.72 342.37 132.62 341.63 132.15 340.65 131.37 339.94 131.06 340.83 130.91 342.95 130.58 345.26 130.25 347.12 129.83 348.54 129.25 350.48 128.88 351.99 128.49 354.12 129.08 357.13 130 358.81 130.92 359.7 133.02 361.64 128.5 360.76 126.48 359.61 124.06 357.89 121.71 356.47 118.69 352.88 117 348.27 117 342.51 119.1 335.96 120.99 332.77 122.8 330.2 124 326.76 124 324.09 124 321.25 124 318.42 123.38 317.88 125.09 319.66 126.42 321.43 127.43 323.29 128.18 325.59 128.76 327.72 128.67 329.58 128.83 331.79 128.66 334.89 130.17 332.15 130.67 329.67 130.92 327.27 129.8 321.44"/><rect class="c356e1fb-b179-4445-8f12-244795dc3846" x="147.18" y="146.45" width="10.9" height="9.86"/><rect class="c356e1fb-b179-4445-8f12-244795dc3846" x="158.08" y="146.45" width="10.9" height="9.86"/><rect class="8f8240b6-dcdd-40ec-842f-e215eb42ff9f" x="196.25" y="154.04" width="10.9" height="9.86" rx="4.93" ry="4.93"/><rect class="8f8240b6-dcdd-40ec-842f-e215eb42ff9f" x="168.99" y="146.45" width="10.9" height="9.86"/><rect class="2092e45d-8718-444a-b2c8-3f73762ca835" x="168.99" y="146.45" width="10.9" height="9.86"/><rect class="8f8240b6-dcdd-40ec-842f-e215eb42ff9f" x="179.89" y="146.45" width="10.9" height="9.86"/><rect class="2092e45d-8718-444a-b2c8-3f73762ca835" x="179.89" y="146.45" width="10.9" height="9.86"/><rect class="8f8240b6-dcdd-40ec-842f-e215eb42ff9f" x="212.61" y="146.45" width="10.9" height="9.86"/><rect class="8f8240b6-dcdd-40ec-842f-e215eb42ff9f" x="212.61" y="146.45" width="10.9" height="9.86"/><rect class="8f8240b6-dcdd-40ec-842f-e215eb42ff9f" x="223.51" y="146.45" width="10.9" height="9.86"/><rect class="8f8240b6-dcdd-40ec-842f-e215eb42ff9f" x="223.51" y="146.45" width="10.9" height="9.86"/><rect class="8f8240b6-dcdd-40ec-842f-e215eb42ff9f" x="245.32" y="146.45" width="10.9" height="9.86"/><rect class="8f8240b6-dcdd-40ec-842f-e215eb42ff9f" x="245.32" y="146.45" width="10.9" height="9.86"/><rect class="8f8240b6-dcdd-40ec-842f-e215eb42ff9f" x="190.8" y="146.45" width="10.9" height="9.86"/><rect class="2a04d8dc-f74d-4005-b224-74124f4181f1" x="190.8" y="146.45" width="10.9" height="9.86"/><rect class="8f8240b6-dcdd-40ec-842f-e215eb42ff9f" x="201.7" y="146.45" width="10.9" height="9.86"/><rect class="2a04d8dc-f74d-4005-b224-74124f4181f1" x="201.7" y="146.45" width="10.9" height="9.86"/><rect class="c356e1fb-b179-4445-8f12-244795dc3846" x="147.18" y="156.32" width="10.9" height="9.86"/><rect class="c356e1fb-b179-4445-8f12-244795dc3846" x="147.18" y="156.32" width="10.9" height="9.86"/><rect class="c356e1fb-b179-4445-8f12-244795dc3846" x="158.08" y="156.32" width="10.9" height="9.86"/><rect class="c356e1fb-b179-4445-8f12-244795dc3846" x="158.08" y="156.32" width="10.9" height="9.86"/><rect class="8f8240b6-dcdd-40ec-842f-e215eb42ff9f" x="168.99" y="156.32" width="10.9" height="9.86"/><rect class="2092e45d-8718-444a-b2c8-3f73762ca835" x="168.99" y="156.32" width="10.9" height="9.86"/><rect class="8f8240b6-dcdd-40ec-842f-e215eb42ff9f" x="179.89" y="156.32" width="10.9" height="9.86"/><rect class="2092e45d-8718-444a-b2c8-3f73762ca835" x="179.89" y="156.32" width="10.9" height="9.86"/><rect class="8f8240b6-dcdd-40ec-842f-e215eb42ff9f" x="212.61" y="156.32" width="10.9" height="9.86"/><rect class="8f8240b6-dcdd-40ec-842f-e215eb42ff9f" x="212.61" y="156.32" width="10.9" height="9.86"/><rect class="8f8240b6-dcdd-40ec-842f-e215eb42ff9f" x="223.51" y="156.32" width="10.9" height="9.86"/><rect class="8f8240b6-dcdd-40ec-842f-e215eb42ff9f" x="223.51" y="156.32" width="10.9" height="9.86"/><rect class="8f8240b6-dcdd-40ec-842f-e215eb42ff9f" x="245.32" y="156.32" width="10.9" height="9.86"/><rect class="8f8240b6-dcdd-40ec-842f-e215eb42ff9f" x="245.32" y="156.32" width="10.9" height="9.86"/><rect class="8f8240b6-dcdd-40ec-842f-e215eb42ff9f" x="190.8" y="156.32" width="10.9" height="9.86"/><rect class="2092e45d-8718-444a-b2c8-3f73762ca835" x="190.8" y="156.32" width="10.9" height="9.86"/><rect class="8f8240b6-dcdd-40ec-842f-e215eb42ff9f" x="201.7" y="156.32" width="10.9" height="9.86"/><rect class="c356e1fb-b179-4445-8f12-244795dc3846" x="147.18" y="166.18" width="10.9" height="9.86"/><rect class="c356e1fb-b179-4445-8f12-244795dc3846" x="147.18" y="166.18" width="10.9" height="9.86"/><rect class="c356e1fb-b179-4445-8f12-244795dc3846" x="158.08" y="166.18" width="10.9" height="9.86"/><rect class="c356e1fb-b179-4445-8f12-244795dc3846" x="158.08" y="166.18" width="10.9" height="9.86"/><rect class="2092e45d-8718-444a-b2c8-3f73762ca835" x="168.99" y="166.18" width="10.9" height="9.86"/><rect class="2092e45d-8718-444a-b2c8-3f73762ca835" x="168.99" y="166.18" width="10.9" height="9.86"/><rect class="2092e45d-8718-444a-b2c8-3f73762ca835" x="179.89" y="166.18" width="10.9" height="9.86"/><rect class="2092e45d-8718-444a-b2c8-3f73762ca835" x="179.89" y="166.18" width="10.9" height="9.86"/><rect class="8f8240b6-dcdd-40ec-842f-e215eb42ff9f" x="212.61" y="166.18" width="10.9" height="9.86"/><rect class="8f8240b6-dcdd-40ec-842f-e215eb42ff9f" x="212.61" y="166.18" width="10.9" height="9.86"/><rect class="8f8240b6-dcdd-40ec-842f-e215eb42ff9f" x="223.51" y="166.18" width="10.9" height="9.86"/><rect class="8f8240b6-dcdd-40ec-842f-e215eb42ff9f" x="223.51" y="166.18" width="10.9" height="9.86"/><rect class="8f8240b6-dcdd-40ec-842f-e215eb42ff9f" x="245.32" y="166.18" width="10.9" height="9.86"/><rect class="8f8240b6-dcdd-40ec-842f-e215eb42ff9f" x="245.32" y="166.18" width="10.9" height="9.86"/><rect class="2092e45d-8718-444a-b2c8-3f73762ca835" x="190.8" y="166.18" width="10.9" height="9.86"/><rect class="2092e45d-8718-444a-b2c8-3f73762ca835" x="190.8" y="166.18" width="10.9" height="9.86"/><rect class="8f8240b6-dcdd-40ec-842f-e215eb42ff9f" x="201.7" y="166.18" width="10.9" height="9.86"/><rect class="8f8240b6-dcdd-40ec-842f-e215eb42ff9f" x="201.7" y="166.18" width="10.9" height="9.86"/><rect class="f522416f-bc1f-4851-9477-df46ffd9f87a" x="147.18" y="176.04" width="10.9" height="9.86"/><rect class="f522416f-bc1f-4851-9477-df46ffd9f87a" x="147.18" y="176.04" width="10.9" height="9.86"/><rect class="f522416f-bc1f-4851-9477-df46ffd9f87a" x="158.08" y="176.04" width="10.9" height="9.86"/><rect class="f522416f-bc1f-4851-9477-df46ffd9f87a" x="158.08" y="176.04" width="10.9" height="9.86"/><rect class="f522416f-bc1f-4851-9477-df46ffd9f87a" x="168.99" y="176.04" width="10.9" height="9.86"/><rect class="f522416f-bc1f-4851-9477-df46ffd9f87a" x="168.99" y="176.04" width="10.9" height="9.86"/><rect class="f522416f-bc1f-4851-9477-df46ffd9f87a" x="179.89" y="176.04" width="10.9" height="9.86"/><rect class="f522416f-bc1f-4851-9477-df46ffd9f87a" x="179.89" y="176.04" width="10.9" height="9.86"/><rect class="8f8240b6-dcdd-40ec-842f-e215eb42ff9f" x="212.61" y="176.13" width="10.9" height="9.86" transform="translate(-1.49 1.8) rotate(-0.47)"/><rect class="8f8240b6-dcdd-40ec-842f-e215eb42ff9f" x="212.61" y="176.13" width="10.9" height="9.86" transform="translate(-1.49 1.8) rotate(-0.47)"/><rect class="8f8240b6-dcdd-40ec-842f-e215eb42ff9f" x="223.51" y="176.04" width="10.9" height="9.86" transform="translate(-1.48 1.89) rotate(-0.47)"/><rect class="8f8240b6-dcdd-40ec-842f-e215eb42ff9f" x="223.51" y="176.04" width="10.9" height="9.86" transform="translate(-1.48 1.89) rotate(-0.47)"/><rect class="8f8240b6-dcdd-40ec-842f-e215eb42ff9f" x="245.32" y="175.86" width="10.9" height="9.86" transform="translate(-1.48 2.07) rotate(-0.47)"/><rect class="8f8240b6-dcdd-40ec-842f-e215eb42ff9f" x="245.32" y="175.86" width="10.9" height="9.86" transform="translate(-1.48 2.07) rotate(-0.47)"/><rect class="f522416f-bc1f-4851-9477-df46ffd9f87a" x="190.8" y="176.04" width="10.9" height="9.86"/><rect class="f522416f-bc1f-4851-9477-df46ffd9f87a" x="190.8" y="176.04" width="10.9" height="9.86"/><rect class="8f8240b6-dcdd-40ec-842f-e215eb42ff9f" x="201.7" y="176.22" width="10.9" height="9.86" transform="translate(-1.49 1.71) rotate(-0.47)"/><rect class="8f8240b6-dcdd-40ec-842f-e215eb42ff9f" x="201.7" y="176.22" width="10.9" height="9.86" transform="translate(-1.49 1.71) rotate(-0.47)"/><rect class="f522416f-bc1f-4851-9477-df46ffd9f87a" x="147.18" y="185.91" width="10.9" height="9.86"/><rect class="f522416f-bc1f-4851-9477-df46ffd9f87a" x="147.18" y="185.91" width="10.9" height="9.86"/><rect class="f522416f-bc1f-4851-9477-df46ffd9f87a" x="158.08" y="185.91" width="10.9" height="9.86"/><rect class="f522416f-bc1f-4851-9477-df46ffd9f87a" x="158.08" y="185.91" width="10.9" height="9.86"/><rect class="f522416f-bc1f-4851-9477-df46ffd9f87a" x="168.99" y="185.91" width="10.9" height="9.86"/><rect class="f522416f-bc1f-4851-9477-df46ffd9f87a" x="168.99" y="185.91" width="10.9" height="9.86"/><rect class="f522416f-bc1f-4851-9477-df46ffd9f87a" x="179.89" y="185.91" width="10.9" height="9.86"/><rect class="f522416f-bc1f-4851-9477-df46ffd9f87a" x="179.89" y="185.91" width="10.9" height="9.86"/><rect class="f522416f-bc1f-4851-9477-df46ffd9f87a" x="212.61" y="185.91" width="10.9" height="9.86"/><rect class="f522416f-bc1f-4851-9477-df46ffd9f87a" x="212.61" y="185.91" width="10.9" height="9.86"/><rect class="f522416f-bc1f-4851-9477-df46ffd9f87a" x="223.51" y="185.91" width="10.9" height="9.86"/><rect class="f522416f-bc1f-4851-9477-df46ffd9f87a" x="223.51" y="185.91" width="10.9" height="9.86"/><rect class="f522416f-bc1f-4851-9477-df46ffd9f87a" x="245.32" y="185.91" width="10.9" height="9.86"/><rect class="f522416f-bc1f-4851-9477-df46ffd9f87a" x="245.32" y="185.91" width="10.9" height="9.86"/><rect class="f522416f-bc1f-4851-9477-df46ffd9f87a" x="190.8" y="185.91" width="10.9" height="9.86"/><rect class="f522416f-bc1f-4851-9477-df46ffd9f87a" x="190.8" y="185.91" width="10.9" height="9.86"/><rect class="f522416f-bc1f-4851-9477-df46ffd9f87a" x="201.7" y="185.91" width="10.9" height="9.86"/><rect class="f522416f-bc1f-4851-9477-df46ffd9f87a" x="201.7" y="185.91" width="10.9" height="9.86"/><rect class="f522416f-bc1f-4851-9477-df46ffd9f87a" x="147.18" y="195.77" width="10.9" height="9.86"/><rect class="f522416f-bc1f-4851-9477-df46ffd9f87a" x="147.18" y="195.77" width="10.9" height="9.86"/><rect class="f522416f-bc1f-4851-9477-df46ffd9f87a" x="158.08" y="195.77" width="10.9" height="9.86"/><rect class="f522416f-bc1f-4851-9477-df46ffd9f87a" x="158.08" y="195.77" width="10.9" height="9.86"/><rect class="f522416f-bc1f-4851-9477-df46ffd9f87a" x="168.99" y="195.77" width="10.9" height="9.86"/><rect class="f522416f-bc1f-4851-9477-df46ffd9f87a" x="168.99" y="195.77" width="10.9" height="9.86"/><rect class="f522416f-bc1f-4851-9477-df46ffd9f87a" x="179.89" y="195.77" width="10.9" height="9.86"/><rect class="f522416f-bc1f-4851-9477-df46ffd9f87a" x="179.89" y="195.77" width="10.9" height="9.86"/><rect class="f522416f-bc1f-4851-9477-df46ffd9f87a" x="212.61" y="195.77" width="10.9" height="9.86"/><rect class="f522416f-bc1f-4851-9477-df46ffd9f87a" x="212.61" y="195.77" width="10.9" height="9.86"/><rect class="f522416f-bc1f-4851-9477-df46ffd9f87a" x="223.51" y="195.77" width="10.9" height="9.86"/><rect class="f522416f-bc1f-4851-9477-df46ffd9f87a" x="223.51" y="195.77" width="10.9" height="9.86"/><rect class="f522416f-bc1f-4851-9477-df46ffd9f87a" x="245.32" y="195.77" width="10.9" height="9.86"/><rect class="f522416f-bc1f-4851-9477-df46ffd9f87a" x="245.32" y="195.77" width="10.9" height="9.86"/><rect class="f522416f-bc1f-4851-9477-df46ffd9f87a" x="190.8" y="195.77" width="10.9" height="9.86"/><rect class="f522416f-bc1f-4851-9477-df46ffd9f87a" x="190.8" y="195.77" width="10.9" height="9.86"/><rect class="f522416f-bc1f-4851-9477-df46ffd9f87a" x="201.7" y="195.77" width="10.9" height="9.86"/><rect class="f522416f-bc1f-4851-9477-df46ffd9f87a" x="201.7" y="195.77" width="10.9" height="9.86"/><rect class="f522416f-bc1f-4851-9477-df46ffd9f87a" x="147.18" y="205.63" width="10.9" height="9.86"/><rect class="f522416f-bc1f-4851-9477-df46ffd9f87a" x="147.18" y="205.63" width="10.9" height="9.86"/><rect class="f522416f-bc1f-4851-9477-df46ffd9f87a" x="158.08" y="205.63" width="10.9" height="9.86"/><rect class="f522416f-bc1f-4851-9477-df46ffd9f87a" x="158.08" y="205.63" width="10.9" height="9.86"/><rect class="f522416f-bc1f-4851-9477-df46ffd9f87a" x="168.99" y="205.63" width="10.9" height="9.86"/><rect class="f522416f-bc1f-4851-9477-df46ffd9f87a" x="168.99" y="205.63" width="10.9" height="9.86"/><rect class="f522416f-bc1f-4851-9477-df46ffd9f87a" x="179.89" y="205.63" width="10.9" height="9.86"/><rect class="f522416f-bc1f-4851-9477-df46ffd9f87a" x="179.89" y="205.63" width="10.9" height="9.86"/><rect class="f522416f-bc1f-4851-9477-df46ffd9f87a" x="212.61" y="205.63" width="10.9" height="9.86"/><rect class="f522416f-bc1f-4851-9477-df46ffd9f87a" x="212.61" y="205.63" width="10.9" height="9.86"/><rect class="f522416f-bc1f-4851-9477-df46ffd9f87a" x="223.51" y="205.63" width="10.9" height="9.86"/><rect class="f522416f-bc1f-4851-9477-df46ffd9f87a" x="223.51" y="205.63" width="10.9" height="9.86"/><rect class="f522416f-bc1f-4851-9477-df46ffd9f87a" x="245.32" y="205.63" width="10.9" height="9.86"/><rect class="f522416f-bc1f-4851-9477-df46ffd9f87a" x="245.32" y="205.63" width="10.9" height="9.86"/><rect class="f522416f-bc1f-4851-9477-df46ffd9f87a" x="190.8" y="205.63" width="10.9" height="9.86"/><rect class="f522416f-bc1f-4851-9477-df46ffd9f87a" x="190.8" y="205.63" width="10.9" height="9.86"/><rect class="f522416f-bc1f-4851-9477-df46ffd9f87a" x="201.7" y="205.63" width="10.9" height="9.86"/><rect class="f522416f-bc1f-4851-9477-df46ffd9f87a" x="201.7" y="205.63" width="10.9" height="9.86"/><rect class="f522416f-bc1f-4851-9477-df46ffd9f87a" x="147.18" y="215.5" width="10.9" height="9.86"/><rect class="f522416f-bc1f-4851-9477-df46ffd9f87a" x="147.18" y="215.5" width="10.9" height="9.86"/><rect class="f522416f-bc1f-4851-9477-df46ffd9f87a" x="158.08" y="215.5" width="10.9" height="9.86"/><rect class="f522416f-bc1f-4851-9477-df46ffd9f87a" x="158.08" y="215.5" width="10.9" height="9.86"/><rect class="f522416f-bc1f-4851-9477-df46ffd9f87a" x="168.99" y="215.5" width="10.9" height="9.86"/><rect class="f522416f-bc1f-4851-9477-df46ffd9f87a" x="168.99" y="215.5" width="10.9" height="9.86"/><rect class="f522416f-bc1f-4851-9477-df46ffd9f87a" x="179.89" y="215.5" width="10.9" height="9.86"/><rect class="f522416f-bc1f-4851-9477-df46ffd9f87a" x="179.89" y="215.5" width="10.9" height="9.86"/><rect class="f522416f-bc1f-4851-9477-df46ffd9f87a" x="212.61" y="215.5" width="10.9" height="9.86"/><rect class="f522416f-bc1f-4851-9477-df46ffd9f87a" x="212.61" y="215.5" width="10.9" height="9.86"/><rect class="f522416f-bc1f-4851-9477-df46ffd9f87a" x="223.51" y="215.5" width="10.9" height="9.86"/><rect class="f522416f-bc1f-4851-9477-df46ffd9f87a" x="223.51" y="215.5" width="10.9" height="9.86"/><rect class="f522416f-bc1f-4851-9477-df46ffd9f87a" x="245.32" y="215.5" width="10.9" height="9.86"/><rect class="f522416f-bc1f-4851-9477-df46ffd9f87a" x="245.32" y="215.5" width="10.9" height="9.86"/><rect class="f522416f-bc1f-4851-9477-df46ffd9f87a" x="190.8" y="215.5" width="10.9" height="9.86"/><rect class="f522416f-bc1f-4851-9477-df46ffd9f87a" x="190.8" y="215.5" width="10.9" height="9.86"/><rect class="f522416f-bc1f-4851-9477-df46ffd9f87a" x="201.7" y="215.5" width="10.9" height="9.86"/><rect class="f522416f-bc1f-4851-9477-df46ffd9f87a" x="201.7" y="215.5" width="10.9" height="9.86"/><rect class="f522416f-bc1f-4851-9477-df46ffd9f87a" x="147.18" y="225.36" width="10.9" height="9.86"/><rect class="f522416f-bc1f-4851-9477-df46ffd9f87a" x="147.18" y="225.36" width="10.9" height="9.86"/><rect class="f522416f-bc1f-4851-9477-df46ffd9f87a" x="158.08" y="225.36" width="10.9" height="9.86"/><rect class="f522416f-bc1f-4851-9477-df46ffd9f87a" x="158.08" y="225.36" width="10.9" height="9.86"/><rect class="f522416f-bc1f-4851-9477-df46ffd9f87a" x="168.99" y="225.36" width="10.9" height="9.86"/><rect class="f522416f-bc1f-4851-9477-df46ffd9f87a" x="168.99" y="225.36" width="10.9" height="9.86"/><rect class="f522416f-bc1f-4851-9477-df46ffd9f87a" x="179.89" y="225.36" width="10.9" height="9.86"/><rect class="f522416f-bc1f-4851-9477-df46ffd9f87a" x="179.89" y="225.36" width="10.9" height="9.86"/><rect class="f522416f-bc1f-4851-9477-df46ffd9f87a" x="212.61" y="225.36" width="10.9" height="9.86"/><rect class="f522416f-bc1f-4851-9477-df46ffd9f87a" x="212.61" y="225.36" width="10.9" height="9.86"/><rect class="f522416f-bc1f-4851-9477-df46ffd9f87a" x="223.51" y="225.36" width="10.9" height="9.86"/><rect class="f522416f-bc1f-4851-9477-df46ffd9f87a" x="223.51" y="225.36" width="10.9" height="9.86"/><rect class="f522416f-bc1f-4851-9477-df46ffd9f87a" x="245.32" y="225.36" width="10.9" height="9.86"/><rect class="f522416f-bc1f-4851-9477-df46ffd9f87a" x="245.32" y="225.36" width="10.9" height="9.86"/><rect class="f522416f-bc1f-4851-9477-df46ffd9f87a" x="190.8" y="225.36" width="10.9" height="9.86"/><rect class="f522416f-bc1f-4851-9477-df46ffd9f87a" x="190.8" y="225.36" width="10.9" height="9.86"/><rect class="f522416f-bc1f-4851-9477-df46ffd9f87a" x="201.7" y="225.36" width="10.9" height="9.86"/><rect class="f522416f-bc1f-4851-9477-df46ffd9f87a" x="201.7" y="225.36" width="10.9" height="9.86"/><rect class="f522416f-bc1f-4851-9477-df46ffd9f87a" x="147.18" y="235.22" width="10.9" height="9.86"/><rect class="f522416f-bc1f-4851-9477-df46ffd9f87a" x="147.18" y="235.22" width="10.9" height="9.86"/><rect class="f522416f-bc1f-4851-9477-df46ffd9f87a" x="158.08" y="235.22" width="10.9" height="9.86"/><rect class="f522416f-bc1f-4851-9477-df46ffd9f87a" x="158.08" y="235.22" width="10.9" height="9.86"/><rect class="f522416f-bc1f-4851-9477-df46ffd9f87a" x="168.99" y="235.22" width="10.9" height="9.86"/><rect class="f522416f-bc1f-4851-9477-df46ffd9f87a" x="168.99" y="235.22" width="10.9" height="9.86"/><rect class="f522416f-bc1f-4851-9477-df46ffd9f87a" x="179.89" y="235.22" width="10.9" height="9.86"/><rect class="f522416f-bc1f-4851-9477-df46ffd9f87a" x="179.89" y="235.22" width="10.9" height="9.86"/><rect class="f522416f-bc1f-4851-9477-df46ffd9f87a" x="212.61" y="235.22" width="10.9" height="9.86"/><rect class="f522416f-bc1f-4851-9477-df46ffd9f87a" x="212.61" y="235.22" width="10.9" height="9.86"/><rect class="f522416f-bc1f-4851-9477-df46ffd9f87a" x="223.51" y="235.22" width="10.9" height="9.86"/><rect class="f522416f-bc1f-4851-9477-df46ffd9f87a" x="223.51" y="235.22" width="10.9" height="9.86"/><rect class="f522416f-bc1f-4851-9477-df46ffd9f87a" x="245.32" y="235.22" width="10.9" height="9.86"/><rect class="f522416f-bc1f-4851-9477-df46ffd9f87a" x="245.32" y="235.22" width="10.9" height="9.86"/><rect class="8f8240b6-dcdd-40ec-842f-e215eb42ff9f" x="234.41" y="146.45" width="10.9" height="9.86"/><rect class="8f8240b6-dcdd-40ec-842f-e215eb42ff9f" x="234.41" y="146.45" width="10.9" height="9.86"/><rect class="8f8240b6-dcdd-40ec-842f-e215eb42ff9f" x="234.41" y="156.32" width="10.9" height="9.86"/><rect class="8f8240b6-dcdd-40ec-842f-e215eb42ff9f" x="234.41" y="156.32" width="10.9" height="9.86"/><rect class="8f8240b6-dcdd-40ec-842f-e215eb42ff9f" x="234.41" y="166.18" width="10.9" height="9.86"/><rect class="8f8240b6-dcdd-40ec-842f-e215eb42ff9f" x="234.41" y="166.18" width="10.9" height="9.86"/><rect class="8f8240b6-dcdd-40ec-842f-e215eb42ff9f" x="234.41" y="175.95" width="10.9" height="9.86" transform="translate(-1.48 1.98) rotate(-0.47)"/><rect class="8f8240b6-dcdd-40ec-842f-e215eb42ff9f" x="234.41" y="175.95" width="10.9" height="9.86" transform="translate(-1.48 1.98) rotate(-0.47)"/><rect class="f522416f-bc1f-4851-9477-df46ffd9f87a" x="234.41" y="185.91" width="10.9" height="9.86"/><rect class="f522416f-bc1f-4851-9477-df46ffd9f87a" x="234.41" y="185.91" width="10.9" height="9.86"/><rect class="f522416f-bc1f-4851-9477-df46ffd9f87a" x="234.41" y="195.77" width="10.9" height="9.86"/><rect class="f522416f-bc1f-4851-9477-df46ffd9f87a" x="234.41" y="195.77" width="10.9" height="9.86"/><rect class="f522416f-bc1f-4851-9477-df46ffd9f87a" x="234.41" y="205.63" width="10.9" height="9.86"/><rect class="f522416f-bc1f-4851-9477-df46ffd9f87a" x="234.41" y="205.63" width="10.9" height="9.86"/><rect class="f522416f-bc1f-4851-9477-df46ffd9f87a" x="234.41" y="215.5" width="10.9" height="9.86"/><rect class="f522416f-bc1f-4851-9477-df46ffd9f87a" x="234.41" y="215.5" width="10.9" height="9.86"/><rect class="f522416f-bc1f-4851-9477-df46ffd9f87a" x="234.41" y="225.36" width="10.9" height="9.86"/><rect class="f522416f-bc1f-4851-9477-df46ffd9f87a" x="234.41" y="225.36" width="10.9" height="9.86"/><rect class="f522416f-bc1f-4851-9477-df46ffd9f87a" x="234.41" y="235.22" width="10.9" height="9.86"/><rect class="f522416f-bc1f-4851-9477-df46ffd9f87a" x="234.41" y="235.22" width="10.9" height="9.86"/><rect class="f522416f-bc1f-4851-9477-df46ffd9f87a" x="190.8" y="235.22" width="10.9" height="9.86"/><rect class="f522416f-bc1f-4851-9477-df46ffd9f87a" x="190.8" y="235.22" width="10.9" height="9.86"/><rect class="f522416f-bc1f-4851-9477-df46ffd9f87a" x="201.7" y="235.22" width="10.9" height="9.86"/><rect class="f522416f-bc1f-4851-9477-df46ffd9f87a" x="201.7" y="235.22" width="10.9" height="9.86"/><polygon class="93ce30d8-9b03-4a7b-bb22-217c8343bc7f" points="255.29 145.46 147.42 145.6 201.27 95.8 255.29 145.46"/></svg>