<svg id="301b6dca-ce5e-4f18-ac22-677114a88af7" data-name="Fondo" xmlns="http://www.w3.org/2000/svg" viewBox="0 0 300 400"><defs><style>.\30 c1e3c6a-23b4-420f-b242-11439a21cb28{fill:#d6eddc;stroke:#fff;stroke-width:1.46px;}.\30 c1e3c6a-23b4-420f-b242-11439a21cb28,.\32 306963b-cb81-4423-b5f1-1eecfba8f5c6,.\32 696b0ab-89b2-4ce5-af24-019ec9f3a0c3,.\35 01adcc6-bd58-4ef7-9876-4d784db084f0,.\37 bfdbb51-7888-4b73-b65a-32b6ec20f751,.ffafaa9e-affb-4886-be63-df0fa1cc6538{stroke-miterlimit:10;}.f8dce3be-da32-4788-8821-ecd4d0faa2d0{font-size:50.86px;}.\31 ffb3938-6fc2-43a5-8733-8eb9af9514b0,.b8c0b351-0198-45b7-936e-0736b2b6e753,.f8dce3be-da32-4788-8821-ecd4d0faa2d0{font-family:Myriad Pro;font-weight:700;}.\31 ffb3938-6fc2-43a5-8733-8eb9af9514b0{font-size:18px;fill:#232323;}.\32 696b0ab-89b2-4ce5-af24-019ec9f3a0c3{fill:#ff9231;}.\32 306963b-cb81-4423-b5f1-1eecfba8f5c6,.\32 696b0ab-89b2-4ce5-af24-019ec9f3a0c3,.\37 bfdbb51-7888-4b73-b65a-32b6ec20f751{stroke:#000;}.\32 306963b-cb81-4423-b5f1-1eecfba8f5c6,.\32 696b0ab-89b2-4ce5-af24-019ec9f3a0c3,.\37 bfdbb51-7888-4b73-b65a-32b6ec20f751,.ffafaa9e-affb-4886-be63-df0fa1cc6538{stroke-width:0.31px;}.\35 01adcc6-bd58-4ef7-9876-4d784db084f0{fill:#9fa09f;stroke:#1d1d1b;stroke-width:0.38px;}.\37 bfdbb51-7888-4b73-b65a-32b6ec20f751{fill:#ff6c49;}.\32 306963b-cb81-4423-b5f1-1eecfba8f5c6{fill:#8e4713;}.ffafaa9e-affb-4886-be63-df0fa1cc6538{stroke:#020202;}.b8c0b351-0198-45b7-936e-0736b2b6e753{font-size:50.9px;fill:#118c97;}</style></defs><title>Catástrofes </title><rect class="0c1e3c6a-23b4-420f-b242-11439a21cb28" x="0.54" y="1" width="300" height="400"/><text class="f8dce3be-da32-4788-8821-ecd4d0faa2d0" transform="translate(27.01 68.01) scale(0.91 1)">Huechu<tspan x="170.24" y="0">r</tspan><tspan x="187.89" y="0">aba</tspan></text><text class="1ffb3938-6fc2-43a5-8733-8eb9af9514b0" transform="translate(49.12 155.23) rotate(0.29) scale(0.9 1)">T<tspan x="9.45" y="0">i</tspan><tspan x="14.38" y="0">p</tspan><tspan x="25.2" y="0">o de </tspan></text><text class="1ffb3938-6fc2-43a5-8733-8eb9af9514b0" transform="translate(49.14 177.13) rotate(-0.14) scale(0.9 1)">V<tspan x="10.96" y="0">ivienda</tspan></text><text class="1ffb3938-6fc2-43a5-8733-8eb9af9514b0" transform="matrix(0.9, 0.01, -0.01, 1, 109.06, 287.23)">C<tspan x="10.53" y="0">a</tspan><tspan x="19.89" y="0">tást</tspan><tspan x="50.42" y="0">r</tspan><tspan x="57.11" y="0">o</tspan><tspan x="67.5" y="0">f</tspan><tspan x="73.46" y="0">es</tspan></text><rect class="2696b0ab-89b2-4ce5-af24-019ec9f3a0c3" x="142.18" y="141.15" width="10.62" height="9.61"/><rect class="2696b0ab-89b2-4ce5-af24-019ec9f3a0c3" x="152.8" y="141.15" width="10.62" height="9.61"/><rect class="2696b0ab-89b2-4ce5-af24-019ec9f3a0c3" x="189.98" y="148.54" width="10.62" height="9.61" rx="4.8" ry="4.8"/><rect class="2696b0ab-89b2-4ce5-af24-019ec9f3a0c3" x="163.43" y="141.15" width="10.62" height="9.61"/><rect class="2696b0ab-89b2-4ce5-af24-019ec9f3a0c3" x="163.43" y="141.15" width="10.62" height="9.61"/><rect class="2696b0ab-89b2-4ce5-af24-019ec9f3a0c3" x="174.05" y="141.15" width="10.62" height="9.61"/><rect class="2696b0ab-89b2-4ce5-af24-019ec9f3a0c3" x="174.05" y="141.15" width="10.62" height="9.61"/><rect class="2696b0ab-89b2-4ce5-af24-019ec9f3a0c3" x="205.92" y="141.15" width="10.62" height="9.61"/><rect class="2696b0ab-89b2-4ce5-af24-019ec9f3a0c3" x="205.92" y="141.15" width="10.62" height="9.61"/><rect class="2696b0ab-89b2-4ce5-af24-019ec9f3a0c3" x="216.54" y="141.15" width="10.62" height="9.61"/><rect class="2696b0ab-89b2-4ce5-af24-019ec9f3a0c3" x="216.54" y="141.15" width="10.62" height="9.61"/><rect class="2696b0ab-89b2-4ce5-af24-019ec9f3a0c3" x="237.79" y="141.15" width="10.62" height="9.61"/><rect class="2696b0ab-89b2-4ce5-af24-019ec9f3a0c3" x="237.79" y="141.15" width="10.62" height="9.61"/><rect class="2696b0ab-89b2-4ce5-af24-019ec9f3a0c3" x="184.67" y="141.15" width="10.62" height="9.61"/><rect class="2696b0ab-89b2-4ce5-af24-019ec9f3a0c3" x="184.67" y="141.15" width="10.62" height="9.61"/><rect class="2696b0ab-89b2-4ce5-af24-019ec9f3a0c3" x="195.29" y="141.15" width="10.62" height="9.61"/><rect class="2696b0ab-89b2-4ce5-af24-019ec9f3a0c3" x="195.29" y="141.15" width="10.62" height="9.61"/><rect class="2696b0ab-89b2-4ce5-af24-019ec9f3a0c3" x="142.18" y="150.76" width="10.62" height="9.61"/><rect class="2696b0ab-89b2-4ce5-af24-019ec9f3a0c3" x="142.18" y="150.76" width="10.62" height="9.61"/><rect class="2696b0ab-89b2-4ce5-af24-019ec9f3a0c3" x="152.8" y="150.76" width="10.62" height="9.61"/><rect class="2696b0ab-89b2-4ce5-af24-019ec9f3a0c3" x="152.8" y="150.76" width="10.62" height="9.61"/><rect class="2696b0ab-89b2-4ce5-af24-019ec9f3a0c3" x="163.43" y="150.76" width="10.62" height="9.61"/><rect class="2696b0ab-89b2-4ce5-af24-019ec9f3a0c3" x="163.43" y="150.76" width="10.62" height="9.61"/><rect class="2696b0ab-89b2-4ce5-af24-019ec9f3a0c3" x="174.05" y="150.76" width="10.62" height="9.61"/><rect class="2696b0ab-89b2-4ce5-af24-019ec9f3a0c3" x="174.05" y="150.76" width="10.62" height="9.61"/><rect class="2696b0ab-89b2-4ce5-af24-019ec9f3a0c3" x="205.92" y="150.76" width="10.62" height="9.61"/><rect class="2696b0ab-89b2-4ce5-af24-019ec9f3a0c3" x="205.92" y="150.76" width="10.62" height="9.61"/><rect class="2696b0ab-89b2-4ce5-af24-019ec9f3a0c3" x="216.54" y="150.76" width="10.62" height="9.61"/><rect class="2696b0ab-89b2-4ce5-af24-019ec9f3a0c3" x="216.54" y="150.76" width="10.62" height="9.61"/><rect class="2696b0ab-89b2-4ce5-af24-019ec9f3a0c3" x="237.79" y="150.76" width="10.62" height="9.61"/><rect class="2696b0ab-89b2-4ce5-af24-019ec9f3a0c3" x="237.79" y="150.76" width="10.62" height="9.61"/><rect class="2696b0ab-89b2-4ce5-af24-019ec9f3a0c3" x="184.67" y="150.76" width="10.62" height="9.61"/><rect class="2696b0ab-89b2-4ce5-af24-019ec9f3a0c3" x="184.67" y="150.76" width="10.62" height="9.61"/><rect class="2696b0ab-89b2-4ce5-af24-019ec9f3a0c3" x="195.29" y="150.76" width="10.62" height="9.61"/><rect class="2696b0ab-89b2-4ce5-af24-019ec9f3a0c3" x="142.18" y="160.36" width="10.62" height="9.61"/><rect class="2696b0ab-89b2-4ce5-af24-019ec9f3a0c3" x="142.18" y="160.36" width="10.62" height="9.61"/><rect class="2696b0ab-89b2-4ce5-af24-019ec9f3a0c3" x="152.8" y="160.36" width="10.62" height="9.61"/><rect class="2696b0ab-89b2-4ce5-af24-019ec9f3a0c3" x="152.8" y="160.36" width="10.62" height="9.61"/><rect class="2696b0ab-89b2-4ce5-af24-019ec9f3a0c3" x="163.43" y="160.36" width="10.62" height="9.61"/><rect class="2696b0ab-89b2-4ce5-af24-019ec9f3a0c3" x="163.43" y="160.36" width="10.62" height="9.61"/><rect class="2696b0ab-89b2-4ce5-af24-019ec9f3a0c3" x="174.05" y="160.36" width="10.62" height="9.61"/><rect class="2696b0ab-89b2-4ce5-af24-019ec9f3a0c3" x="174.05" y="160.36" width="10.62" height="9.61"/><rect class="2696b0ab-89b2-4ce5-af24-019ec9f3a0c3" x="205.92" y="160.36" width="10.62" height="9.61"/><rect class="2696b0ab-89b2-4ce5-af24-019ec9f3a0c3" x="205.92" y="160.36" width="10.62" height="9.61"/><rect class="2696b0ab-89b2-4ce5-af24-019ec9f3a0c3" x="216.54" y="160.36" width="10.62" height="9.61"/><rect class="2696b0ab-89b2-4ce5-af24-019ec9f3a0c3" x="216.54" y="160.36" width="10.62" height="9.61"/><rect class="2696b0ab-89b2-4ce5-af24-019ec9f3a0c3" x="237.79" y="160.36" width="10.62" height="9.61"/><rect class="2696b0ab-89b2-4ce5-af24-019ec9f3a0c3" x="237.79" y="160.36" width="10.62" height="9.61"/><rect class="2696b0ab-89b2-4ce5-af24-019ec9f3a0c3" x="184.67" y="160.36" width="10.62" height="9.61"/><rect class="2696b0ab-89b2-4ce5-af24-019ec9f3a0c3" x="184.67" y="160.36" width="10.62" height="9.61"/><rect class="2696b0ab-89b2-4ce5-af24-019ec9f3a0c3" x="195.29" y="160.36" width="10.62" height="9.61"/><rect class="2696b0ab-89b2-4ce5-af24-019ec9f3a0c3" x="195.29" y="160.36" width="10.62" height="9.61"/><rect class="2696b0ab-89b2-4ce5-af24-019ec9f3a0c3" x="142.18" y="169.97" width="10.62" height="9.61"/><rect class="2696b0ab-89b2-4ce5-af24-019ec9f3a0c3" x="142.18" y="169.97" width="10.62" height="9.61"/><rect class="2696b0ab-89b2-4ce5-af24-019ec9f3a0c3" x="152.8" y="169.97" width="10.62" height="9.61"/><rect class="2696b0ab-89b2-4ce5-af24-019ec9f3a0c3" x="152.8" y="169.97" width="10.62" height="9.61"/><rect class="2696b0ab-89b2-4ce5-af24-019ec9f3a0c3" x="163.43" y="169.97" width="10.62" height="9.61"/><rect class="2696b0ab-89b2-4ce5-af24-019ec9f3a0c3" x="163.43" y="169.97" width="10.62" height="9.61"/><rect class="2696b0ab-89b2-4ce5-af24-019ec9f3a0c3" x="174.05" y="169.97" width="10.62" height="9.61"/><rect class="2696b0ab-89b2-4ce5-af24-019ec9f3a0c3" x="174.05" y="169.97" width="10.62" height="9.61"/><rect class="2696b0ab-89b2-4ce5-af24-019ec9f3a0c3" x="205.92" y="169.97" width="10.62" height="9.61"/><rect class="2696b0ab-89b2-4ce5-af24-019ec9f3a0c3" x="205.92" y="169.97" width="10.62" height="9.61"/><rect class="2696b0ab-89b2-4ce5-af24-019ec9f3a0c3" x="216.54" y="169.97" width="10.62" height="9.61"/><rect class="2696b0ab-89b2-4ce5-af24-019ec9f3a0c3" x="216.54" y="169.97" width="10.62" height="9.61"/><rect class="2696b0ab-89b2-4ce5-af24-019ec9f3a0c3" x="237.79" y="169.97" width="10.62" height="9.61"/><rect class="2696b0ab-89b2-4ce5-af24-019ec9f3a0c3" x="237.79" y="169.97" width="10.62" height="9.61"/><rect class="2696b0ab-89b2-4ce5-af24-019ec9f3a0c3" x="184.67" y="169.97" width="10.62" height="9.61"/><rect class="2696b0ab-89b2-4ce5-af24-019ec9f3a0c3" x="184.67" y="169.97" width="10.62" height="9.61"/><rect class="2696b0ab-89b2-4ce5-af24-019ec9f3a0c3" x="195.29" y="169.97" width="10.62" height="9.61"/><rect class="2696b0ab-89b2-4ce5-af24-019ec9f3a0c3" x="195.29" y="169.97" width="10.62" height="9.61"/><rect class="501adcc6-bd58-4ef7-9876-4d784db084f0" x="142.18" y="179.58" width="10.62" height="9.61"/><rect class="501adcc6-bd58-4ef7-9876-4d784db084f0" x="142.18" y="179.58" width="10.62" height="9.61"/><rect class="501adcc6-bd58-4ef7-9876-4d784db084f0" x="152.8" y="179.58" width="10.62" height="9.61"/><rect class="501adcc6-bd58-4ef7-9876-4d784db084f0" x="152.8" y="179.58" width="10.62" height="9.61"/><rect class="501adcc6-bd58-4ef7-9876-4d784db084f0" x="163.43" y="179.58" width="10.62" height="9.61"/><rect class="501adcc6-bd58-4ef7-9876-4d784db084f0" x="163.43" y="179.58" width="10.62" height="9.61"/><rect class="501adcc6-bd58-4ef7-9876-4d784db084f0" x="174.05" y="179.58" width="10.62" height="9.61"/><rect class="501adcc6-bd58-4ef7-9876-4d784db084f0" x="174.05" y="179.58" width="10.62" height="9.61"/><rect class="2696b0ab-89b2-4ce5-af24-019ec9f3a0c3" x="205.92" y="179.58" width="10.62" height="9.61"/><rect class="2696b0ab-89b2-4ce5-af24-019ec9f3a0c3" x="205.92" y="179.58" width="10.62" height="9.61"/><rect class="2696b0ab-89b2-4ce5-af24-019ec9f3a0c3" x="216.54" y="179.58" width="10.62" height="9.61"/><rect class="2696b0ab-89b2-4ce5-af24-019ec9f3a0c3" x="216.54" y="179.58" width="10.62" height="9.61"/><rect class="2696b0ab-89b2-4ce5-af24-019ec9f3a0c3" x="237.79" y="179.58" width="10.62" height="9.61"/><rect class="2696b0ab-89b2-4ce5-af24-019ec9f3a0c3" x="237.79" y="179.58" width="10.62" height="9.61"/><rect class="7bfdbb51-7888-4b73-b65a-32b6ec20f751" x="184.67" y="179.58" width="10.62" height="9.61"/><rect class="2306963b-cb81-4423-b5f1-1eecfba8f5c6" x="184.67" y="179.58" width="10.62" height="9.61"/><rect class="2696b0ab-89b2-4ce5-af24-019ec9f3a0c3" x="195.29" y="179.58" width="10.62" height="9.61"/><rect class="2696b0ab-89b2-4ce5-af24-019ec9f3a0c3" x="195.29" y="179.58" width="10.62" height="9.61"/><rect class="7bfdbb51-7888-4b73-b65a-32b6ec20f751" x="142.18" y="189.19" width="10.62" height="9.61"/><rect class="7bfdbb51-7888-4b73-b65a-32b6ec20f751" x="142.18" y="189.19" width="10.62" height="9.61"/><rect class="7bfdbb51-7888-4b73-b65a-32b6ec20f751" x="152.8" y="189.19" width="10.62" height="9.61"/><rect class="7bfdbb51-7888-4b73-b65a-32b6ec20f751" x="152.8" y="189.19" width="10.62" height="9.61"/><rect class="7bfdbb51-7888-4b73-b65a-32b6ec20f751" x="163.43" y="189.19" width="10.62" height="9.61"/><rect class="7bfdbb51-7888-4b73-b65a-32b6ec20f751" x="163.43" y="189.19" width="10.62" height="9.61"/><rect class="7bfdbb51-7888-4b73-b65a-32b6ec20f751" x="174.05" y="189.19" width="10.62" height="9.61"/><rect class="7bfdbb51-7888-4b73-b65a-32b6ec20f751" x="174.05" y="189.19" width="10.62" height="9.61"/><rect class="7bfdbb51-7888-4b73-b65a-32b6ec20f751" x="205.92" y="189.19" width="10.62" height="9.61"/><rect class="7bfdbb51-7888-4b73-b65a-32b6ec20f751" x="205.92" y="189.19" width="10.62" height="9.61"/><rect class="7bfdbb51-7888-4b73-b65a-32b6ec20f751" x="216.54" y="189.19" width="10.62" height="9.61"/><rect class="7bfdbb51-7888-4b73-b65a-32b6ec20f751" x="216.54" y="189.19" width="10.62" height="9.61"/><rect class="7bfdbb51-7888-4b73-b65a-32b6ec20f751" x="237.79" y="189.19" width="10.62" height="9.61"/><rect class="7bfdbb51-7888-4b73-b65a-32b6ec20f751" x="237.79" y="189.19" width="10.62" height="9.61"/><rect class="7bfdbb51-7888-4b73-b65a-32b6ec20f751" x="184.67" y="189.19" width="10.62" height="9.61"/><rect class="7bfdbb51-7888-4b73-b65a-32b6ec20f751" x="184.67" y="189.19" width="10.62" height="9.61"/><rect class="7bfdbb51-7888-4b73-b65a-32b6ec20f751" x="195.29" y="189.19" width="10.62" height="9.61"/><rect class="7bfdbb51-7888-4b73-b65a-32b6ec20f751" x="195.29" y="189.19" width="10.62" height="9.61"/><rect class="7bfdbb51-7888-4b73-b65a-32b6ec20f751" x="142.18" y="198.8" width="10.62" height="9.61"/><rect class="7bfdbb51-7888-4b73-b65a-32b6ec20f751" x="142.18" y="198.8" width="10.62" height="9.61"/><rect class="7bfdbb51-7888-4b73-b65a-32b6ec20f751" x="152.8" y="198.8" width="10.62" height="9.61"/><rect class="7bfdbb51-7888-4b73-b65a-32b6ec20f751" x="152.8" y="198.8" width="10.62" height="9.61"/><rect class="7bfdbb51-7888-4b73-b65a-32b6ec20f751" x="163.43" y="198.8" width="10.62" height="9.61"/><rect class="7bfdbb51-7888-4b73-b65a-32b6ec20f751" x="163.43" y="198.8" width="10.62" height="9.61"/><rect class="7bfdbb51-7888-4b73-b65a-32b6ec20f751" x="174.05" y="198.8" width="10.62" height="9.61"/><rect class="7bfdbb51-7888-4b73-b65a-32b6ec20f751" x="174.05" y="198.8" width="10.62" height="9.61"/><rect class="7bfdbb51-7888-4b73-b65a-32b6ec20f751" x="205.92" y="198.8" width="10.62" height="9.61"/><rect class="7bfdbb51-7888-4b73-b65a-32b6ec20f751" x="205.92" y="198.8" width="10.62" height="9.61"/><rect class="7bfdbb51-7888-4b73-b65a-32b6ec20f751" x="216.54" y="198.8" width="10.62" height="9.61"/><rect class="7bfdbb51-7888-4b73-b65a-32b6ec20f751" x="216.54" y="198.8" width="10.62" height="9.61"/><rect class="7bfdbb51-7888-4b73-b65a-32b6ec20f751" x="237.79" y="198.8" width="10.62" height="9.61"/><rect class="7bfdbb51-7888-4b73-b65a-32b6ec20f751" x="237.79" y="198.8" width="10.62" height="9.61"/><rect class="7bfdbb51-7888-4b73-b65a-32b6ec20f751" x="184.67" y="198.8" width="10.62" height="9.61"/><rect class="7bfdbb51-7888-4b73-b65a-32b6ec20f751" x="184.67" y="198.8" width="10.62" height="9.61"/><rect class="7bfdbb51-7888-4b73-b65a-32b6ec20f751" x="195.29" y="198.8" width="10.62" height="9.61"/><rect class="7bfdbb51-7888-4b73-b65a-32b6ec20f751" x="195.29" y="198.8" width="10.62" height="9.61"/><rect class="7bfdbb51-7888-4b73-b65a-32b6ec20f751" x="142.18" y="208.41" width="10.62" height="9.61"/><rect class="7bfdbb51-7888-4b73-b65a-32b6ec20f751" x="142.18" y="208.41" width="10.62" height="9.61"/><rect class="7bfdbb51-7888-4b73-b65a-32b6ec20f751" x="152.8" y="208.41" width="10.62" height="9.61"/><rect class="7bfdbb51-7888-4b73-b65a-32b6ec20f751" x="152.8" y="208.41" width="10.62" height="9.61"/><rect class="7bfdbb51-7888-4b73-b65a-32b6ec20f751" x="163.43" y="208.41" width="10.62" height="9.61"/><rect class="7bfdbb51-7888-4b73-b65a-32b6ec20f751" x="163.43" y="208.41" width="10.62" height="9.61"/><rect class="7bfdbb51-7888-4b73-b65a-32b6ec20f751" x="174.05" y="208.41" width="10.62" height="9.61"/><rect class="7bfdbb51-7888-4b73-b65a-32b6ec20f751" x="174.05" y="208.41" width="10.62" height="9.61"/><rect class="7bfdbb51-7888-4b73-b65a-32b6ec20f751" x="205.92" y="208.41" width="10.62" height="9.61"/><rect class="7bfdbb51-7888-4b73-b65a-32b6ec20f751" x="205.92" y="208.41" width="10.62" height="9.61"/><rect class="7bfdbb51-7888-4b73-b65a-32b6ec20f751" x="216.54" y="208.41" width="10.62" height="9.61"/><rect class="7bfdbb51-7888-4b73-b65a-32b6ec20f751" x="216.54" y="208.41" width="10.62" height="9.61"/><rect class="7bfdbb51-7888-4b73-b65a-32b6ec20f751" x="237.79" y="208.41" width="10.62" height="9.61"/><rect class="7bfdbb51-7888-4b73-b65a-32b6ec20f751" x="237.79" y="208.41" width="10.62" height="9.61"/><rect class="7bfdbb51-7888-4b73-b65a-32b6ec20f751" x="184.67" y="208.41" width="10.62" height="9.61"/><rect class="7bfdbb51-7888-4b73-b65a-32b6ec20f751" x="184.67" y="208.41" width="10.62" height="9.61"/><rect class="7bfdbb51-7888-4b73-b65a-32b6ec20f751" x="195.29" y="208.41" width="10.62" height="9.61"/><rect class="7bfdbb51-7888-4b73-b65a-32b6ec20f751" x="195.29" y="208.41" width="10.62" height="9.61"/><rect class="7bfdbb51-7888-4b73-b65a-32b6ec20f751" x="142.18" y="218.02" width="10.62" height="9.61"/><rect class="7bfdbb51-7888-4b73-b65a-32b6ec20f751" x="142.18" y="218.02" width="10.62" height="9.61"/><rect class="7bfdbb51-7888-4b73-b65a-32b6ec20f751" x="152.8" y="218.02" width="10.62" height="9.61"/><rect class="7bfdbb51-7888-4b73-b65a-32b6ec20f751" x="152.8" y="218.02" width="10.62" height="9.61"/><rect class="7bfdbb51-7888-4b73-b65a-32b6ec20f751" x="163.43" y="218.02" width="10.62" height="9.61"/><rect class="7bfdbb51-7888-4b73-b65a-32b6ec20f751" x="163.43" y="218.02" width="10.62" height="9.61"/><rect class="7bfdbb51-7888-4b73-b65a-32b6ec20f751" x="174.05" y="218.02" width="10.62" height="9.61"/><rect class="7bfdbb51-7888-4b73-b65a-32b6ec20f751" x="174.05" y="218.02" width="10.62" height="9.61"/><rect class="7bfdbb51-7888-4b73-b65a-32b6ec20f751" x="205.92" y="218.02" width="10.62" height="9.61"/><rect class="7bfdbb51-7888-4b73-b65a-32b6ec20f751" x="205.92" y="218.02" width="10.62" height="9.61"/><rect class="7bfdbb51-7888-4b73-b65a-32b6ec20f751" x="216.54" y="218.02" width="10.62" height="9.61"/><rect class="7bfdbb51-7888-4b73-b65a-32b6ec20f751" x="216.54" y="218.02" width="10.62" height="9.61"/><rect class="7bfdbb51-7888-4b73-b65a-32b6ec20f751" x="237.79" y="218.02" width="10.62" height="9.61"/><rect class="7bfdbb51-7888-4b73-b65a-32b6ec20f751" x="237.79" y="218.02" width="10.62" height="9.61"/><rect class="7bfdbb51-7888-4b73-b65a-32b6ec20f751" x="184.67" y="218.02" width="10.62" height="9.61"/><rect class="7bfdbb51-7888-4b73-b65a-32b6ec20f751" x="184.67" y="218.02" width="10.62" height="9.61"/><rect class="7bfdbb51-7888-4b73-b65a-32b6ec20f751" x="195.29" y="218.02" width="10.62" height="9.61"/><rect class="7bfdbb51-7888-4b73-b65a-32b6ec20f751" x="195.29" y="218.02" width="10.62" height="9.61"/><rect class="7bfdbb51-7888-4b73-b65a-32b6ec20f751" x="142.18" y="227.63" width="10.62" height="9.61"/><rect class="7bfdbb51-7888-4b73-b65a-32b6ec20f751" x="142.18" y="227.63" width="10.62" height="9.61"/><rect class="7bfdbb51-7888-4b73-b65a-32b6ec20f751" x="152.8" y="227.63" width="10.62" height="9.61"/><rect class="7bfdbb51-7888-4b73-b65a-32b6ec20f751" x="152.8" y="227.63" width="10.62" height="9.61"/><rect class="7bfdbb51-7888-4b73-b65a-32b6ec20f751" x="163.43" y="227.63" width="10.62" height="9.61"/><rect class="7bfdbb51-7888-4b73-b65a-32b6ec20f751" x="163.43" y="227.63" width="10.62" height="9.61"/><rect class="7bfdbb51-7888-4b73-b65a-32b6ec20f751" x="174.05" y="227.63" width="10.62" height="9.61"/><rect class="7bfdbb51-7888-4b73-b65a-32b6ec20f751" x="174.05" y="227.63" width="10.62" height="9.61"/><rect class="7bfdbb51-7888-4b73-b65a-32b6ec20f751" x="205.92" y="227.63" width="10.62" height="9.61"/><rect class="7bfdbb51-7888-4b73-b65a-32b6ec20f751" x="205.92" y="227.63" width="10.62" height="9.61"/><rect class="7bfdbb51-7888-4b73-b65a-32b6ec20f751" x="216.54" y="227.63" width="10.62" height="9.61"/><rect class="7bfdbb51-7888-4b73-b65a-32b6ec20f751" x="216.54" y="227.63" width="10.62" height="9.61"/><rect class="7bfdbb51-7888-4b73-b65a-32b6ec20f751" x="237.79" y="227.63" width="10.62" height="9.61"/><rect class="7bfdbb51-7888-4b73-b65a-32b6ec20f751" x="237.79" y="227.63" width="10.62" height="9.61"/><rect class="2696b0ab-89b2-4ce5-af24-019ec9f3a0c3" x="227.16" y="141.15" width="10.62" height="9.61"/><rect class="2696b0ab-89b2-4ce5-af24-019ec9f3a0c3" x="227.16" y="141.15" width="10.62" height="9.61"/><rect class="2696b0ab-89b2-4ce5-af24-019ec9f3a0c3" x="227.16" y="150.76" width="10.62" height="9.61"/><rect class="2696b0ab-89b2-4ce5-af24-019ec9f3a0c3" x="227.16" y="150.76" width="10.62" height="9.61"/><rect class="2696b0ab-89b2-4ce5-af24-019ec9f3a0c3" x="227.16" y="160.36" width="10.62" height="9.61"/><rect class="2696b0ab-89b2-4ce5-af24-019ec9f3a0c3" x="227.16" y="160.36" width="10.62" height="9.61"/><rect class="2696b0ab-89b2-4ce5-af24-019ec9f3a0c3" x="227.16" y="169.97" width="10.62" height="9.61"/><rect class="2696b0ab-89b2-4ce5-af24-019ec9f3a0c3" x="227.16" y="169.97" width="10.62" height="9.61"/><rect class="2696b0ab-89b2-4ce5-af24-019ec9f3a0c3" x="227.16" y="179.58" width="10.62" height="9.61"/><rect class="2696b0ab-89b2-4ce5-af24-019ec9f3a0c3" x="227.16" y="179.58" width="10.62" height="9.61"/><rect class="7bfdbb51-7888-4b73-b65a-32b6ec20f751" x="227.16" y="189.19" width="10.62" height="9.61"/><rect class="7bfdbb51-7888-4b73-b65a-32b6ec20f751" x="227.16" y="189.19" width="10.62" height="9.61"/><rect class="7bfdbb51-7888-4b73-b65a-32b6ec20f751" x="227.16" y="198.8" width="10.62" height="9.61"/><rect class="7bfdbb51-7888-4b73-b65a-32b6ec20f751" x="227.16" y="198.8" width="10.62" height="9.61"/><rect class="7bfdbb51-7888-4b73-b65a-32b6ec20f751" x="227.16" y="208.41" width="10.62" height="9.61"/><rect class="7bfdbb51-7888-4b73-b65a-32b6ec20f751" x="227.16" y="208.41" width="10.62" height="9.61"/><rect class="7bfdbb51-7888-4b73-b65a-32b6ec20f751" x="227.16" y="218.02" width="10.62" height="9.61"/><rect class="7bfdbb51-7888-4b73-b65a-32b6ec20f751" x="227.16" y="218.02" width="10.62" height="9.61"/><rect class="7bfdbb51-7888-4b73-b65a-32b6ec20f751" x="227.16" y="227.63" width="10.62" height="9.61"/><rect class="7bfdbb51-7888-4b73-b65a-32b6ec20f751" x="227.16" y="227.63" width="10.62" height="9.61"/><rect class="7bfdbb51-7888-4b73-b65a-32b6ec20f751" x="184.67" y="227.63" width="10.62" height="9.61"/><rect class="7bfdbb51-7888-4b73-b65a-32b6ec20f751" x="184.67" y="227.63" width="10.62" height="9.61"/><rect class="7bfdbb51-7888-4b73-b65a-32b6ec20f751" x="195.29" y="227.63" width="10.62" height="9.61"/><rect class="7bfdbb51-7888-4b73-b65a-32b6ec20f751" x="195.29" y="227.63" width="10.62" height="9.61"/><polygon class="ffafaa9e-affb-4886-be63-df0fa1cc6538" points="247.5 140.18 142.41 140.32 194.88 91.8 247.5 140.18"/><text class="b8c0b351-0198-45b7-936e-0736b2b6e753" transform="translate(143.36 347.51) scale(0.79 1)">19</text><polygon points="102.8 326.8 101.91 318.37 102.64 312.45 105.18 307.04 108.63 302.53 111.75 300.51 111.07 302.99 110.29 306.06 109.69 310.96 110.18 314.8 110.62 317.63 111.74 320.58 112.97 323.89 116.18 328.62 118.55 332.12 119.11 327.67 121.12 322.59 123.13 320.58 124.96 319.05 126 317.99 126 320.23 125.07 323.18 125.38 326.25 125.65 328.26 126.35 332.12 127.7 336.88 129.07 342.31 130 347.16 130 350.7 128.97 356.37 127.95 358.61 125.98 361.1 123.55 363.24 120.66 364.87 118.21 365.94 119.55 363.93 120.45 361.83 120.56 358.85 119.78 356.37 119 354.72 118.11 352.47 117.66 350.82 117.88 347.72 116.62 349.14 116 350.46 116 352.12 115.94 353.77 115.57 354.83 115.69 355.84 114.54 354.07 113.96 351.5 114.39 348.13 114.98 345.65 114.81 342.91 114.39 340.96 113.14 338.56 111.46 336.35 111.96 340.07 111.8 342.02 111.13 344.86 110.46 346.18 109.69 348.22 106.87 351.32 106 351.68 106 349.28 105.72 347.72 105.61 346.98 105.15 346.01 104.37 345.3 104.06 346.18 103.91 348.31 103.58 350.61 103.25 352.47 102.83 353.89 102.25 355.84 101.88 357.35 101.49 359.47 102.08 362.48 103 364.17 103.92 365.05 106.02 367 101.5 366.11 99.48 364.96 97.06 363.24 94.71 361.83 91.69 358.23 90 353.62 90 347.87 92.1 341.31 93.99 338.12 95.8 335.55 97 332.12 97 329.44 97 326.61 97 323.77 96.38 323.24 98.09 325.01 99.42 326.78 100.43 328.64 101.18 330.95 101.76 333.07 101.67 334.93 101.83 337.15 101.66 340.25 103.17 337.5 103.67 335.02 103.92 332.63 102.8 326.8"/></svg>