<svg id="ee9822c0-0fb5-4c44-b21b-e94be88b7088" data-name="Fondo" xmlns="http://www.w3.org/2000/svg" viewBox="0 0 300 400"><defs><style>.\31 1eb36c5-401b-4211-ba19-a63a126d5160{fill:#d6eddc;stroke:#fff;stroke-width:1.46px;}.\31 19d1da1-b2de-4773-a906-4d48dba42478,.\31 1eb36c5-401b-4211-ba19-a63a126d5160,.\33 a9056a5-bbbc-4481-ab64-247d3947d5ac,.\36 bed5697-6db5-475d-936e-8cfa3da33968,.\36 ea4761a-becc-4ea1-bec1-36978d718866,.a9b36309-3172-44e8-9e11-1b5e0fb3edfa,.ac6d86d2-ee7c-4d4b-a51c-25ffe1797236{stroke-miterlimit:10;}.\31 eb78339-d6db-4859-838b-ded72628a2b6{font-size:50.86px;}.\31 eb78339-d6db-4859-838b-ded72628a2b6,.\38 062e847-8404-4102-8c59-d02c995879c4,.e831ee07-16ed-4add-97c2-0a3856d9430d{font-family:Myriad Pro;font-weight:700;}.\38 062e847-8404-4102-8c59-d02c995879c4{font-size:18px;fill:#232323;}.e831ee07-16ed-4add-97c2-0a3856d9430d{font-size:39.55px;fill:#118c97;}.\31 19d1da1-b2de-4773-a906-4d48dba42478{fill:#9fa09f;}.\31 19d1da1-b2de-4773-a906-4d48dba42478,.\33 a9056a5-bbbc-4481-ab64-247d3947d5ac,.\36 ea4761a-becc-4ea1-bec1-36978d718866,.ac6d86d2-ee7c-4d4b-a51c-25ffe1797236{stroke:#000;}.\31 19d1da1-b2de-4773-a906-4d48dba42478,.\33 a9056a5-bbbc-4481-ab64-247d3947d5ac,.\36 bed5697-6db5-475d-936e-8cfa3da33968,.\36 ea4761a-becc-4ea1-bec1-36978d718866,.ac6d86d2-ee7c-4d4b-a51c-25ffe1797236{stroke-width:0.29px;}.\33 a9056a5-bbbc-4481-ab64-247d3947d5ac{fill:#ff9231;}.ac6d86d2-ee7c-4d4b-a51c-25ffe1797236{fill:#ff6c49;}.\36 ea4761a-becc-4ea1-bec1-36978d718866{fill:#8e4713;}.a9b36309-3172-44e8-9e11-1b5e0fb3edfa{fill:#931c0a;stroke:#1d1d1b;stroke-width:0.35px;}.\36 bed5697-6db5-475d-936e-8cfa3da33968{stroke:#020202;}</style></defs><title>Catástrofes </title><rect class="11eb36c5-401b-4211-ba19-a63a126d5160" x="0.54" width="300" height="400"/><text class="1eb78339-d6db-4859-838b-ded72628a2b6" transform="translate(14.6 75.01) scale(0.91 1)">L<tspan x="24.52" y="0">o </tspan><tspan x="63.73" y="0">B</tspan><tspan x="93.18" y="0">arnechea</tspan></text><text class="8062e847-8404-4102-8c59-d02c995879c4" transform="translate(50.19 161.64) rotate(0.37) scale(0.9 1)">T<tspan x="9.45" y="0">i</tspan><tspan x="14.38" y="0">p</tspan><tspan x="25.2" y="0">o de </tspan></text><text class="8062e847-8404-4102-8c59-d02c995879c4" transform="translate(50.2 183.33) rotate(0.27) scale(0.9 1)">V<tspan x="10.96" y="0">ivienda</tspan></text><text class="8062e847-8404-4102-8c59-d02c995879c4" transform="translate(110.08 295.51) rotate(-0.28) scale(0.9 1)">C<tspan x="10.53" y="0">a</tspan><tspan x="19.89" y="0">tást</tspan><tspan x="50.42" y="0">r</tspan><tspan x="57.11" y="0">o</tspan><tspan x="67.5" y="0">f</tspan><tspan x="73.46" y="0">es</tspan></text><text class="e831ee07-16ed-4add-97c2-0a3856d9430d" transform="translate(167.72 349.9) scale(0.88 1)">6</text><polygon points="131.14 332.93 130.37 326.39 131 321.79 133.21 317.58 136.22 314.08 138.93 312.51 138.34 314.44 137.66 316.82 137.14 320.63 137.56 323.61 137.95 325.81 138.93 328.11 140 330.68 142.79 334.35 144.85 337.07 145.34 333.61 147.09 329.67 148.84 328.11 150.26 326.92 151 326.09 151 327.83 150.36 330.13 150.72 332.51 150.99 334.07 151.62 337.07 152.81 340.77 154.1 344.99 155 348.76 155 351.51 154.01 355.91 153.08 357.66 151.35 359.58 149.22 361.25 146.7 362.52 144.56 363.35 145.73 361.79 146.51 360.15 146.6 357.84 145.92 355.91 145.24 354.63 144.47 352.88 144.08 351.6 144.27 349.19 143.36 350.3 143 351.32 143 352.61 142.76 353.89 142.35 354.72 142.41 355.5 141.38 354.12 140.87 352.13 141.24 349.51 141.75 347.59 141.6 345.45 141.23 343.94 140.14 342.08 138.68 340.36 139.12 343.25 138.97 344.76 138.39 346.97 137.81 348 137.14 349.58 134.72 351.99 134 352.27 134 350.41 133.72 349.19 133.61 348.62 133.19 347.86 132.51 347.31 132.24 348 132.11 349.65 131.82 351.44 131.53 352.88 131.17 353.99 130.66 355.5 130.34 356.67 130.01 358.32 130.52 360.66 131.32 361.97 132.12 362.66 133.94 364.17 130.01 363.49 128.26 362.59 126.14 361.25 124.1 360.15 121.47 357.36 120 353.78 120 349.31 121.83 344.21 123.48 341.74 125 339.74 126 337.07 126 334.99 126 332.79 126 330.58 125.5 330.17 127.02 331.55 128.18 332.93 129.08 334.37 129.73 336.16 130.23 337.81 130.16 339.26 130.3 340.98 130.15 343.39 131.47 341.25 131.9 339.33 132.12 337.47 131.14 332.93"/><rect class="119d1da1-b2de-4773-a906-4d48dba42478" x="134.18" y="147.89" width="9.77" height="9.17"/><rect class="119d1da1-b2de-4773-a906-4d48dba42478" x="143.95" y="147.89" width="9.77" height="9.17"/><rect class="3a9056a5-bbbc-4481-ab64-247d3947d5ac" x="178.14" y="154.94" width="9.77" height="9.17" rx="4.58" ry="4.58"/><rect class="119d1da1-b2de-4773-a906-4d48dba42478" x="153.72" y="147.89" width="9.77" height="9.17"/><rect class="119d1da1-b2de-4773-a906-4d48dba42478" x="153.72" y="147.89" width="9.77" height="9.17"/><rect class="119d1da1-b2de-4773-a906-4d48dba42478" x="163.48" y="147.89" width="9.77" height="9.17"/><rect class="119d1da1-b2de-4773-a906-4d48dba42478" x="163.48" y="147.89" width="9.77" height="9.17"/><rect class="3a9056a5-bbbc-4481-ab64-247d3947d5ac" x="192.79" y="147.89" width="9.77" height="9.17"/><rect class="3a9056a5-bbbc-4481-ab64-247d3947d5ac" x="192.79" y="147.89" width="9.77" height="9.17"/><rect class="3a9056a5-bbbc-4481-ab64-247d3947d5ac" x="202.56" y="147.89" width="9.77" height="9.17"/><rect class="3a9056a5-bbbc-4481-ab64-247d3947d5ac" x="202.56" y="147.89" width="9.77" height="9.17"/><rect class="3a9056a5-bbbc-4481-ab64-247d3947d5ac" x="222.09" y="147.89" width="9.77" height="9.17"/><rect class="3a9056a5-bbbc-4481-ab64-247d3947d5ac" x="222.09" y="147.89" width="9.77" height="9.17"/><rect class="119d1da1-b2de-4773-a906-4d48dba42478" x="173.25" y="147.89" width="9.77" height="9.17"/><rect class="119d1da1-b2de-4773-a906-4d48dba42478" x="173.25" y="147.89" width="9.77" height="9.17"/><rect class="3a9056a5-bbbc-4481-ab64-247d3947d5ac" x="183.02" y="147.89" width="9.77" height="9.17"/><rect class="3a9056a5-bbbc-4481-ab64-247d3947d5ac" x="183.02" y="147.89" width="9.77" height="9.17"/><rect class="119d1da1-b2de-4773-a906-4d48dba42478" x="134.18" y="157.06" width="9.77" height="9.17"/><rect class="119d1da1-b2de-4773-a906-4d48dba42478" x="134.18" y="157.06" width="9.77" height="9.17"/><rect class="119d1da1-b2de-4773-a906-4d48dba42478" x="143.95" y="157.06" width="9.77" height="9.17"/><rect class="119d1da1-b2de-4773-a906-4d48dba42478" x="143.95" y="157.06" width="9.77" height="9.17"/><rect class="119d1da1-b2de-4773-a906-4d48dba42478" x="153.72" y="157.06" width="9.77" height="9.17"/><rect class="119d1da1-b2de-4773-a906-4d48dba42478" x="153.72" y="157.06" width="9.77" height="9.17"/><rect class="119d1da1-b2de-4773-a906-4d48dba42478" x="163.48" y="157.06" width="9.77" height="9.17"/><rect class="119d1da1-b2de-4773-a906-4d48dba42478" x="163.48" y="157.06" width="9.77" height="9.17"/><rect class="3a9056a5-bbbc-4481-ab64-247d3947d5ac" x="192.79" y="157.06" width="9.77" height="9.17"/><rect class="3a9056a5-bbbc-4481-ab64-247d3947d5ac" x="192.79" y="157.06" width="9.77" height="9.17"/><rect class="3a9056a5-bbbc-4481-ab64-247d3947d5ac" x="202.56" y="157.06" width="9.77" height="9.17"/><rect class="3a9056a5-bbbc-4481-ab64-247d3947d5ac" x="202.56" y="157.06" width="9.77" height="9.17"/><rect class="3a9056a5-bbbc-4481-ab64-247d3947d5ac" x="222.09" y="157.06" width="9.77" height="9.17"/><rect class="3a9056a5-bbbc-4481-ab64-247d3947d5ac" x="222.09" y="157.06" width="9.77" height="9.17"/><rect class="119d1da1-b2de-4773-a906-4d48dba42478" x="173.25" y="157.06" width="9.77" height="9.17"/><rect class="119d1da1-b2de-4773-a906-4d48dba42478" x="173.25" y="157.06" width="9.77" height="9.17"/><rect class="3a9056a5-bbbc-4481-ab64-247d3947d5ac" x="183.02" y="157.06" width="9.77" height="9.17"/><rect class="119d1da1-b2de-4773-a906-4d48dba42478" x="134.18" y="166.23" width="9.77" height="9.17"/><rect class="119d1da1-b2de-4773-a906-4d48dba42478" x="134.18" y="166.23" width="9.77" height="9.17"/><rect class="119d1da1-b2de-4773-a906-4d48dba42478" x="143.95" y="166.23" width="9.77" height="9.17"/><rect class="119d1da1-b2de-4773-a906-4d48dba42478" x="143.95" y="166.23" width="9.77" height="9.17"/><rect class="119d1da1-b2de-4773-a906-4d48dba42478" x="153.72" y="166.23" width="9.77" height="9.17"/><rect class="119d1da1-b2de-4773-a906-4d48dba42478" x="153.72" y="166.23" width="9.77" height="9.17"/><rect class="119d1da1-b2de-4773-a906-4d48dba42478" x="163.48" y="166.23" width="9.77" height="9.17"/><rect class="119d1da1-b2de-4773-a906-4d48dba42478" x="163.48" y="166.23" width="9.77" height="9.17"/><rect class="3a9056a5-bbbc-4481-ab64-247d3947d5ac" x="192.79" y="166.23" width="9.77" height="9.17"/><rect class="3a9056a5-bbbc-4481-ab64-247d3947d5ac" x="192.79" y="166.23" width="9.77" height="9.17"/><rect class="3a9056a5-bbbc-4481-ab64-247d3947d5ac" x="202.56" y="166.23" width="9.77" height="9.17"/><rect class="3a9056a5-bbbc-4481-ab64-247d3947d5ac" x="202.56" y="166.23" width="9.77" height="9.17"/><rect class="3a9056a5-bbbc-4481-ab64-247d3947d5ac" x="222.09" y="166.23" width="9.77" height="9.17"/><rect class="3a9056a5-bbbc-4481-ab64-247d3947d5ac" x="222.09" y="166.23" width="9.77" height="9.17"/><rect class="119d1da1-b2de-4773-a906-4d48dba42478" x="173.25" y="166.23" width="9.77" height="9.17"/><rect class="119d1da1-b2de-4773-a906-4d48dba42478" x="173.25" y="166.23" width="9.77" height="9.17"/><rect class="3a9056a5-bbbc-4481-ab64-247d3947d5ac" x="183.02" y="166.23" width="9.77" height="9.17"/><rect class="3a9056a5-bbbc-4481-ab64-247d3947d5ac" x="183.02" y="166.23" width="9.77" height="9.17"/><rect class="119d1da1-b2de-4773-a906-4d48dba42478" x="134.18" y="175.39" width="9.77" height="9.17"/><rect class="119d1da1-b2de-4773-a906-4d48dba42478" x="134.18" y="175.39" width="9.77" height="9.17"/><rect class="119d1da1-b2de-4773-a906-4d48dba42478" x="143.95" y="175.39" width="9.77" height="9.17"/><rect class="119d1da1-b2de-4773-a906-4d48dba42478" x="143.95" y="175.39" width="9.77" height="9.17"/><rect class="119d1da1-b2de-4773-a906-4d48dba42478" x="153.72" y="175.39" width="9.77" height="9.17"/><rect class="119d1da1-b2de-4773-a906-4d48dba42478" x="153.72" y="175.39" width="9.77" height="9.17"/><rect class="119d1da1-b2de-4773-a906-4d48dba42478" x="163.48" y="175.39" width="9.77" height="9.17"/><rect class="119d1da1-b2de-4773-a906-4d48dba42478" x="163.48" y="175.39" width="9.77" height="9.17"/><rect class="3a9056a5-bbbc-4481-ab64-247d3947d5ac" x="192.79" y="175.39" width="9.77" height="9.17"/><rect class="3a9056a5-bbbc-4481-ab64-247d3947d5ac" x="192.79" y="175.39" width="9.77" height="9.17"/><rect class="3a9056a5-bbbc-4481-ab64-247d3947d5ac" x="202.56" y="175.39" width="9.77" height="9.17"/><rect class="3a9056a5-bbbc-4481-ab64-247d3947d5ac" x="202.56" y="175.39" width="9.77" height="9.17"/><rect class="3a9056a5-bbbc-4481-ab64-247d3947d5ac" x="222.09" y="175.39" width="9.77" height="9.17"/><rect class="3a9056a5-bbbc-4481-ab64-247d3947d5ac" x="222.09" y="175.39" width="9.77" height="9.17"/><rect class="119d1da1-b2de-4773-a906-4d48dba42478" x="173.25" y="175.39" width="9.77" height="9.17"/><rect class="119d1da1-b2de-4773-a906-4d48dba42478" x="173.25" y="175.39" width="9.77" height="9.17"/><rect class="3a9056a5-bbbc-4481-ab64-247d3947d5ac" x="183.02" y="175.39" width="9.77" height="9.17"/><rect class="3a9056a5-bbbc-4481-ab64-247d3947d5ac" x="183.02" y="175.39" width="9.77" height="9.17"/><rect class="119d1da1-b2de-4773-a906-4d48dba42478" x="134.18" y="184.56" width="9.77" height="9.17"/><rect class="119d1da1-b2de-4773-a906-4d48dba42478" x="134.18" y="184.56" width="9.77" height="9.17"/><rect class="119d1da1-b2de-4773-a906-4d48dba42478" x="143.95" y="184.56" width="9.77" height="9.17"/><rect class="119d1da1-b2de-4773-a906-4d48dba42478" x="143.95" y="184.56" width="9.77" height="9.17"/><rect class="119d1da1-b2de-4773-a906-4d48dba42478" x="153.72" y="184.56" width="9.77" height="9.17"/><rect class="119d1da1-b2de-4773-a906-4d48dba42478" x="153.72" y="184.56" width="9.77" height="9.17"/><rect class="119d1da1-b2de-4773-a906-4d48dba42478" x="163.48" y="184.56" width="9.77" height="9.17"/><rect class="119d1da1-b2de-4773-a906-4d48dba42478" x="163.48" y="184.56" width="9.77" height="9.17"/><rect class="ac6d86d2-ee7c-4d4b-a51c-25ffe1797236" x="192.79" y="184.56" width="9.77" height="9.17"/><rect class="6ea4761a-becc-4ea1-bec1-36978d718866" x="192.79" y="184.56" width="9.77" height="9.17"/><rect class="3a9056a5-bbbc-4481-ab64-247d3947d5ac" x="202.56" y="184.56" width="9.77" height="9.17"/><rect class="3a9056a5-bbbc-4481-ab64-247d3947d5ac" x="202.56" y="184.56" width="9.77" height="9.17"/><rect class="3a9056a5-bbbc-4481-ab64-247d3947d5ac" x="222.09" y="184.56" width="9.77" height="9.17"/><rect class="3a9056a5-bbbc-4481-ab64-247d3947d5ac" x="222.09" y="184.56" width="9.77" height="9.17"/><rect class="119d1da1-b2de-4773-a906-4d48dba42478" x="173.25" y="184.56" width="9.77" height="9.17"/><rect class="119d1da1-b2de-4773-a906-4d48dba42478" x="173.25" y="184.56" width="9.77" height="9.17"/><rect class="ac6d86d2-ee7c-4d4b-a51c-25ffe1797236" x="183.02" y="184.56" width="9.77" height="9.17"/><rect class="119d1da1-b2de-4773-a906-4d48dba42478" x="183.02" y="184.56" width="9.77" height="9.17"/><rect class="ac6d86d2-ee7c-4d4b-a51c-25ffe1797236" x="134.18" y="193.73" width="9.77" height="9.17"/><rect class="ac6d86d2-ee7c-4d4b-a51c-25ffe1797236" x="134.18" y="193.73" width="9.77" height="9.17"/><rect class="ac6d86d2-ee7c-4d4b-a51c-25ffe1797236" x="143.95" y="193.73" width="9.77" height="9.17"/><rect class="ac6d86d2-ee7c-4d4b-a51c-25ffe1797236" x="143.95" y="193.73" width="9.77" height="9.17"/><rect class="ac6d86d2-ee7c-4d4b-a51c-25ffe1797236" x="153.72" y="193.73" width="9.77" height="9.17"/><rect class="ac6d86d2-ee7c-4d4b-a51c-25ffe1797236" x="153.72" y="193.73" width="9.77" height="9.17"/><rect class="ac6d86d2-ee7c-4d4b-a51c-25ffe1797236" x="163.48" y="193.73" width="9.77" height="9.17"/><rect class="ac6d86d2-ee7c-4d4b-a51c-25ffe1797236" x="163.48" y="193.73" width="9.77" height="9.17"/><rect class="ac6d86d2-ee7c-4d4b-a51c-25ffe1797236" x="192.79" y="193.73" width="9.77" height="9.17"/><rect class="ac6d86d2-ee7c-4d4b-a51c-25ffe1797236" x="192.79" y="193.73" width="9.77" height="9.17"/><rect class="ac6d86d2-ee7c-4d4b-a51c-25ffe1797236" x="202.56" y="193.73" width="9.77" height="9.17"/><rect class="ac6d86d2-ee7c-4d4b-a51c-25ffe1797236" x="202.56" y="193.73" width="9.77" height="9.17"/><rect class="a9b36309-3172-44e8-9e11-1b5e0fb3edfa" x="222.09" y="193.73" width="9.77" height="9.17"/><rect class="a9b36309-3172-44e8-9e11-1b5e0fb3edfa" x="222.09" y="193.73" width="9.77" height="9.17"/><rect class="ac6d86d2-ee7c-4d4b-a51c-25ffe1797236" x="173.25" y="193.73" width="9.77" height="9.17"/><rect class="ac6d86d2-ee7c-4d4b-a51c-25ffe1797236" x="173.25" y="193.73" width="9.77" height="9.17"/><rect class="ac6d86d2-ee7c-4d4b-a51c-25ffe1797236" x="183.02" y="193.73" width="9.77" height="9.17"/><rect class="ac6d86d2-ee7c-4d4b-a51c-25ffe1797236" x="183.02" y="193.73" width="9.77" height="9.17"/><rect class="ac6d86d2-ee7c-4d4b-a51c-25ffe1797236" x="134.18" y="202.9" width="9.77" height="9.17"/><rect class="ac6d86d2-ee7c-4d4b-a51c-25ffe1797236" x="134.18" y="202.9" width="9.77" height="9.17"/><rect class="ac6d86d2-ee7c-4d4b-a51c-25ffe1797236" x="143.95" y="202.9" width="9.77" height="9.17"/><rect class="ac6d86d2-ee7c-4d4b-a51c-25ffe1797236" x="143.95" y="202.9" width="9.77" height="9.17"/><rect class="ac6d86d2-ee7c-4d4b-a51c-25ffe1797236" x="153.72" y="202.9" width="9.77" height="9.17"/><rect class="ac6d86d2-ee7c-4d4b-a51c-25ffe1797236" x="153.72" y="202.9" width="9.77" height="9.17"/><rect class="ac6d86d2-ee7c-4d4b-a51c-25ffe1797236" x="163.48" y="202.9" width="9.77" height="9.17"/><rect class="ac6d86d2-ee7c-4d4b-a51c-25ffe1797236" x="163.48" y="202.9" width="9.77" height="9.17"/><rect class="ac6d86d2-ee7c-4d4b-a51c-25ffe1797236" x="192.79" y="202.9" width="9.77" height="9.17"/><rect class="ac6d86d2-ee7c-4d4b-a51c-25ffe1797236" x="192.79" y="202.9" width="9.77" height="9.17"/><rect class="ac6d86d2-ee7c-4d4b-a51c-25ffe1797236" x="202.56" y="202.9" width="9.77" height="9.17"/><rect class="ac6d86d2-ee7c-4d4b-a51c-25ffe1797236" x="202.56" y="202.9" width="9.77" height="9.17"/><rect class="ac6d86d2-ee7c-4d4b-a51c-25ffe1797236" x="222.09" y="202.9" width="9.77" height="9.17"/><rect class="ac6d86d2-ee7c-4d4b-a51c-25ffe1797236" x="222.09" y="202.9" width="9.77" height="9.17"/><rect class="ac6d86d2-ee7c-4d4b-a51c-25ffe1797236" x="173.25" y="202.9" width="9.77" height="9.17"/><rect class="ac6d86d2-ee7c-4d4b-a51c-25ffe1797236" x="173.25" y="202.9" width="9.77" height="9.17"/><rect class="ac6d86d2-ee7c-4d4b-a51c-25ffe1797236" x="183.02" y="202.9" width="9.77" height="9.17"/><rect class="ac6d86d2-ee7c-4d4b-a51c-25ffe1797236" x="183.02" y="202.9" width="9.77" height="9.17"/><rect class="ac6d86d2-ee7c-4d4b-a51c-25ffe1797236" x="134.18" y="212.07" width="9.77" height="9.17"/><rect class="ac6d86d2-ee7c-4d4b-a51c-25ffe1797236" x="134.18" y="212.07" width="9.77" height="9.17"/><rect class="ac6d86d2-ee7c-4d4b-a51c-25ffe1797236" x="143.95" y="212.07" width="9.77" height="9.17"/><rect class="ac6d86d2-ee7c-4d4b-a51c-25ffe1797236" x="143.95" y="212.07" width="9.77" height="9.17"/><rect class="ac6d86d2-ee7c-4d4b-a51c-25ffe1797236" x="153.72" y="212.07" width="9.77" height="9.17"/><rect class="ac6d86d2-ee7c-4d4b-a51c-25ffe1797236" x="153.72" y="212.07" width="9.77" height="9.17"/><rect class="ac6d86d2-ee7c-4d4b-a51c-25ffe1797236" x="163.48" y="212.07" width="9.77" height="9.17"/><rect class="ac6d86d2-ee7c-4d4b-a51c-25ffe1797236" x="163.48" y="212.07" width="9.77" height="9.17"/><rect class="ac6d86d2-ee7c-4d4b-a51c-25ffe1797236" x="192.79" y="212.07" width="9.77" height="9.17"/><rect class="ac6d86d2-ee7c-4d4b-a51c-25ffe1797236" x="192.79" y="212.07" width="9.77" height="9.17"/><rect class="ac6d86d2-ee7c-4d4b-a51c-25ffe1797236" x="202.56" y="212.07" width="9.77" height="9.17"/><rect class="ac6d86d2-ee7c-4d4b-a51c-25ffe1797236" x="202.56" y="212.07" width="9.77" height="9.17"/><rect class="ac6d86d2-ee7c-4d4b-a51c-25ffe1797236" x="222.09" y="212.07" width="9.77" height="9.17"/><rect class="ac6d86d2-ee7c-4d4b-a51c-25ffe1797236" x="222.09" y="212.07" width="9.77" height="9.17"/><rect class="ac6d86d2-ee7c-4d4b-a51c-25ffe1797236" x="173.25" y="212.07" width="9.77" height="9.17"/><rect class="ac6d86d2-ee7c-4d4b-a51c-25ffe1797236" x="173.25" y="212.07" width="9.77" height="9.17"/><rect class="ac6d86d2-ee7c-4d4b-a51c-25ffe1797236" x="183.02" y="212.07" width="9.77" height="9.17"/><rect class="ac6d86d2-ee7c-4d4b-a51c-25ffe1797236" x="183.02" y="212.07" width="9.77" height="9.17"/><rect class="ac6d86d2-ee7c-4d4b-a51c-25ffe1797236" x="134.18" y="221.24" width="9.77" height="9.17"/><rect class="ac6d86d2-ee7c-4d4b-a51c-25ffe1797236" x="134.18" y="221.24" width="9.77" height="9.17"/><rect class="ac6d86d2-ee7c-4d4b-a51c-25ffe1797236" x="143.95" y="221.24" width="9.77" height="9.17"/><rect class="ac6d86d2-ee7c-4d4b-a51c-25ffe1797236" x="143.95" y="221.24" width="9.77" height="9.17"/><rect class="ac6d86d2-ee7c-4d4b-a51c-25ffe1797236" x="153.72" y="221.24" width="9.77" height="9.17"/><rect class="ac6d86d2-ee7c-4d4b-a51c-25ffe1797236" x="153.72" y="221.24" width="9.77" height="9.17"/><rect class="ac6d86d2-ee7c-4d4b-a51c-25ffe1797236" x="163.48" y="221.24" width="9.77" height="9.17"/><rect class="ac6d86d2-ee7c-4d4b-a51c-25ffe1797236" x="163.48" y="221.24" width="9.77" height="9.17"/><rect class="ac6d86d2-ee7c-4d4b-a51c-25ffe1797236" x="192.79" y="221.24" width="9.77" height="9.17"/><rect class="ac6d86d2-ee7c-4d4b-a51c-25ffe1797236" x="192.79" y="221.24" width="9.77" height="9.17"/><rect class="ac6d86d2-ee7c-4d4b-a51c-25ffe1797236" x="202.56" y="221.24" width="9.77" height="9.17"/><rect class="ac6d86d2-ee7c-4d4b-a51c-25ffe1797236" x="202.56" y="221.24" width="9.77" height="9.17"/><rect class="ac6d86d2-ee7c-4d4b-a51c-25ffe1797236" x="222.09" y="221.24" width="9.77" height="9.17"/><rect class="ac6d86d2-ee7c-4d4b-a51c-25ffe1797236" x="222.09" y="221.24" width="9.77" height="9.17"/><rect class="ac6d86d2-ee7c-4d4b-a51c-25ffe1797236" x="173.25" y="221.24" width="9.77" height="9.17"/><rect class="ac6d86d2-ee7c-4d4b-a51c-25ffe1797236" x="173.25" y="221.24" width="9.77" height="9.17"/><rect class="ac6d86d2-ee7c-4d4b-a51c-25ffe1797236" x="183.02" y="221.24" width="9.77" height="9.17"/><rect class="ac6d86d2-ee7c-4d4b-a51c-25ffe1797236" x="183.02" y="221.24" width="9.77" height="9.17"/><rect class="ac6d86d2-ee7c-4d4b-a51c-25ffe1797236" x="134.18" y="230.41" width="9.77" height="9.17"/><rect class="ac6d86d2-ee7c-4d4b-a51c-25ffe1797236" x="134.18" y="230.41" width="9.77" height="9.17"/><rect class="ac6d86d2-ee7c-4d4b-a51c-25ffe1797236" x="143.95" y="230.41" width="9.77" height="9.17"/><rect class="ac6d86d2-ee7c-4d4b-a51c-25ffe1797236" x="143.95" y="230.41" width="9.77" height="9.17"/><rect class="ac6d86d2-ee7c-4d4b-a51c-25ffe1797236" x="153.72" y="230.41" width="9.77" height="9.17"/><rect class="ac6d86d2-ee7c-4d4b-a51c-25ffe1797236" x="153.72" y="230.41" width="9.77" height="9.17"/><rect class="ac6d86d2-ee7c-4d4b-a51c-25ffe1797236" x="163.48" y="230.41" width="9.77" height="9.17"/><rect class="ac6d86d2-ee7c-4d4b-a51c-25ffe1797236" x="163.48" y="230.41" width="9.77" height="9.17"/><rect class="ac6d86d2-ee7c-4d4b-a51c-25ffe1797236" x="192.79" y="230.41" width="9.77" height="9.17"/><rect class="ac6d86d2-ee7c-4d4b-a51c-25ffe1797236" x="192.79" y="230.41" width="9.77" height="9.17"/><rect class="ac6d86d2-ee7c-4d4b-a51c-25ffe1797236" x="202.56" y="230.41" width="9.77" height="9.17"/><rect class="ac6d86d2-ee7c-4d4b-a51c-25ffe1797236" x="202.56" y="230.41" width="9.77" height="9.17"/><rect class="ac6d86d2-ee7c-4d4b-a51c-25ffe1797236" x="222.09" y="230.41" width="9.77" height="9.17"/><rect class="ac6d86d2-ee7c-4d4b-a51c-25ffe1797236" x="222.09" y="230.41" width="9.77" height="9.17"/><rect class="3a9056a5-bbbc-4481-ab64-247d3947d5ac" x="212.33" y="147.89" width="9.77" height="9.17"/><rect class="3a9056a5-bbbc-4481-ab64-247d3947d5ac" x="212.33" y="147.89" width="9.77" height="9.17"/><rect class="3a9056a5-bbbc-4481-ab64-247d3947d5ac" x="212.33" y="157.06" width="9.77" height="9.17"/><rect class="3a9056a5-bbbc-4481-ab64-247d3947d5ac" x="212.33" y="157.06" width="9.77" height="9.17"/><rect class="3a9056a5-bbbc-4481-ab64-247d3947d5ac" x="212.33" y="166.23" width="9.77" height="9.17"/><rect class="3a9056a5-bbbc-4481-ab64-247d3947d5ac" x="212.33" y="166.23" width="9.77" height="9.17"/><rect class="3a9056a5-bbbc-4481-ab64-247d3947d5ac" x="212.33" y="175.39" width="9.77" height="9.17"/><rect class="3a9056a5-bbbc-4481-ab64-247d3947d5ac" x="212.33" y="175.39" width="9.77" height="9.17"/><rect class="3a9056a5-bbbc-4481-ab64-247d3947d5ac" x="212.33" y="184.56" width="9.77" height="9.17"/><rect class="3a9056a5-bbbc-4481-ab64-247d3947d5ac" x="212.33" y="184.56" width="9.77" height="9.17"/><rect class="a9b36309-3172-44e8-9e11-1b5e0fb3edfa" x="212.33" y="193.73" width="9.77" height="9.17"/><rect class="a9b36309-3172-44e8-9e11-1b5e0fb3edfa" x="212.33" y="193.73" width="9.77" height="9.17"/><rect class="ac6d86d2-ee7c-4d4b-a51c-25ffe1797236" x="212.33" y="202.9" width="9.77" height="9.17"/><rect class="ac6d86d2-ee7c-4d4b-a51c-25ffe1797236" x="212.33" y="202.9" width="9.77" height="9.17"/><rect class="ac6d86d2-ee7c-4d4b-a51c-25ffe1797236" x="212.33" y="212.07" width="9.77" height="9.17"/><rect class="ac6d86d2-ee7c-4d4b-a51c-25ffe1797236" x="212.33" y="212.07" width="9.77" height="9.17"/><rect class="ac6d86d2-ee7c-4d4b-a51c-25ffe1797236" x="212.33" y="221.24" width="9.77" height="9.17"/><rect class="ac6d86d2-ee7c-4d4b-a51c-25ffe1797236" x="212.33" y="221.24" width="9.77" height="9.17"/><rect class="ac6d86d2-ee7c-4d4b-a51c-25ffe1797236" x="212.33" y="230.41" width="9.77" height="9.17"/><rect class="ac6d86d2-ee7c-4d4b-a51c-25ffe1797236" x="212.33" y="230.41" width="9.77" height="9.17"/><rect class="ac6d86d2-ee7c-4d4b-a51c-25ffe1797236" x="173.25" y="230.41" width="9.77" height="9.17"/><rect class="ac6d86d2-ee7c-4d4b-a51c-25ffe1797236" x="173.25" y="230.41" width="9.77" height="9.17"/><rect class="ac6d86d2-ee7c-4d4b-a51c-25ffe1797236" x="183.02" y="230.41" width="9.77" height="9.17"/><rect class="ac6d86d2-ee7c-4d4b-a51c-25ffe1797236" x="183.02" y="230.41" width="9.77" height="9.17"/><polygon class="6bed5697-6db5-475d-936e-8cfa3da33968" points="231.03 146.96 134.39 147.1 182.64 100.8 231.03 146.96"/></svg>