<svg id="574f6719-7abd-40eb-b4b8-db142ca6ae49" data-name="Fondo" xmlns="http://www.w3.org/2000/svg" viewBox="0 0 300 400"><defs><style>.\39 f8ac3b4-06fb-457c-a38c-6ca09c7fbedc{fill:#d6eddc;stroke:#fff;stroke-width:1.46px;}.\36 9a4e3ed-1c5c-4fdd-afe1-b7a55a72cbce,.\37 e7821c2-426b-411a-8d4d-a0fe50094439,.\39 f8ac3b4-06fb-457c-a38c-6ca09c7fbedc,.a2a08063-d055-417f-b977-66c68f4fc33c,.c8d0ba04-6678-446e-8f33-cc8a842df87e,.ee647f57-22dd-41d2-a99f-461e2dee5e72{stroke-miterlimit:10;}.f67c1ffe-578b-4974-a7b6-c6983852603a{font-size:50.86px;}.b0457384-1889-4245-99e3-4b93bc9819e8,.f67c1ffe-578b-4974-a7b6-c6983852603a,.fadf909e-36e7-4fde-a2ae-4da01be5341e{font-family:Myriad Pro;font-weight:700;}.b0457384-1889-4245-99e3-4b93bc9819e8{font-size:18px;fill:#232323;}.fadf909e-36e7-4fde-a2ae-4da01be5341e{font-size:39.55px;fill:#118c97;white-space:pre;}.\37 e7821c2-426b-411a-8d4d-a0fe50094439{fill:#931c0a;stroke:#1d1d1b;stroke-width:0.39px;}.ee647f57-22dd-41d2-a99f-461e2dee5e72{fill:#ff9231;}.\36 9a4e3ed-1c5c-4fdd-afe1-b7a55a72cbce,.c8d0ba04-6678-446e-8f33-cc8a842df87e,.ee647f57-22dd-41d2-a99f-461e2dee5e72{stroke:#000;}.\36 9a4e3ed-1c5c-4fdd-afe1-b7a55a72cbce,.a2a08063-d055-417f-b977-66c68f4fc33c,.c8d0ba04-6678-446e-8f33-cc8a842df87e,.ee647f57-22dd-41d2-a99f-461e2dee5e72{stroke-width:0.32px;}.c8d0ba04-6678-446e-8f33-cc8a842df87e{fill:#9fa09f;}.\36 9a4e3ed-1c5c-4fdd-afe1-b7a55a72cbce{fill:#ff6c49;}.a2a08063-d055-417f-b977-66c68f4fc33c{stroke:#020202;}</style></defs><title>Catástrofes </title><rect class="9f8ac3b4-06fb-457c-a38c-6ca09c7fbedc" x="0.54" width="300" height="400"/><text class="f67c1ffe-578b-4974-a7b6-c6983852603a" transform="translate(89.28 66.01) scale(0.91 1)">M<tspan x="42.27" y="0">acul</tspan></text><text class="b0457384-1889-4245-99e3-4b93bc9819e8" transform="translate(50.19 155.04) rotate(0.07) scale(0.9 1)">T<tspan x="9.45" y="0">i</tspan><tspan x="14.38" y="0">p</tspan><tspan x="25.2" y="0">o de </tspan></text><text class="b0457384-1889-4245-99e3-4b93bc9819e8" transform="translate(50.23 176.69) rotate(-0.03) scale(0.9 1)">V<tspan x="10.96" y="0">ivienda</tspan></text><text class="b0457384-1889-4245-99e3-4b93bc9819e8" transform="translate(109.06 287.51) rotate(-0.02) scale(0.9 1)">C<tspan x="10.53" y="0">a</tspan><tspan x="19.89" y="0">tást</tspan><tspan x="50.42" y="0">r</tspan><tspan x="57.11" y="0">o</tspan><tspan x="67.5" y="0">f</tspan><tspan x="73.46" y="0">es</tspan></text><text class="fadf909e-36e7-4fde-a2ae-4da01be5341e" transform="translate(149.72 350.24) scale(0.88 1)">  11</text><polygon points="117.14 334.17 116.37 327.62 117 323.02 119.21 318.81 122.22 315.31 124.93 313.75 124.34 315.67 123.66 318.05 123.14 321.86 123.56 324.84 123.95 327.05 124.92 329.34 126 331.91 128.79 335.58 130.85 338.3 131.34 334.85 133.09 330.9 134.84 329.34 136.26 328.15 137 327.32 137 329.06 136.36 331.36 136.72 333.74 136.99 335.3 137.62 338.3 138.81 342 140.1 346.22 141 349.99 141 352.74 140.01 357.14 139.08 358.89 137.35 360.81 135.22 362.49 132.7 363.75 130.56 364.58 131.73 363.02 132.51 361.38 132.6 359.07 131.92 357.14 131.24 355.86 130.47 354.12 130.08 352.83 130.27 350.43 129.36 351.53 129 352.56 129 353.84 128.76 355.13 128.35 355.95 128.41 356.73 127.39 355.36 126.87 353.36 127.23 350.74 127.75 348.82 127.6 346.68 127.23 345.17 126.14 343.31 124.68 341.59 125.12 344.48 124.97 346 124.39 348.2 123.81 349.23 123.14 350.81 120.72 353.22 120 353.5 120 351.64 119.72 350.43 119.61 349.85 119.19 349.09 118.51 348.54 118.24 349.23 118.11 350.88 117.82 352.67 117.53 354.12 117.17 355.22 116.66 356.73 116.34 357.9 116.01 359.55 116.52 361.89 117.32 363.2 118.12 363.89 119.94 365.4 116.01 364.72 114.26 363.82 112.14 362.49 110.1 361.38 107.47 358.59 106 355.01 106 350.54 107.83 345.44 109.48 342.97 111 340.97 112 338.3 112 336.22 112 334.02 112 331.82 111.5 331.4 113.02 332.78 114.18 334.16 115.08 335.6 115.73 337.39 116.23 339.04 116.16 340.49 116.3 342.21 116.15 344.62 117.47 342.49 117.9 340.56 118.12 338.7 117.14 334.17"/><rect class="7e7821c2-426b-411a-8d4d-a0fe50094439" x="139.18" y="140.98" width="11.02" height="9.97"/><rect class="ee647f57-22dd-41d2-a99f-461e2dee5e72" x="150.2" y="140.98" width="11.02" height="9.97"/><rect class="c8d0ba04-6678-446e-8f33-cc8a842df87e" x="188.76" y="148.65" width="11.02" height="9.97" rx="4.82" ry="4.82"/><rect class="ee647f57-22dd-41d2-a99f-461e2dee5e72" x="161.22" y="140.98" width="11.02" height="9.97"/><rect class="ee647f57-22dd-41d2-a99f-461e2dee5e72" x="161.22" y="140.98" width="11.02" height="9.97"/><rect class="ee647f57-22dd-41d2-a99f-461e2dee5e72" x="172.23" y="140.98" width="11.02" height="9.97"/><rect class="ee647f57-22dd-41d2-a99f-461e2dee5e72" x="172.23" y="140.98" width="11.02" height="9.97"/><rect class="ee647f57-22dd-41d2-a99f-461e2dee5e72" x="205.29" y="140.98" width="11.02" height="9.97"/><rect class="ee647f57-22dd-41d2-a99f-461e2dee5e72" x="205.29" y="140.98" width="11.02" height="9.97"/><rect class="ee647f57-22dd-41d2-a99f-461e2dee5e72" x="216.31" y="140.98" width="11.02" height="9.97"/><rect class="ee647f57-22dd-41d2-a99f-461e2dee5e72" x="216.31" y="140.98" width="11.02" height="9.97"/><rect class="ee647f57-22dd-41d2-a99f-461e2dee5e72" x="238.34" y="140.98" width="11.02" height="9.97"/><rect class="ee647f57-22dd-41d2-a99f-461e2dee5e72" x="238.34" y="140.98" width="11.02" height="9.97"/><rect class="ee647f57-22dd-41d2-a99f-461e2dee5e72" x="183.25" y="140.98" width="11.02" height="9.97"/><rect class="ee647f57-22dd-41d2-a99f-461e2dee5e72" x="183.25" y="140.98" width="11.02" height="9.97"/><rect class="ee647f57-22dd-41d2-a99f-461e2dee5e72" x="194.27" y="140.98" width="11.02" height="9.97"/><rect class="ee647f57-22dd-41d2-a99f-461e2dee5e72" x="194.27" y="140.98" width="11.02" height="9.97"/><rect class="c8d0ba04-6678-446e-8f33-cc8a842df87e" x="139.18" y="150.95" width="11.02" height="9.97"/><rect class="c8d0ba04-6678-446e-8f33-cc8a842df87e" x="139.18" y="150.95" width="11.02" height="9.97"/><rect class="c8d0ba04-6678-446e-8f33-cc8a842df87e" x="150.2" y="150.95" width="11.02" height="9.97"/><rect class="c8d0ba04-6678-446e-8f33-cc8a842df87e" x="150.2" y="150.95" width="11.02" height="9.97"/><rect class="c8d0ba04-6678-446e-8f33-cc8a842df87e" x="161.22" y="150.95" width="11.02" height="9.97"/><rect class="c8d0ba04-6678-446e-8f33-cc8a842df87e" x="161.22" y="150.95" width="11.02" height="9.97"/><rect class="c8d0ba04-6678-446e-8f33-cc8a842df87e" x="172.23" y="150.95" width="11.02" height="9.97"/><rect class="c8d0ba04-6678-446e-8f33-cc8a842df87e" x="172.23" y="150.95" width="11.02" height="9.97"/><rect class="c8d0ba04-6678-446e-8f33-cc8a842df87e" x="205.29" y="150.95" width="11.02" height="9.97"/><rect class="c8d0ba04-6678-446e-8f33-cc8a842df87e" x="205.29" y="150.95" width="11.02" height="9.97"/><rect class="c8d0ba04-6678-446e-8f33-cc8a842df87e" x="216.31" y="150.95" width="11.02" height="9.97"/><rect class="c8d0ba04-6678-446e-8f33-cc8a842df87e" x="216.31" y="150.95" width="11.02" height="9.97"/><rect class="c8d0ba04-6678-446e-8f33-cc8a842df87e" x="238.34" y="150.95" width="11.02" height="9.97"/><rect class="c8d0ba04-6678-446e-8f33-cc8a842df87e" x="238.34" y="150.95" width="11.02" height="9.97"/><rect class="c8d0ba04-6678-446e-8f33-cc8a842df87e" x="183.25" y="150.95" width="11.02" height="9.97"/><rect class="c8d0ba04-6678-446e-8f33-cc8a842df87e" x="183.25" y="150.95" width="11.02" height="9.97"/><rect class="c8d0ba04-6678-446e-8f33-cc8a842df87e" x="194.27" y="150.95" width="11.02" height="9.97"/><rect class="c8d0ba04-6678-446e-8f33-cc8a842df87e" x="139.18" y="160.92" width="11.02" height="9.97"/><rect class="c8d0ba04-6678-446e-8f33-cc8a842df87e" x="139.18" y="160.92" width="11.02" height="9.97"/><rect class="c8d0ba04-6678-446e-8f33-cc8a842df87e" x="150.2" y="160.92" width="11.02" height="9.97"/><rect class="c8d0ba04-6678-446e-8f33-cc8a842df87e" x="150.2" y="160.92" width="11.02" height="9.97"/><rect class="c8d0ba04-6678-446e-8f33-cc8a842df87e" x="161.22" y="160.92" width="11.02" height="9.97"/><rect class="c8d0ba04-6678-446e-8f33-cc8a842df87e" x="161.22" y="160.92" width="11.02" height="9.97"/><rect class="c8d0ba04-6678-446e-8f33-cc8a842df87e" x="172.23" y="160.92" width="11.02" height="9.97"/><rect class="c8d0ba04-6678-446e-8f33-cc8a842df87e" x="172.23" y="160.92" width="11.02" height="9.97"/><rect class="c8d0ba04-6678-446e-8f33-cc8a842df87e" x="205.29" y="160.92" width="11.02" height="9.97"/><rect class="c8d0ba04-6678-446e-8f33-cc8a842df87e" x="205.29" y="160.92" width="11.02" height="9.97"/><rect class="c8d0ba04-6678-446e-8f33-cc8a842df87e" x="216.31" y="160.92" width="11.02" height="9.97"/><rect class="c8d0ba04-6678-446e-8f33-cc8a842df87e" x="216.31" y="160.92" width="11.02" height="9.97"/><rect class="c8d0ba04-6678-446e-8f33-cc8a842df87e" x="238.34" y="160.92" width="11.02" height="9.97"/><rect class="c8d0ba04-6678-446e-8f33-cc8a842df87e" x="238.34" y="160.92" width="11.02" height="9.97"/><rect class="c8d0ba04-6678-446e-8f33-cc8a842df87e" x="183.25" y="160.92" width="11.02" height="9.97"/><rect class="c8d0ba04-6678-446e-8f33-cc8a842df87e" x="183.25" y="160.92" width="11.02" height="9.97"/><rect class="c8d0ba04-6678-446e-8f33-cc8a842df87e" x="194.27" y="160.92" width="11.02" height="9.97"/><rect class="c8d0ba04-6678-446e-8f33-cc8a842df87e" x="194.27" y="160.92" width="11.02" height="9.97"/><rect class="69a4e3ed-1c5c-4fdd-afe1-b7a55a72cbce" x="139.18" y="170.88" width="11.02" height="9.97"/><rect class="69a4e3ed-1c5c-4fdd-afe1-b7a55a72cbce" x="139.18" y="170.88" width="11.02" height="9.97"/><rect class="69a4e3ed-1c5c-4fdd-afe1-b7a55a72cbce" x="150.2" y="170.88" width="11.02" height="9.97"/><rect class="69a4e3ed-1c5c-4fdd-afe1-b7a55a72cbce" x="150.2" y="170.88" width="11.02" height="9.97"/><rect class="69a4e3ed-1c5c-4fdd-afe1-b7a55a72cbce" x="161.22" y="170.88" width="11.02" height="9.97"/><rect class="69a4e3ed-1c5c-4fdd-afe1-b7a55a72cbce" x="161.22" y="170.88" width="11.02" height="9.97"/><rect class="69a4e3ed-1c5c-4fdd-afe1-b7a55a72cbce" x="172.23" y="170.88" width="11.02" height="9.97"/><rect class="69a4e3ed-1c5c-4fdd-afe1-b7a55a72cbce" x="172.23" y="170.88" width="11.02" height="9.97"/><rect class="69a4e3ed-1c5c-4fdd-afe1-b7a55a72cbce" x="205.29" y="170.88" width="11.02" height="9.97"/><rect class="69a4e3ed-1c5c-4fdd-afe1-b7a55a72cbce" x="205.29" y="170.88" width="11.02" height="9.97"/><rect class="c8d0ba04-6678-446e-8f33-cc8a842df87e" x="216.31" y="170.88" width="11.02" height="9.97"/><rect class="c8d0ba04-6678-446e-8f33-cc8a842df87e" x="216.31" y="170.88" width="11.02" height="9.97"/><rect class="c8d0ba04-6678-446e-8f33-cc8a842df87e" x="238.34" y="170.88" width="11.02" height="9.97"/><rect class="c8d0ba04-6678-446e-8f33-cc8a842df87e" x="238.34" y="170.88" width="11.02" height="9.97"/><rect class="69a4e3ed-1c5c-4fdd-afe1-b7a55a72cbce" x="183.25" y="170.88" width="11.02" height="9.97"/><rect class="69a4e3ed-1c5c-4fdd-afe1-b7a55a72cbce" x="183.25" y="170.88" width="11.02" height="9.97"/><rect class="69a4e3ed-1c5c-4fdd-afe1-b7a55a72cbce" x="194.27" y="170.88" width="11.02" height="9.97"/><rect class="69a4e3ed-1c5c-4fdd-afe1-b7a55a72cbce" x="194.27" y="170.88" width="11.02" height="9.97"/><rect class="69a4e3ed-1c5c-4fdd-afe1-b7a55a72cbce" x="139.18" y="180.85" width="11.02" height="9.97"/><rect class="69a4e3ed-1c5c-4fdd-afe1-b7a55a72cbce" x="139.18" y="180.85" width="11.02" height="9.97"/><rect class="69a4e3ed-1c5c-4fdd-afe1-b7a55a72cbce" x="150.2" y="180.85" width="11.02" height="9.97"/><rect class="69a4e3ed-1c5c-4fdd-afe1-b7a55a72cbce" x="150.2" y="180.85" width="11.02" height="9.97"/><rect class="69a4e3ed-1c5c-4fdd-afe1-b7a55a72cbce" x="161.22" y="180.85" width="11.02" height="9.97"/><rect class="69a4e3ed-1c5c-4fdd-afe1-b7a55a72cbce" x="161.22" y="180.85" width="11.02" height="9.97"/><rect class="69a4e3ed-1c5c-4fdd-afe1-b7a55a72cbce" x="172.23" y="180.85" width="11.02" height="9.97"/><rect class="69a4e3ed-1c5c-4fdd-afe1-b7a55a72cbce" x="172.23" y="180.85" width="11.02" height="9.97"/><rect class="69a4e3ed-1c5c-4fdd-afe1-b7a55a72cbce" x="205.29" y="180.85" width="11.02" height="9.97"/><rect class="69a4e3ed-1c5c-4fdd-afe1-b7a55a72cbce" x="205.29" y="180.85" width="11.02" height="9.97"/><rect class="69a4e3ed-1c5c-4fdd-afe1-b7a55a72cbce" x="216.31" y="180.85" width="11.02" height="9.97"/><rect class="69a4e3ed-1c5c-4fdd-afe1-b7a55a72cbce" x="216.31" y="180.85" width="11.02" height="9.97"/><rect class="69a4e3ed-1c5c-4fdd-afe1-b7a55a72cbce" x="238.34" y="180.85" width="11.02" height="9.97"/><rect class="69a4e3ed-1c5c-4fdd-afe1-b7a55a72cbce" x="238.34" y="180.85" width="11.02" height="9.97"/><rect class="69a4e3ed-1c5c-4fdd-afe1-b7a55a72cbce" x="183.25" y="180.85" width="11.02" height="9.97"/><rect class="69a4e3ed-1c5c-4fdd-afe1-b7a55a72cbce" x="183.25" y="180.85" width="11.02" height="9.97"/><rect class="69a4e3ed-1c5c-4fdd-afe1-b7a55a72cbce" x="194.27" y="180.85" width="11.02" height="9.97"/><rect class="69a4e3ed-1c5c-4fdd-afe1-b7a55a72cbce" x="194.27" y="180.85" width="11.02" height="9.97"/><rect class="69a4e3ed-1c5c-4fdd-afe1-b7a55a72cbce" x="139.18" y="190.82" width="11.02" height="9.97"/><rect class="69a4e3ed-1c5c-4fdd-afe1-b7a55a72cbce" x="139.18" y="190.82" width="11.02" height="9.97"/><rect class="69a4e3ed-1c5c-4fdd-afe1-b7a55a72cbce" x="150.2" y="190.82" width="11.02" height="9.97"/><rect class="69a4e3ed-1c5c-4fdd-afe1-b7a55a72cbce" x="150.2" y="190.82" width="11.02" height="9.97"/><rect class="69a4e3ed-1c5c-4fdd-afe1-b7a55a72cbce" x="161.22" y="190.82" width="11.02" height="9.97"/><rect class="69a4e3ed-1c5c-4fdd-afe1-b7a55a72cbce" x="161.22" y="190.82" width="11.02" height="9.97"/><rect class="69a4e3ed-1c5c-4fdd-afe1-b7a55a72cbce" x="172.23" y="190.82" width="11.02" height="9.97"/><rect class="69a4e3ed-1c5c-4fdd-afe1-b7a55a72cbce" x="172.23" y="190.82" width="11.02" height="9.97"/><rect class="69a4e3ed-1c5c-4fdd-afe1-b7a55a72cbce" x="205.29" y="190.82" width="11.02" height="9.97"/><rect class="69a4e3ed-1c5c-4fdd-afe1-b7a55a72cbce" x="205.29" y="190.82" width="11.02" height="9.97"/><rect class="69a4e3ed-1c5c-4fdd-afe1-b7a55a72cbce" x="216.31" y="190.82" width="11.02" height="9.97"/><rect class="69a4e3ed-1c5c-4fdd-afe1-b7a55a72cbce" x="216.31" y="190.82" width="11.02" height="9.97"/><rect class="69a4e3ed-1c5c-4fdd-afe1-b7a55a72cbce" x="238.34" y="190.82" width="11.02" height="9.97"/><rect class="69a4e3ed-1c5c-4fdd-afe1-b7a55a72cbce" x="238.34" y="190.82" width="11.02" height="9.97"/><rect class="69a4e3ed-1c5c-4fdd-afe1-b7a55a72cbce" x="183.25" y="190.82" width="11.02" height="9.97"/><rect class="69a4e3ed-1c5c-4fdd-afe1-b7a55a72cbce" x="183.25" y="190.82" width="11.02" height="9.97"/><rect class="69a4e3ed-1c5c-4fdd-afe1-b7a55a72cbce" x="194.27" y="190.82" width="11.02" height="9.97"/><rect class="69a4e3ed-1c5c-4fdd-afe1-b7a55a72cbce" x="194.27" y="190.82" width="11.02" height="9.97"/><rect class="69a4e3ed-1c5c-4fdd-afe1-b7a55a72cbce" x="139.18" y="200.78" width="11.02" height="9.97"/><rect class="69a4e3ed-1c5c-4fdd-afe1-b7a55a72cbce" x="139.18" y="200.78" width="11.02" height="9.97"/><rect class="69a4e3ed-1c5c-4fdd-afe1-b7a55a72cbce" x="150.2" y="200.78" width="11.02" height="9.97"/><rect class="69a4e3ed-1c5c-4fdd-afe1-b7a55a72cbce" x="150.2" y="200.78" width="11.02" height="9.97"/><rect class="69a4e3ed-1c5c-4fdd-afe1-b7a55a72cbce" x="161.22" y="200.78" width="11.02" height="9.97"/><rect class="69a4e3ed-1c5c-4fdd-afe1-b7a55a72cbce" x="161.22" y="200.78" width="11.02" height="9.97"/><rect class="69a4e3ed-1c5c-4fdd-afe1-b7a55a72cbce" x="172.23" y="200.78" width="11.02" height="9.97"/><rect class="69a4e3ed-1c5c-4fdd-afe1-b7a55a72cbce" x="172.23" y="200.78" width="11.02" height="9.97"/><rect class="69a4e3ed-1c5c-4fdd-afe1-b7a55a72cbce" x="205.29" y="200.78" width="11.02" height="9.97"/><rect class="69a4e3ed-1c5c-4fdd-afe1-b7a55a72cbce" x="205.29" y="200.78" width="11.02" height="9.97"/><rect class="69a4e3ed-1c5c-4fdd-afe1-b7a55a72cbce" x="216.31" y="200.78" width="11.02" height="9.97"/><rect class="69a4e3ed-1c5c-4fdd-afe1-b7a55a72cbce" x="216.31" y="200.78" width="11.02" height="9.97"/><rect class="69a4e3ed-1c5c-4fdd-afe1-b7a55a72cbce" x="238.34" y="200.78" width="11.02" height="9.97"/><rect class="69a4e3ed-1c5c-4fdd-afe1-b7a55a72cbce" x="238.34" y="200.78" width="11.02" height="9.97"/><rect class="69a4e3ed-1c5c-4fdd-afe1-b7a55a72cbce" x="183.25" y="200.78" width="11.02" height="9.97"/><rect class="69a4e3ed-1c5c-4fdd-afe1-b7a55a72cbce" x="183.25" y="200.78" width="11.02" height="9.97"/><rect class="69a4e3ed-1c5c-4fdd-afe1-b7a55a72cbce" x="194.27" y="200.78" width="11.02" height="9.97"/><rect class="69a4e3ed-1c5c-4fdd-afe1-b7a55a72cbce" x="194.27" y="200.78" width="11.02" height="9.97"/><rect class="69a4e3ed-1c5c-4fdd-afe1-b7a55a72cbce" x="139.18" y="210.75" width="11.02" height="9.97"/><rect class="69a4e3ed-1c5c-4fdd-afe1-b7a55a72cbce" x="139.18" y="210.75" width="11.02" height="9.97"/><rect class="69a4e3ed-1c5c-4fdd-afe1-b7a55a72cbce" x="150.2" y="210.75" width="11.02" height="9.97"/><rect class="69a4e3ed-1c5c-4fdd-afe1-b7a55a72cbce" x="150.2" y="210.75" width="11.02" height="9.97"/><rect class="69a4e3ed-1c5c-4fdd-afe1-b7a55a72cbce" x="161.22" y="210.75" width="11.02" height="9.97"/><rect class="69a4e3ed-1c5c-4fdd-afe1-b7a55a72cbce" x="161.22" y="210.75" width="11.02" height="9.97"/><rect class="69a4e3ed-1c5c-4fdd-afe1-b7a55a72cbce" x="172.23" y="210.75" width="11.02" height="9.97"/><rect class="69a4e3ed-1c5c-4fdd-afe1-b7a55a72cbce" x="172.23" y="210.75" width="11.02" height="9.97"/><rect class="69a4e3ed-1c5c-4fdd-afe1-b7a55a72cbce" x="205.29" y="210.75" width="11.02" height="9.97"/><rect class="69a4e3ed-1c5c-4fdd-afe1-b7a55a72cbce" x="205.29" y="210.75" width="11.02" height="9.97"/><rect class="69a4e3ed-1c5c-4fdd-afe1-b7a55a72cbce" x="216.31" y="210.75" width="11.02" height="9.97"/><rect class="69a4e3ed-1c5c-4fdd-afe1-b7a55a72cbce" x="216.31" y="210.75" width="11.02" height="9.97"/><rect class="69a4e3ed-1c5c-4fdd-afe1-b7a55a72cbce" x="238.34" y="210.75" width="11.02" height="9.97"/><rect class="69a4e3ed-1c5c-4fdd-afe1-b7a55a72cbce" x="238.34" y="210.75" width="11.02" height="9.97"/><rect class="69a4e3ed-1c5c-4fdd-afe1-b7a55a72cbce" x="183.25" y="210.75" width="11.02" height="9.97"/><rect class="69a4e3ed-1c5c-4fdd-afe1-b7a55a72cbce" x="183.25" y="210.75" width="11.02" height="9.97"/><rect class="69a4e3ed-1c5c-4fdd-afe1-b7a55a72cbce" x="194.27" y="210.75" width="11.02" height="9.97"/><rect class="69a4e3ed-1c5c-4fdd-afe1-b7a55a72cbce" x="194.27" y="210.75" width="11.02" height="9.97"/><rect class="69a4e3ed-1c5c-4fdd-afe1-b7a55a72cbce" x="139.18" y="220.71" width="11.02" height="9.97"/><rect class="69a4e3ed-1c5c-4fdd-afe1-b7a55a72cbce" x="139.18" y="220.71" width="11.02" height="9.97"/><rect class="69a4e3ed-1c5c-4fdd-afe1-b7a55a72cbce" x="150.2" y="220.71" width="11.02" height="9.97"/><rect class="69a4e3ed-1c5c-4fdd-afe1-b7a55a72cbce" x="150.2" y="220.71" width="11.02" height="9.97"/><rect class="69a4e3ed-1c5c-4fdd-afe1-b7a55a72cbce" x="161.22" y="220.71" width="11.02" height="9.97"/><rect class="69a4e3ed-1c5c-4fdd-afe1-b7a55a72cbce" x="161.22" y="220.71" width="11.02" height="9.97"/><rect class="69a4e3ed-1c5c-4fdd-afe1-b7a55a72cbce" x="172.23" y="220.71" width="11.02" height="9.97"/><rect class="69a4e3ed-1c5c-4fdd-afe1-b7a55a72cbce" x="172.23" y="220.71" width="11.02" height="9.97"/><rect class="69a4e3ed-1c5c-4fdd-afe1-b7a55a72cbce" x="205.29" y="220.71" width="11.02" height="9.97"/><rect class="69a4e3ed-1c5c-4fdd-afe1-b7a55a72cbce" x="205.29" y="220.71" width="11.02" height="9.97"/><rect class="69a4e3ed-1c5c-4fdd-afe1-b7a55a72cbce" x="216.31" y="220.71" width="11.02" height="9.97"/><rect class="69a4e3ed-1c5c-4fdd-afe1-b7a55a72cbce" x="216.31" y="220.71" width="11.02" height="9.97"/><rect class="69a4e3ed-1c5c-4fdd-afe1-b7a55a72cbce" x="238.34" y="220.71" width="11.02" height="9.97"/><rect class="69a4e3ed-1c5c-4fdd-afe1-b7a55a72cbce" x="238.34" y="220.71" width="11.02" height="9.97"/><rect class="69a4e3ed-1c5c-4fdd-afe1-b7a55a72cbce" x="183.25" y="220.71" width="11.02" height="9.97"/><rect class="69a4e3ed-1c5c-4fdd-afe1-b7a55a72cbce" x="183.25" y="220.71" width="11.02" height="9.97"/><rect class="69a4e3ed-1c5c-4fdd-afe1-b7a55a72cbce" x="194.27" y="220.71" width="11.02" height="9.97"/><rect class="69a4e3ed-1c5c-4fdd-afe1-b7a55a72cbce" x="194.27" y="220.71" width="11.02" height="9.97"/><rect class="69a4e3ed-1c5c-4fdd-afe1-b7a55a72cbce" x="139.18" y="230.68" width="11.02" height="9.97"/><rect class="69a4e3ed-1c5c-4fdd-afe1-b7a55a72cbce" x="139.18" y="230.68" width="11.02" height="9.97"/><rect class="69a4e3ed-1c5c-4fdd-afe1-b7a55a72cbce" x="150.2" y="230.68" width="11.02" height="9.97"/><rect class="69a4e3ed-1c5c-4fdd-afe1-b7a55a72cbce" x="150.2" y="230.68" width="11.02" height="9.97"/><rect class="69a4e3ed-1c5c-4fdd-afe1-b7a55a72cbce" x="161.22" y="230.68" width="11.02" height="9.97"/><rect class="69a4e3ed-1c5c-4fdd-afe1-b7a55a72cbce" x="161.22" y="230.68" width="11.02" height="9.97"/><rect class="69a4e3ed-1c5c-4fdd-afe1-b7a55a72cbce" x="172.23" y="230.68" width="11.02" height="9.97"/><rect class="69a4e3ed-1c5c-4fdd-afe1-b7a55a72cbce" x="172.23" y="230.68" width="11.02" height="9.97"/><rect class="69a4e3ed-1c5c-4fdd-afe1-b7a55a72cbce" x="205.29" y="230.68" width="11.02" height="9.97"/><rect class="69a4e3ed-1c5c-4fdd-afe1-b7a55a72cbce" x="205.29" y="230.68" width="11.02" height="9.97"/><rect class="69a4e3ed-1c5c-4fdd-afe1-b7a55a72cbce" x="216.31" y="230.68" width="11.02" height="9.97"/><rect class="69a4e3ed-1c5c-4fdd-afe1-b7a55a72cbce" x="216.31" y="230.68" width="11.02" height="9.97"/><rect class="69a4e3ed-1c5c-4fdd-afe1-b7a55a72cbce" x="238.34" y="230.68" width="11.02" height="9.97"/><rect class="69a4e3ed-1c5c-4fdd-afe1-b7a55a72cbce" x="238.34" y="230.68" width="11.02" height="9.97"/><rect class="ee647f57-22dd-41d2-a99f-461e2dee5e72" x="227.33" y="140.98" width="11.02" height="9.97"/><rect class="ee647f57-22dd-41d2-a99f-461e2dee5e72" x="227.33" y="140.98" width="11.02" height="9.97"/><rect class="c8d0ba04-6678-446e-8f33-cc8a842df87e" x="227.33" y="150.95" width="11.02" height="9.97"/><rect class="c8d0ba04-6678-446e-8f33-cc8a842df87e" x="227.33" y="150.95" width="11.02" height="9.97"/><rect class="c8d0ba04-6678-446e-8f33-cc8a842df87e" x="227.33" y="160.92" width="11.02" height="9.97"/><rect class="c8d0ba04-6678-446e-8f33-cc8a842df87e" x="227.33" y="160.92" width="11.02" height="9.97"/><rect class="c8d0ba04-6678-446e-8f33-cc8a842df87e" x="227.33" y="170.88" width="11.02" height="9.97"/><rect class="c8d0ba04-6678-446e-8f33-cc8a842df87e" x="227.33" y="170.88" width="11.02" height="9.97"/><rect class="69a4e3ed-1c5c-4fdd-afe1-b7a55a72cbce" x="227.33" y="180.85" width="11.02" height="9.97"/><rect class="69a4e3ed-1c5c-4fdd-afe1-b7a55a72cbce" x="227.33" y="180.85" width="11.02" height="9.97"/><rect class="69a4e3ed-1c5c-4fdd-afe1-b7a55a72cbce" x="227.33" y="190.82" width="11.02" height="9.97"/><rect class="69a4e3ed-1c5c-4fdd-afe1-b7a55a72cbce" x="227.33" y="190.82" width="11.02" height="9.97"/><rect class="69a4e3ed-1c5c-4fdd-afe1-b7a55a72cbce" x="227.33" y="200.78" width="11.02" height="9.97"/><rect class="69a4e3ed-1c5c-4fdd-afe1-b7a55a72cbce" x="227.33" y="200.78" width="11.02" height="9.97"/><rect class="69a4e3ed-1c5c-4fdd-afe1-b7a55a72cbce" x="227.33" y="210.75" width="11.02" height="9.97"/><rect class="69a4e3ed-1c5c-4fdd-afe1-b7a55a72cbce" x="227.33" y="210.75" width="11.02" height="9.97"/><rect class="69a4e3ed-1c5c-4fdd-afe1-b7a55a72cbce" x="227.33" y="220.71" width="11.02" height="9.97"/><rect class="69a4e3ed-1c5c-4fdd-afe1-b7a55a72cbce" x="227.33" y="220.71" width="11.02" height="9.97"/><rect class="69a4e3ed-1c5c-4fdd-afe1-b7a55a72cbce" x="227.33" y="230.68" width="11.02" height="9.97"/><rect class="69a4e3ed-1c5c-4fdd-afe1-b7a55a72cbce" x="227.33" y="230.68" width="11.02" height="9.97"/><rect class="69a4e3ed-1c5c-4fdd-afe1-b7a55a72cbce" x="183.25" y="230.68" width="11.02" height="9.97"/><rect class="69a4e3ed-1c5c-4fdd-afe1-b7a55a72cbce" x="183.25" y="230.68" width="11.02" height="9.97"/><rect class="69a4e3ed-1c5c-4fdd-afe1-b7a55a72cbce" x="194.27" y="230.68" width="11.02" height="9.97"/><rect class="69a4e3ed-1c5c-4fdd-afe1-b7a55a72cbce" x="194.27" y="230.68" width="11.02" height="9.97"/><polygon class="a2a08063-d055-417f-b977-66c68f4fc33c" points="248.42 139.98 139.42 140.12 193.84 89.8 248.42 139.98"/></svg>