<svg id="b57eae63-ffea-4129-975c-0d55ed47ac12" data-name="Fondo" xmlns="http://www.w3.org/2000/svg" viewBox="0 0 300 400"><defs><style>.\38 c7c9ea7-1c0b-4a57-81a2-5a8434618b84{fill:#d6eddc;stroke:#fff;stroke-width:1.46px;}.\30 3aabcd9-1a39-44a1-af82-21c25962c730,.\32 3693142-895d-4848-b892-d91d5cae5a9e,.\32 e7db649-1ac6-4143-8af1-7cb832f0c008,.\35 d20f1a9-79b3-4a3b-950a-f97d92928e8d,.\38 c7c9ea7-1c0b-4a57-81a2-5a8434618b84,.d97a5439-835f-410d-99be-acadbcf73211{stroke-miterlimit:10;}.f495e1e9-698b-4c8c-bd8b-096ac3c4a0eb{font-size:38px;}.\34 e4573be-8c40-4efc-83a3-355e6e8eadd3,.d0391322-7925-4802-872d-8aa1c0d53bb3,.f495e1e9-698b-4c8c-bd8b-096ac3c4a0eb{font-family:Myriad Pro;font-weight:700;}.d0391322-7925-4802-872d-8aa1c0d53bb3{font-size:18px;fill:#232323;}.\34 e4573be-8c40-4efc-83a3-355e6e8eadd3{font-size:39.55px;fill:#118c97;white-space:pre;}.\35 d20f1a9-79b3-4a3b-950a-f97d92928e8d{fill:#8e4713;}.\30 3aabcd9-1a39-44a1-af82-21c25962c730,.\32 3693142-895d-4848-b892-d91d5cae5a9e,.\32 e7db649-1ac6-4143-8af1-7cb832f0c008,.\35 d20f1a9-79b3-4a3b-950a-f97d92928e8d{stroke:#000;}.\30 3aabcd9-1a39-44a1-af82-21c25962c730,.\32 3693142-895d-4848-b892-d91d5cae5a9e,.\32 e7db649-1ac6-4143-8af1-7cb832f0c008,.\35 d20f1a9-79b3-4a3b-950a-f97d92928e8d,.d97a5439-835f-410d-99be-acadbcf73211{stroke-width:0.31px;}.\32 3693142-895d-4848-b892-d91d5cae5a9e{fill:#ff9231;}.\30 3aabcd9-1a39-44a1-af82-21c25962c730{fill:#ff6c49;}.\32 e7db649-1ac6-4143-8af1-7cb832f0c008{fill:#9fa09f;}.d97a5439-835f-410d-99be-acadbcf73211{stroke:#020202;}</style></defs><title>Catástrofes </title><rect class="8c7c9ea7-1c0b-4a57-81a2-5a8434618b84" x="0.54" width="300" height="400"/><text class="f495e1e9-698b-4c8c-bd8b-096ac3c4a0eb" transform="translate(42.48 39.51) scale(0.91 1)">P<tspan x="20.29" y="0">ed</tspan><tspan x="61.98" y="0">r</tspan><tspan x="75.16" y="0">o </tspan><tspan x="104.46" y="0">A</tspan><tspan x="128.13" y="0">guir</tspan><tspan x="194.79" y="0">r</tspan><tspan x="207.97" y="0">e </tspan><tspan x="69.77" y="38.7">C</tspan><tspan x="91.5" y="38.7">e</tspan><tspan x="111.11" y="38.7">r</tspan><tspan x="124.3" y="38.7">da</tspan></text><text class="d0391322-7925-4802-872d-8aa1c0d53bb3" transform="matrix(0.9, 0, 0, 1, 50.15, 159.61)">T<tspan x="9.45" y="0">i</tspan><tspan x="14.38" y="0">p</tspan><tspan x="25.2" y="0">o de </tspan></text><text class="d0391322-7925-4802-872d-8aa1c0d53bb3" transform="translate(50.17 181.01) rotate(0.38) scale(0.9 1)">V<tspan x="10.96" y="0">ivienda</tspan></text><text class="d0391322-7925-4802-872d-8aa1c0d53bb3" transform="translate(109.06 296.51) rotate(-0.07) scale(0.9 1)">C<tspan x="10.53" y="0">a</tspan><tspan x="19.89" y="0">tást</tspan><tspan x="50.42" y="0">r</tspan><tspan x="57.11" y="0">o</tspan><tspan x="67.5" y="0">f</tspan><tspan x="73.46" y="0">es</tspan></text><text class="4e4573be-8c40-4efc-83a3-355e6e8eadd3" transform="translate(162.72 344.95) scale(0.88 1)"> 2</text><polygon points="130.14 333.93 129.37 327.39 130 322.79 132.21 318.58 135.22 315.08 137.93 313.51 137.34 315.44 136.66 317.82 136.14 321.63 136.56 324.61 136.95 326.81 137.93 329.11 139 331.68 141.79 335.35 143.85 338.07 144.34 334.61 146.09 330.67 147.84 329.11 149.26 327.92 150 327.09 150 328.83 149.36 331.13 149.72 333.51 149.99 335.07 150.62 338.07 151.81 341.77 153.1 345.99 154 349.76 154 352.51 153.01 356.91 152.08 358.66 150.35 360.58 148.22 362.25 145.7 363.52 143.56 364.35 144.73 362.79 145.51 361.15 145.6 358.84 144.92 356.91 144.24 355.63 143.47 353.88 143.08 352.6 143.27 350.19 142.36 351.3 142 352.32 142 353.61 141.76 354.89 141.35 355.72 141.41 356.5 140.38 355.12 139.87 353.13 140.24 350.51 140.75 348.59 140.6 346.45 140.23 344.94 139.14 343.08 137.68 341.36 138.12 344.25 137.97 345.76 137.39 347.97 136.81 349 136.14 350.58 133.72 352.99 133 353.27 133 351.41 132.72 350.19 132.61 349.62 132.19 348.86 131.51 348.31 131.24 349 131.11 350.65 130.82 352.44 130.53 353.88 130.17 354.99 129.66 356.5 129.34 357.67 129.01 359.32 129.52 361.66 130.32 362.97 131.12 363.66 132.94 365.17 129.01 364.49 127.26 363.59 125.14 362.25 123.1 361.15 120.47 358.36 119 354.78 119 350.31 120.83 345.21 122.48 342.74 124 340.74 125 338.07 125 335.99 125 333.79 125 331.58 124.5 331.17 126.02 332.55 127.18 333.93 128.08 335.37 128.73 337.16 129.23 338.81 129.16 340.26 129.3 341.98 129.15 344.39 130.47 342.25 130.9 340.33 131.12 338.47 130.14 333.93"/><rect class="5d20f1a9-79b3-4a3b-950a-f97d92928e8d" x="152.18" y="146.1" width="10.61" height="9.6"/><rect class="23693142-895d-4848-b892-d91d5cae5a9e" x="162.79" y="146.1" width="10.61" height="9.6"/><rect class="03aabcd9-1a39-44a1-af82-21c25962c730" x="199.94" y="153.48" width="10.61" height="9.6" rx="4.8" ry="4.8"/><rect class="23693142-895d-4848-b892-d91d5cae5a9e" x="173.41" y="146.1" width="10.61" height="9.6"/><rect class="23693142-895d-4848-b892-d91d5cae5a9e" x="173.41" y="146.1" width="10.61" height="9.6"/><rect class="23693142-895d-4848-b892-d91d5cae5a9e" x="184.02" y="146.1" width="10.61" height="9.6"/><rect class="23693142-895d-4848-b892-d91d5cae5a9e" x="184.02" y="146.1" width="10.61" height="9.6"/><rect class="23693142-895d-4848-b892-d91d5cae5a9e" x="215.86" y="146.1" width="10.61" height="9.6"/><rect class="23693142-895d-4848-b892-d91d5cae5a9e" x="215.86" y="146.1" width="10.61" height="9.6"/><rect class="23693142-895d-4848-b892-d91d5cae5a9e" x="226.47" y="146.1" width="10.61" height="9.6"/><rect class="23693142-895d-4848-b892-d91d5cae5a9e" x="226.47" y="146.1" width="10.61" height="9.6"/><rect class="23693142-895d-4848-b892-d91d5cae5a9e" x="247.69" y="146.1" width="10.61" height="9.6"/><rect class="23693142-895d-4848-b892-d91d5cae5a9e" x="247.69" y="146.1" width="10.61" height="9.6"/><rect class="23693142-895d-4848-b892-d91d5cae5a9e" x="194.63" y="146.1" width="10.61" height="9.6"/><rect class="23693142-895d-4848-b892-d91d5cae5a9e" x="194.63" y="146.1" width="10.61" height="9.6"/><rect class="23693142-895d-4848-b892-d91d5cae5a9e" x="205.24" y="146.1" width="10.61" height="9.6"/><rect class="23693142-895d-4848-b892-d91d5cae5a9e" x="205.24" y="146.1" width="10.61" height="9.6"/><rect class="03aabcd9-1a39-44a1-af82-21c25962c730" x="152.18" y="155.7" width="10.61" height="9.6"/><rect class="03aabcd9-1a39-44a1-af82-21c25962c730" x="152.18" y="155.7" width="10.61" height="9.6"/><rect class="03aabcd9-1a39-44a1-af82-21c25962c730" x="162.79" y="155.7" width="10.61" height="9.6"/><rect class="03aabcd9-1a39-44a1-af82-21c25962c730" x="162.79" y="155.7" width="10.61" height="9.6"/><rect class="03aabcd9-1a39-44a1-af82-21c25962c730" x="173.41" y="155.7" width="10.61" height="9.6"/><rect class="03aabcd9-1a39-44a1-af82-21c25962c730" x="173.41" y="155.7" width="10.61" height="9.6"/><rect class="03aabcd9-1a39-44a1-af82-21c25962c730" x="184.02" y="155.7" width="10.61" height="9.6"/><rect class="03aabcd9-1a39-44a1-af82-21c25962c730" x="184.02" y="155.7" width="10.61" height="9.6"/><rect class="03aabcd9-1a39-44a1-af82-21c25962c730" x="215.86" y="155.7" width="10.61" height="9.6"/><rect class="03aabcd9-1a39-44a1-af82-21c25962c730" x="215.86" y="155.7" width="10.61" height="9.6"/><rect class="2e7db649-1ac6-4143-8af1-7cb832f0c008" x="226.47" y="155.7" width="10.61" height="9.6"/><rect class="2e7db649-1ac6-4143-8af1-7cb832f0c008" x="226.47" y="155.7" width="10.61" height="9.6"/><rect class="2e7db649-1ac6-4143-8af1-7cb832f0c008" x="247.69" y="155.7" width="10.61" height="9.6"/><rect class="2e7db649-1ac6-4143-8af1-7cb832f0c008" x="247.69" y="155.7" width="10.61" height="9.6"/><rect class="03aabcd9-1a39-44a1-af82-21c25962c730" x="194.63" y="155.7" width="10.61" height="9.6"/><rect class="03aabcd9-1a39-44a1-af82-21c25962c730" x="194.63" y="155.7" width="10.61" height="9.6"/><rect class="03aabcd9-1a39-44a1-af82-21c25962c730" x="205.24" y="155.7" width="10.61" height="9.6"/><rect class="03aabcd9-1a39-44a1-af82-21c25962c730" x="152.18" y="165.3" width="10.61" height="9.6"/><rect class="03aabcd9-1a39-44a1-af82-21c25962c730" x="152.18" y="165.3" width="10.61" height="9.6"/><rect class="03aabcd9-1a39-44a1-af82-21c25962c730" x="162.79" y="165.3" width="10.61" height="9.6"/><rect class="03aabcd9-1a39-44a1-af82-21c25962c730" x="162.79" y="165.3" width="10.61" height="9.6"/><rect class="03aabcd9-1a39-44a1-af82-21c25962c730" x="173.41" y="165.3" width="10.61" height="9.6"/><rect class="03aabcd9-1a39-44a1-af82-21c25962c730" x="173.41" y="165.3" width="10.61" height="9.6"/><rect class="03aabcd9-1a39-44a1-af82-21c25962c730" x="184.02" y="165.3" width="10.61" height="9.6"/><rect class="03aabcd9-1a39-44a1-af82-21c25962c730" x="184.02" y="165.3" width="10.61" height="9.6"/><rect class="03aabcd9-1a39-44a1-af82-21c25962c730" x="215.86" y="165.3" width="10.61" height="9.6"/><rect class="03aabcd9-1a39-44a1-af82-21c25962c730" x="215.86" y="165.3" width="10.61" height="9.6"/><rect class="03aabcd9-1a39-44a1-af82-21c25962c730" x="226.47" y="165.3" width="10.61" height="9.6"/><rect class="03aabcd9-1a39-44a1-af82-21c25962c730" x="226.47" y="165.3" width="10.61" height="9.6"/><rect class="03aabcd9-1a39-44a1-af82-21c25962c730" x="247.69" y="165.3" width="10.61" height="9.6"/><rect class="03aabcd9-1a39-44a1-af82-21c25962c730" x="247.69" y="165.3" width="10.61" height="9.6"/><rect class="03aabcd9-1a39-44a1-af82-21c25962c730" x="194.63" y="165.3" width="10.61" height="9.6"/><rect class="03aabcd9-1a39-44a1-af82-21c25962c730" x="194.63" y="165.3" width="10.61" height="9.6"/><rect class="03aabcd9-1a39-44a1-af82-21c25962c730" x="205.24" y="165.3" width="10.61" height="9.6"/><rect class="03aabcd9-1a39-44a1-af82-21c25962c730" x="205.24" y="165.3" width="10.61" height="9.6"/><rect class="03aabcd9-1a39-44a1-af82-21c25962c730" x="152.18" y="174.9" width="10.61" height="9.6"/><rect class="03aabcd9-1a39-44a1-af82-21c25962c730" x="152.18" y="174.9" width="10.61" height="9.6"/><rect class="03aabcd9-1a39-44a1-af82-21c25962c730" x="162.79" y="174.9" width="10.61" height="9.6"/><rect class="03aabcd9-1a39-44a1-af82-21c25962c730" x="162.79" y="174.9" width="10.61" height="9.6"/><rect class="03aabcd9-1a39-44a1-af82-21c25962c730" x="173.41" y="174.9" width="10.61" height="9.6"/><rect class="03aabcd9-1a39-44a1-af82-21c25962c730" x="173.41" y="174.9" width="10.61" height="9.6"/><rect class="03aabcd9-1a39-44a1-af82-21c25962c730" x="184.02" y="174.9" width="10.61" height="9.6"/><rect class="03aabcd9-1a39-44a1-af82-21c25962c730" x="184.02" y="174.9" width="10.61" height="9.6"/><rect class="03aabcd9-1a39-44a1-af82-21c25962c730" x="215.86" y="174.9" width="10.61" height="9.6"/><rect class="03aabcd9-1a39-44a1-af82-21c25962c730" x="215.86" y="174.9" width="10.61" height="9.6"/><rect class="03aabcd9-1a39-44a1-af82-21c25962c730" x="226.47" y="174.9" width="10.61" height="9.6"/><rect class="03aabcd9-1a39-44a1-af82-21c25962c730" x="226.47" y="174.9" width="10.61" height="9.6"/><rect class="03aabcd9-1a39-44a1-af82-21c25962c730" x="247.69" y="174.9" width="10.61" height="9.6"/><rect class="03aabcd9-1a39-44a1-af82-21c25962c730" x="247.69" y="174.9" width="10.61" height="9.6"/><rect class="03aabcd9-1a39-44a1-af82-21c25962c730" x="194.63" y="174.9" width="10.61" height="9.6"/><rect class="03aabcd9-1a39-44a1-af82-21c25962c730" x="194.63" y="174.9" width="10.61" height="9.6"/><rect class="03aabcd9-1a39-44a1-af82-21c25962c730" x="205.24" y="174.9" width="10.61" height="9.6"/><rect class="03aabcd9-1a39-44a1-af82-21c25962c730" x="205.24" y="174.9" width="10.61" height="9.6"/><rect class="03aabcd9-1a39-44a1-af82-21c25962c730" x="152.18" y="184.5" width="10.61" height="9.6"/><rect class="03aabcd9-1a39-44a1-af82-21c25962c730" x="152.18" y="184.5" width="10.61" height="9.6"/><rect class="03aabcd9-1a39-44a1-af82-21c25962c730" x="162.79" y="184.5" width="10.61" height="9.6"/><rect class="03aabcd9-1a39-44a1-af82-21c25962c730" x="162.79" y="184.5" width="10.61" height="9.6"/><rect class="03aabcd9-1a39-44a1-af82-21c25962c730" x="173.41" y="184.5" width="10.61" height="9.6"/><rect class="03aabcd9-1a39-44a1-af82-21c25962c730" x="173.41" y="184.5" width="10.61" height="9.6"/><rect class="03aabcd9-1a39-44a1-af82-21c25962c730" x="184.02" y="184.5" width="10.61" height="9.6"/><rect class="03aabcd9-1a39-44a1-af82-21c25962c730" x="184.02" y="184.5" width="10.61" height="9.6"/><rect class="03aabcd9-1a39-44a1-af82-21c25962c730" x="215.86" y="184.5" width="10.61" height="9.6"/><rect class="03aabcd9-1a39-44a1-af82-21c25962c730" x="215.86" y="184.5" width="10.61" height="9.6"/><rect class="03aabcd9-1a39-44a1-af82-21c25962c730" x="226.47" y="184.5" width="10.61" height="9.6"/><rect class="03aabcd9-1a39-44a1-af82-21c25962c730" x="226.47" y="184.5" width="10.61" height="9.6"/><rect class="03aabcd9-1a39-44a1-af82-21c25962c730" x="247.69" y="184.5" width="10.61" height="9.6"/><rect class="03aabcd9-1a39-44a1-af82-21c25962c730" x="247.69" y="184.5" width="10.61" height="9.6"/><rect class="03aabcd9-1a39-44a1-af82-21c25962c730" x="194.63" y="184.5" width="10.61" height="9.6"/><rect class="03aabcd9-1a39-44a1-af82-21c25962c730" x="194.63" y="184.5" width="10.61" height="9.6"/><rect class="03aabcd9-1a39-44a1-af82-21c25962c730" x="205.24" y="184.5" width="10.61" height="9.6"/><rect class="03aabcd9-1a39-44a1-af82-21c25962c730" x="205.24" y="184.5" width="10.61" height="9.6"/><rect class="03aabcd9-1a39-44a1-af82-21c25962c730" x="152.18" y="194.1" width="10.61" height="9.6"/><rect class="03aabcd9-1a39-44a1-af82-21c25962c730" x="152.18" y="194.1" width="10.61" height="9.6"/><rect class="03aabcd9-1a39-44a1-af82-21c25962c730" x="162.79" y="194.1" width="10.61" height="9.6"/><rect class="03aabcd9-1a39-44a1-af82-21c25962c730" x="162.79" y="194.1" width="10.61" height="9.6"/><rect class="03aabcd9-1a39-44a1-af82-21c25962c730" x="173.41" y="194.1" width="10.61" height="9.6"/><rect class="03aabcd9-1a39-44a1-af82-21c25962c730" x="173.41" y="194.1" width="10.61" height="9.6"/><rect class="03aabcd9-1a39-44a1-af82-21c25962c730" x="184.02" y="194.1" width="10.61" height="9.6"/><rect class="03aabcd9-1a39-44a1-af82-21c25962c730" x="184.02" y="194.1" width="10.61" height="9.6"/><rect class="03aabcd9-1a39-44a1-af82-21c25962c730" x="215.86" y="194.1" width="10.61" height="9.6"/><rect class="03aabcd9-1a39-44a1-af82-21c25962c730" x="215.86" y="194.1" width="10.61" height="9.6"/><rect class="03aabcd9-1a39-44a1-af82-21c25962c730" x="226.47" y="194.1" width="10.61" height="9.6"/><rect class="03aabcd9-1a39-44a1-af82-21c25962c730" x="226.47" y="194.1" width="10.61" height="9.6"/><rect class="03aabcd9-1a39-44a1-af82-21c25962c730" x="247.69" y="194.1" width="10.61" height="9.6"/><rect class="03aabcd9-1a39-44a1-af82-21c25962c730" x="247.69" y="194.1" width="10.61" height="9.6"/><rect class="03aabcd9-1a39-44a1-af82-21c25962c730" x="194.63" y="194.1" width="10.61" height="9.6"/><rect class="03aabcd9-1a39-44a1-af82-21c25962c730" x="194.63" y="194.1" width="10.61" height="9.6"/><rect class="03aabcd9-1a39-44a1-af82-21c25962c730" x="205.24" y="194.1" width="10.61" height="9.6"/><rect class="03aabcd9-1a39-44a1-af82-21c25962c730" x="205.24" y="194.1" width="10.61" height="9.6"/><rect class="03aabcd9-1a39-44a1-af82-21c25962c730" x="152.18" y="203.7" width="10.61" height="9.6"/><rect class="03aabcd9-1a39-44a1-af82-21c25962c730" x="152.18" y="203.7" width="10.61" height="9.6"/><rect class="03aabcd9-1a39-44a1-af82-21c25962c730" x="162.79" y="203.7" width="10.61" height="9.6"/><rect class="03aabcd9-1a39-44a1-af82-21c25962c730" x="162.79" y="203.7" width="10.61" height="9.6"/><rect class="03aabcd9-1a39-44a1-af82-21c25962c730" x="173.41" y="203.7" width="10.61" height="9.6"/><rect class="03aabcd9-1a39-44a1-af82-21c25962c730" x="173.41" y="203.7" width="10.61" height="9.6"/><rect class="03aabcd9-1a39-44a1-af82-21c25962c730" x="184.02" y="203.7" width="10.61" height="9.6"/><rect class="03aabcd9-1a39-44a1-af82-21c25962c730" x="184.02" y="203.7" width="10.61" height="9.6"/><rect class="03aabcd9-1a39-44a1-af82-21c25962c730" x="215.86" y="203.7" width="10.61" height="9.6"/><rect class="03aabcd9-1a39-44a1-af82-21c25962c730" x="215.86" y="203.7" width="10.61" height="9.6"/><rect class="03aabcd9-1a39-44a1-af82-21c25962c730" x="226.47" y="203.7" width="10.61" height="9.6"/><rect class="03aabcd9-1a39-44a1-af82-21c25962c730" x="226.47" y="203.7" width="10.61" height="9.6"/><rect class="03aabcd9-1a39-44a1-af82-21c25962c730" x="247.69" y="203.7" width="10.61" height="9.6"/><rect class="03aabcd9-1a39-44a1-af82-21c25962c730" x="247.69" y="203.7" width="10.61" height="9.6"/><rect class="03aabcd9-1a39-44a1-af82-21c25962c730" x="194.63" y="203.7" width="10.61" height="9.6"/><rect class="03aabcd9-1a39-44a1-af82-21c25962c730" x="194.63" y="203.7" width="10.61" height="9.6"/><rect class="03aabcd9-1a39-44a1-af82-21c25962c730" x="205.24" y="203.7" width="10.61" height="9.6"/><rect class="03aabcd9-1a39-44a1-af82-21c25962c730" x="205.24" y="203.7" width="10.61" height="9.6"/><rect class="03aabcd9-1a39-44a1-af82-21c25962c730" x="152.18" y="213.3" width="10.61" height="9.6"/><rect class="03aabcd9-1a39-44a1-af82-21c25962c730" x="152.18" y="213.3" width="10.61" height="9.6"/><rect class="03aabcd9-1a39-44a1-af82-21c25962c730" x="162.79" y="213.3" width="10.61" height="9.6"/><rect class="03aabcd9-1a39-44a1-af82-21c25962c730" x="162.79" y="213.3" width="10.61" height="9.6"/><rect class="03aabcd9-1a39-44a1-af82-21c25962c730" x="173.41" y="213.3" width="10.61" height="9.6"/><rect class="03aabcd9-1a39-44a1-af82-21c25962c730" x="173.41" y="213.3" width="10.61" height="9.6"/><rect class="03aabcd9-1a39-44a1-af82-21c25962c730" x="184.02" y="213.3" width="10.61" height="9.6"/><rect class="03aabcd9-1a39-44a1-af82-21c25962c730" x="184.02" y="213.3" width="10.61" height="9.6"/><rect class="03aabcd9-1a39-44a1-af82-21c25962c730" x="215.86" y="213.3" width="10.61" height="9.6"/><rect class="03aabcd9-1a39-44a1-af82-21c25962c730" x="215.86" y="213.3" width="10.61" height="9.6"/><rect class="03aabcd9-1a39-44a1-af82-21c25962c730" x="226.47" y="213.3" width="10.61" height="9.6"/><rect class="03aabcd9-1a39-44a1-af82-21c25962c730" x="226.47" y="213.3" width="10.61" height="9.6"/><rect class="03aabcd9-1a39-44a1-af82-21c25962c730" x="247.69" y="213.3" width="10.61" height="9.6"/><rect class="03aabcd9-1a39-44a1-af82-21c25962c730" x="247.69" y="213.3" width="10.61" height="9.6"/><rect class="03aabcd9-1a39-44a1-af82-21c25962c730" x="194.63" y="213.3" width="10.61" height="9.6"/><rect class="03aabcd9-1a39-44a1-af82-21c25962c730" x="194.63" y="213.3" width="10.61" height="9.6"/><rect class="03aabcd9-1a39-44a1-af82-21c25962c730" x="205.24" y="213.3" width="10.61" height="9.6"/><rect class="03aabcd9-1a39-44a1-af82-21c25962c730" x="205.24" y="213.3" width="10.61" height="9.6"/><rect class="03aabcd9-1a39-44a1-af82-21c25962c730" x="152.18" y="222.9" width="10.61" height="9.6"/><rect class="03aabcd9-1a39-44a1-af82-21c25962c730" x="152.18" y="222.9" width="10.61" height="9.6"/><rect class="03aabcd9-1a39-44a1-af82-21c25962c730" x="162.79" y="222.9" width="10.61" height="9.6"/><rect class="03aabcd9-1a39-44a1-af82-21c25962c730" x="162.79" y="222.9" width="10.61" height="9.6"/><rect class="03aabcd9-1a39-44a1-af82-21c25962c730" x="173.41" y="222.9" width="10.61" height="9.6"/><rect class="03aabcd9-1a39-44a1-af82-21c25962c730" x="173.41" y="222.9" width="10.61" height="9.6"/><rect class="03aabcd9-1a39-44a1-af82-21c25962c730" x="184.02" y="222.9" width="10.61" height="9.6"/><rect class="03aabcd9-1a39-44a1-af82-21c25962c730" x="184.02" y="222.9" width="10.61" height="9.6"/><rect class="03aabcd9-1a39-44a1-af82-21c25962c730" x="215.86" y="222.9" width="10.61" height="9.6"/><rect class="03aabcd9-1a39-44a1-af82-21c25962c730" x="215.86" y="222.9" width="10.61" height="9.6"/><rect class="03aabcd9-1a39-44a1-af82-21c25962c730" x="226.47" y="222.9" width="10.61" height="9.6"/><rect class="03aabcd9-1a39-44a1-af82-21c25962c730" x="226.47" y="222.9" width="10.61" height="9.6"/><rect class="03aabcd9-1a39-44a1-af82-21c25962c730" x="247.69" y="222.9" width="10.61" height="9.6"/><rect class="03aabcd9-1a39-44a1-af82-21c25962c730" x="247.69" y="222.9" width="10.61" height="9.6"/><rect class="03aabcd9-1a39-44a1-af82-21c25962c730" x="194.63" y="222.9" width="10.61" height="9.6"/><rect class="03aabcd9-1a39-44a1-af82-21c25962c730" x="194.63" y="222.9" width="10.61" height="9.6"/><rect class="03aabcd9-1a39-44a1-af82-21c25962c730" x="205.24" y="222.9" width="10.61" height="9.6"/><rect class="03aabcd9-1a39-44a1-af82-21c25962c730" x="205.24" y="222.9" width="10.61" height="9.6"/><rect class="03aabcd9-1a39-44a1-af82-21c25962c730" x="152.18" y="232.5" width="10.61" height="9.6"/><rect class="03aabcd9-1a39-44a1-af82-21c25962c730" x="152.18" y="232.5" width="10.61" height="9.6"/><rect class="03aabcd9-1a39-44a1-af82-21c25962c730" x="162.79" y="232.5" width="10.61" height="9.6"/><rect class="03aabcd9-1a39-44a1-af82-21c25962c730" x="162.79" y="232.5" width="10.61" height="9.6"/><rect class="03aabcd9-1a39-44a1-af82-21c25962c730" x="173.41" y="232.5" width="10.61" height="9.6"/><rect class="03aabcd9-1a39-44a1-af82-21c25962c730" x="173.41" y="232.5" width="10.61" height="9.6"/><rect class="03aabcd9-1a39-44a1-af82-21c25962c730" x="184.02" y="232.5" width="10.61" height="9.6"/><rect class="03aabcd9-1a39-44a1-af82-21c25962c730" x="184.02" y="232.5" width="10.61" height="9.6"/><rect class="03aabcd9-1a39-44a1-af82-21c25962c730" x="215.86" y="232.5" width="10.61" height="9.6"/><rect class="03aabcd9-1a39-44a1-af82-21c25962c730" x="215.86" y="232.5" width="10.61" height="9.6"/><rect class="03aabcd9-1a39-44a1-af82-21c25962c730" x="226.47" y="232.5" width="10.61" height="9.6"/><rect class="03aabcd9-1a39-44a1-af82-21c25962c730" x="226.47" y="232.5" width="10.61" height="9.6"/><rect class="03aabcd9-1a39-44a1-af82-21c25962c730" x="247.69" y="232.5" width="10.61" height="9.6"/><rect class="03aabcd9-1a39-44a1-af82-21c25962c730" x="247.69" y="232.5" width="10.61" height="9.6"/><rect class="23693142-895d-4848-b892-d91d5cae5a9e" x="237.08" y="146.1" width="10.61" height="9.6"/><rect class="23693142-895d-4848-b892-d91d5cae5a9e" x="237.08" y="146.1" width="10.61" height="9.6"/><rect class="2e7db649-1ac6-4143-8af1-7cb832f0c008" x="237.08" y="155.7" width="10.61" height="9.6"/><rect class="2e7db649-1ac6-4143-8af1-7cb832f0c008" x="237.08" y="155.7" width="10.61" height="9.6"/><rect class="03aabcd9-1a39-44a1-af82-21c25962c730" x="237.08" y="165.3" width="10.61" height="9.6"/><rect class="03aabcd9-1a39-44a1-af82-21c25962c730" x="237.08" y="165.3" width="10.61" height="9.6"/><rect class="03aabcd9-1a39-44a1-af82-21c25962c730" x="237.08" y="174.9" width="10.61" height="9.6"/><rect class="03aabcd9-1a39-44a1-af82-21c25962c730" x="237.08" y="174.9" width="10.61" height="9.6"/><rect class="03aabcd9-1a39-44a1-af82-21c25962c730" x="237.08" y="184.5" width="10.61" height="9.6"/><rect class="03aabcd9-1a39-44a1-af82-21c25962c730" x="237.08" y="184.5" width="10.61" height="9.6"/><rect class="03aabcd9-1a39-44a1-af82-21c25962c730" x="237.08" y="194.1" width="10.61" height="9.6"/><rect class="03aabcd9-1a39-44a1-af82-21c25962c730" x="237.08" y="194.1" width="10.61" height="9.6"/><rect class="03aabcd9-1a39-44a1-af82-21c25962c730" x="237.08" y="203.7" width="10.61" height="9.6"/><rect class="03aabcd9-1a39-44a1-af82-21c25962c730" x="237.08" y="203.7" width="10.61" height="9.6"/><rect class="03aabcd9-1a39-44a1-af82-21c25962c730" x="237.08" y="213.3" width="10.61" height="9.6"/><rect class="03aabcd9-1a39-44a1-af82-21c25962c730" x="237.08" y="213.3" width="10.61" height="9.6"/><rect class="03aabcd9-1a39-44a1-af82-21c25962c730" x="237.08" y="222.9" width="10.61" height="9.6"/><rect class="03aabcd9-1a39-44a1-af82-21c25962c730" x="237.08" y="222.9" width="10.61" height="9.6"/><rect class="03aabcd9-1a39-44a1-af82-21c25962c730" x="237.08" y="232.5" width="10.61" height="9.6"/><rect class="03aabcd9-1a39-44a1-af82-21c25962c730" x="237.08" y="232.5" width="10.61" height="9.6"/><rect class="03aabcd9-1a39-44a1-af82-21c25962c730" x="194.63" y="232.5" width="10.61" height="9.6"/><rect class="03aabcd9-1a39-44a1-af82-21c25962c730" x="194.63" y="232.5" width="10.61" height="9.6"/><rect class="03aabcd9-1a39-44a1-af82-21c25962c730" x="205.24" y="232.5" width="10.61" height="9.6"/><rect class="03aabcd9-1a39-44a1-af82-21c25962c730" x="205.24" y="232.5" width="10.61" height="9.6"/><polygon class="d97a5439-835f-410d-99be-acadbcf73211" points="257.4 145.13 152.41 145.27 204.83 96.8 257.4 145.13"/></svg>