<svg id="29de08bb-4c0d-4b03-b67f-99347438033a" data-name="Fondo" xmlns="http://www.w3.org/2000/svg" viewBox="0 0 300 400"><defs><style>.\34 34f32c7-46e0-4ac9-8f12-88af67fc44f5{fill:#d6eddc;stroke:#fff;stroke-width:1.46px;}.\34 34f32c7-46e0-4ac9-8f12-88af67fc44f5,.\34 d30db4b-e43c-4d72-9d8a-68a21c83fff3,.\36 ab326b9-b6d8-476c-8b91-491374556d17,.\37 4f3c6e2-d324-43e2-a433-5fd1bca568f8,.a2169483-8083-427e-9806-3824e66ee918,.b825ac8d-4b55-4fc3-b7a6-f7d4426a3678,.ee565107-3549-4081-bf1c-3b0061ac557e,.f70ba9d9-fca0-4f79-87dd-2bebf5a121ef{stroke-miterlimit:10;}.\35 680560c-22fc-4091-a377-43e16b76d44d{font-size:50.86px;}.\35 680560c-22fc-4091-a377-43e16b76d44d,.e4c6e312-8a8d-45e3-830e-28cf40f37fcb,.f4472e26-557d-48ed-87c6-cc11ed6e6604{font-family:Myriad Pro;font-weight:700;}.f4472e26-557d-48ed-87c6-cc11ed6e6604{font-size:18px;fill:#232323;}.e4c6e312-8a8d-45e3-830e-28cf40f37fcb{font-size:39.55px;fill:#118c97;}.\37 4f3c6e2-d324-43e2-a433-5fd1bca568f8{fill:#ff9231;}.\34 d30db4b-e43c-4d72-9d8a-68a21c83fff3,.\36 ab326b9-b6d8-476c-8b91-491374556d17,.\37 4f3c6e2-d324-43e2-a433-5fd1bca568f8,.b825ac8d-4b55-4fc3-b7a6-f7d4426a3678,.f70ba9d9-fca0-4f79-87dd-2bebf5a121ef{stroke:#000;}.\34 d30db4b-e43c-4d72-9d8a-68a21c83fff3,.\36 ab326b9-b6d8-476c-8b91-491374556d17,.\37 4f3c6e2-d324-43e2-a433-5fd1bca568f8,.a2169483-8083-427e-9806-3824e66ee918,.b825ac8d-4b55-4fc3-b7a6-f7d4426a3678,.f70ba9d9-fca0-4f79-87dd-2bebf5a121ef{stroke-width:0.31px;}.\34 d30db4b-e43c-4d72-9d8a-68a21c83fff3{fill:#ff6c49;}.f70ba9d9-fca0-4f79-87dd-2bebf5a121ef{fill:#0093da;}.b825ac8d-4b55-4fc3-b7a6-f7d4426a3678{fill:#8e4713;}.\36 ab326b9-b6d8-476c-8b91-491374556d17{fill:#9fa09f;}.ee565107-3549-4081-bf1c-3b0061ac557e{fill:#931c0a;stroke:#1d1d1b;stroke-width:0.38px;}.a2169483-8083-427e-9806-3824e66ee918{stroke:#020202;}</style></defs><title>Catástrofes </title><rect class="434f32c7-46e0-4ac9-8f12-88af67fc44f5" x="0.54" width="300" height="400"/><text class="5680560c-22fc-4091-a377-43e16b76d44d" transform="translate(44.08 68.01) scale(0.91 1)">La <tspan x="61.44" y="0">P</tspan><tspan x="89.26" y="0">i</tspan><tspan x="102.29" y="0">n</tspan><tspan x="131.12" y="0">tana</tspan></text><text class="f4472e26-557d-48ed-87c6-cc11ed6e6604" transform="matrix(0.9, 0.01, -0.01, 1, 48.13, 156.02)">T<tspan x="9.45" y="0">i</tspan><tspan x="14.38" y="0">p</tspan><tspan x="25.2" y="0">o de </tspan></text><text class="f4472e26-557d-48ed-87c6-cc11ed6e6604" transform="matrix(0.9, 0.01, -0.01, 1, 48.13, 177.62)">V<tspan x="10.96" y="0">ivienda</tspan></text><text class="f4472e26-557d-48ed-87c6-cc11ed6e6604" transform="matrix(0.9, -0.01, 0.01, 1, 110, 284.51)">C<tspan x="10.53" y="0">a</tspan><tspan x="19.89" y="0">tást</tspan><tspan x="50.42" y="0">r</tspan><tspan x="57.11" y="0">o</tspan><tspan x="67.5" y="0">f</tspan><tspan x="73.46" y="0">es</tspan></text><text class="e4c6e312-8a8d-45e3-830e-28cf40f37fcb" transform="translate(154.95 340.13) scale(0.88 1)">8</text><polygon points="116.14 325.71 115.37 319.17 116 314.57 118.21 310.36 121.22 306.86 123.93 305.29 123.34 307.21 122.66 309.6 122.14 313.41 122.56 316.39 122.95 318.59 123.92 320.88 125 323.45 127.79 327.13 129.85 329.85 130.34 326.39 132.09 322.44 133.84 320.88 135.26 319.69 136 318.87 136 320.61 135.36 322.9 135.72 325.29 135.99 326.85 136.62 329.85 137.81 333.55 139.1 337.77 140 341.53 140 344.29 139.01 348.69 138.08 350.43 136.35 352.36 134.22 354.03 131.7 355.3 129.56 356.12 130.73 354.56 131.51 352.93 131.6 350.62 130.92 348.69 130.24 347.41 129.47 345.66 129.08 344.38 129.27 341.97 128.36 343.07 128 344.1 128 345.39 127.76 346.67 127.35 347.5 127.41 348.28 126.39 346.9 125.87 344.9 126.23 342.29 126.75 340.36 126.6 338.23 126.23 336.71 125.14 334.86 123.68 333.14 124.12 336.03 123.97 337.54 123.39 339.74 122.81 340.78 122.14 342.36 119.72 344.77 119 345.04 119 343.19 118.72 341.97 118.61 341.39 118.19 340.64 117.51 340.09 117.24 340.78 117.11 342.43 116.82 344.22 116.53 345.66 116.17 346.76 115.66 348.28 115.34 349.45 115.01 351.1 115.52 353.44 116.32 354.75 117.12 355.44 118.94 356.95 115.01 356.26 113.26 355.37 111.14 354.03 109.1 352.93 106.47 350.14 105 346.56 105 342.08 106.83 336.99 108.48 334.51 110 332.52 111 329.85 111 327.77 111 325.56 111 323.36 110.5 322.95 112.02 324.33 113.18 325.7 114.08 327.15 114.73 328.94 115.23 330.59 115.16 332.04 115.3 333.75 115.15 336.16 116.47 334.03 116.9 332.1 117.12 330.25 116.14 325.71"/><rect class="74f3c6e2-d324-43e2-a433-5fd1bca568f8" x="144.18" y="141.83" width="10.77" height="9.74"/><rect class="74f3c6e2-d324-43e2-a433-5fd1bca568f8" x="154.95" y="141.83" width="10.77" height="9.74"/><rect class="74f3c6e2-d324-43e2-a433-5fd1bca568f8" x="192.65" y="149.33" width="10.77" height="9.74" rx="4.6" ry="4.6"/><rect class="74f3c6e2-d324-43e2-a433-5fd1bca568f8" x="165.72" y="141.83" width="10.77" height="9.74"/><rect class="74f3c6e2-d324-43e2-a433-5fd1bca568f8" x="165.72" y="141.83" width="10.77" height="9.74"/><rect class="74f3c6e2-d324-43e2-a433-5fd1bca568f8" x="176.49" y="141.83" width="10.77" height="9.74"/><rect class="74f3c6e2-d324-43e2-a433-5fd1bca568f8" x="176.49" y="141.83" width="10.77" height="9.74"/><rect class="74f3c6e2-d324-43e2-a433-5fd1bca568f8" x="208.8" y="141.83" width="10.77" height="9.74"/><rect class="74f3c6e2-d324-43e2-a433-5fd1bca568f8" x="208.8" y="141.83" width="10.77" height="9.74"/><rect class="74f3c6e2-d324-43e2-a433-5fd1bca568f8" x="219.57" y="141.83" width="10.77" height="9.74"/><rect class="74f3c6e2-d324-43e2-a433-5fd1bca568f8" x="219.57" y="141.83" width="10.77" height="9.74"/><rect class="74f3c6e2-d324-43e2-a433-5fd1bca568f8" x="241.11" y="141.83" width="10.77" height="9.74"/><rect class="74f3c6e2-d324-43e2-a433-5fd1bca568f8" x="241.11" y="141.83" width="10.77" height="9.74"/><rect class="74f3c6e2-d324-43e2-a433-5fd1bca568f8" x="187.26" y="141.83" width="10.77" height="9.74"/><rect class="74f3c6e2-d324-43e2-a433-5fd1bca568f8" x="187.26" y="141.83" width="10.77" height="9.74"/><rect class="74f3c6e2-d324-43e2-a433-5fd1bca568f8" x="198.03" y="141.83" width="10.77" height="9.74"/><rect class="74f3c6e2-d324-43e2-a433-5fd1bca568f8" x="198.03" y="141.83" width="10.77" height="9.74"/><rect class="4d30db4b-e43c-4d72-9d8a-68a21c83fff3" x="144.18" y="151.58" width="10.77" height="9.74"/><rect class="4d30db4b-e43c-4d72-9d8a-68a21c83fff3" x="144.18" y="151.58" width="10.77" height="9.74"/><rect class="4d30db4b-e43c-4d72-9d8a-68a21c83fff3" x="154.95" y="151.58" width="10.77" height="9.74"/><rect class="4d30db4b-e43c-4d72-9d8a-68a21c83fff3" x="154.95" y="151.58" width="10.77" height="9.74"/><rect class="4d30db4b-e43c-4d72-9d8a-68a21c83fff3" x="165.72" y="151.58" width="10.77" height="9.74"/><rect class="4d30db4b-e43c-4d72-9d8a-68a21c83fff3" x="165.72" y="151.58" width="10.77" height="9.74"/><rect class="f70ba9d9-fca0-4f79-87dd-2bebf5a121ef" x="176.49" y="151.58" width="10.77" height="9.74"/><rect class="b825ac8d-4b55-4fc3-b7a6-f7d4426a3678" x="176.49" y="151.58" width="10.77" height="9.74"/><rect class="74f3c6e2-d324-43e2-a433-5fd1bca568f8" x="208.8" y="151.58" width="10.77" height="9.74"/><rect class="74f3c6e2-d324-43e2-a433-5fd1bca568f8" x="208.8" y="151.58" width="10.77" height="9.74"/><rect class="74f3c6e2-d324-43e2-a433-5fd1bca568f8" x="219.57" y="151.58" width="10.77" height="9.74"/><rect class="74f3c6e2-d324-43e2-a433-5fd1bca568f8" x="219.57" y="151.58" width="10.77" height="9.74"/><rect class="74f3c6e2-d324-43e2-a433-5fd1bca568f8" x="241.11" y="151.58" width="10.77" height="9.74"/><rect class="74f3c6e2-d324-43e2-a433-5fd1bca568f8" x="241.11" y="151.58" width="10.77" height="9.74"/><rect class="f70ba9d9-fca0-4f79-87dd-2bebf5a121ef" x="187.26" y="151.58" width="10.77" height="9.74"/><rect class="6ab326b9-b6d8-476c-8b91-491374556d17" x="187.26" y="151.58" width="10.77" height="9.74"/><rect class="ee565107-3549-4081-bf1c-3b0061ac557e" x="198.03" y="151.58" width="10.77" height="9.74"/><rect class="4d30db4b-e43c-4d72-9d8a-68a21c83fff3" x="144.18" y="161.32" width="10.77" height="9.74"/><rect class="4d30db4b-e43c-4d72-9d8a-68a21c83fff3" x="144.18" y="161.32" width="10.77" height="9.74"/><rect class="4d30db4b-e43c-4d72-9d8a-68a21c83fff3" x="154.95" y="161.32" width="10.77" height="9.74"/><rect class="4d30db4b-e43c-4d72-9d8a-68a21c83fff3" x="154.95" y="161.32" width="10.77" height="9.74"/><rect class="4d30db4b-e43c-4d72-9d8a-68a21c83fff3" x="165.72" y="161.32" width="10.77" height="9.74"/><rect class="4d30db4b-e43c-4d72-9d8a-68a21c83fff3" x="165.72" y="161.32" width="10.77" height="9.74"/><rect class="4d30db4b-e43c-4d72-9d8a-68a21c83fff3" x="176.49" y="161.32" width="10.77" height="9.74"/><rect class="4d30db4b-e43c-4d72-9d8a-68a21c83fff3" x="176.49" y="161.32" width="10.77" height="9.74"/><rect class="4d30db4b-e43c-4d72-9d8a-68a21c83fff3" x="208.8" y="161.32" width="10.77" height="9.74"/><rect class="4d30db4b-e43c-4d72-9d8a-68a21c83fff3" x="208.8" y="161.32" width="10.77" height="9.74"/><rect class="4d30db4b-e43c-4d72-9d8a-68a21c83fff3" x="219.57" y="161.32" width="10.77" height="9.74"/><rect class="4d30db4b-e43c-4d72-9d8a-68a21c83fff3" x="219.57" y="161.32" width="10.77" height="9.74"/><rect class="4d30db4b-e43c-4d72-9d8a-68a21c83fff3" x="241.11" y="161.32" width="10.77" height="9.74"/><rect class="4d30db4b-e43c-4d72-9d8a-68a21c83fff3" x="241.11" y="161.32" width="10.77" height="9.74"/><rect class="4d30db4b-e43c-4d72-9d8a-68a21c83fff3" x="187.26" y="161.32" width="10.77" height="9.74"/><rect class="4d30db4b-e43c-4d72-9d8a-68a21c83fff3" x="187.26" y="161.32" width="10.77" height="9.74"/><rect class="4d30db4b-e43c-4d72-9d8a-68a21c83fff3" x="198.03" y="161.32" width="10.77" height="9.74"/><rect class="4d30db4b-e43c-4d72-9d8a-68a21c83fff3" x="198.03" y="161.32" width="10.77" height="9.74"/><rect class="4d30db4b-e43c-4d72-9d8a-68a21c83fff3" x="144.18" y="171.06" width="10.77" height="9.74"/><rect class="4d30db4b-e43c-4d72-9d8a-68a21c83fff3" x="144.18" y="171.06" width="10.77" height="9.74"/><rect class="4d30db4b-e43c-4d72-9d8a-68a21c83fff3" x="154.95" y="171.06" width="10.77" height="9.74"/><rect class="4d30db4b-e43c-4d72-9d8a-68a21c83fff3" x="154.95" y="171.06" width="10.77" height="9.74"/><rect class="4d30db4b-e43c-4d72-9d8a-68a21c83fff3" x="165.72" y="171.06" width="10.77" height="9.74"/><rect class="4d30db4b-e43c-4d72-9d8a-68a21c83fff3" x="165.72" y="171.06" width="10.77" height="9.74"/><rect class="4d30db4b-e43c-4d72-9d8a-68a21c83fff3" x="176.49" y="171.06" width="10.77" height="9.74"/><rect class="4d30db4b-e43c-4d72-9d8a-68a21c83fff3" x="176.49" y="171.06" width="10.77" height="9.74"/><rect class="4d30db4b-e43c-4d72-9d8a-68a21c83fff3" x="208.8" y="171.06" width="10.77" height="9.74"/><rect class="4d30db4b-e43c-4d72-9d8a-68a21c83fff3" x="208.8" y="171.06" width="10.77" height="9.74"/><rect class="4d30db4b-e43c-4d72-9d8a-68a21c83fff3" x="219.57" y="171.06" width="10.77" height="9.74"/><rect class="4d30db4b-e43c-4d72-9d8a-68a21c83fff3" x="219.57" y="171.06" width="10.77" height="9.74"/><rect class="4d30db4b-e43c-4d72-9d8a-68a21c83fff3" x="241.11" y="171.06" width="10.77" height="9.74"/><rect class="4d30db4b-e43c-4d72-9d8a-68a21c83fff3" x="241.11" y="171.06" width="10.77" height="9.74"/><rect class="4d30db4b-e43c-4d72-9d8a-68a21c83fff3" x="187.26" y="171.06" width="10.77" height="9.74"/><rect class="4d30db4b-e43c-4d72-9d8a-68a21c83fff3" x="187.26" y="171.06" width="10.77" height="9.74"/><rect class="4d30db4b-e43c-4d72-9d8a-68a21c83fff3" x="198.03" y="171.06" width="10.77" height="9.74"/><rect class="4d30db4b-e43c-4d72-9d8a-68a21c83fff3" x="198.03" y="171.06" width="10.77" height="9.74"/><rect class="4d30db4b-e43c-4d72-9d8a-68a21c83fff3" x="144.18" y="180.8" width="10.77" height="9.74"/><rect class="4d30db4b-e43c-4d72-9d8a-68a21c83fff3" x="144.18" y="180.8" width="10.77" height="9.74"/><rect class="4d30db4b-e43c-4d72-9d8a-68a21c83fff3" x="154.95" y="180.8" width="10.77" height="9.74"/><rect class="4d30db4b-e43c-4d72-9d8a-68a21c83fff3" x="154.95" y="180.8" width="10.77" height="9.74"/><rect class="4d30db4b-e43c-4d72-9d8a-68a21c83fff3" x="165.72" y="180.8" width="10.77" height="9.74"/><rect class="4d30db4b-e43c-4d72-9d8a-68a21c83fff3" x="165.72" y="180.8" width="10.77" height="9.74"/><rect class="4d30db4b-e43c-4d72-9d8a-68a21c83fff3" x="176.49" y="180.8" width="10.77" height="9.74"/><rect class="4d30db4b-e43c-4d72-9d8a-68a21c83fff3" x="176.49" y="180.8" width="10.77" height="9.74"/><rect class="4d30db4b-e43c-4d72-9d8a-68a21c83fff3" x="208.8" y="180.8" width="10.77" height="9.74"/><rect class="4d30db4b-e43c-4d72-9d8a-68a21c83fff3" x="208.8" y="180.8" width="10.77" height="9.74"/><rect class="4d30db4b-e43c-4d72-9d8a-68a21c83fff3" x="219.57" y="180.8" width="10.77" height="9.74"/><rect class="4d30db4b-e43c-4d72-9d8a-68a21c83fff3" x="219.57" y="180.8" width="10.77" height="9.74"/><rect class="4d30db4b-e43c-4d72-9d8a-68a21c83fff3" x="241.11" y="180.8" width="10.77" height="9.74"/><rect class="4d30db4b-e43c-4d72-9d8a-68a21c83fff3" x="241.11" y="180.8" width="10.77" height="9.74"/><rect class="4d30db4b-e43c-4d72-9d8a-68a21c83fff3" x="187.26" y="180.8" width="10.77" height="9.74"/><rect class="4d30db4b-e43c-4d72-9d8a-68a21c83fff3" x="187.26" y="180.8" width="10.77" height="9.74"/><rect class="4d30db4b-e43c-4d72-9d8a-68a21c83fff3" x="198.03" y="180.8" width="10.77" height="9.74"/><rect class="4d30db4b-e43c-4d72-9d8a-68a21c83fff3" x="198.03" y="180.8" width="10.77" height="9.74"/><rect class="4d30db4b-e43c-4d72-9d8a-68a21c83fff3" x="144.18" y="190.54" width="10.77" height="9.74"/><rect class="4d30db4b-e43c-4d72-9d8a-68a21c83fff3" x="144.18" y="190.54" width="10.77" height="9.74"/><rect class="4d30db4b-e43c-4d72-9d8a-68a21c83fff3" x="154.95" y="190.54" width="10.77" height="9.74"/><rect class="4d30db4b-e43c-4d72-9d8a-68a21c83fff3" x="154.95" y="190.54" width="10.77" height="9.74"/><rect class="4d30db4b-e43c-4d72-9d8a-68a21c83fff3" x="165.72" y="190.54" width="10.77" height="9.74"/><rect class="4d30db4b-e43c-4d72-9d8a-68a21c83fff3" x="165.72" y="190.54" width="10.77" height="9.74"/><rect class="4d30db4b-e43c-4d72-9d8a-68a21c83fff3" x="176.49" y="190.54" width="10.77" height="9.74"/><rect class="4d30db4b-e43c-4d72-9d8a-68a21c83fff3" x="176.49" y="190.54" width="10.77" height="9.74"/><rect class="4d30db4b-e43c-4d72-9d8a-68a21c83fff3" x="208.8" y="190.54" width="10.77" height="9.74"/><rect class="4d30db4b-e43c-4d72-9d8a-68a21c83fff3" x="208.8" y="190.54" width="10.77" height="9.74"/><rect class="4d30db4b-e43c-4d72-9d8a-68a21c83fff3" x="219.57" y="190.54" width="10.77" height="9.74"/><rect class="4d30db4b-e43c-4d72-9d8a-68a21c83fff3" x="219.57" y="190.54" width="10.77" height="9.74"/><rect class="4d30db4b-e43c-4d72-9d8a-68a21c83fff3" x="241.11" y="190.54" width="10.77" height="9.74"/><rect class="4d30db4b-e43c-4d72-9d8a-68a21c83fff3" x="241.11" y="190.54" width="10.77" height="9.74"/><rect class="4d30db4b-e43c-4d72-9d8a-68a21c83fff3" x="187.26" y="190.54" width="10.77" height="9.74"/><rect class="4d30db4b-e43c-4d72-9d8a-68a21c83fff3" x="187.26" y="190.54" width="10.77" height="9.74"/><rect class="4d30db4b-e43c-4d72-9d8a-68a21c83fff3" x="198.03" y="190.54" width="10.77" height="9.74"/><rect class="4d30db4b-e43c-4d72-9d8a-68a21c83fff3" x="198.03" y="190.54" width="10.77" height="9.74"/><rect class="4d30db4b-e43c-4d72-9d8a-68a21c83fff3" x="144.18" y="200.29" width="10.77" height="9.74"/><rect class="4d30db4b-e43c-4d72-9d8a-68a21c83fff3" x="144.18" y="200.29" width="10.77" height="9.74"/><rect class="4d30db4b-e43c-4d72-9d8a-68a21c83fff3" x="154.95" y="200.29" width="10.77" height="9.74"/><rect class="4d30db4b-e43c-4d72-9d8a-68a21c83fff3" x="154.95" y="200.29" width="10.77" height="9.74"/><rect class="4d30db4b-e43c-4d72-9d8a-68a21c83fff3" x="165.72" y="200.29" width="10.77" height="9.74"/><rect class="4d30db4b-e43c-4d72-9d8a-68a21c83fff3" x="165.72" y="200.29" width="10.77" height="9.74"/><rect class="4d30db4b-e43c-4d72-9d8a-68a21c83fff3" x="176.49" y="200.29" width="10.77" height="9.74"/><rect class="4d30db4b-e43c-4d72-9d8a-68a21c83fff3" x="176.49" y="200.29" width="10.77" height="9.74"/><rect class="4d30db4b-e43c-4d72-9d8a-68a21c83fff3" x="208.8" y="200.29" width="10.77" height="9.74"/><rect class="4d30db4b-e43c-4d72-9d8a-68a21c83fff3" x="208.8" y="200.29" width="10.77" height="9.74"/><rect class="4d30db4b-e43c-4d72-9d8a-68a21c83fff3" x="219.57" y="200.29" width="10.77" height="9.74"/><rect class="4d30db4b-e43c-4d72-9d8a-68a21c83fff3" x="219.57" y="200.29" width="10.77" height="9.74"/><rect class="4d30db4b-e43c-4d72-9d8a-68a21c83fff3" x="241.11" y="200.29" width="10.77" height="9.74"/><rect class="4d30db4b-e43c-4d72-9d8a-68a21c83fff3" x="241.11" y="200.29" width="10.77" height="9.74"/><rect class="4d30db4b-e43c-4d72-9d8a-68a21c83fff3" x="187.26" y="200.29" width="10.77" height="9.74"/><rect class="4d30db4b-e43c-4d72-9d8a-68a21c83fff3" x="187.26" y="200.29" width="10.77" height="9.74"/><rect class="4d30db4b-e43c-4d72-9d8a-68a21c83fff3" x="198.03" y="200.29" width="10.77" height="9.74"/><rect class="4d30db4b-e43c-4d72-9d8a-68a21c83fff3" x="198.03" y="200.29" width="10.77" height="9.74"/><rect class="4d30db4b-e43c-4d72-9d8a-68a21c83fff3" x="144.18" y="210.03" width="10.77" height="9.74"/><rect class="4d30db4b-e43c-4d72-9d8a-68a21c83fff3" x="144.18" y="210.03" width="10.77" height="9.74"/><rect class="4d30db4b-e43c-4d72-9d8a-68a21c83fff3" x="154.95" y="210.03" width="10.77" height="9.74"/><rect class="4d30db4b-e43c-4d72-9d8a-68a21c83fff3" x="154.95" y="210.03" width="10.77" height="9.74"/><rect class="4d30db4b-e43c-4d72-9d8a-68a21c83fff3" x="165.72" y="210.03" width="10.77" height="9.74"/><rect class="4d30db4b-e43c-4d72-9d8a-68a21c83fff3" x="165.72" y="210.03" width="10.77" height="9.74"/><rect class="4d30db4b-e43c-4d72-9d8a-68a21c83fff3" x="176.49" y="210.03" width="10.77" height="9.74"/><rect class="4d30db4b-e43c-4d72-9d8a-68a21c83fff3" x="176.49" y="210.03" width="10.77" height="9.74"/><rect class="4d30db4b-e43c-4d72-9d8a-68a21c83fff3" x="208.8" y="210.03" width="10.77" height="9.74"/><rect class="4d30db4b-e43c-4d72-9d8a-68a21c83fff3" x="208.8" y="210.03" width="10.77" height="9.74"/><rect class="4d30db4b-e43c-4d72-9d8a-68a21c83fff3" x="219.57" y="210.03" width="10.77" height="9.74"/><rect class="4d30db4b-e43c-4d72-9d8a-68a21c83fff3" x="219.57" y="210.03" width="10.77" height="9.74"/><rect class="4d30db4b-e43c-4d72-9d8a-68a21c83fff3" x="241.11" y="210.03" width="10.77" height="9.74"/><rect class="4d30db4b-e43c-4d72-9d8a-68a21c83fff3" x="241.11" y="210.03" width="10.77" height="9.74"/><rect class="4d30db4b-e43c-4d72-9d8a-68a21c83fff3" x="187.26" y="210.03" width="10.77" height="9.74"/><rect class="4d30db4b-e43c-4d72-9d8a-68a21c83fff3" x="187.26" y="210.03" width="10.77" height="9.74"/><rect class="4d30db4b-e43c-4d72-9d8a-68a21c83fff3" x="198.03" y="210.03" width="10.77" height="9.74"/><rect class="4d30db4b-e43c-4d72-9d8a-68a21c83fff3" x="198.03" y="210.03" width="10.77" height="9.74"/><rect class="4d30db4b-e43c-4d72-9d8a-68a21c83fff3" x="144.18" y="219.77" width="10.77" height="9.74"/><rect class="4d30db4b-e43c-4d72-9d8a-68a21c83fff3" x="144.18" y="219.77" width="10.77" height="9.74"/><rect class="4d30db4b-e43c-4d72-9d8a-68a21c83fff3" x="154.95" y="219.77" width="10.77" height="9.74"/><rect class="4d30db4b-e43c-4d72-9d8a-68a21c83fff3" x="154.95" y="219.77" width="10.77" height="9.74"/><rect class="4d30db4b-e43c-4d72-9d8a-68a21c83fff3" x="165.72" y="219.77" width="10.77" height="9.74"/><rect class="4d30db4b-e43c-4d72-9d8a-68a21c83fff3" x="165.72" y="219.77" width="10.77" height="9.74"/><rect class="4d30db4b-e43c-4d72-9d8a-68a21c83fff3" x="176.49" y="219.77" width="10.77" height="9.74"/><rect class="4d30db4b-e43c-4d72-9d8a-68a21c83fff3" x="176.49" y="219.77" width="10.77" height="9.74"/><rect class="4d30db4b-e43c-4d72-9d8a-68a21c83fff3" x="208.8" y="219.77" width="10.77" height="9.74"/><rect class="4d30db4b-e43c-4d72-9d8a-68a21c83fff3" x="208.8" y="219.77" width="10.77" height="9.74"/><rect class="4d30db4b-e43c-4d72-9d8a-68a21c83fff3" x="219.57" y="219.77" width="10.77" height="9.74"/><rect class="4d30db4b-e43c-4d72-9d8a-68a21c83fff3" x="219.57" y="219.77" width="10.77" height="9.74"/><rect class="4d30db4b-e43c-4d72-9d8a-68a21c83fff3" x="241.11" y="219.77" width="10.77" height="9.74"/><rect class="4d30db4b-e43c-4d72-9d8a-68a21c83fff3" x="241.11" y="219.77" width="10.77" height="9.74"/><rect class="4d30db4b-e43c-4d72-9d8a-68a21c83fff3" x="187.26" y="219.77" width="10.77" height="9.74"/><rect class="4d30db4b-e43c-4d72-9d8a-68a21c83fff3" x="187.26" y="219.77" width="10.77" height="9.74"/><rect class="4d30db4b-e43c-4d72-9d8a-68a21c83fff3" x="198.03" y="219.77" width="10.77" height="9.74"/><rect class="4d30db4b-e43c-4d72-9d8a-68a21c83fff3" x="198.03" y="219.77" width="10.77" height="9.74"/><rect class="4d30db4b-e43c-4d72-9d8a-68a21c83fff3" x="144.18" y="229.51" width="10.77" height="9.74"/><rect class="4d30db4b-e43c-4d72-9d8a-68a21c83fff3" x="144.18" y="229.51" width="10.77" height="9.74"/><rect class="4d30db4b-e43c-4d72-9d8a-68a21c83fff3" x="154.95" y="229.51" width="10.77" height="9.74"/><rect class="4d30db4b-e43c-4d72-9d8a-68a21c83fff3" x="154.95" y="229.51" width="10.77" height="9.74"/><rect class="4d30db4b-e43c-4d72-9d8a-68a21c83fff3" x="165.72" y="229.51" width="10.77" height="9.74"/><rect class="4d30db4b-e43c-4d72-9d8a-68a21c83fff3" x="165.72" y="229.51" width="10.77" height="9.74"/><rect class="4d30db4b-e43c-4d72-9d8a-68a21c83fff3" x="176.49" y="229.51" width="10.77" height="9.74"/><rect class="4d30db4b-e43c-4d72-9d8a-68a21c83fff3" x="176.49" y="229.51" width="10.77" height="9.74"/><rect class="4d30db4b-e43c-4d72-9d8a-68a21c83fff3" x="208.8" y="229.51" width="10.77" height="9.74"/><rect class="4d30db4b-e43c-4d72-9d8a-68a21c83fff3" x="208.8" y="229.51" width="10.77" height="9.74"/><rect class="4d30db4b-e43c-4d72-9d8a-68a21c83fff3" x="219.57" y="229.51" width="10.77" height="9.74"/><rect class="4d30db4b-e43c-4d72-9d8a-68a21c83fff3" x="219.57" y="229.51" width="10.77" height="9.74"/><rect class="4d30db4b-e43c-4d72-9d8a-68a21c83fff3" x="241.11" y="229.51" width="10.77" height="9.74"/><rect class="4d30db4b-e43c-4d72-9d8a-68a21c83fff3" x="241.11" y="229.51" width="10.77" height="9.74"/><rect class="74f3c6e2-d324-43e2-a433-5fd1bca568f8" x="230.34" y="141.83" width="10.77" height="9.74"/><rect class="74f3c6e2-d324-43e2-a433-5fd1bca568f8" x="230.34" y="141.83" width="10.77" height="9.74"/><rect class="74f3c6e2-d324-43e2-a433-5fd1bca568f8" x="230.34" y="151.58" width="10.77" height="9.74"/><rect class="74f3c6e2-d324-43e2-a433-5fd1bca568f8" x="230.34" y="151.58" width="10.77" height="9.74"/><rect class="4d30db4b-e43c-4d72-9d8a-68a21c83fff3" x="230.34" y="161.32" width="10.77" height="9.74"/><rect class="4d30db4b-e43c-4d72-9d8a-68a21c83fff3" x="230.34" y="161.32" width="10.77" height="9.74"/><rect class="4d30db4b-e43c-4d72-9d8a-68a21c83fff3" x="230.34" y="171.06" width="10.77" height="9.74"/><rect class="4d30db4b-e43c-4d72-9d8a-68a21c83fff3" x="230.34" y="171.06" width="10.77" height="9.74"/><rect class="4d30db4b-e43c-4d72-9d8a-68a21c83fff3" x="230.34" y="180.8" width="10.77" height="9.74"/><rect class="4d30db4b-e43c-4d72-9d8a-68a21c83fff3" x="230.34" y="180.8" width="10.77" height="9.74"/><rect class="4d30db4b-e43c-4d72-9d8a-68a21c83fff3" x="230.34" y="190.54" width="10.77" height="9.74"/><rect class="4d30db4b-e43c-4d72-9d8a-68a21c83fff3" x="230.34" y="190.54" width="10.77" height="9.74"/><rect class="4d30db4b-e43c-4d72-9d8a-68a21c83fff3" x="230.34" y="200.29" width="10.77" height="9.74"/><rect class="4d30db4b-e43c-4d72-9d8a-68a21c83fff3" x="230.34" y="200.29" width="10.77" height="9.74"/><rect class="4d30db4b-e43c-4d72-9d8a-68a21c83fff3" x="230.34" y="210.03" width="10.77" height="9.74"/><rect class="4d30db4b-e43c-4d72-9d8a-68a21c83fff3" x="230.34" y="210.03" width="10.77" height="9.74"/><rect class="4d30db4b-e43c-4d72-9d8a-68a21c83fff3" x="230.34" y="219.77" width="10.77" height="9.74"/><rect class="4d30db4b-e43c-4d72-9d8a-68a21c83fff3" x="230.34" y="219.77" width="10.77" height="9.74"/><rect class="4d30db4b-e43c-4d72-9d8a-68a21c83fff3" x="230.34" y="229.51" width="10.77" height="9.74"/><rect class="4d30db4b-e43c-4d72-9d8a-68a21c83fff3" x="230.34" y="229.51" width="10.77" height="9.74"/><rect class="4d30db4b-e43c-4d72-9d8a-68a21c83fff3" x="187.26" y="229.51" width="10.77" height="9.74"/><rect class="4d30db4b-e43c-4d72-9d8a-68a21c83fff3" x="187.26" y="229.51" width="10.77" height="9.74"/><rect class="4d30db4b-e43c-4d72-9d8a-68a21c83fff3" x="198.03" y="229.51" width="10.77" height="9.74"/><rect class="4d30db4b-e43c-4d72-9d8a-68a21c83fff3" x="198.03" y="229.51" width="10.77" height="9.74"/><polygon class="a2169483-8083-427e-9806-3824e66ee918" points="250.96 140.85 144.41 140.99 197.61 91.8 250.96 140.85"/></svg>