<svg id="784550ac-aec9-40b4-a210-682318446eb4" data-name="Fondo" xmlns="http://www.w3.org/2000/svg" viewBox="0 0 300 400"><defs><style>.ca226d38-db10-4270-90e4-73ec5463e37d{fill:#d6eddc;stroke:#fff;stroke-width:1.46px;}.\33 cd01647-17bd-4088-9f0e-25b68c606f7d,.\37 8d35c5b-46e4-4059-bbd6-a178be666cde,.\38 6127bfc-e068-40f0-8d47-32c6881aa1df,.\38 6ac553e-6e53-4c58-94d0-ced041f250c2,.aa409c76-b051-4cc7-84a4-910eccbe2c1a,.ca226d38-db10-4270-90e4-73ec5463e37d{stroke-miterlimit:10;}.\32 e223a39-dcb0-43cf-99c7-0bda7d240236{font-size:18px;fill:#232323;}.\32 e223a39-dcb0-43cf-99c7-0bda7d240236,.b4957035-abaf-4b15-a8ca-adc4b3479ff4,.b857ac6b-045b-4a02-b92b-8c21af44c450{font-family:Myriad Pro;font-weight:700;}.b857ac6b-045b-4a02-b92b-8c21af44c450{font-size:39.55px;fill:#118c97;white-space:pre;}.b4957035-abaf-4b15-a8ca-adc4b3479ff4{font-size:50.86px;}.\37 5b8eb85-fc9d-4a2c-9aac-b645e5627bfe{letter-spacing:-1.09px;}.\33 cd01647-17bd-4088-9f0e-25b68c606f7d{fill:#ff9231;}.\33 cd01647-17bd-4088-9f0e-25b68c606f7d,.\37 8d35c5b-46e4-4059-bbd6-a178be666cde,.\38 6ac553e-6e53-4c58-94d0-ced041f250c2{stroke:#000;}.\33 cd01647-17bd-4088-9f0e-25b68c606f7d,.\37 8d35c5b-46e4-4059-bbd6-a178be666cde,.\38 6ac553e-6e53-4c58-94d0-ced041f250c2,.aa409c76-b051-4cc7-84a4-910eccbe2c1a{stroke-width:0.32px;}.\38 6ac553e-6e53-4c58-94d0-ced041f250c2{fill:#ff6c49;}.\38 6127bfc-e068-40f0-8d47-32c6881aa1df{fill:#931c0a;stroke:#1d1d1b;stroke-width:0.39px;}.\37 8d35c5b-46e4-4059-bbd6-a178be666cde{fill:#8e4713;}.aa409c76-b051-4cc7-84a4-910eccbe2c1a{stroke:#020202;}</style></defs><title>Catástrofes </title><rect class="ca226d38-db10-4270-90e4-73ec5463e37d" x="0.54" width="300" height="400"/><text class="2e223a39-dcb0-43cf-99c7-0bda7d240236" transform="translate(109.06 295.46) rotate(-0.07) scale(0.9 1)">C<tspan x="10.53" y="0">a</tspan><tspan x="19.89" y="0">tást</tspan><tspan x="50.42" y="0">r</tspan><tspan x="57.11" y="0">o</tspan><tspan x="67.5" y="0">f</tspan><tspan x="73.46" y="0">es</tspan></text><text class="b857ac6b-045b-4a02-b92b-8c21af44c450" transform="translate(155.72 350.95) scale(0.88 1)"> 16</text><polygon points="123.14 333.93 122.37 327.39 123 322.79 125.21 318.58 128.22 315.08 130.93 313.51 130.34 315.44 129.66 317.82 129.14 321.63 129.56 324.61 129.95 326.81 130.93 329.11 132 331.68 134.79 335.35 136.85 338.07 137.34 334.61 139.09 330.67 140.84 329.11 142.26 327.92 143 327.09 143 328.83 142.36 331.13 142.72 333.51 142.99 335.07 143.62 338.07 144.81 341.77 146.1 345.99 147 349.76 147 352.51 146.01 356.91 145.08 358.66 143.35 360.58 141.22 362.25 138.7 363.52 136.56 364.35 137.73 362.79 138.51 361.15 138.6 358.84 137.92 356.91 137.24 355.63 136.47 353.88 136.08 352.6 136.27 350.19 135.36 351.3 135 352.32 135 353.61 134.76 354.89 134.35 355.72 134.41 356.5 133.38 355.12 132.87 353.13 133.24 350.51 133.75 348.59 133.6 346.45 133.23 344.94 132.14 343.08 130.68 341.36 131.12 344.25 130.97 345.76 130.39 347.97 129.81 349 129.14 350.58 126.72 352.99 126 353.27 126 351.41 125.72 350.19 125.61 349.62 125.19 348.86 124.51 348.31 124.24 349 124.11 350.65 123.82 352.44 123.53 353.88 123.17 354.99 122.66 356.5 122.34 357.67 122.01 359.32 122.52 361.66 123.32 362.97 124.12 363.66 125.94 365.17 122.01 364.49 120.26 363.59 118.14 362.25 116.1 361.15 113.47 358.36 112 354.78 112 350.31 113.83 345.21 115.48 342.74 117 340.74 118 338.07 118 335.99 118 333.79 118 331.58 117.5 331.17 119.02 332.55 120.18 333.93 121.08 335.37 121.73 337.16 122.23 338.81 122.16 340.26 122.3 341.98 122.15 344.39 123.47 342.25 123.9 340.33 124.12 338.47 123.14 333.93"/><text class="b4957035-abaf-4b15-a8ca-adc4b3479ff4" transform="translate(50.21 56.01) scale(0.91 1)"><tspan class="75b8eb85-fc9d-4a2c-9aac-b645e5627bfe">P</tspan><tspan x="27.16" y="0">eñalolén</tspan></text><text class="2e223a39-dcb0-43cf-99c7-0bda7d240236" transform="translate(51.23 152.18) rotate(0.23) scale(0.9 1)">T<tspan x="9.45" y="0">i</tspan><tspan x="14.38" y="0">p</tspan><tspan x="25.2" y="0">o de </tspan></text><text class="2e223a39-dcb0-43cf-99c7-0bda7d240236" transform="translate(51.34 173.99) rotate(-0.12) scale(0.9 1)">V<tspan x="10.96" y="0">ivienda</tspan></text><rect class="3cd01647-17bd-4088-9f0e-25b68c606f7d" x="146.18" y="137.31" width="11.09" height="10.03"/><rect class="3cd01647-17bd-4088-9f0e-25b68c606f7d" x="157.27" y="137.31" width="11.09" height="10.03"/><rect class="3cd01647-17bd-4088-9f0e-25b68c606f7d" x="196.08" y="145.02" width="11.09" height="10.03" rx="5.01" ry="5.01"/><rect class="3cd01647-17bd-4088-9f0e-25b68c606f7d" x="168.36" y="137.31" width="11.09" height="10.03"/><rect class="3cd01647-17bd-4088-9f0e-25b68c606f7d" x="168.36" y="137.31" width="11.09" height="10.03"/><rect class="3cd01647-17bd-4088-9f0e-25b68c606f7d" x="179.44" y="137.31" width="11.09" height="10.03"/><rect class="3cd01647-17bd-4088-9f0e-25b68c606f7d" x="179.44" y="137.31" width="11.09" height="10.03"/><rect class="3cd01647-17bd-4088-9f0e-25b68c606f7d" x="212.71" y="137.31" width="11.09" height="10.03"/><rect class="3cd01647-17bd-4088-9f0e-25b68c606f7d" x="212.71" y="137.31" width="11.09" height="10.03"/><rect class="3cd01647-17bd-4088-9f0e-25b68c606f7d" x="223.8" y="137.31" width="11.09" height="10.03"/><rect class="3cd01647-17bd-4088-9f0e-25b68c606f7d" x="223.8" y="137.31" width="11.09" height="10.03"/><rect class="3cd01647-17bd-4088-9f0e-25b68c606f7d" x="245.97" y="137.31" width="11.09" height="10.03"/><rect class="3cd01647-17bd-4088-9f0e-25b68c606f7d" x="245.97" y="137.31" width="11.09" height="10.03"/><rect class="3cd01647-17bd-4088-9f0e-25b68c606f7d" x="190.53" y="137.31" width="11.09" height="10.03"/><rect class="3cd01647-17bd-4088-9f0e-25b68c606f7d" x="190.53" y="137.31" width="11.09" height="10.03"/><rect class="3cd01647-17bd-4088-9f0e-25b68c606f7d" x="201.62" y="137.31" width="11.09" height="10.03"/><rect class="3cd01647-17bd-4088-9f0e-25b68c606f7d" x="201.62" y="137.31" width="11.09" height="10.03"/><rect class="3cd01647-17bd-4088-9f0e-25b68c606f7d" x="146.18" y="147.34" width="11.09" height="10.03"/><rect class="3cd01647-17bd-4088-9f0e-25b68c606f7d" x="146.18" y="147.34" width="11.09" height="10.03"/><rect class="3cd01647-17bd-4088-9f0e-25b68c606f7d" x="157.27" y="147.34" width="11.09" height="10.03"/><rect class="3cd01647-17bd-4088-9f0e-25b68c606f7d" x="157.27" y="147.34" width="11.09" height="10.03"/><rect class="3cd01647-17bd-4088-9f0e-25b68c606f7d" x="168.36" y="147.34" width="11.09" height="10.03"/><rect class="3cd01647-17bd-4088-9f0e-25b68c606f7d" x="168.36" y="147.34" width="11.09" height="10.03"/><rect class="3cd01647-17bd-4088-9f0e-25b68c606f7d" x="179.44" y="147.34" width="11.09" height="10.03"/><rect class="3cd01647-17bd-4088-9f0e-25b68c606f7d" x="179.44" y="147.34" width="11.09" height="10.03"/><rect class="3cd01647-17bd-4088-9f0e-25b68c606f7d" x="212.71" y="147.34" width="11.09" height="10.03"/><rect class="3cd01647-17bd-4088-9f0e-25b68c606f7d" x="212.71" y="147.34" width="11.09" height="10.03"/><rect class="3cd01647-17bd-4088-9f0e-25b68c606f7d" x="223.8" y="147.34" width="11.09" height="10.03"/><rect class="3cd01647-17bd-4088-9f0e-25b68c606f7d" x="223.8" y="147.34" width="11.09" height="10.03"/><rect class="3cd01647-17bd-4088-9f0e-25b68c606f7d" x="245.97" y="147.34" width="11.09" height="10.03"/><rect class="3cd01647-17bd-4088-9f0e-25b68c606f7d" x="245.97" y="147.34" width="11.09" height="10.03"/><rect class="3cd01647-17bd-4088-9f0e-25b68c606f7d" x="190.53" y="147.34" width="11.09" height="10.03"/><rect class="3cd01647-17bd-4088-9f0e-25b68c606f7d" x="190.53" y="147.34" width="11.09" height="10.03"/><rect class="3cd01647-17bd-4088-9f0e-25b68c606f7d" x="201.62" y="147.34" width="11.09" height="10.03"/><rect class="86ac553e-6e53-4c58-94d0-ced041f250c2" x="146.18" y="157.37" width="11.09" height="10.03"/><rect class="86ac553e-6e53-4c58-94d0-ced041f250c2" x="146.18" y="157.37" width="11.09" height="10.03"/><rect class="86ac553e-6e53-4c58-94d0-ced041f250c2" x="157.27" y="157.37" width="11.09" height="10.03"/><rect class="86ac553e-6e53-4c58-94d0-ced041f250c2" x="157.27" y="157.37" width="11.09" height="10.03"/><rect class="86ac553e-6e53-4c58-94d0-ced041f250c2" x="168.36" y="157.37" width="11.09" height="10.03"/><rect class="86ac553e-6e53-4c58-94d0-ced041f250c2" x="168.36" y="157.37" width="11.09" height="10.03"/><rect class="86ac553e-6e53-4c58-94d0-ced041f250c2" x="179.44" y="157.37" width="11.09" height="10.03"/><rect class="86ac553e-6e53-4c58-94d0-ced041f250c2" x="179.44" y="157.37" width="11.09" height="10.03"/><rect class="86ac553e-6e53-4c58-94d0-ced041f250c2" x="212.71" y="157.37" width="11.09" height="10.03"/><rect class="86127bfc-e068-40f0-8d47-32c6881aa1df" x="212.71" y="157.37" width="11.09" height="10.03"/><rect class="78d35c5b-46e4-4059-bbd6-a178be666cde" x="223.8" y="157.37" width="11.09" height="10.03"/><rect class="78d35c5b-46e4-4059-bbd6-a178be666cde" x="223.8" y="157.37" width="11.09" height="10.03"/><rect class="78d35c5b-46e4-4059-bbd6-a178be666cde" x="245.97" y="157.37" width="11.09" height="10.03"/><rect class="78d35c5b-46e4-4059-bbd6-a178be666cde" x="245.97" y="157.37" width="11.09" height="10.03"/><rect class="86ac553e-6e53-4c58-94d0-ced041f250c2" x="190.53" y="157.37" width="11.09" height="10.03"/><rect class="86ac553e-6e53-4c58-94d0-ced041f250c2" x="190.53" y="157.37" width="11.09" height="10.03"/><rect class="86ac553e-6e53-4c58-94d0-ced041f250c2" x="201.62" y="157.37" width="11.09" height="10.03"/><rect class="86127bfc-e068-40f0-8d47-32c6881aa1df" x="201.62" y="157.37" width="11.09" height="10.03"/><rect class="86ac553e-6e53-4c58-94d0-ced041f250c2" x="146.18" y="167.4" width="11.09" height="10.03"/><rect class="86ac553e-6e53-4c58-94d0-ced041f250c2" x="146.18" y="167.4" width="11.09" height="10.03"/><rect class="86ac553e-6e53-4c58-94d0-ced041f250c2" x="157.27" y="167.4" width="11.09" height="10.03"/><rect class="86ac553e-6e53-4c58-94d0-ced041f250c2" x="157.27" y="167.4" width="11.09" height="10.03"/><rect class="86ac553e-6e53-4c58-94d0-ced041f250c2" x="168.36" y="167.4" width="11.09" height="10.03"/><rect class="86ac553e-6e53-4c58-94d0-ced041f250c2" x="168.36" y="167.4" width="11.09" height="10.03"/><rect class="86ac553e-6e53-4c58-94d0-ced041f250c2" x="179.44" y="167.4" width="11.09" height="10.03"/><rect class="86ac553e-6e53-4c58-94d0-ced041f250c2" x="179.44" y="167.4" width="11.09" height="10.03"/><rect class="86ac553e-6e53-4c58-94d0-ced041f250c2" x="212.71" y="167.4" width="11.09" height="10.03"/><rect class="86ac553e-6e53-4c58-94d0-ced041f250c2" x="212.71" y="167.4" width="11.09" height="10.03"/><rect class="86ac553e-6e53-4c58-94d0-ced041f250c2" x="223.8" y="167.4" width="11.09" height="10.03"/><rect class="86ac553e-6e53-4c58-94d0-ced041f250c2" x="223.8" y="167.4" width="11.09" height="10.03"/><rect class="86ac553e-6e53-4c58-94d0-ced041f250c2" x="245.97" y="167.4" width="11.09" height="10.03"/><rect class="86ac553e-6e53-4c58-94d0-ced041f250c2" x="245.97" y="167.4" width="11.09" height="10.03"/><rect class="86ac553e-6e53-4c58-94d0-ced041f250c2" x="190.53" y="167.4" width="11.09" height="10.03"/><rect class="86ac553e-6e53-4c58-94d0-ced041f250c2" x="190.53" y="167.4" width="11.09" height="10.03"/><rect class="86ac553e-6e53-4c58-94d0-ced041f250c2" x="201.62" y="167.4" width="11.09" height="10.03"/><rect class="86ac553e-6e53-4c58-94d0-ced041f250c2" x="201.62" y="167.4" width="11.09" height="10.03"/><rect class="86ac553e-6e53-4c58-94d0-ced041f250c2" x="146.18" y="177.43" width="11.09" height="10.03"/><rect class="86ac553e-6e53-4c58-94d0-ced041f250c2" x="146.18" y="177.43" width="11.09" height="10.03"/><rect class="86ac553e-6e53-4c58-94d0-ced041f250c2" x="157.27" y="177.43" width="11.09" height="10.03"/><rect class="86ac553e-6e53-4c58-94d0-ced041f250c2" x="157.27" y="177.43" width="11.09" height="10.03"/><rect class="86ac553e-6e53-4c58-94d0-ced041f250c2" x="168.36" y="177.43" width="11.09" height="10.03"/><rect class="86ac553e-6e53-4c58-94d0-ced041f250c2" x="168.36" y="177.43" width="11.09" height="10.03"/><rect class="86ac553e-6e53-4c58-94d0-ced041f250c2" x="179.44" y="177.43" width="11.09" height="10.03"/><rect class="86ac553e-6e53-4c58-94d0-ced041f250c2" x="179.44" y="177.43" width="11.09" height="10.03"/><rect class="86ac553e-6e53-4c58-94d0-ced041f250c2" x="212.71" y="177.43" width="11.09" height="10.03"/><rect class="86ac553e-6e53-4c58-94d0-ced041f250c2" x="212.71" y="177.43" width="11.09" height="10.03"/><rect class="86ac553e-6e53-4c58-94d0-ced041f250c2" x="223.8" y="177.43" width="11.09" height="10.03"/><rect class="86ac553e-6e53-4c58-94d0-ced041f250c2" x="223.8" y="177.43" width="11.09" height="10.03"/><rect class="86ac553e-6e53-4c58-94d0-ced041f250c2" x="245.97" y="177.43" width="11.09" height="10.03"/><rect class="86ac553e-6e53-4c58-94d0-ced041f250c2" x="245.97" y="177.43" width="11.09" height="10.03"/><rect class="86ac553e-6e53-4c58-94d0-ced041f250c2" x="190.53" y="177.43" width="11.09" height="10.03"/><rect class="86ac553e-6e53-4c58-94d0-ced041f250c2" x="190.53" y="177.43" width="11.09" height="10.03"/><rect class="86ac553e-6e53-4c58-94d0-ced041f250c2" x="201.62" y="177.43" width="11.09" height="10.03"/><rect class="86ac553e-6e53-4c58-94d0-ced041f250c2" x="201.62" y="177.43" width="11.09" height="10.03"/><rect class="86ac553e-6e53-4c58-94d0-ced041f250c2" x="146.18" y="187.46" width="11.09" height="10.03"/><rect class="86ac553e-6e53-4c58-94d0-ced041f250c2" x="146.18" y="187.46" width="11.09" height="10.03"/><rect class="86ac553e-6e53-4c58-94d0-ced041f250c2" x="157.27" y="187.46" width="11.09" height="10.03"/><rect class="86ac553e-6e53-4c58-94d0-ced041f250c2" x="157.27" y="187.46" width="11.09" height="10.03"/><rect class="86ac553e-6e53-4c58-94d0-ced041f250c2" x="168.36" y="187.46" width="11.09" height="10.03"/><rect class="86ac553e-6e53-4c58-94d0-ced041f250c2" x="168.36" y="187.46" width="11.09" height="10.03"/><rect class="86ac553e-6e53-4c58-94d0-ced041f250c2" x="179.44" y="187.46" width="11.09" height="10.03"/><rect class="86ac553e-6e53-4c58-94d0-ced041f250c2" x="179.44" y="187.46" width="11.09" height="10.03"/><rect class="86ac553e-6e53-4c58-94d0-ced041f250c2" x="212.71" y="187.46" width="11.09" height="10.03"/><rect class="86ac553e-6e53-4c58-94d0-ced041f250c2" x="212.71" y="187.46" width="11.09" height="10.03"/><rect class="86ac553e-6e53-4c58-94d0-ced041f250c2" x="223.8" y="187.46" width="11.09" height="10.03"/><rect class="86ac553e-6e53-4c58-94d0-ced041f250c2" x="223.8" y="187.46" width="11.09" height="10.03"/><rect class="86ac553e-6e53-4c58-94d0-ced041f250c2" x="245.97" y="187.46" width="11.09" height="10.03"/><rect class="86ac553e-6e53-4c58-94d0-ced041f250c2" x="245.97" y="187.46" width="11.09" height="10.03"/><rect class="86ac553e-6e53-4c58-94d0-ced041f250c2" x="190.53" y="187.46" width="11.09" height="10.03"/><rect class="86ac553e-6e53-4c58-94d0-ced041f250c2" x="190.53" y="187.46" width="11.09" height="10.03"/><rect class="86ac553e-6e53-4c58-94d0-ced041f250c2" x="201.62" y="187.46" width="11.09" height="10.03"/><rect class="86ac553e-6e53-4c58-94d0-ced041f250c2" x="201.62" y="187.46" width="11.09" height="10.03"/><rect class="86ac553e-6e53-4c58-94d0-ced041f250c2" x="146.18" y="197.49" width="11.09" height="10.03"/><rect class="86ac553e-6e53-4c58-94d0-ced041f250c2" x="146.18" y="197.49" width="11.09" height="10.03"/><rect class="86ac553e-6e53-4c58-94d0-ced041f250c2" x="157.27" y="197.49" width="11.09" height="10.03"/><rect class="86ac553e-6e53-4c58-94d0-ced041f250c2" x="157.27" y="197.49" width="11.09" height="10.03"/><rect class="86ac553e-6e53-4c58-94d0-ced041f250c2" x="168.36" y="197.49" width="11.09" height="10.03"/><rect class="86ac553e-6e53-4c58-94d0-ced041f250c2" x="168.36" y="197.49" width="11.09" height="10.03"/><rect class="86ac553e-6e53-4c58-94d0-ced041f250c2" x="179.44" y="197.49" width="11.09" height="10.03"/><rect class="86ac553e-6e53-4c58-94d0-ced041f250c2" x="179.44" y="197.49" width="11.09" height="10.03"/><rect class="86ac553e-6e53-4c58-94d0-ced041f250c2" x="212.71" y="197.49" width="11.09" height="10.03"/><rect class="86ac553e-6e53-4c58-94d0-ced041f250c2" x="212.71" y="197.49" width="11.09" height="10.03"/><rect class="86ac553e-6e53-4c58-94d0-ced041f250c2" x="223.8" y="197.49" width="11.09" height="10.03"/><rect class="86ac553e-6e53-4c58-94d0-ced041f250c2" x="223.8" y="197.49" width="11.09" height="10.03"/><rect class="86ac553e-6e53-4c58-94d0-ced041f250c2" x="245.97" y="197.49" width="11.09" height="10.03"/><rect class="86ac553e-6e53-4c58-94d0-ced041f250c2" x="245.97" y="197.49" width="11.09" height="10.03"/><rect class="86ac553e-6e53-4c58-94d0-ced041f250c2" x="190.53" y="197.49" width="11.09" height="10.03"/><rect class="86ac553e-6e53-4c58-94d0-ced041f250c2" x="190.53" y="197.49" width="11.09" height="10.03"/><rect class="86ac553e-6e53-4c58-94d0-ced041f250c2" x="201.62" y="197.49" width="11.09" height="10.03"/><rect class="86ac553e-6e53-4c58-94d0-ced041f250c2" x="201.62" y="197.49" width="11.09" height="10.03"/><rect class="86ac553e-6e53-4c58-94d0-ced041f250c2" x="146.18" y="207.51" width="11.09" height="10.03"/><rect class="86ac553e-6e53-4c58-94d0-ced041f250c2" x="146.18" y="207.51" width="11.09" height="10.03"/><rect class="86ac553e-6e53-4c58-94d0-ced041f250c2" x="157.27" y="207.51" width="11.09" height="10.03"/><rect class="86ac553e-6e53-4c58-94d0-ced041f250c2" x="157.27" y="207.51" width="11.09" height="10.03"/><rect class="86ac553e-6e53-4c58-94d0-ced041f250c2" x="168.36" y="207.51" width="11.09" height="10.03"/><rect class="86ac553e-6e53-4c58-94d0-ced041f250c2" x="168.36" y="207.51" width="11.09" height="10.03"/><rect class="86ac553e-6e53-4c58-94d0-ced041f250c2" x="179.44" y="207.51" width="11.09" height="10.03"/><rect class="86ac553e-6e53-4c58-94d0-ced041f250c2" x="179.44" y="207.51" width="11.09" height="10.03"/><rect class="86ac553e-6e53-4c58-94d0-ced041f250c2" x="212.71" y="207.51" width="11.09" height="10.03"/><rect class="86ac553e-6e53-4c58-94d0-ced041f250c2" x="212.71" y="207.51" width="11.09" height="10.03"/><rect class="86ac553e-6e53-4c58-94d0-ced041f250c2" x="223.8" y="207.51" width="11.09" height="10.03"/><rect class="86ac553e-6e53-4c58-94d0-ced041f250c2" x="223.8" y="207.51" width="11.09" height="10.03"/><rect class="86ac553e-6e53-4c58-94d0-ced041f250c2" x="245.97" y="207.51" width="11.09" height="10.03"/><rect class="86ac553e-6e53-4c58-94d0-ced041f250c2" x="245.97" y="207.51" width="11.09" height="10.03"/><rect class="86ac553e-6e53-4c58-94d0-ced041f250c2" x="190.53" y="207.51" width="11.09" height="10.03"/><rect class="86ac553e-6e53-4c58-94d0-ced041f250c2" x="190.53" y="207.51" width="11.09" height="10.03"/><rect class="86ac553e-6e53-4c58-94d0-ced041f250c2" x="201.62" y="207.51" width="11.09" height="10.03"/><rect class="86ac553e-6e53-4c58-94d0-ced041f250c2" x="201.62" y="207.51" width="11.09" height="10.03"/><rect class="86ac553e-6e53-4c58-94d0-ced041f250c2" x="146.18" y="217.54" width="11.09" height="10.03"/><rect class="86ac553e-6e53-4c58-94d0-ced041f250c2" x="146.18" y="217.54" width="11.09" height="10.03"/><rect class="86ac553e-6e53-4c58-94d0-ced041f250c2" x="157.27" y="217.54" width="11.09" height="10.03"/><rect class="86ac553e-6e53-4c58-94d0-ced041f250c2" x="157.27" y="217.54" width="11.09" height="10.03"/><rect class="86ac553e-6e53-4c58-94d0-ced041f250c2" x="168.36" y="217.54" width="11.09" height="10.03"/><rect class="86ac553e-6e53-4c58-94d0-ced041f250c2" x="168.36" y="217.54" width="11.09" height="10.03"/><rect class="86ac553e-6e53-4c58-94d0-ced041f250c2" x="179.44" y="217.54" width="11.09" height="10.03"/><rect class="86ac553e-6e53-4c58-94d0-ced041f250c2" x="179.44" y="217.54" width="11.09" height="10.03"/><rect class="86ac553e-6e53-4c58-94d0-ced041f250c2" x="212.71" y="217.54" width="11.09" height="10.03"/><rect class="86ac553e-6e53-4c58-94d0-ced041f250c2" x="212.71" y="217.54" width="11.09" height="10.03"/><rect class="86ac553e-6e53-4c58-94d0-ced041f250c2" x="223.8" y="217.54" width="11.09" height="10.03"/><rect class="86ac553e-6e53-4c58-94d0-ced041f250c2" x="223.8" y="217.54" width="11.09" height="10.03"/><rect class="86ac553e-6e53-4c58-94d0-ced041f250c2" x="245.97" y="217.54" width="11.09" height="10.03"/><rect class="86ac553e-6e53-4c58-94d0-ced041f250c2" x="245.97" y="217.54" width="11.09" height="10.03"/><rect class="86ac553e-6e53-4c58-94d0-ced041f250c2" x="190.53" y="217.54" width="11.09" height="10.03"/><rect class="86ac553e-6e53-4c58-94d0-ced041f250c2" x="190.53" y="217.54" width="11.09" height="10.03"/><rect class="86ac553e-6e53-4c58-94d0-ced041f250c2" x="201.62" y="217.54" width="11.09" height="10.03"/><rect class="86ac553e-6e53-4c58-94d0-ced041f250c2" x="201.62" y="217.54" width="11.09" height="10.03"/><rect class="86ac553e-6e53-4c58-94d0-ced041f250c2" x="146.18" y="227.57" width="11.09" height="10.03"/><rect class="86ac553e-6e53-4c58-94d0-ced041f250c2" x="146.18" y="227.57" width="11.09" height="10.03"/><rect class="86ac553e-6e53-4c58-94d0-ced041f250c2" x="157.27" y="227.57" width="11.09" height="10.03"/><rect class="86ac553e-6e53-4c58-94d0-ced041f250c2" x="157.27" y="227.57" width="11.09" height="10.03"/><rect class="86ac553e-6e53-4c58-94d0-ced041f250c2" x="168.36" y="227.57" width="11.09" height="10.03"/><rect class="86ac553e-6e53-4c58-94d0-ced041f250c2" x="168.36" y="227.57" width="11.09" height="10.03"/><rect class="86ac553e-6e53-4c58-94d0-ced041f250c2" x="179.44" y="227.57" width="11.09" height="10.03"/><rect class="86ac553e-6e53-4c58-94d0-ced041f250c2" x="179.44" y="227.57" width="11.09" height="10.03"/><rect class="86ac553e-6e53-4c58-94d0-ced041f250c2" x="212.71" y="227.57" width="11.09" height="10.03"/><rect class="86ac553e-6e53-4c58-94d0-ced041f250c2" x="212.71" y="227.57" width="11.09" height="10.03"/><rect class="86ac553e-6e53-4c58-94d0-ced041f250c2" x="223.8" y="227.57" width="11.09" height="10.03"/><rect class="86ac553e-6e53-4c58-94d0-ced041f250c2" x="223.8" y="227.57" width="11.09" height="10.03"/><rect class="86ac553e-6e53-4c58-94d0-ced041f250c2" x="245.97" y="227.57" width="11.09" height="10.03"/><rect class="86ac553e-6e53-4c58-94d0-ced041f250c2" x="245.97" y="227.57" width="11.09" height="10.03"/><rect class="3cd01647-17bd-4088-9f0e-25b68c606f7d" x="234.88" y="137.31" width="11.09" height="10.03"/><rect class="3cd01647-17bd-4088-9f0e-25b68c606f7d" x="234.88" y="137.31" width="11.09" height="10.03"/><rect class="3cd01647-17bd-4088-9f0e-25b68c606f7d" x="234.88" y="147.34" width="11.09" height="10.03"/><rect class="3cd01647-17bd-4088-9f0e-25b68c606f7d" x="234.88" y="147.34" width="11.09" height="10.03"/><rect class="78d35c5b-46e4-4059-bbd6-a178be666cde" x="234.88" y="157.37" width="11.09" height="10.03"/><rect class="78d35c5b-46e4-4059-bbd6-a178be666cde" x="234.88" y="157.37" width="11.09" height="10.03"/><rect class="86ac553e-6e53-4c58-94d0-ced041f250c2" x="234.88" y="167.4" width="11.09" height="10.03"/><rect class="86ac553e-6e53-4c58-94d0-ced041f250c2" x="234.88" y="167.4" width="11.09" height="10.03"/><rect class="86ac553e-6e53-4c58-94d0-ced041f250c2" x="234.88" y="177.43" width="11.09" height="10.03"/><rect class="86ac553e-6e53-4c58-94d0-ced041f250c2" x="234.88" y="177.43" width="11.09" height="10.03"/><rect class="86ac553e-6e53-4c58-94d0-ced041f250c2" x="234.88" y="187.46" width="11.09" height="10.03"/><rect class="86ac553e-6e53-4c58-94d0-ced041f250c2" x="234.88" y="187.46" width="11.09" height="10.03"/><rect class="86ac553e-6e53-4c58-94d0-ced041f250c2" x="234.88" y="197.49" width="11.09" height="10.03"/><rect class="86ac553e-6e53-4c58-94d0-ced041f250c2" x="234.88" y="197.49" width="11.09" height="10.03"/><rect class="86ac553e-6e53-4c58-94d0-ced041f250c2" x="234.88" y="207.51" width="11.09" height="10.03"/><rect class="86ac553e-6e53-4c58-94d0-ced041f250c2" x="234.88" y="207.51" width="11.09" height="10.03"/><rect class="86ac553e-6e53-4c58-94d0-ced041f250c2" x="234.88" y="217.54" width="11.09" height="10.03"/><rect class="86ac553e-6e53-4c58-94d0-ced041f250c2" x="234.88" y="217.54" width="11.09" height="10.03"/><rect class="86ac553e-6e53-4c58-94d0-ced041f250c2" x="234.88" y="227.57" width="11.09" height="10.03"/><rect class="86ac553e-6e53-4c58-94d0-ced041f250c2" x="234.88" y="227.57" width="11.09" height="10.03"/><rect class="86ac553e-6e53-4c58-94d0-ced041f250c2" x="190.53" y="227.57" width="11.09" height="10.03"/><rect class="86ac553e-6e53-4c58-94d0-ced041f250c2" x="190.53" y="227.57" width="11.09" height="10.03"/><rect class="86ac553e-6e53-4c58-94d0-ced041f250c2" x="201.62" y="227.57" width="11.09" height="10.03"/><rect class="86ac553e-6e53-4c58-94d0-ced041f250c2" x="201.62" y="227.57" width="11.09" height="10.03"/><polygon class="aa409c76-b051-4cc7-84a4-910eccbe2c1a" points="256.11 136.3 146.42 136.44 201.19 85.8 256.11 136.3"/></svg>