<svg id="44d91a23-20fc-483c-bcf5-ac015daa1b3c" data-name="Fondo" xmlns="http://www.w3.org/2000/svg" viewBox="0 0 300 400"><defs><style>.a133aec7-3bdf-491c-9e54-f0819e3266eb{fill:#d6eddc;stroke:#fff;stroke-width:1.46px;}.\33 b93c067-aacb-4a4e-84f8-9f04f06484c6,.a133aec7-3bdf-491c-9e54-f0819e3266eb,.a18f4c74-61a2-4ff9-b631-ff584e0d9f7f,.a2623636-cb85-4e93-998b-596cfd9f803e,.a39990b4-6076-427b-97da-383ba7a3aafe,.c5bb7fef-2515-476d-b3fa-f38292e502ff,.ff79e611-e245-4e08-b2f4-81efafc00e4f{stroke-miterlimit:10;}.\36 aaeaf4a-965f-4def-83c9-f83259aa8da9{font-size:50.86px;}.\31 80af9a3-7d3d-486b-895d-f89a70234346,.\36 aaeaf4a-965f-4def-83c9-f83259aa8da9,.d7140ea0-5bf7-4794-a676-90800824f9d3{font-family:Myriad Pro;font-weight:700;}.d7140ea0-5bf7-4794-a676-90800824f9d3{font-size:18px;fill:#232323;}.\31 80af9a3-7d3d-486b-895d-f89a70234346{font-size:39.55px;fill:#118c97;white-space:pre;}.\33 b93c067-aacb-4a4e-84f8-9f04f06484c6{fill:#ff9231;}.\33 b93c067-aacb-4a4e-84f8-9f04f06484c6,.a18f4c74-61a2-4ff9-b631-ff584e0d9f7f,.a2623636-cb85-4e93-998b-596cfd9f803e,.ff79e611-e245-4e08-b2f4-81efafc00e4f{stroke:#000;}.\33 b93c067-aacb-4a4e-84f8-9f04f06484c6,.a18f4c74-61a2-4ff9-b631-ff584e0d9f7f,.a2623636-cb85-4e93-998b-596cfd9f803e,.c5bb7fef-2515-476d-b3fa-f38292e502ff,.ff79e611-e245-4e08-b2f4-81efafc00e4f{stroke-width:0.31px;}.a39990b4-6076-427b-97da-383ba7a3aafe{fill:#931c0a;stroke:#1d1d1b;stroke-width:0.38px;}.a18f4c74-61a2-4ff9-b631-ff584e0d9f7f{fill:#ff6c49;}.ff79e611-e245-4e08-b2f4-81efafc00e4f{fill:#8e4713;}.a2623636-cb85-4e93-998b-596cfd9f803e{fill:#0093da;}.c5bb7fef-2515-476d-b3fa-f38292e502ff{stroke:#020202;}</style></defs><title>Catástrofes </title><rect class="a133aec7-3bdf-491c-9e54-f0819e3266eb" x="0.54" width="300" height="400"/><text class="6aaeaf4a-965f-4def-83c9-f83259aa8da9" transform="translate(63.5 56.01) scale(0.91 1)">R<tspan x="29.09" y="0">e</tspan><tspan x="55.34" y="0">c</tspan><tspan x="77.72" y="0">oleta</tspan></text><text class="d7140ea0-5bf7-4794-a676-90800824f9d3" transform="translate(49.29 148.79) rotate(-0.38) scale(0.9 1)">T<tspan x="9.45" y="0">i</tspan><tspan x="14.38" y="0">p</tspan><tspan x="25.2" y="0">o de </tspan></text><text class="d7140ea0-5bf7-4794-a676-90800824f9d3" transform="matrix(0.9, 0, 0, 1, 49.2, 170.44)">V<tspan x="10.96" y="0">ivienda</tspan></text><text class="d7140ea0-5bf7-4794-a676-90800824f9d3" transform="translate(109.1 292.45) rotate(-0.02) scale(0.9 1)">C<tspan x="10.53" y="0">a</tspan><tspan x="19.89" y="0">tást</tspan><tspan x="50.42" y="0">r</tspan><tspan x="57.11" y="0">o</tspan><tspan x="67.5" y="0">f</tspan><tspan x="73.46" y="0">es</tspan></text><text class="180af9a3-7d3d-486b-895d-f89a70234346" transform="translate(147.72 345.9) scale(0.88 1)"> 21</text><polygon points="115.14 328.93 114.37 322.39 115 317.79 117.21 313.58 120.22 310.08 122.93 308.51 122.34 310.44 121.66 312.82 121.14 316.63 121.56 319.61 121.95 321.81 122.92 324.11 124 326.68 126.79 330.35 128.85 333.07 129.34 329.61 131.09 325.67 132.84 324.11 134.26 322.92 135 322.09 135 323.83 134.36 326.13 134.72 328.51 134.99 330.07 135.62 333.07 136.81 336.77 138.1 340.99 139 344.76 139 347.51 138.01 351.91 137.08 353.66 135.35 355.58 133.22 357.25 130.7 358.52 128.56 359.35 129.73 357.79 130.51 356.15 130.6 353.84 129.92 351.91 129.24 350.63 128.47 348.88 128.08 347.6 128.27 345.19 127.36 346.3 127 347.32 127 348.61 126.76 349.89 126.35 350.72 126.41 351.5 125.39 350.12 124.87 348.13 125.23 345.51 125.75 343.59 125.6 341.45 125.23 339.94 124.14 338.08 122.68 336.36 123.12 339.25 122.97 340.76 122.39 342.97 121.81 344 121.14 345.58 118.72 347.99 118 348.27 118 346.41 117.72 345.19 117.61 344.62 117.19 343.86 116.51 343.31 116.24 344 116.11 345.65 115.82 347.44 115.53 348.88 115.17 349.99 114.66 351.5 114.34 352.67 114.01 354.32 114.52 356.66 115.32 357.97 116.12 358.66 117.94 360.17 114.01 359.49 112.26 358.59 110.14 357.25 108.1 356.15 105.47 353.36 104 349.78 104 345.31 105.83 340.21 107.48 337.74 109 335.74 110 333.07 110 330.99 110 328.79 110 326.58 109.5 326.17 111.02 327.55 112.18 328.93 113.08 330.37 113.73 332.16 114.23 333.81 114.16 335.26 114.3 336.98 114.15 339.39 115.47 337.25 115.9 335.33 116.12 333.47 115.14 328.93"/><rect class="3b93c067-aacb-4a4e-84f8-9f04f06484c6" x="140.18" y="121.92" width="10.79" height="9.76"/><rect class="3b93c067-aacb-4a4e-84f8-9f04f06484c6" x="150.97" y="121.92" width="10.79" height="9.76"/><rect class="3b93c067-aacb-4a4e-84f8-9f04f06484c6" x="188.73" y="129.43" width="10.79" height="9.76" rx="4.88" ry="4.88"/><rect class="3b93c067-aacb-4a4e-84f8-9f04f06484c6" x="161.76" y="121.92" width="10.79" height="9.76"/><rect class="3b93c067-aacb-4a4e-84f8-9f04f06484c6" x="161.76" y="121.92" width="10.79" height="9.76"/><rect class="3b93c067-aacb-4a4e-84f8-9f04f06484c6" x="172.55" y="121.92" width="10.79" height="9.76"/><rect class="3b93c067-aacb-4a4e-84f8-9f04f06484c6" x="172.55" y="121.92" width="10.79" height="9.76"/><rect class="3b93c067-aacb-4a4e-84f8-9f04f06484c6" x="204.92" y="121.92" width="10.79" height="9.76"/><rect class="3b93c067-aacb-4a4e-84f8-9f04f06484c6" x="204.92" y="121.92" width="10.79" height="9.76"/><rect class="3b93c067-aacb-4a4e-84f8-9f04f06484c6" x="215.71" y="121.92" width="10.79" height="9.76"/><rect class="3b93c067-aacb-4a4e-84f8-9f04f06484c6" x="215.71" y="121.92" width="10.79" height="9.76"/><rect class="3b93c067-aacb-4a4e-84f8-9f04f06484c6" x="237.29" y="121.92" width="10.79" height="9.76"/><rect class="3b93c067-aacb-4a4e-84f8-9f04f06484c6" x="237.29" y="121.92" width="10.79" height="9.76"/><rect class="3b93c067-aacb-4a4e-84f8-9f04f06484c6" x="183.34" y="121.92" width="10.79" height="9.76"/><rect class="3b93c067-aacb-4a4e-84f8-9f04f06484c6" x="183.34" y="121.92" width="10.79" height="9.76"/><rect class="3b93c067-aacb-4a4e-84f8-9f04f06484c6" x="194.13" y="121.92" width="10.79" height="9.76"/><rect class="3b93c067-aacb-4a4e-84f8-9f04f06484c6" x="194.13" y="121.92" width="10.79" height="9.76"/><rect class="a39990b4-6076-427b-97da-383ba7a3aafe" x="140.18" y="131.68" width="10.79" height="9.76"/><rect class="a39990b4-6076-427b-97da-383ba7a3aafe" x="140.18" y="131.68" width="10.79" height="9.76"/><rect class="a39990b4-6076-427b-97da-383ba7a3aafe" x="150.97" y="131.68" width="10.79" height="9.76"/><rect class="a39990b4-6076-427b-97da-383ba7a3aafe" x="150.97" y="131.68" width="10.79" height="9.76"/><rect class="a18f4c74-61a2-4ff9-b631-ff584e0d9f7f" x="161.76" y="131.68" width="10.79" height="9.76"/><rect class="ff79e611-e245-4e08-b2f4-81efafc00e4f" x="161.76" y="131.68" width="10.79" height="9.76"/><rect class="a2623636-cb85-4e93-998b-596cfd9f803e" x="172.55" y="131.68" width="10.79" height="9.76"/><rect class="ff79e611-e245-4e08-b2f4-81efafc00e4f" x="172.55" y="131.68" width="10.79" height="9.76"/><rect class="3b93c067-aacb-4a4e-84f8-9f04f06484c6" x="204.92" y="131.68" width="10.79" height="9.76"/><rect class="ff79e611-e245-4e08-b2f4-81efafc00e4f" x="204.92" y="131.68" width="10.79" height="9.76"/><rect class="3b93c067-aacb-4a4e-84f8-9f04f06484c6" x="215.71" y="131.68" width="10.79" height="9.76"/><rect class="ff79e611-e245-4e08-b2f4-81efafc00e4f" x="215.71" y="131.68" width="10.79" height="9.76"/><rect class="3b93c067-aacb-4a4e-84f8-9f04f06484c6" x="237.29" y="131.68" width="10.79" height="9.76"/><rect class="3b93c067-aacb-4a4e-84f8-9f04f06484c6" x="237.29" y="131.68" width="10.79" height="9.76"/><rect class="a2623636-cb85-4e93-998b-596cfd9f803e" x="183.34" y="131.68" width="10.79" height="9.76"/><rect class="ff79e611-e245-4e08-b2f4-81efafc00e4f" x="183.34" y="131.68" width="10.79" height="9.76"/><rect class="ff79e611-e245-4e08-b2f4-81efafc00e4f" x="194.13" y="131.68" width="10.79" height="9.76"/><rect class="a18f4c74-61a2-4ff9-b631-ff584e0d9f7f" x="140.18" y="141.44" width="10.79" height="9.76"/><rect class="a18f4c74-61a2-4ff9-b631-ff584e0d9f7f" x="140.18" y="141.44" width="10.79" height="9.76"/><rect class="a18f4c74-61a2-4ff9-b631-ff584e0d9f7f" x="150.97" y="141.44" width="10.79" height="9.76"/><rect class="a18f4c74-61a2-4ff9-b631-ff584e0d9f7f" x="150.97" y="141.44" width="10.79" height="9.76"/><rect class="a18f4c74-61a2-4ff9-b631-ff584e0d9f7f" x="161.76" y="141.44" width="10.79" height="9.76"/><rect class="a18f4c74-61a2-4ff9-b631-ff584e0d9f7f" x="161.76" y="141.44" width="10.79" height="9.76"/><rect class="a18f4c74-61a2-4ff9-b631-ff584e0d9f7f" x="172.55" y="141.44" width="10.79" height="9.76"/><rect class="a18f4c74-61a2-4ff9-b631-ff584e0d9f7f" x="172.55" y="141.44" width="10.79" height="9.76"/><rect class="a18f4c74-61a2-4ff9-b631-ff584e0d9f7f" x="204.92" y="141.44" width="10.79" height="9.76"/><rect class="a18f4c74-61a2-4ff9-b631-ff584e0d9f7f" x="204.92" y="141.44" width="10.79" height="9.76"/><rect class="a18f4c74-61a2-4ff9-b631-ff584e0d9f7f" x="215.71" y="141.44" width="10.79" height="9.76"/><rect class="a18f4c74-61a2-4ff9-b631-ff584e0d9f7f" x="215.71" y="141.44" width="10.79" height="9.76"/><rect class="a18f4c74-61a2-4ff9-b631-ff584e0d9f7f" x="237.29" y="141.44" width="10.79" height="9.76"/><rect class="a18f4c74-61a2-4ff9-b631-ff584e0d9f7f" x="237.29" y="141.44" width="10.79" height="9.76"/><rect class="a18f4c74-61a2-4ff9-b631-ff584e0d9f7f" x="183.34" y="141.44" width="10.79" height="9.76"/><rect class="a18f4c74-61a2-4ff9-b631-ff584e0d9f7f" x="183.34" y="141.44" width="10.79" height="9.76"/><rect class="a18f4c74-61a2-4ff9-b631-ff584e0d9f7f" x="194.13" y="141.44" width="10.79" height="9.76"/><rect class="a18f4c74-61a2-4ff9-b631-ff584e0d9f7f" x="194.13" y="141.44" width="10.79" height="9.76"/><rect class="a18f4c74-61a2-4ff9-b631-ff584e0d9f7f" x="140.18" y="151.2" width="10.79" height="9.76"/><rect class="a18f4c74-61a2-4ff9-b631-ff584e0d9f7f" x="140.18" y="151.2" width="10.79" height="9.76"/><rect class="a18f4c74-61a2-4ff9-b631-ff584e0d9f7f" x="150.97" y="151.2" width="10.79" height="9.76"/><rect class="a18f4c74-61a2-4ff9-b631-ff584e0d9f7f" x="150.97" y="151.2" width="10.79" height="9.76"/><rect class="a18f4c74-61a2-4ff9-b631-ff584e0d9f7f" x="161.76" y="151.2" width="10.79" height="9.76"/><rect class="a18f4c74-61a2-4ff9-b631-ff584e0d9f7f" x="161.76" y="151.2" width="10.79" height="9.76"/><rect class="a18f4c74-61a2-4ff9-b631-ff584e0d9f7f" x="172.55" y="151.2" width="10.79" height="9.76"/><rect class="a18f4c74-61a2-4ff9-b631-ff584e0d9f7f" x="172.55" y="151.2" width="10.79" height="9.76"/><rect class="a18f4c74-61a2-4ff9-b631-ff584e0d9f7f" x="204.92" y="151.2" width="10.79" height="9.76"/><rect class="a18f4c74-61a2-4ff9-b631-ff584e0d9f7f" x="204.92" y="151.2" width="10.79" height="9.76"/><rect class="a18f4c74-61a2-4ff9-b631-ff584e0d9f7f" x="215.71" y="151.2" width="10.79" height="9.76"/><rect class="a18f4c74-61a2-4ff9-b631-ff584e0d9f7f" x="215.71" y="151.2" width="10.79" height="9.76"/><rect class="a18f4c74-61a2-4ff9-b631-ff584e0d9f7f" x="237.29" y="151.2" width="10.79" height="9.76"/><rect class="a18f4c74-61a2-4ff9-b631-ff584e0d9f7f" x="237.29" y="151.2" width="10.79" height="9.76"/><rect class="a18f4c74-61a2-4ff9-b631-ff584e0d9f7f" x="183.34" y="151.2" width="10.79" height="9.76"/><rect class="a18f4c74-61a2-4ff9-b631-ff584e0d9f7f" x="183.34" y="151.2" width="10.79" height="9.76"/><rect class="a18f4c74-61a2-4ff9-b631-ff584e0d9f7f" x="194.13" y="151.2" width="10.79" height="9.76"/><rect class="a18f4c74-61a2-4ff9-b631-ff584e0d9f7f" x="194.13" y="151.2" width="10.79" height="9.76"/><rect class="a18f4c74-61a2-4ff9-b631-ff584e0d9f7f" x="140.18" y="160.96" width="10.79" height="9.76"/><rect class="a18f4c74-61a2-4ff9-b631-ff584e0d9f7f" x="140.18" y="160.96" width="10.79" height="9.76"/><rect class="a18f4c74-61a2-4ff9-b631-ff584e0d9f7f" x="150.97" y="160.96" width="10.79" height="9.76"/><rect class="a18f4c74-61a2-4ff9-b631-ff584e0d9f7f" x="150.97" y="160.96" width="10.79" height="9.76"/><rect class="a18f4c74-61a2-4ff9-b631-ff584e0d9f7f" x="161.76" y="160.96" width="10.79" height="9.76"/><rect class="a18f4c74-61a2-4ff9-b631-ff584e0d9f7f" x="161.76" y="160.96" width="10.79" height="9.76"/><rect class="a18f4c74-61a2-4ff9-b631-ff584e0d9f7f" x="172.55" y="160.96" width="10.79" height="9.76"/><rect class="a18f4c74-61a2-4ff9-b631-ff584e0d9f7f" x="172.55" y="160.96" width="10.79" height="9.76"/><rect class="a18f4c74-61a2-4ff9-b631-ff584e0d9f7f" x="204.92" y="160.96" width="10.79" height="9.76"/><rect class="a18f4c74-61a2-4ff9-b631-ff584e0d9f7f" x="204.92" y="160.96" width="10.79" height="9.76"/><rect class="a18f4c74-61a2-4ff9-b631-ff584e0d9f7f" x="215.71" y="160.96" width="10.79" height="9.76"/><rect class="a18f4c74-61a2-4ff9-b631-ff584e0d9f7f" x="215.71" y="160.96" width="10.79" height="9.76"/><rect class="a18f4c74-61a2-4ff9-b631-ff584e0d9f7f" x="237.29" y="160.96" width="10.79" height="9.76"/><rect class="a18f4c74-61a2-4ff9-b631-ff584e0d9f7f" x="237.29" y="160.96" width="10.79" height="9.76"/><rect class="a18f4c74-61a2-4ff9-b631-ff584e0d9f7f" x="183.34" y="160.96" width="10.79" height="9.76"/><rect class="a18f4c74-61a2-4ff9-b631-ff584e0d9f7f" x="183.34" y="160.96" width="10.79" height="9.76"/><rect class="a18f4c74-61a2-4ff9-b631-ff584e0d9f7f" x="194.13" y="160.96" width="10.79" height="9.76"/><rect class="a18f4c74-61a2-4ff9-b631-ff584e0d9f7f" x="194.13" y="160.96" width="10.79" height="9.76"/><rect class="a18f4c74-61a2-4ff9-b631-ff584e0d9f7f" x="140.18" y="170.72" width="10.79" height="9.76"/><rect class="a18f4c74-61a2-4ff9-b631-ff584e0d9f7f" x="140.18" y="170.72" width="10.79" height="9.76"/><rect class="a18f4c74-61a2-4ff9-b631-ff584e0d9f7f" x="150.97" y="170.72" width="10.79" height="9.76"/><rect class="a18f4c74-61a2-4ff9-b631-ff584e0d9f7f" x="150.97" y="170.72" width="10.79" height="9.76"/><rect class="a18f4c74-61a2-4ff9-b631-ff584e0d9f7f" x="161.76" y="170.72" width="10.79" height="9.76"/><rect class="a18f4c74-61a2-4ff9-b631-ff584e0d9f7f" x="161.76" y="170.72" width="10.79" height="9.76"/><rect class="a18f4c74-61a2-4ff9-b631-ff584e0d9f7f" x="172.55" y="170.72" width="10.79" height="9.76"/><rect class="a18f4c74-61a2-4ff9-b631-ff584e0d9f7f" x="172.55" y="170.72" width="10.79" height="9.76"/><rect class="a18f4c74-61a2-4ff9-b631-ff584e0d9f7f" x="204.92" y="170.72" width="10.79" height="9.76"/><rect class="a18f4c74-61a2-4ff9-b631-ff584e0d9f7f" x="204.92" y="170.72" width="10.79" height="9.76"/><rect class="a18f4c74-61a2-4ff9-b631-ff584e0d9f7f" x="215.71" y="170.72" width="10.79" height="9.76"/><rect class="a18f4c74-61a2-4ff9-b631-ff584e0d9f7f" x="215.71" y="170.72" width="10.79" height="9.76"/><rect class="a18f4c74-61a2-4ff9-b631-ff584e0d9f7f" x="237.29" y="170.72" width="10.79" height="9.76"/><rect class="a18f4c74-61a2-4ff9-b631-ff584e0d9f7f" x="237.29" y="170.72" width="10.79" height="9.76"/><rect class="a18f4c74-61a2-4ff9-b631-ff584e0d9f7f" x="183.34" y="170.72" width="10.79" height="9.76"/><rect class="a18f4c74-61a2-4ff9-b631-ff584e0d9f7f" x="183.34" y="170.72" width="10.79" height="9.76"/><rect class="a18f4c74-61a2-4ff9-b631-ff584e0d9f7f" x="194.13" y="170.72" width="10.79" height="9.76"/><rect class="a18f4c74-61a2-4ff9-b631-ff584e0d9f7f" x="194.13" y="170.72" width="10.79" height="9.76"/><rect class="a18f4c74-61a2-4ff9-b631-ff584e0d9f7f" x="140.18" y="180.48" width="10.79" height="9.76"/><rect class="a18f4c74-61a2-4ff9-b631-ff584e0d9f7f" x="140.18" y="180.48" width="10.79" height="9.76"/><rect class="a18f4c74-61a2-4ff9-b631-ff584e0d9f7f" x="150.97" y="180.48" width="10.79" height="9.76"/><rect class="a18f4c74-61a2-4ff9-b631-ff584e0d9f7f" x="150.97" y="180.48" width="10.79" height="9.76"/><rect class="a18f4c74-61a2-4ff9-b631-ff584e0d9f7f" x="161.76" y="180.48" width="10.79" height="9.76"/><rect class="a18f4c74-61a2-4ff9-b631-ff584e0d9f7f" x="161.76" y="180.48" width="10.79" height="9.76"/><rect class="a18f4c74-61a2-4ff9-b631-ff584e0d9f7f" x="172.55" y="180.48" width="10.79" height="9.76"/><rect class="a18f4c74-61a2-4ff9-b631-ff584e0d9f7f" x="172.55" y="180.48" width="10.79" height="9.76"/><rect class="a18f4c74-61a2-4ff9-b631-ff584e0d9f7f" x="204.92" y="180.48" width="10.79" height="9.76"/><rect class="a18f4c74-61a2-4ff9-b631-ff584e0d9f7f" x="204.92" y="180.48" width="10.79" height="9.76"/><rect class="a18f4c74-61a2-4ff9-b631-ff584e0d9f7f" x="215.71" y="180.48" width="10.79" height="9.76"/><rect class="a18f4c74-61a2-4ff9-b631-ff584e0d9f7f" x="215.71" y="180.48" width="10.79" height="9.76"/><rect class="a18f4c74-61a2-4ff9-b631-ff584e0d9f7f" x="237.29" y="180.48" width="10.79" height="9.76"/><rect class="a18f4c74-61a2-4ff9-b631-ff584e0d9f7f" x="237.29" y="180.48" width="10.79" height="9.76"/><rect class="a18f4c74-61a2-4ff9-b631-ff584e0d9f7f" x="183.34" y="180.48" width="10.79" height="9.76"/><rect class="a18f4c74-61a2-4ff9-b631-ff584e0d9f7f" x="183.34" y="180.48" width="10.79" height="9.76"/><rect class="a18f4c74-61a2-4ff9-b631-ff584e0d9f7f" x="194.13" y="180.48" width="10.79" height="9.76"/><rect class="a18f4c74-61a2-4ff9-b631-ff584e0d9f7f" x="194.13" y="180.48" width="10.79" height="9.76"/><rect class="a18f4c74-61a2-4ff9-b631-ff584e0d9f7f" x="140.18" y="190.24" width="10.79" height="9.76"/><rect class="a18f4c74-61a2-4ff9-b631-ff584e0d9f7f" x="140.18" y="190.24" width="10.79" height="9.76"/><rect class="a18f4c74-61a2-4ff9-b631-ff584e0d9f7f" x="150.97" y="190.24" width="10.79" height="9.76"/><rect class="a18f4c74-61a2-4ff9-b631-ff584e0d9f7f" x="150.97" y="190.24" width="10.79" height="9.76"/><rect class="a18f4c74-61a2-4ff9-b631-ff584e0d9f7f" x="161.76" y="190.24" width="10.79" height="9.76"/><rect class="a18f4c74-61a2-4ff9-b631-ff584e0d9f7f" x="161.76" y="190.24" width="10.79" height="9.76"/><rect class="a18f4c74-61a2-4ff9-b631-ff584e0d9f7f" x="172.55" y="190.24" width="10.79" height="9.76"/><rect class="a18f4c74-61a2-4ff9-b631-ff584e0d9f7f" x="172.55" y="190.24" width="10.79" height="9.76"/><rect class="a18f4c74-61a2-4ff9-b631-ff584e0d9f7f" x="204.92" y="190.24" width="10.79" height="9.76"/><rect class="a18f4c74-61a2-4ff9-b631-ff584e0d9f7f" x="204.92" y="190.24" width="10.79" height="9.76"/><rect class="a18f4c74-61a2-4ff9-b631-ff584e0d9f7f" x="215.71" y="190.24" width="10.79" height="9.76"/><rect class="a18f4c74-61a2-4ff9-b631-ff584e0d9f7f" x="215.71" y="190.24" width="10.79" height="9.76"/><rect class="a18f4c74-61a2-4ff9-b631-ff584e0d9f7f" x="237.29" y="190.24" width="10.79" height="9.76"/><rect class="a18f4c74-61a2-4ff9-b631-ff584e0d9f7f" x="237.29" y="190.24" width="10.79" height="9.76"/><rect class="a18f4c74-61a2-4ff9-b631-ff584e0d9f7f" x="183.34" y="190.24" width="10.79" height="9.76"/><rect class="a18f4c74-61a2-4ff9-b631-ff584e0d9f7f" x="183.34" y="190.24" width="10.79" height="9.76"/><rect class="a18f4c74-61a2-4ff9-b631-ff584e0d9f7f" x="194.13" y="190.24" width="10.79" height="9.76"/><rect class="a18f4c74-61a2-4ff9-b631-ff584e0d9f7f" x="194.13" y="190.24" width="10.79" height="9.76"/><rect class="a18f4c74-61a2-4ff9-b631-ff584e0d9f7f" x="140.18" y="200" width="10.79" height="9.76"/><rect class="a18f4c74-61a2-4ff9-b631-ff584e0d9f7f" x="140.18" y="200" width="10.79" height="9.76"/><rect class="a18f4c74-61a2-4ff9-b631-ff584e0d9f7f" x="150.97" y="200" width="10.79" height="9.76"/><rect class="a18f4c74-61a2-4ff9-b631-ff584e0d9f7f" x="150.97" y="200" width="10.79" height="9.76"/><rect class="a18f4c74-61a2-4ff9-b631-ff584e0d9f7f" x="161.76" y="200" width="10.79" height="9.76"/><rect class="a18f4c74-61a2-4ff9-b631-ff584e0d9f7f" x="161.76" y="200" width="10.79" height="9.76"/><rect class="a18f4c74-61a2-4ff9-b631-ff584e0d9f7f" x="172.55" y="200" width="10.79" height="9.76"/><rect class="a18f4c74-61a2-4ff9-b631-ff584e0d9f7f" x="172.55" y="200" width="10.79" height="9.76"/><rect class="a18f4c74-61a2-4ff9-b631-ff584e0d9f7f" x="204.92" y="200" width="10.79" height="9.76"/><rect class="a18f4c74-61a2-4ff9-b631-ff584e0d9f7f" x="204.92" y="200" width="10.79" height="9.76"/><rect class="a18f4c74-61a2-4ff9-b631-ff584e0d9f7f" x="215.71" y="200" width="10.79" height="9.76"/><rect class="a18f4c74-61a2-4ff9-b631-ff584e0d9f7f" x="215.71" y="200" width="10.79" height="9.76"/><rect class="a18f4c74-61a2-4ff9-b631-ff584e0d9f7f" x="237.29" y="200" width="10.79" height="9.76"/><rect class="a18f4c74-61a2-4ff9-b631-ff584e0d9f7f" x="237.29" y="200" width="10.79" height="9.76"/><rect class="a18f4c74-61a2-4ff9-b631-ff584e0d9f7f" x="183.34" y="200" width="10.79" height="9.76"/><rect class="a18f4c74-61a2-4ff9-b631-ff584e0d9f7f" x="183.34" y="200" width="10.79" height="9.76"/><rect class="a18f4c74-61a2-4ff9-b631-ff584e0d9f7f" x="194.13" y="200" width="10.79" height="9.76"/><rect class="a18f4c74-61a2-4ff9-b631-ff584e0d9f7f" x="194.13" y="200" width="10.79" height="9.76"/><rect class="a18f4c74-61a2-4ff9-b631-ff584e0d9f7f" x="140.18" y="209.76" width="10.79" height="9.76"/><rect class="a18f4c74-61a2-4ff9-b631-ff584e0d9f7f" x="140.18" y="209.76" width="10.79" height="9.76"/><rect class="a18f4c74-61a2-4ff9-b631-ff584e0d9f7f" x="150.97" y="209.76" width="10.79" height="9.76"/><rect class="a18f4c74-61a2-4ff9-b631-ff584e0d9f7f" x="150.97" y="209.76" width="10.79" height="9.76"/><rect class="a18f4c74-61a2-4ff9-b631-ff584e0d9f7f" x="161.76" y="209.76" width="10.79" height="9.76"/><rect class="a18f4c74-61a2-4ff9-b631-ff584e0d9f7f" x="161.76" y="209.76" width="10.79" height="9.76"/><rect class="a18f4c74-61a2-4ff9-b631-ff584e0d9f7f" x="172.55" y="209.76" width="10.79" height="9.76"/><rect class="a18f4c74-61a2-4ff9-b631-ff584e0d9f7f" x="172.55" y="209.76" width="10.79" height="9.76"/><rect class="a18f4c74-61a2-4ff9-b631-ff584e0d9f7f" x="204.92" y="209.76" width="10.79" height="9.76"/><rect class="a18f4c74-61a2-4ff9-b631-ff584e0d9f7f" x="204.92" y="209.76" width="10.79" height="9.76"/><rect class="a18f4c74-61a2-4ff9-b631-ff584e0d9f7f" x="215.71" y="209.76" width="10.79" height="9.76"/><rect class="a18f4c74-61a2-4ff9-b631-ff584e0d9f7f" x="215.71" y="209.76" width="10.79" height="9.76"/><rect class="a18f4c74-61a2-4ff9-b631-ff584e0d9f7f" x="237.29" y="209.76" width="10.79" height="9.76"/><rect class="a18f4c74-61a2-4ff9-b631-ff584e0d9f7f" x="237.29" y="209.76" width="10.79" height="9.76"/><rect class="3b93c067-aacb-4a4e-84f8-9f04f06484c6" x="226.5" y="121.92" width="10.79" height="9.76"/><rect class="3b93c067-aacb-4a4e-84f8-9f04f06484c6" x="226.5" y="121.92" width="10.79" height="9.76"/><rect class="3b93c067-aacb-4a4e-84f8-9f04f06484c6" x="226.5" y="131.68" width="10.79" height="9.76"/><rect class="3b93c067-aacb-4a4e-84f8-9f04f06484c6" x="226.5" y="131.68" width="10.79" height="9.76"/><rect class="a18f4c74-61a2-4ff9-b631-ff584e0d9f7f" x="226.5" y="141.44" width="10.79" height="9.76"/><rect class="a18f4c74-61a2-4ff9-b631-ff584e0d9f7f" x="226.5" y="141.44" width="10.79" height="9.76"/><rect class="a18f4c74-61a2-4ff9-b631-ff584e0d9f7f" x="226.5" y="151.2" width="10.79" height="9.76"/><rect class="a18f4c74-61a2-4ff9-b631-ff584e0d9f7f" x="226.5" y="151.2" width="10.79" height="9.76"/><rect class="a18f4c74-61a2-4ff9-b631-ff584e0d9f7f" x="226.5" y="160.96" width="10.79" height="9.76"/><rect class="a18f4c74-61a2-4ff9-b631-ff584e0d9f7f" x="226.5" y="160.96" width="10.79" height="9.76"/><rect class="a18f4c74-61a2-4ff9-b631-ff584e0d9f7f" x="226.5" y="170.72" width="10.79" height="9.76"/><rect class="a18f4c74-61a2-4ff9-b631-ff584e0d9f7f" x="226.5" y="170.72" width="10.79" height="9.76"/><rect class="a18f4c74-61a2-4ff9-b631-ff584e0d9f7f" x="226.5" y="180.48" width="10.79" height="9.76"/><rect class="a18f4c74-61a2-4ff9-b631-ff584e0d9f7f" x="226.5" y="180.48" width="10.79" height="9.76"/><rect class="a18f4c74-61a2-4ff9-b631-ff584e0d9f7f" x="226.5" y="190.24" width="10.79" height="9.76"/><rect class="a18f4c74-61a2-4ff9-b631-ff584e0d9f7f" x="226.5" y="190.24" width="10.79" height="9.76"/><rect class="a18f4c74-61a2-4ff9-b631-ff584e0d9f7f" x="226.5" y="200" width="10.79" height="9.76"/><rect class="a18f4c74-61a2-4ff9-b631-ff584e0d9f7f" x="226.5" y="200" width="10.79" height="9.76"/><rect class="a18f4c74-61a2-4ff9-b631-ff584e0d9f7f" x="226.5" y="209.76" width="10.79" height="9.76"/><rect class="a18f4c74-61a2-4ff9-b631-ff584e0d9f7f" x="226.5" y="209.76" width="10.79" height="9.76"/><rect class="a18f4c74-61a2-4ff9-b631-ff584e0d9f7f" x="183.34" y="209.76" width="10.79" height="9.76"/><rect class="a18f4c74-61a2-4ff9-b631-ff584e0d9f7f" x="183.34" y="209.76" width="10.79" height="9.76"/><rect class="a18f4c74-61a2-4ff9-b631-ff584e0d9f7f" x="194.13" y="209.76" width="10.79" height="9.76"/><rect class="a18f4c74-61a2-4ff9-b631-ff584e0d9f7f" x="194.13" y="209.76" width="10.79" height="9.76"/><polygon class="c5bb7fef-2515-476d-b3fa-f38292e502ff" points="247.16 120.94 140.41 121.08 193.71 71.8 247.16 120.94"/></svg>