<svg id="e3dddcc7-19c9-4745-ad07-6118db1f6460" data-name="Fondo" xmlns="http://www.w3.org/2000/svg" viewBox="0 0 300 400"><defs><style>.\35 b64eea6-511b-46fb-b45a-ecf1476396b7{fill:#d6eddc;stroke:#fff;stroke-width:1.46px;}.\31 bc57f75-3ffe-4439-8b24-c9765f67f9de,.\35 b64eea6-511b-46fb-b45a-ecf1476396b7,.\36 5f4790d-0ee8-46d6-a39e-68abbd914fcd,.\37 556765f-954b-411b-9eeb-0f4ac58342be,.\38 20324c3-21fa-40cc-bcd8-f170ebeb99b9,.\38 da21fdb-1c74-465f-aead-7e6913737df0,.c10dd02f-a4eb-4565-a208-7a68aaa40901,.f39993b5-707d-4d42-b0c8-7aed182b38a6{stroke-miterlimit:10;}.\33 abebd10-24ed-433f-8f95-8be2a0bc45e1{font-size:50.86px;}.\33 abebd10-24ed-433f-8f95-8be2a0bc45e1,.\38 64c9e87-39db-4680-88cc-868b1394687d,.b5d91671-9006-40a7-85cc-711612550fd4{font-family:Myriad Pro;font-weight:700;}.b5d91671-9006-40a7-85cc-711612550fd4{font-size:18px;fill:#232323;}.\38 64c9e87-39db-4680-88cc-868b1394687d{font-size:39.55px;fill:#118c97;white-space:pre;}.\36 5f4790d-0ee8-46d6-a39e-68abbd914fcd{fill:#931c0a;stroke:#1d1d1b;stroke-width:0.38px;}.\37 556765f-954b-411b-9eeb-0f4ac58342be{fill:#ff9231;}.\31 bc57f75-3ffe-4439-8b24-c9765f67f9de,.\37 556765f-954b-411b-9eeb-0f4ac58342be,.\38 20324c3-21fa-40cc-bcd8-f170ebeb99b9,.\38 da21fdb-1c74-465f-aead-7e6913737df0,.c10dd02f-a4eb-4565-a208-7a68aaa40901{stroke:#000;}.\31 bc57f75-3ffe-4439-8b24-c9765f67f9de,.\37 556765f-954b-411b-9eeb-0f4ac58342be,.\38 20324c3-21fa-40cc-bcd8-f170ebeb99b9,.\38 da21fdb-1c74-465f-aead-7e6913737df0,.c10dd02f-a4eb-4565-a208-7a68aaa40901,.f39993b5-707d-4d42-b0c8-7aed182b38a6{stroke-width:0.31px;}.c10dd02f-a4eb-4565-a208-7a68aaa40901{fill:#ff6c49;}.\38 20324c3-21fa-40cc-bcd8-f170ebeb99b9{fill:#8e4713;}.\38 da21fdb-1c74-465f-aead-7e6913737df0{fill:#0093da;}.\31 bc57f75-3ffe-4439-8b24-c9765f67f9de{fill:#9fa09f;}.f39993b5-707d-4d42-b0c8-7aed182b38a6{stroke:#020202;}</style></defs><title>Catástrofes </title><rect class="5b64eea6-511b-46fb-b45a-ecf1476396b7" x="0.54" width="300" height="400"/><text class="3abebd10-24ed-433f-8f95-8be2a0bc45e1" transform="translate(27.96 56.01) scale(0.91 1)">S<tspan x="26.7" y="0">an Joaquín</tspan></text><text class="b5d91671-9006-40a7-85cc-711612550fd4" transform="translate(48.8 155.49) rotate(-0.07) scale(0.9 1)">T<tspan x="9.45" y="0">i</tspan><tspan x="14.38" y="0">p</tspan><tspan x="25.2" y="0">o de </tspan></text><text class="b5d91671-9006-40a7-85cc-711612550fd4" transform="matrix(0.9, 0, 0, 1, 48.81, 177.07)">V<tspan x="10.96" y="0">ivienda</tspan></text><text class="b5d91671-9006-40a7-85cc-711612550fd4" transform="translate(109.04 297.09) rotate(0.11) scale(0.9 1)">C<tspan x="10.53" y="0">a</tspan><tspan x="19.89" y="0">tást</tspan><tspan x="50.42" y="0">r</tspan><tspan x="57.11" y="0">o</tspan><tspan x="67.5" y="0">f</tspan><tspan x="73.46" y="0">es</tspan></text><text class="864c9e87-39db-4680-88cc-868b1394687d" transform="translate(142.72 345.92) scale(0.88 1)"> 3</text><polygon points="110.14 328.93 109.37 322.39 110 317.79 112.21 313.58 115.22 310.08 117.93 308.51 117.34 310.44 116.66 312.82 116.14 316.63 116.56 319.61 116.95 321.81 117.92 324.11 119 326.68 121.79 330.35 123.86 333.07 124.34 329.61 126.09 325.67 127.84 324.11 129.26 322.92 130 322.09 130 323.83 129.36 326.13 129.72 328.51 129.99 330.07 130.62 333.07 131.81 336.77 133.1 340.99 134 344.76 134 347.51 133.01 351.91 132.08 353.66 130.35 355.58 128.22 357.25 125.7 358.52 123.56 359.35 124.73 357.79 125.51 356.15 125.61 353.84 124.92 351.91 124.24 350.63 123.47 348.88 123.08 347.6 123.27 345.19 122.36 346.3 122 347.32 122 348.61 121.76 349.89 121.35 350.72 121.41 351.5 120.39 350.12 119.87 348.13 120.23 345.51 120.75 343.59 120.6 341.45 120.23 339.94 119.14 338.08 117.68 336.36 118.12 339.25 117.97 340.76 117.39 342.97 116.81 344 116.14 345.58 113.72 347.99 113 348.27 113 346.41 112.72 345.19 112.61 344.62 112.19 343.86 111.51 343.31 111.24 344 111.11 345.65 110.82 347.44 110.53 348.88 110.17 349.99 109.66 351.5 109.34 352.67 109.01 354.32 109.52 356.66 110.32 357.97 111.12 358.66 112.94 360.17 109.01 359.49 107.26 358.59 105.14 357.25 103.1 356.15 100.47 353.36 99 349.78 99 345.31 100.83 340.21 102.48 337.74 104 335.74 105 333.07 105 330.99 105 328.79 105 326.58 104.5 326.17 106.02 327.55 107.18 328.93 108.08 330.37 108.73 332.16 109.23 333.81 109.16 335.26 109.3 336.98 109.15 339.39 110.47 337.25 110.9 335.33 111.12 333.47 110.14 328.93"/><rect class="65f4790d-0ee8-46d6-a39e-68abbd914fcd" x="134.18" y="141.1" width="10.61" height="9.6"/><rect class="65f4790d-0ee8-46d6-a39e-68abbd914fcd" x="144.79" y="141.1" width="10.61" height="9.6"/><rect class="7556765f-954b-411b-9eeb-0f4ac58342be" x="181.94" y="148.48" width="10.61" height="9.6" rx="4.8" ry="4.8"/><rect class="c10dd02f-a4eb-4565-a208-7a68aaa40901" x="155.41" y="141.1" width="10.61" height="9.6"/><rect class="820324c3-21fa-40cc-bcd8-f170ebeb99b9" x="155.41" y="141.1" width="10.61" height="9.6"/><rect class="8da21fdb-1c74-465f-aead-7e6913737df0" x="166.02" y="141.1" width="10.61" height="9.6"/><rect class="1bc57f75-3ffe-4439-8b24-c9765f67f9de" x="166.02" y="141.1" width="10.61" height="9.6"/><rect class="1bc57f75-3ffe-4439-8b24-c9765f67f9de" x="197.86" y="141.1" width="10.61" height="9.6"/><rect class="1bc57f75-3ffe-4439-8b24-c9765f67f9de" x="197.86" y="141.1" width="10.61" height="9.6"/><rect class="1bc57f75-3ffe-4439-8b24-c9765f67f9de" x="208.47" y="141.1" width="10.61" height="9.6"/><rect class="1bc57f75-3ffe-4439-8b24-c9765f67f9de" x="208.47" y="141.1" width="10.61" height="9.6"/><rect class="1bc57f75-3ffe-4439-8b24-c9765f67f9de" x="229.69" y="141.1" width="10.61" height="9.6"/><rect class="1bc57f75-3ffe-4439-8b24-c9765f67f9de" x="229.69" y="141.1" width="10.61" height="9.6"/><rect class="1bc57f75-3ffe-4439-8b24-c9765f67f9de" x="176.63" y="141.1" width="10.61" height="9.6"/><rect class="1bc57f75-3ffe-4439-8b24-c9765f67f9de" x="176.63" y="141.1" width="10.61" height="9.6"/><rect class="1bc57f75-3ffe-4439-8b24-c9765f67f9de" x="187.24" y="141.1" width="10.61" height="9.6"/><rect class="1bc57f75-3ffe-4439-8b24-c9765f67f9de" x="187.24" y="141.1" width="10.61" height="9.6"/><rect class="7556765f-954b-411b-9eeb-0f4ac58342be" x="134.18" y="150.7" width="10.61" height="9.6"/><rect class="7556765f-954b-411b-9eeb-0f4ac58342be" x="134.18" y="150.7" width="10.61" height="9.6"/><rect class="7556765f-954b-411b-9eeb-0f4ac58342be" x="144.79" y="150.7" width="10.61" height="9.6"/><rect class="7556765f-954b-411b-9eeb-0f4ac58342be" x="144.79" y="150.7" width="10.61" height="9.6"/><rect class="7556765f-954b-411b-9eeb-0f4ac58342be" x="155.41" y="150.7" width="10.61" height="9.6"/><rect class="7556765f-954b-411b-9eeb-0f4ac58342be" x="155.41" y="150.7" width="10.61" height="9.6"/><rect class="7556765f-954b-411b-9eeb-0f4ac58342be" x="166.02" y="150.7" width="10.61" height="9.6"/><rect class="7556765f-954b-411b-9eeb-0f4ac58342be" x="166.02" y="150.7" width="10.61" height="9.6"/><rect class="c10dd02f-a4eb-4565-a208-7a68aaa40901" x="197.86" y="150.7" width="10.61" height="9.6"/><rect class="c10dd02f-a4eb-4565-a208-7a68aaa40901" x="197.86" y="150.7" width="10.61" height="9.6"/><rect class="c10dd02f-a4eb-4565-a208-7a68aaa40901" x="208.47" y="150.7" width="10.61" height="9.6"/><rect class="c10dd02f-a4eb-4565-a208-7a68aaa40901" x="208.47" y="150.7" width="10.61" height="9.6"/><rect class="c10dd02f-a4eb-4565-a208-7a68aaa40901" x="229.69" y="150.7" width="10.61" height="9.6"/><rect class="c10dd02f-a4eb-4565-a208-7a68aaa40901" x="229.69" y="150.7" width="10.61" height="9.6"/><rect class="7556765f-954b-411b-9eeb-0f4ac58342be" x="176.63" y="150.7" width="10.61" height="9.6"/><rect class="7556765f-954b-411b-9eeb-0f4ac58342be" x="176.63" y="150.7" width="10.61" height="9.6"/><rect class="c10dd02f-a4eb-4565-a208-7a68aaa40901" x="187.24" y="150.7" width="10.61" height="9.6"/><rect class="c10dd02f-a4eb-4565-a208-7a68aaa40901" x="134.18" y="160.3" width="10.61" height="9.6"/><rect class="c10dd02f-a4eb-4565-a208-7a68aaa40901" x="134.18" y="160.3" width="10.61" height="9.6"/><rect class="c10dd02f-a4eb-4565-a208-7a68aaa40901" x="144.79" y="160.3" width="10.61" height="9.6"/><rect class="c10dd02f-a4eb-4565-a208-7a68aaa40901" x="144.79" y="160.3" width="10.61" height="9.6"/><rect class="c10dd02f-a4eb-4565-a208-7a68aaa40901" x="155.41" y="160.3" width="10.61" height="9.6"/><rect class="c10dd02f-a4eb-4565-a208-7a68aaa40901" x="155.41" y="160.3" width="10.61" height="9.6"/><rect class="c10dd02f-a4eb-4565-a208-7a68aaa40901" x="166.02" y="160.3" width="10.61" height="9.6"/><rect class="c10dd02f-a4eb-4565-a208-7a68aaa40901" x="166.02" y="160.3" width="10.61" height="9.6"/><rect class="c10dd02f-a4eb-4565-a208-7a68aaa40901" x="197.86" y="160.3" width="10.61" height="9.6"/><rect class="c10dd02f-a4eb-4565-a208-7a68aaa40901" x="197.86" y="160.3" width="10.61" height="9.6"/><rect class="c10dd02f-a4eb-4565-a208-7a68aaa40901" x="208.47" y="160.3" width="10.61" height="9.6"/><rect class="c10dd02f-a4eb-4565-a208-7a68aaa40901" x="208.47" y="160.3" width="10.61" height="9.6"/><rect class="c10dd02f-a4eb-4565-a208-7a68aaa40901" x="229.69" y="160.3" width="10.61" height="9.6"/><rect class="c10dd02f-a4eb-4565-a208-7a68aaa40901" x="229.69" y="160.3" width="10.61" height="9.6"/><rect class="c10dd02f-a4eb-4565-a208-7a68aaa40901" x="176.63" y="160.3" width="10.61" height="9.6"/><rect class="c10dd02f-a4eb-4565-a208-7a68aaa40901" x="176.63" y="160.3" width="10.61" height="9.6"/><rect class="c10dd02f-a4eb-4565-a208-7a68aaa40901" x="187.24" y="160.3" width="10.61" height="9.6"/><rect class="c10dd02f-a4eb-4565-a208-7a68aaa40901" x="187.24" y="160.3" width="10.61" height="9.6"/><rect class="c10dd02f-a4eb-4565-a208-7a68aaa40901" x="134.18" y="169.9" width="10.61" height="9.6"/><rect class="c10dd02f-a4eb-4565-a208-7a68aaa40901" x="134.18" y="169.9" width="10.61" height="9.6"/><rect class="c10dd02f-a4eb-4565-a208-7a68aaa40901" x="144.79" y="169.9" width="10.61" height="9.6"/><rect class="c10dd02f-a4eb-4565-a208-7a68aaa40901" x="144.79" y="169.9" width="10.61" height="9.6"/><rect class="c10dd02f-a4eb-4565-a208-7a68aaa40901" x="155.41" y="169.9" width="10.61" height="9.6"/><rect class="c10dd02f-a4eb-4565-a208-7a68aaa40901" x="155.41" y="169.9" width="10.61" height="9.6"/><rect class="c10dd02f-a4eb-4565-a208-7a68aaa40901" x="166.02" y="169.9" width="10.61" height="9.6"/><rect class="c10dd02f-a4eb-4565-a208-7a68aaa40901" x="166.02" y="169.9" width="10.61" height="9.6"/><rect class="c10dd02f-a4eb-4565-a208-7a68aaa40901" x="197.86" y="169.9" width="10.61" height="9.6"/><rect class="c10dd02f-a4eb-4565-a208-7a68aaa40901" x="197.86" y="169.9" width="10.61" height="9.6"/><rect class="c10dd02f-a4eb-4565-a208-7a68aaa40901" x="208.47" y="169.9" width="10.61" height="9.6"/><rect class="c10dd02f-a4eb-4565-a208-7a68aaa40901" x="208.47" y="169.9" width="10.61" height="9.6"/><rect class="c10dd02f-a4eb-4565-a208-7a68aaa40901" x="229.69" y="169.9" width="10.61" height="9.6"/><rect class="c10dd02f-a4eb-4565-a208-7a68aaa40901" x="229.69" y="169.9" width="10.61" height="9.6"/><rect class="c10dd02f-a4eb-4565-a208-7a68aaa40901" x="176.63" y="169.9" width="10.61" height="9.6"/><rect class="c10dd02f-a4eb-4565-a208-7a68aaa40901" x="176.63" y="169.9" width="10.61" height="9.6"/><rect class="c10dd02f-a4eb-4565-a208-7a68aaa40901" x="187.24" y="169.9" width="10.61" height="9.6"/><rect class="c10dd02f-a4eb-4565-a208-7a68aaa40901" x="187.24" y="169.9" width="10.61" height="9.6"/><rect class="c10dd02f-a4eb-4565-a208-7a68aaa40901" x="134.18" y="179.5" width="10.61" height="9.6"/><rect class="c10dd02f-a4eb-4565-a208-7a68aaa40901" x="134.18" y="179.5" width="10.61" height="9.6"/><rect class="c10dd02f-a4eb-4565-a208-7a68aaa40901" x="144.79" y="179.5" width="10.61" height="9.6"/><rect class="c10dd02f-a4eb-4565-a208-7a68aaa40901" x="144.79" y="179.5" width="10.61" height="9.6"/><rect class="c10dd02f-a4eb-4565-a208-7a68aaa40901" x="155.41" y="179.5" width="10.61" height="9.6"/><rect class="c10dd02f-a4eb-4565-a208-7a68aaa40901" x="155.41" y="179.5" width="10.61" height="9.6"/><rect class="c10dd02f-a4eb-4565-a208-7a68aaa40901" x="166.02" y="179.5" width="10.61" height="9.6"/><rect class="c10dd02f-a4eb-4565-a208-7a68aaa40901" x="166.02" y="179.5" width="10.61" height="9.6"/><rect class="c10dd02f-a4eb-4565-a208-7a68aaa40901" x="197.86" y="179.5" width="10.61" height="9.6"/><rect class="c10dd02f-a4eb-4565-a208-7a68aaa40901" x="197.86" y="179.5" width="10.61" height="9.6"/><rect class="c10dd02f-a4eb-4565-a208-7a68aaa40901" x="208.47" y="179.5" width="10.61" height="9.6"/><rect class="c10dd02f-a4eb-4565-a208-7a68aaa40901" x="208.47" y="179.5" width="10.61" height="9.6"/><rect class="c10dd02f-a4eb-4565-a208-7a68aaa40901" x="229.69" y="179.5" width="10.61" height="9.6"/><rect class="c10dd02f-a4eb-4565-a208-7a68aaa40901" x="229.69" y="179.5" width="10.61" height="9.6"/><rect class="c10dd02f-a4eb-4565-a208-7a68aaa40901" x="176.63" y="179.5" width="10.61" height="9.6"/><rect class="c10dd02f-a4eb-4565-a208-7a68aaa40901" x="176.63" y="179.5" width="10.61" height="9.6"/><rect class="c10dd02f-a4eb-4565-a208-7a68aaa40901" x="187.24" y="179.5" width="10.61" height="9.6"/><rect class="c10dd02f-a4eb-4565-a208-7a68aaa40901" x="187.24" y="179.5" width="10.61" height="9.6"/><rect class="c10dd02f-a4eb-4565-a208-7a68aaa40901" x="134.18" y="189.1" width="10.61" height="9.6"/><rect class="c10dd02f-a4eb-4565-a208-7a68aaa40901" x="134.18" y="189.1" width="10.61" height="9.6"/><rect class="c10dd02f-a4eb-4565-a208-7a68aaa40901" x="144.79" y="189.1" width="10.61" height="9.6"/><rect class="c10dd02f-a4eb-4565-a208-7a68aaa40901" x="144.79" y="189.1" width="10.61" height="9.6"/><rect class="c10dd02f-a4eb-4565-a208-7a68aaa40901" x="155.41" y="189.1" width="10.61" height="9.6"/><rect class="c10dd02f-a4eb-4565-a208-7a68aaa40901" x="155.41" y="189.1" width="10.61" height="9.6"/><rect class="c10dd02f-a4eb-4565-a208-7a68aaa40901" x="166.02" y="189.1" width="10.61" height="9.6"/><rect class="c10dd02f-a4eb-4565-a208-7a68aaa40901" x="166.02" y="189.1" width="10.61" height="9.6"/><rect class="c10dd02f-a4eb-4565-a208-7a68aaa40901" x="197.86" y="189.1" width="10.61" height="9.6"/><rect class="c10dd02f-a4eb-4565-a208-7a68aaa40901" x="197.86" y="189.1" width="10.61" height="9.6"/><rect class="c10dd02f-a4eb-4565-a208-7a68aaa40901" x="208.47" y="189.1" width="10.61" height="9.6"/><rect class="c10dd02f-a4eb-4565-a208-7a68aaa40901" x="208.47" y="189.1" width="10.61" height="9.6"/><rect class="c10dd02f-a4eb-4565-a208-7a68aaa40901" x="229.69" y="189.1" width="10.61" height="9.6"/><rect class="c10dd02f-a4eb-4565-a208-7a68aaa40901" x="229.69" y="189.1" width="10.61" height="9.6"/><rect class="c10dd02f-a4eb-4565-a208-7a68aaa40901" x="176.63" y="189.1" width="10.61" height="9.6"/><rect class="c10dd02f-a4eb-4565-a208-7a68aaa40901" x="176.63" y="189.1" width="10.61" height="9.6"/><rect class="c10dd02f-a4eb-4565-a208-7a68aaa40901" x="187.24" y="189.1" width="10.61" height="9.6"/><rect class="c10dd02f-a4eb-4565-a208-7a68aaa40901" x="187.24" y="189.1" width="10.61" height="9.6"/><rect class="c10dd02f-a4eb-4565-a208-7a68aaa40901" x="134.18" y="198.7" width="10.61" height="9.6"/><rect class="c10dd02f-a4eb-4565-a208-7a68aaa40901" x="134.18" y="198.7" width="10.61" height="9.6"/><rect class="c10dd02f-a4eb-4565-a208-7a68aaa40901" x="144.79" y="198.7" width="10.61" height="9.6"/><rect class="c10dd02f-a4eb-4565-a208-7a68aaa40901" x="144.79" y="198.7" width="10.61" height="9.6"/><rect class="c10dd02f-a4eb-4565-a208-7a68aaa40901" x="155.41" y="198.7" width="10.61" height="9.6"/><rect class="c10dd02f-a4eb-4565-a208-7a68aaa40901" x="155.41" y="198.7" width="10.61" height="9.6"/><rect class="c10dd02f-a4eb-4565-a208-7a68aaa40901" x="166.02" y="198.7" width="10.61" height="9.6"/><rect class="c10dd02f-a4eb-4565-a208-7a68aaa40901" x="166.02" y="198.7" width="10.61" height="9.6"/><rect class="c10dd02f-a4eb-4565-a208-7a68aaa40901" x="197.86" y="198.7" width="10.61" height="9.6"/><rect class="c10dd02f-a4eb-4565-a208-7a68aaa40901" x="197.86" y="198.7" width="10.61" height="9.6"/><rect class="c10dd02f-a4eb-4565-a208-7a68aaa40901" x="208.47" y="198.7" width="10.61" height="9.6"/><rect class="c10dd02f-a4eb-4565-a208-7a68aaa40901" x="208.47" y="198.7" width="10.61" height="9.6"/><rect class="c10dd02f-a4eb-4565-a208-7a68aaa40901" x="229.69" y="198.7" width="10.61" height="9.6"/><rect class="c10dd02f-a4eb-4565-a208-7a68aaa40901" x="229.69" y="198.7" width="10.61" height="9.6"/><rect class="c10dd02f-a4eb-4565-a208-7a68aaa40901" x="176.63" y="198.7" width="10.61" height="9.6"/><rect class="c10dd02f-a4eb-4565-a208-7a68aaa40901" x="176.63" y="198.7" width="10.61" height="9.6"/><rect class="c10dd02f-a4eb-4565-a208-7a68aaa40901" x="187.24" y="198.7" width="10.61" height="9.6"/><rect class="c10dd02f-a4eb-4565-a208-7a68aaa40901" x="187.24" y="198.7" width="10.61" height="9.6"/><rect class="c10dd02f-a4eb-4565-a208-7a68aaa40901" x="134.18" y="208.3" width="10.61" height="9.6"/><rect class="c10dd02f-a4eb-4565-a208-7a68aaa40901" x="134.18" y="208.3" width="10.61" height="9.6"/><rect class="c10dd02f-a4eb-4565-a208-7a68aaa40901" x="144.79" y="208.3" width="10.61" height="9.6"/><rect class="c10dd02f-a4eb-4565-a208-7a68aaa40901" x="144.79" y="208.3" width="10.61" height="9.6"/><rect class="c10dd02f-a4eb-4565-a208-7a68aaa40901" x="155.41" y="208.3" width="10.61" height="9.6"/><rect class="c10dd02f-a4eb-4565-a208-7a68aaa40901" x="155.41" y="208.3" width="10.61" height="9.6"/><rect class="c10dd02f-a4eb-4565-a208-7a68aaa40901" x="166.02" y="208.3" width="10.61" height="9.6"/><rect class="c10dd02f-a4eb-4565-a208-7a68aaa40901" x="166.02" y="208.3" width="10.61" height="9.6"/><rect class="c10dd02f-a4eb-4565-a208-7a68aaa40901" x="197.86" y="208.3" width="10.61" height="9.6"/><rect class="c10dd02f-a4eb-4565-a208-7a68aaa40901" x="197.86" y="208.3" width="10.61" height="9.6"/><rect class="c10dd02f-a4eb-4565-a208-7a68aaa40901" x="208.47" y="208.3" width="10.61" height="9.6"/><rect class="c10dd02f-a4eb-4565-a208-7a68aaa40901" x="208.47" y="208.3" width="10.61" height="9.6"/><rect class="c10dd02f-a4eb-4565-a208-7a68aaa40901" x="229.69" y="208.3" width="10.61" height="9.6"/><rect class="c10dd02f-a4eb-4565-a208-7a68aaa40901" x="229.69" y="208.3" width="10.61" height="9.6"/><rect class="c10dd02f-a4eb-4565-a208-7a68aaa40901" x="176.63" y="208.3" width="10.61" height="9.6"/><rect class="c10dd02f-a4eb-4565-a208-7a68aaa40901" x="176.63" y="208.3" width="10.61" height="9.6"/><rect class="c10dd02f-a4eb-4565-a208-7a68aaa40901" x="187.24" y="208.3" width="10.61" height="9.6"/><rect class="c10dd02f-a4eb-4565-a208-7a68aaa40901" x="187.24" y="208.3" width="10.61" height="9.6"/><rect class="c10dd02f-a4eb-4565-a208-7a68aaa40901" x="134.18" y="217.9" width="10.61" height="9.6"/><rect class="c10dd02f-a4eb-4565-a208-7a68aaa40901" x="134.18" y="217.9" width="10.61" height="9.6"/><rect class="c10dd02f-a4eb-4565-a208-7a68aaa40901" x="144.79" y="217.9" width="10.61" height="9.6"/><rect class="c10dd02f-a4eb-4565-a208-7a68aaa40901" x="144.79" y="217.9" width="10.61" height="9.6"/><rect class="c10dd02f-a4eb-4565-a208-7a68aaa40901" x="155.41" y="217.9" width="10.61" height="9.6"/><rect class="c10dd02f-a4eb-4565-a208-7a68aaa40901" x="155.41" y="217.9" width="10.61" height="9.6"/><rect class="c10dd02f-a4eb-4565-a208-7a68aaa40901" x="166.02" y="217.9" width="10.61" height="9.6"/><rect class="c10dd02f-a4eb-4565-a208-7a68aaa40901" x="166.02" y="217.9" width="10.61" height="9.6"/><rect class="c10dd02f-a4eb-4565-a208-7a68aaa40901" x="197.86" y="217.9" width="10.61" height="9.6"/><rect class="c10dd02f-a4eb-4565-a208-7a68aaa40901" x="197.86" y="217.9" width="10.61" height="9.6"/><rect class="c10dd02f-a4eb-4565-a208-7a68aaa40901" x="208.47" y="217.9" width="10.61" height="9.6"/><rect class="c10dd02f-a4eb-4565-a208-7a68aaa40901" x="208.47" y="217.9" width="10.61" height="9.6"/><rect class="c10dd02f-a4eb-4565-a208-7a68aaa40901" x="229.69" y="217.9" width="10.61" height="9.6"/><rect class="c10dd02f-a4eb-4565-a208-7a68aaa40901" x="229.69" y="217.9" width="10.61" height="9.6"/><rect class="c10dd02f-a4eb-4565-a208-7a68aaa40901" x="176.63" y="217.9" width="10.61" height="9.6"/><rect class="c10dd02f-a4eb-4565-a208-7a68aaa40901" x="176.63" y="217.9" width="10.61" height="9.6"/><rect class="c10dd02f-a4eb-4565-a208-7a68aaa40901" x="187.24" y="217.9" width="10.61" height="9.6"/><rect class="c10dd02f-a4eb-4565-a208-7a68aaa40901" x="187.24" y="217.9" width="10.61" height="9.6"/><rect class="c10dd02f-a4eb-4565-a208-7a68aaa40901" x="134.18" y="227.5" width="10.61" height="9.6"/><rect class="c10dd02f-a4eb-4565-a208-7a68aaa40901" x="134.18" y="227.5" width="10.61" height="9.6"/><rect class="c10dd02f-a4eb-4565-a208-7a68aaa40901" x="144.79" y="227.5" width="10.61" height="9.6"/><rect class="c10dd02f-a4eb-4565-a208-7a68aaa40901" x="144.79" y="227.5" width="10.61" height="9.6"/><rect class="c10dd02f-a4eb-4565-a208-7a68aaa40901" x="155.41" y="227.5" width="10.61" height="9.6"/><rect class="c10dd02f-a4eb-4565-a208-7a68aaa40901" x="155.41" y="227.5" width="10.61" height="9.6"/><rect class="c10dd02f-a4eb-4565-a208-7a68aaa40901" x="166.02" y="227.5" width="10.61" height="9.6"/><rect class="c10dd02f-a4eb-4565-a208-7a68aaa40901" x="166.02" y="227.5" width="10.61" height="9.6"/><rect class="c10dd02f-a4eb-4565-a208-7a68aaa40901" x="197.86" y="227.5" width="10.61" height="9.6"/><rect class="c10dd02f-a4eb-4565-a208-7a68aaa40901" x="197.86" y="227.5" width="10.61" height="9.6"/><rect class="c10dd02f-a4eb-4565-a208-7a68aaa40901" x="208.47" y="227.5" width="10.61" height="9.6"/><rect class="c10dd02f-a4eb-4565-a208-7a68aaa40901" x="208.47" y="227.5" width="10.61" height="9.6"/><rect class="c10dd02f-a4eb-4565-a208-7a68aaa40901" x="229.69" y="227.5" width="10.61" height="9.6"/><rect class="c10dd02f-a4eb-4565-a208-7a68aaa40901" x="229.69" y="227.5" width="10.61" height="9.6"/><rect class="1bc57f75-3ffe-4439-8b24-c9765f67f9de" x="219.08" y="141.1" width="10.61" height="9.6"/><rect class="1bc57f75-3ffe-4439-8b24-c9765f67f9de" x="219.08" y="141.1" width="10.61" height="9.6"/><rect class="c10dd02f-a4eb-4565-a208-7a68aaa40901" x="219.08" y="150.7" width="10.61" height="9.6"/><rect class="c10dd02f-a4eb-4565-a208-7a68aaa40901" x="219.08" y="150.7" width="10.61" height="9.6"/><rect class="c10dd02f-a4eb-4565-a208-7a68aaa40901" x="219.08" y="160.3" width="10.61" height="9.6"/><rect class="c10dd02f-a4eb-4565-a208-7a68aaa40901" x="219.08" y="160.3" width="10.61" height="9.6"/><rect class="c10dd02f-a4eb-4565-a208-7a68aaa40901" x="219.08" y="169.9" width="10.61" height="9.6"/><rect class="c10dd02f-a4eb-4565-a208-7a68aaa40901" x="219.08" y="169.9" width="10.61" height="9.6"/><rect class="c10dd02f-a4eb-4565-a208-7a68aaa40901" x="219.08" y="179.5" width="10.61" height="9.6"/><rect class="c10dd02f-a4eb-4565-a208-7a68aaa40901" x="219.08" y="179.5" width="10.61" height="9.6"/><rect class="c10dd02f-a4eb-4565-a208-7a68aaa40901" x="219.08" y="189.1" width="10.61" height="9.6"/><rect class="c10dd02f-a4eb-4565-a208-7a68aaa40901" x="219.08" y="189.1" width="10.61" height="9.6"/><rect class="c10dd02f-a4eb-4565-a208-7a68aaa40901" x="219.08" y="198.7" width="10.61" height="9.6"/><rect class="c10dd02f-a4eb-4565-a208-7a68aaa40901" x="219.08" y="198.7" width="10.61" height="9.6"/><rect class="c10dd02f-a4eb-4565-a208-7a68aaa40901" x="219.08" y="208.3" width="10.61" height="9.6"/><rect class="c10dd02f-a4eb-4565-a208-7a68aaa40901" x="219.08" y="208.3" width="10.61" height="9.6"/><rect class="c10dd02f-a4eb-4565-a208-7a68aaa40901" x="219.08" y="217.9" width="10.61" height="9.6"/><rect class="c10dd02f-a4eb-4565-a208-7a68aaa40901" x="219.08" y="217.9" width="10.61" height="9.6"/><rect class="c10dd02f-a4eb-4565-a208-7a68aaa40901" x="219.08" y="227.5" width="10.61" height="9.6"/><rect class="c10dd02f-a4eb-4565-a208-7a68aaa40901" x="219.08" y="227.5" width="10.61" height="9.6"/><rect class="c10dd02f-a4eb-4565-a208-7a68aaa40901" x="176.63" y="227.5" width="10.61" height="9.6"/><rect class="c10dd02f-a4eb-4565-a208-7a68aaa40901" x="176.63" y="227.5" width="10.61" height="9.6"/><rect class="c10dd02f-a4eb-4565-a208-7a68aaa40901" x="187.24" y="227.5" width="10.61" height="9.6"/><rect class="c10dd02f-a4eb-4565-a208-7a68aaa40901" x="187.24" y="227.5" width="10.61" height="9.6"/><polygon class="f39993b5-707d-4d42-b0c8-7aed182b38a6" points="239.4 140.13 134.41 140.27 186.83 91.8 239.4 140.13"/></svg>