<svg id="9eb73010-eecc-47ac-8c69-6c23ad90b9f0" data-name="Capa 1" xmlns="http://www.w3.org/2000/svg" viewBox="0 0 254.05 104.12"><defs><style>.c82f176f-8504-4fa2-a637-0b93512d783f{font-size:21px;}.\32 3a9496c-8c0c-48d3-bdfe-583e3daf0b3b,.c82f176f-8504-4fa2-a637-0b93512d783f{font-family:Myriad Pro;}.be606cfc-3e3e-4b34-8870-224a82e8dd6d{fill:#931c0a;}.f35bb6fd-cbb1-4a85-8e25-023aae56fe05{fill:#7a3f1a;}.c2862573-e202-482b-b904-fe9aa2a13a0f{fill:#ff9231;}.\38 d4d7647-8454-4910-a075-68c7e802db2d{fill:#ff6c49;}.\39 c3a804d-4bf1-4c53-93f0-86d0b3edd843{fill:#9fa09f;}.a99fcbb9-2a4e-48fb-8467-fc450d1215a7{fill:#000300;}.\32 3a9496c-8c0c-48d3-bdfe-583e3daf0b3b{font-size:11.38px;}.b4c366be-b2cb-4252-b2a4-695247fe3307{white-space:pre;}</style></defs><title>material de viviendapls</title><text class="c82f176f-8504-4fa2-a637-0b93512d783f" transform="translate(36.02 17.58)">M<tspan x="17.01" y="0">a</tspan><tspan x="27.05" y="0">t</tspan><tspan x="33.87" y="0">e</tspan><tspan x="44.39" y="0">r</tspan><tspan x="51.34" y="0">ial de</tspan><tspan x="98.15" y="0"> </tspan><tspan x="101.85" y="0">V</tspan><tspan x="113.23" y="0">ivienda</tspan></text><rect class="be606cfc-3e3e-4b34-8870-224a82e8dd6d" x="6.28" y="27.05" width="19.91" height="19.91"/><rect class="f35bb6fd-cbb1-4a85-8e25-023aae56fe05" x="6.27" y="55.6" width="19.91" height="19.91"/><rect class="c2862573-e202-482b-b904-fe9aa2a13a0f" x="6.25" y="84.14" width="19.91" height="19.91"/><rect class="8d4d7647-8454-4910-a075-68c7e802db2d" x="132.99" y="27.05" width="19.91" height="19.91"/><rect class="9c3a804d-4bf1-4c53-93f0-86d0b3edd843" x="133" y="55.6" width="19.91" height="19.91"/><rect class="a99fcbb9-2a4e-48fb-8467-fc450d1215a7" x="133" y="84.2" width="19.91" height="19.91"/><text class="23a9496c-8c0c-48d3-bdfe-583e3daf0b3b" transform="translate(32.47 42.82)">A<tspan x="6.83" y="0">dobe </tspan></text><text class="23a9496c-8c0c-48d3-bdfe-583e3daf0b3b" transform="translate(32.47 70.17)">T<tspan x="4.93" y="0">abique sin </tspan><tspan x="56.24" y="0">f</tspan><tspan x="59.41" y="0">o</tspan><tspan x="65.66" y="0">r</tspan><tspan x="69.43" y="0">r</tspan><tspan x="73.03" y="0">o </tspan></text><text class="23a9496c-8c0c-48d3-bdfe-583e3daf0b3b" transform="translate(32.47 98.42)">T<tspan x="4.93" y="0">abique </tspan><tspan x="40.34" y="0">c</tspan><tspan x="45.37" y="0">on </tspan><tspan x="60.35" y="0">f</tspan><tspan x="63.52" y="0">o</tspan><tspan x="69.77" y="0">r</tspan><tspan x="73.54" y="0">r</tspan><tspan x="77.14" y="0">o</tspan></text><text class="23a9496c-8c0c-48d3-bdfe-583e3daf0b3b" transform="translate(159.24 44.6)">Lad<tspan x="17.27" y="0">r</tspan><tspan x="21.04" y="0">illos </tspan></text><text class="23a9496c-8c0c-48d3-bdfe-583e3daf0b3b" transform="translate(159.24 70.17)">Ho<tspan x="13.67" y="0">r</tspan><tspan class="b4c366be-b2cb-4252-b2a4-695247fe3307" x="17.43" y="0">migón  </tspan></text><text class="23a9496c-8c0c-48d3-bdfe-583e3daf0b3b" transform="translate(159.23 98.42)">M<tspan x="9.22" y="0">a</tspan><tspan x="14.66" y="0">t</tspan><tspan x="18.36" y="0">e</tspan><tspan x="24.06" y="0">r</tspan><tspan x="27.82" y="0">iales p</tspan><tspan x="57.75" y="0">r</tspan><tspan x="61.36" y="0">eca</tspan><tspan x="77.64" y="0">r</tspan><tspan x="81.41" y="0">ios</tspan></text></svg>